<svg version="1.1" id="Layer_1" xmlns="http://www.w3.org/2000/svg" xmlns:xlink="http://www.w3.org/1999/xlink" x="0px" y="0px"
	 width="100%" viewBox="0 0 2048 1536" enable-background="new 0 0 2048 1536" xml:space="preserve">
<path fill="#000000" opacity="1.000000" stroke="none" 
	d="
M1246.000000,1537.000000 
	C830.666687,1537.000000 415.833344,1537.000000 1.000000,1537.000000 
	C1.000000,1025.000000 1.000000,513.000000 1.000000,1.000000 
	C683.666687,1.000000 1366.333374,1.000000 2049.000000,1.000000 
	C2049.000000,513.000000 2049.000000,1025.000000 2049.000000,1537.000000 
	C1781.500000,1537.000000 1514.000000,1537.000000 1246.000000,1537.000000 
M1779.230835,210.717209 
	C1779.158691,210.190201 1779.086548,209.663193 1778.076660,209.084061 
	C1746.446167,209.059586 1714.815552,209.083115 1683.185547,208.952728 
	C1679.010620,208.935532 1676.575439,210.244461 1674.749878,214.250244 
	C1662.182861,241.827850 1649.343140,269.281036 1636.628174,296.791290 
	C1626.568115,318.557556 1616.553833,340.345032 1606.530884,362.128448 
	C1591.566772,394.650970 1576.624023,427.183411 1561.650513,459.701691 
	C1551.273193,482.238770 1540.833374,504.747131 1530.467896,527.289734 
	C1515.999023,558.756775 1501.594849,590.253540 1487.122070,621.718811 
	C1476.614746,644.562866 1466.019409,667.366455 1455.502197,690.206055 
	C1440.597778,722.572815 1425.743774,754.962708 1410.840576,787.330078 
	C1400.393799,810.018555 1389.871216,832.672180 1379.436279,855.366150 
	C1365.036865,886.681885 1350.718018,918.034607 1336.309082,949.345886 
	C1323.778687,976.574707 1311.145874,1003.756287 1298.604858,1030.980225 
	C1283.765503,1063.193481 1268.970825,1095.427368 1254.167480,1127.657227 
	C1245.271851,1147.025146 1236.420654,1166.413452 1227.504028,1185.771729 
	C1220.746338,1200.442993 1213.838867,1215.045898 1207.172363,1229.758057 
	C1205.409180,1233.649414 1202.838501,1235.197632 1198.613403,1235.051270 
	C1191.955200,1234.820557 1185.282715,1235.000977 1178.616333,1234.999146 
	C1161.616943,1234.994141 1144.617188,1235.034546 1127.618164,1234.946045 
	C1122.583252,1234.919800 1121.918335,1233.916260 1123.802979,1229.247803 
	C1125.483643,1225.084229 1127.542725,1221.074097 1129.416382,1216.987793 
	C1145.656494,1181.569946 1161.855347,1146.133179 1178.141602,1110.736572 
	C1190.809326,1083.204468 1203.633301,1055.744263 1216.299683,1028.211548 
	C1234.463013,988.729797 1252.504761,949.192078 1270.676270,909.714050 
	C1285.437012,877.645874 1300.363892,845.654236 1315.123535,813.585632 
	C1335.312866,769.720398 1355.383789,725.800415 1375.563110,681.930603 
	C1390.037231,650.463928 1404.648682,619.060547 1419.122803,587.593811 
	C1439.302246,543.723938 1459.370605,499.802979 1479.562256,455.938751 
	C1494.323608,423.871002 1509.264404,391.885834 1524.023071,359.816772 
	C1546.229614,311.563904 1568.341797,263.267487 1590.509033,214.996490 
	C1592.855225,209.887680 1592.494629,209.046707 1587.091919,209.038559 
	C1556.426270,208.992249 1525.760620,209.047531 1495.095093,208.992645 
	C1491.678833,208.986542 1489.629272,210.238937 1488.162109,213.438721 
	C1477.056763,237.657654 1465.769775,261.793182 1454.604614,285.984863 
	C1439.463135,318.792358 1424.384521,351.628906 1409.269409,384.448639 
	C1399.029663,406.682465 1388.755737,428.900574 1378.529175,451.140442 
	C1363.850952,483.061249 1349.217407,515.002502 1334.535278,546.921509 
	C1324.236328,569.311401 1313.874390,591.672363 1303.564819,614.057251 
	C1288.518921,646.725586 1273.502686,679.407532 1258.458740,712.076660 
	C1248.150269,734.462219 1237.791382,756.824524 1227.497803,779.216919 
	C1211.084595,814.921631 1194.733521,850.654907 1178.305908,886.353088 
	C1165.775757,913.582031 1153.140869,940.762756 1140.601685,967.987427 
	C1123.813843,1004.436462 1107.081055,1040.911011 1090.309448,1077.367310 
	C1080.009277,1099.756714 1069.672119,1122.129150 1059.366333,1144.515991 
	C1046.415161,1172.649048 1033.423706,1200.763794 1020.595032,1228.952759 
	C1018.614319,1233.305054 1015.921875,1235.128784 1011.024353,1235.085815 
	C987.693481,1234.881226 964.359924,1235.010864 941.027344,1234.967529 
	C939.158997,1234.963989 937.291443,1234.550293 934.507874,1234.217896 
	C938.455505,1225.528931 941.979553,1217.671509 945.586487,1209.852417 
	C956.189026,1186.868896 966.865784,1163.919434 977.437439,1140.921631 
	C993.711243,1105.519165 1009.884583,1070.070679 1026.170776,1034.674072 
	C1038.838501,1007.141907 1051.660645,979.680847 1064.328979,952.148987 
	C1082.564819,912.517212 1100.685425,872.832397 1118.926758,833.203125 
	C1133.618042,801.286438 1148.473022,769.445068 1163.152222,737.522827 
	C1186.944092,685.783875 1210.634766,633.998352 1234.400146,582.247192 
	C1251.564209,544.870850 1268.776489,507.516785 1285.974121,470.155914 
	C1307.419067,423.567841 1328.864868,376.980133 1350.321411,330.397400 
	C1368.016357,291.981812 1385.730957,253.575348 1403.427124,215.160431 
	C1405.901367,209.789337 1405.506348,209.038208 1399.773560,209.030533 
	C1369.441162,208.989899 1339.108643,209.062729 1308.776611,208.955322 
	C1304.712158,208.940933 1302.491821,210.436157 1300.802002,214.174240 
	C1291.130737,235.567841 1281.232544,256.859039 1271.392334,278.176208 
	C1256.876099,309.623444 1242.293335,341.040192 1227.830444,372.511963 
	C1208.014404,415.632416 1188.322510,458.809845 1168.504639,501.929413 
	C1154.040283,533.400513 1139.413208,564.796814 1124.939331,596.263550 
	C1104.760254,640.133667 1084.688843,684.053223 1064.509766,727.923279 
	C1050.035889,759.390015 1035.401978,790.783142 1020.945007,822.257629 
	C997.453613,873.401550 974.092041,924.605103 950.592285,975.745239 
	C934.114075,1011.605286 917.450989,1047.380493 900.954285,1083.232178 
	C880.769165,1127.099487 860.700439,1171.020386 840.526978,1214.893066 
	C824.387756,1249.992554 808.152466,1285.047852 791.994080,1320.138428 
	C788.243408,1328.283813 788.739685,1328.994873 797.784302,1328.995728 
	C867.782166,1329.002197 937.780029,1329.000122 1007.777893,1328.999878 
	C1090.942017,1328.999634 1174.106323,1328.941162 1257.270142,1329.120239 
	C1263.179199,1329.132935 1266.394897,1327.137695 1268.674194,1321.823120 
	C1273.660645,1310.195923 1279.079834,1298.753296 1284.372314,1287.258423 
	C1294.748901,1264.720947 1305.185059,1242.210815 1315.550293,1219.668213 
	C1330.019043,1188.201050 1344.428345,1156.706665 1358.895386,1125.238770 
	C1371.067749,1098.761719 1383.303223,1072.313843 1395.479736,1045.838745 
	C1410.160278,1013.919067 1424.792725,981.977234 1439.475098,950.058411 
	C1449.774170,927.668579 1460.151001,905.314514 1470.441162,882.920532 
	C1484.832520,851.601135 1499.147095,820.246277 1513.548462,788.931396 
	C1524.124023,765.935547 1534.824097,742.996887 1545.401001,720.001587 
	C1561.822144,684.300354 1578.165283,648.563293 1594.580322,612.859375 
	C1606.822754,586.231445 1619.152100,559.643433 1631.397339,533.016846 
	C1647.885742,497.163300 1664.319092,461.284485 1680.798828,425.427002 
	C1691.020996,403.185028 1701.304443,380.971344 1711.526245,358.729248 
	C1726.058472,327.107910 1740.582031,295.482544 1755.064087,263.838287 
	C1763.100464,246.278687 1771.045166,228.677185 1779.230835,210.717209 
M469.500000,305.000000 
	C477.953766,305.003662 486.411041,305.153564 494.859772,304.949127 
	C499.068909,304.847290 501.450134,306.318024 503.266724,310.293732 
	C519.460449,345.734253 535.873169,381.074707 552.203796,416.452759 
	C564.277283,442.608337 576.331360,468.772919 588.381958,494.939056 
	C603.496887,527.758972 618.594055,560.587097 633.709412,593.406860 
	C643.949280,615.640686 654.232544,637.854553 664.450806,660.098328 
	C678.838989,691.419312 693.156677,722.772705 707.558167,754.087646 
	C718.133850,777.083557 728.816467,800.030273 739.414001,823.016235 
	C754.542419,855.829895 769.652771,888.651917 784.739319,921.484863 
	C793.359924,940.246094 801.901489,959.043701 810.509033,977.810913 
	C818.492432,995.217224 826.474609,1012.624390 834.590149,1029.968994 
	C835.356384,1031.606689 837.072571,1032.799927 838.347717,1034.199585 
	C839.410706,1032.831299 840.770874,1031.602661 841.490540,1030.072754 
	C848.366028,1015.456421 855.174133,1000.807861 861.921204,986.131592 
	C870.545410,967.372131 879.207397,948.627930 887.536072,929.737305 
	C888.584106,927.360413 888.646606,923.711609 887.585449,921.367432 
	C871.105042,884.961670 854.390808,848.661560 837.673767,812.363220 
	C825.065613,784.986877 812.331787,757.668457 799.734619,730.287109 
	C781.501038,690.654175 763.373352,650.972595 745.137268,611.340820 
	C732.399109,583.657532 719.505737,556.045776 706.770447,528.361145 
	C688.608032,488.878754 670.560669,449.343414 652.400574,409.859955 
	C637.927429,378.392731 623.345032,346.975739 608.855164,315.516174 
	C607.442444,312.449005 606.339294,309.239288 605.015076,305.900604 
	C606.403870,305.484406 607.026672,305.135315 607.650024,305.134369 
	C633.147827,305.095093 658.646423,305.013153 684.142212,305.234863 
	C685.919006,305.250275 688.430298,307.155487 689.312622,308.851624 
	C693.306458,316.529358 696.907166,324.415833 700.523132,332.285156 
	C714.845093,363.453369 729.083862,394.659790 743.422546,425.820282 
	C756.021790,453.200745 768.749207,480.522186 781.354675,507.899780 
	C797.928955,543.897217 814.417542,579.934143 830.984009,615.935059 
	C843.374695,642.861511 855.869812,669.739929 868.248413,696.671875 
	C888.275818,740.244995 908.237732,783.848267 928.270325,827.419006 
	C929.038330,829.089355 930.253418,830.554199 931.799988,832.951721 
	C933.257751,830.230408 934.268127,828.560303 935.079224,826.798462 
	C949.910217,794.581238 964.583313,762.290161 979.658020,730.187561 
	C982.247253,724.673706 982.279602,720.369751 979.617249,714.836182 
	C969.294800,693.381470 959.537537,671.654602 949.599182,650.015503 
	C933.198242,614.304993 916.835510,578.576843 900.426514,542.869934 
	C890.135559,520.476257 879.766724,498.118378 869.473328,475.725830 
	C855.007874,444.257111 840.601562,412.761200 826.128845,381.295807 
	C815.621460,358.451691 805.021423,335.650177 794.509583,312.808044 
	C779.821838,280.891541 764.987976,249.039551 750.674561,216.955688 
	C747.795715,210.502548 744.007446,208.863419 737.367920,208.870728 
	C584.872253,209.038727 432.376312,209.000183 279.880463,209.001221 
	C278.380554,209.001236 276.879578,209.056702 275.380951,209.016724 
	C271.465637,208.912247 270.227600,210.237411 272.030273,214.138855 
	C289.421387,251.777603 306.718872,289.459595 324.054199,327.124146 
	C334.149292,349.057770 344.277313,370.976318 354.367798,392.912079 
	C369.189667,425.133545 383.982574,457.368347 398.804535,489.589752 
	C409.034332,511.828278 419.311584,534.044983 429.533203,556.287292 
	C443.995514,587.757446 458.404633,619.252136 472.877380,650.717468 
	C483.384766,673.561646 493.993378,696.359192 504.494019,719.206421 
	C518.818420,750.373413 533.055359,781.580750 547.382080,812.746704 
	C559.692688,839.526672 572.096741,866.263611 584.423279,893.036255 
	C599.256226,925.252625 614.042358,957.490479 628.865051,989.711548 
	C639.025818,1011.798523 649.226868,1033.866821 659.387268,1055.953857 
	C674.209656,1088.175049 689.031616,1120.396729 703.815674,1152.635498 
	C714.088074,1175.035767 724.272339,1197.476562 734.548706,1219.875000 
	C737.493286,1226.292969 740.621704,1232.626709 744.264282,1240.251953 
	C746.119934,1237.020386 747.378601,1235.160522 748.311279,1233.149414 
	C753.635559,1221.669556 758.867798,1210.146973 764.158386,1198.651367 
	C774.113708,1177.020142 784.177612,1155.438110 793.927979,1133.715088 
	C795.024658,1131.271851 795.443726,1127.578003 794.401611,1125.263672 
	C779.634521,1092.468506 764.591309,1059.797241 749.551086,1027.125488 
	C736.947632,999.747009 724.216736,972.427063 711.621704,945.044678 
	C695.339417,909.646179 679.172974,874.194275 662.886719,838.797607 
	C650.218994,811.265442 637.394958,783.805115 624.728943,756.272156 
	C606.565918,716.790161 588.525391,677.251648 570.353638,637.773621 
	C555.592651,605.705566 540.662720,573.715210 525.903015,541.646545 
	C505.713837,497.781036 485.646057,453.859619 465.466705,409.989594 
	C450.992584,378.522827 436.407562,347.107147 421.914001,315.649292 
	C420.490997,312.560699 419.362427,309.336456 418.099426,306.180725 
	C419.143280,305.655243 419.577057,305.247375 420.013458,305.244507 
	C436.175476,305.139709 452.337769,305.072388 469.500000,305.000000 
z"/>
<path fill="#231F20" opacity="1.000000" stroke="none" 
	d="
M1779.031128,211.094543 
	C1771.045166,228.677185 1763.100464,246.278687 1755.064087,263.838287 
	C1740.582031,295.482544 1726.058472,327.107910 1711.526245,358.729248 
	C1701.304443,380.971344 1691.020996,403.185028 1680.798828,425.427002 
	C1664.319092,461.284485 1647.885742,497.163300 1631.397339,533.016846 
	C1619.152100,559.643433 1606.822754,586.231445 1594.580322,612.859375 
	C1578.165283,648.563293 1561.822144,684.300354 1545.401001,720.001587 
	C1534.824097,742.996887 1524.124023,765.935547 1513.548462,788.931396 
	C1499.147095,820.246277 1484.832520,851.601135 1470.441162,882.920532 
	C1460.151001,905.314514 1449.774170,927.668579 1439.475098,950.058411 
	C1424.792725,981.977234 1410.160278,1013.919067 1395.479736,1045.838745 
	C1383.303223,1072.313843 1371.067749,1098.761719 1358.895386,1125.238770 
	C1344.428345,1156.706665 1330.019043,1188.201050 1315.550293,1219.668213 
	C1305.185059,1242.210815 1294.748901,1264.720947 1284.372314,1287.258423 
	C1279.079834,1298.753296 1273.660645,1310.195923 1268.674194,1321.823120 
	C1266.394897,1327.137695 1263.179199,1329.132935 1257.270142,1329.120239 
	C1174.106323,1328.941162 1090.942017,1328.999634 1007.777893,1328.999878 
	C937.780029,1329.000122 867.782166,1329.002197 797.784302,1328.995728 
	C788.739685,1328.994873 788.243408,1328.283813 791.994080,1320.138428 
	C808.152466,1285.047852 824.387756,1249.992554 840.526978,1214.893066 
	C860.700439,1171.020386 880.769165,1127.099487 900.954285,1083.232178 
	C917.450989,1047.380493 934.114075,1011.605286 950.592285,975.745239 
	C974.092041,924.605103 997.453613,873.401550 1020.945007,822.257629 
	C1035.401978,790.783142 1050.035889,759.390015 1064.509766,727.923279 
	C1084.688843,684.053223 1104.760254,640.133667 1124.939331,596.263550 
	C1139.413208,564.796814 1154.040283,533.400513 1168.504639,501.929413 
	C1188.322510,458.809845 1208.014404,415.632416 1227.830444,372.511963 
	C1242.293335,341.040192 1256.876099,309.623444 1271.392334,278.176208 
	C1281.232544,256.859039 1291.130737,235.567841 1300.802002,214.174240 
	C1302.491821,210.436157 1304.712158,208.940933 1308.776611,208.955322 
	C1339.108643,209.062729 1369.441162,208.989899 1399.773560,209.030533 
	C1405.506348,209.038208 1405.901367,209.789337 1403.427124,215.160431 
	C1385.730957,253.575348 1368.016357,291.981812 1350.321411,330.397400 
	C1328.864868,376.980133 1307.419067,423.567841 1285.974121,470.155914 
	C1268.776489,507.516785 1251.564209,544.870850 1234.400146,582.247192 
	C1210.634766,633.998352 1186.944092,685.783875 1163.152222,737.522827 
	C1148.473022,769.445068 1133.618042,801.286438 1118.926758,833.203125 
	C1100.685425,872.832397 1082.564819,912.517212 1064.328979,952.148987 
	C1051.660645,979.680847 1038.838501,1007.141907 1026.170776,1034.674072 
	C1009.884583,1070.070679 993.711243,1105.519165 977.437439,1140.921631 
	C966.865784,1163.919434 956.189026,1186.868896 945.586487,1209.852417 
	C941.979553,1217.671509 938.455505,1225.528931 934.507874,1234.217896 
	C937.291443,1234.550293 939.158997,1234.963989 941.027344,1234.967529 
	C964.359924,1235.010864 987.693481,1234.881226 1011.024353,1235.085815 
	C1015.921875,1235.128784 1018.614319,1233.305054 1020.595032,1228.952759 
	C1033.423706,1200.763794 1046.415161,1172.649048 1059.366333,1144.515991 
	C1069.672119,1122.129150 1080.009277,1099.756714 1090.309448,1077.367310 
	C1107.081055,1040.911011 1123.813843,1004.436462 1140.601685,967.987427 
	C1153.140869,940.762756 1165.775757,913.582031 1178.305908,886.353088 
	C1194.733521,850.654907 1211.084595,814.921631 1227.497803,779.216919 
	C1237.791382,756.824524 1248.150269,734.462219 1258.458740,712.076660 
	C1273.502686,679.407532 1288.518921,646.725586 1303.564819,614.057251 
	C1313.874390,591.672363 1324.236328,569.311401 1334.535278,546.921509 
	C1349.217407,515.002502 1363.850952,483.061249 1378.529175,451.140442 
	C1388.755737,428.900574 1399.029663,406.682465 1409.269409,384.448639 
	C1424.384521,351.628906 1439.463135,318.792358 1454.604614,285.984863 
	C1465.769775,261.793182 1477.056763,237.657654 1488.162109,213.438721 
	C1489.629272,210.238937 1491.678833,208.986542 1495.095093,208.992645 
	C1525.760620,209.047531 1556.426270,208.992249 1587.091919,209.038559 
	C1592.494629,209.046707 1592.855225,209.887680 1590.509033,214.996490 
	C1568.341797,263.267487 1546.229614,311.563904 1524.023071,359.816772 
	C1509.264404,391.885834 1494.323608,423.871002 1479.562256,455.938751 
	C1459.370605,499.802979 1439.302246,543.723938 1419.122803,587.593811 
	C1404.648682,619.060547 1390.037231,650.463928 1375.563110,681.930603 
	C1355.383789,725.800415 1335.312866,769.720398 1315.123535,813.585632 
	C1300.363892,845.654236 1285.437012,877.645874 1270.676270,909.714050 
	C1252.504761,949.192078 1234.463013,988.729797 1216.299683,1028.211548 
	C1203.633301,1055.744263 1190.809326,1083.204468 1178.141602,1110.736572 
	C1161.855347,1146.133179 1145.656494,1181.569946 1129.416382,1216.987793 
	C1127.542725,1221.074097 1125.483643,1225.084229 1123.802979,1229.247803 
	C1121.918335,1233.916260 1122.583252,1234.919800 1127.618164,1234.946045 
	C1144.617188,1235.034546 1161.616943,1234.994141 1178.616333,1234.999146 
	C1185.282715,1235.000977 1191.955200,1234.820557 1198.613403,1235.051270 
	C1202.838501,1235.197632 1205.409180,1233.649414 1207.172363,1229.758057 
	C1213.838867,1215.045898 1220.746338,1200.442993 1227.504028,1185.771729 
	C1236.420654,1166.413452 1245.271851,1147.025146 1254.167480,1127.657227 
	C1268.970825,1095.427368 1283.765503,1063.193481 1298.604858,1030.980225 
	C1311.145874,1003.756287 1323.778687,976.574707 1336.309082,949.345886 
	C1350.718018,918.034607 1365.036865,886.681885 1379.436279,855.366150 
	C1389.871216,832.672180 1400.393799,810.018555 1410.840576,787.330078 
	C1425.743774,754.962708 1440.597778,722.572815 1455.502197,690.206055 
	C1466.019409,667.366455 1476.614746,644.562866 1487.122070,621.718811 
	C1501.594849,590.253540 1515.999023,558.756775 1530.467896,527.289734 
	C1540.833374,504.747131 1551.273193,482.238770 1561.650513,459.701691 
	C1576.624023,427.183411 1591.566772,394.650970 1606.530884,362.128448 
	C1616.553833,340.345032 1626.568115,318.557556 1636.628174,296.791290 
	C1649.343140,269.281036 1662.182861,241.827850 1674.749878,214.250244 
	C1676.575439,210.244461 1679.010620,208.935532 1683.185547,208.952728 
	C1714.815552,209.083115 1746.446167,209.059586 1778.546997,209.435593 
	C1779.021973,210.222931 1779.026611,210.658737 1779.031128,211.094543 
z"/>
<path fill="#231F20" opacity="1.000000" stroke="none" 
	d="
M469.000000,305.000000 
	C452.337769,305.072388 436.175476,305.139709 420.013458,305.244507 
	C419.577057,305.247375 419.143280,305.655243 418.099426,306.180725 
	C419.362427,309.336456 420.490997,312.560699 421.914001,315.649292 
	C436.407562,347.107147 450.992584,378.522827 465.466705,409.989594 
	C485.646057,453.859619 505.713837,497.781036 525.903015,541.646545 
	C540.662720,573.715210 555.592651,605.705566 570.353638,637.773621 
	C588.525391,677.251648 606.565918,716.790161 624.728943,756.272156 
	C637.394958,783.805115 650.218994,811.265442 662.886719,838.797607 
	C679.172974,874.194275 695.339417,909.646179 711.621704,945.044678 
	C724.216736,972.427063 736.947632,999.747009 749.551086,1027.125488 
	C764.591309,1059.797241 779.634521,1092.468506 794.401611,1125.263672 
	C795.443726,1127.578003 795.024658,1131.271851 793.927979,1133.715088 
	C784.177612,1155.438110 774.113708,1177.020142 764.158386,1198.651367 
	C758.867798,1210.146973 753.635559,1221.669556 748.311279,1233.149414 
	C747.378601,1235.160522 746.119934,1237.020386 744.264282,1240.251953 
	C740.621704,1232.626709 737.493286,1226.292969 734.548706,1219.875000 
	C724.272339,1197.476562 714.088074,1175.035767 703.815674,1152.635498 
	C689.031616,1120.396729 674.209656,1088.175049 659.387268,1055.953857 
	C649.226868,1033.866821 639.025818,1011.798523 628.865051,989.711548 
	C614.042358,957.490479 599.256226,925.252625 584.423279,893.036255 
	C572.096741,866.263611 559.692688,839.526672 547.382080,812.746704 
	C533.055359,781.580750 518.818420,750.373413 504.494019,719.206421 
	C493.993378,696.359192 483.384766,673.561646 472.877380,650.717468 
	C458.404633,619.252136 443.995514,587.757446 429.533203,556.287292 
	C419.311584,534.044983 409.034332,511.828278 398.804535,489.589752 
	C383.982574,457.368347 369.189667,425.133545 354.367798,392.912079 
	C344.277313,370.976318 334.149292,349.057770 324.054199,327.124146 
	C306.718872,289.459595 289.421387,251.777603 272.030273,214.138855 
	C270.227600,210.237411 271.465637,208.912247 275.380951,209.016724 
	C276.879578,209.056702 278.380554,209.001236 279.880463,209.001221 
	C432.376312,209.000183 584.872253,209.038727 737.367920,208.870728 
	C744.007446,208.863419 747.795715,210.502548 750.674561,216.955688 
	C764.987976,249.039551 779.821838,280.891541 794.509583,312.808044 
	C805.021423,335.650177 815.621460,358.451691 826.128845,381.295807 
	C840.601562,412.761200 855.007874,444.257111 869.473328,475.725830 
	C879.766724,498.118378 890.135559,520.476257 900.426514,542.869934 
	C916.835510,578.576843 933.198242,614.304993 949.599182,650.015503 
	C959.537537,671.654602 969.294800,693.381470 979.617249,714.836182 
	C982.279602,720.369751 982.247253,724.673706 979.658020,730.187561 
	C964.583313,762.290161 949.910217,794.581238 935.079224,826.798462 
	C934.268127,828.560303 933.257751,830.230408 931.799988,832.951721 
	C930.253418,830.554199 929.038330,829.089355 928.270325,827.419006 
	C908.237732,783.848267 888.275818,740.244995 868.248413,696.671875 
	C855.869812,669.739929 843.374695,642.861511 830.984009,615.935059 
	C814.417542,579.934143 797.928955,543.897217 781.354675,507.899780 
	C768.749207,480.522186 756.021790,453.200745 743.422546,425.820282 
	C729.083862,394.659790 714.845093,363.453369 700.523132,332.285156 
	C696.907166,324.415833 693.306458,316.529358 689.312622,308.851624 
	C688.430298,307.155487 685.919006,305.250275 684.142212,305.234863 
	C658.646423,305.013153 633.147827,305.095093 607.650024,305.134369 
	C607.026672,305.135315 606.403870,305.484406 605.015076,305.900604 
	C606.339294,309.239288 607.442444,312.449005 608.855164,315.516174 
	C623.345032,346.975739 637.927429,378.392731 652.400574,409.859955 
	C670.560669,449.343414 688.608032,488.878754 706.770447,528.361145 
	C719.505737,556.045776 732.399109,583.657532 745.137268,611.340820 
	C763.373352,650.972595 781.501038,690.654175 799.734619,730.287109 
	C812.331787,757.668457 825.065613,784.986877 837.673767,812.363220 
	C854.390808,848.661560 871.105042,884.961670 887.585449,921.367432 
	C888.646606,923.711609 888.584106,927.360413 887.536072,929.737305 
	C879.207397,948.627930 870.545410,967.372131 861.921204,986.131592 
	C855.174133,1000.807861 848.366028,1015.456421 841.490540,1030.072754 
	C840.770874,1031.602661 839.410706,1032.831299 838.347656,1034.199585 
	C837.072571,1032.799927 835.356384,1031.606689 834.590149,1029.968994 
	C826.474609,1012.624390 818.492432,995.217224 810.509033,977.810913 
	C801.901489,959.043701 793.359924,940.246094 784.739319,921.484863 
	C769.652771,888.651917 754.542419,855.829895 739.414001,823.016235 
	C728.816467,800.030273 718.133850,777.083557 707.558167,754.087646 
	C693.156677,722.772705 678.838989,691.419312 664.450806,660.098328 
	C654.232544,637.854553 643.949280,615.640686 633.709412,593.406860 
	C618.594055,560.587097 603.496887,527.758972 588.381958,494.939056 
	C576.331360,468.772919 564.277283,442.608337 552.203796,416.452759 
	C535.873169,381.074707 519.460449,345.734253 503.266724,310.293732 
	C501.450134,306.318024 499.068909,304.847290 494.859772,304.949127 
	C486.411041,305.153564 477.953766,305.003662 469.000000,305.000000 
z"/>
<path fill="#231F20" opacity="1.000000" stroke="none" 
	d="
M1779.130981,210.905884 
	C1779.026611,210.658737 1779.021973,210.222931 1779.015869,209.461639 
	C1779.086548,209.663193 1779.158691,210.190201 1779.130981,210.905884 
z"/>
</svg>