%TF.GenerationSoftware,KiCad,Pcbnew,7.0.9*%
%TF.CreationDate,2023-11-22T09:36:00+00:00*%
%TF.ProjectId,vee_board_routed,7665655f-626f-4617-9264-5f726f757465,v1.0.0*%
%TF.SameCoordinates,Original*%
%TF.FileFunction,Copper,L2,Bot*%
%TF.FilePolarity,Positive*%
%FSLAX46Y46*%
G04 Gerber Fmt 4.6, Leading zero omitted, Abs format (unit mm)*
G04 Created by KiCad (PCBNEW 7.0.9) date 2023-11-22 09:36:00*
%MOMM*%
%LPD*%
G01*
G04 APERTURE LIST*
G04 Aperture macros list*
%AMRoundRect*
0 Rectangle with rounded corners*
0 $1 Rounding radius*
0 $2 $3 $4 $5 $6 $7 $8 $9 X,Y pos of 4 corners*
0 Add a 4 corners polygon primitive as box body*
4,1,4,$2,$3,$4,$5,$6,$7,$8,$9,$2,$3,0*
0 Add four circle primitives for the rounded corners*
1,1,$1+$1,$2,$3*
1,1,$1+$1,$4,$5*
1,1,$1+$1,$6,$7*
1,1,$1+$1,$8,$9*
0 Add four rect primitives between the rounded corners*
20,1,$1+$1,$2,$3,$4,$5,0*
20,1,$1+$1,$4,$5,$6,$7,0*
20,1,$1+$1,$6,$7,$8,$9,0*
20,1,$1+$1,$8,$9,$2,$3,0*%
%AMRotRect*
0 Rectangle, with rotation*
0 The origin of the aperture is its center*
0 $1 length*
0 $2 width*
0 $3 Rotation angle, in degrees counterclockwise*
0 Add horizontal line*
21,1,$1,$2,0,0,$3*%
%AMFreePoly0*
4,1,5,0.125000,-0.500000,-0.125000,-0.500000,-0.125000,0.500000,0.125000,0.500000,0.125000,-0.500000,0.125000,-0.500000,$1*%
%AMFreePoly1*
4,1,6,0.600000,0.200000,0.000000,-0.400000,-0.600000,0.200000,-0.600000,0.400000,0.600000,0.400000,0.600000,0.200000,0.600000,0.200000,$1*%
%AMFreePoly2*
4,1,6,0.600000,-0.250000,-0.600000,-0.250000,-0.600000,1.000000,0.000000,0.400000,0.600000,1.000000,0.600000,-0.250000,0.600000,-0.250000,$1*%
G04 Aperture macros list end*
%TA.AperFunction,SMDPad,CuDef*%
%ADD10R,2.600000X2.600000*%
%TD*%
%TA.AperFunction,ComponentPad*%
%ADD11C,2.032000*%
%TD*%
%TA.AperFunction,ComponentPad*%
%ADD12R,1.400000X1.500000*%
%TD*%
%TA.AperFunction,SMDPad,CuDef*%
%ADD13R,0.800000X1.000000*%
%TD*%
%TA.AperFunction,SMDPad,CuDef*%
%ADD14R,1.500000X0.700000*%
%TD*%
%TA.AperFunction,ComponentPad*%
%ADD15C,1.600000*%
%TD*%
%TA.AperFunction,ComponentPad*%
%ADD16R,1.600000X1.600000*%
%TD*%
%TA.AperFunction,SMDPad,CuDef*%
%ADD17FreePoly0,270.000000*%
%TD*%
%TA.AperFunction,SMDPad,CuDef*%
%ADD18FreePoly1,270.000000*%
%TD*%
%TA.AperFunction,SMDPad,CuDef*%
%ADD19FreePoly1,90.000000*%
%TD*%
%TA.AperFunction,SMDPad,CuDef*%
%ADD20FreePoly0,90.000000*%
%TD*%
%TA.AperFunction,SMDPad,CuDef*%
%ADD21FreePoly2,90.000000*%
%TD*%
%TA.AperFunction,SMDPad,CuDef*%
%ADD22FreePoly2,270.000000*%
%TD*%
%TA.AperFunction,SMDPad,CuDef*%
%ADD23RotRect,2.600000X2.600000X324.000000*%
%TD*%
%TA.AperFunction,ComponentPad*%
%ADD24RoundRect,0.250000X0.350000X0.625000X-0.350000X0.625000X-0.350000X-0.625000X0.350000X-0.625000X0*%
%TD*%
%TA.AperFunction,ComponentPad*%
%ADD25O,1.200000X1.750000*%
%TD*%
%TA.AperFunction,SMDPad,CuDef*%
%ADD26RotRect,2.600000X2.600000X342.000000*%
%TD*%
%TA.AperFunction,ViaPad*%
%ADD27C,0.600000*%
%TD*%
%TA.AperFunction,ViaPad*%
%ADD28C,0.800000*%
%TD*%
%TA.AperFunction,Conductor*%
%ADD29C,0.250000*%
%TD*%
%TA.AperFunction,Conductor*%
%ADD30C,0.200000*%
%TD*%
G04 APERTURE END LIST*
D10*
%TO.P,S11,1*%
%TO.N,P2*%
X232945000Y-130320000D03*
%TO.P,S11,2*%
%TO.N,GND*%
X244495000Y-132520000D03*
%TD*%
%TO.P,S4,1*%
%TO.N,P18*%
X196945000Y-147320000D03*
%TO.P,S4,2*%
%TO.N,GND*%
X208495000Y-149520000D03*
%TD*%
%TO.P,S9,1*%
%TO.N,P1*%
X214945000Y-111320000D03*
%TO.P,S9,2*%
%TO.N,GND*%
X226495000Y-113520000D03*
%TD*%
D11*
%TO.P,S26,1*%
%TO.N,P10*%
X223220000Y-138070000D03*
X213220000Y-138070000D03*
%TO.P,S26,2*%
%TO.N,GND*%
X218220000Y-140170000D03*
X218220000Y-140170000D03*
%TD*%
D12*
%TO.P,S37,1*%
%TO.N,RST*%
X284220000Y-164520000D03*
%TO.P,S37,2*%
%TO.N,GND*%
X284220000Y-158020000D03*
%TD*%
D10*
%TO.P,S12,1*%
%TO.N,P3*%
X232945000Y-113320000D03*
%TO.P,S12,2*%
%TO.N,GND*%
X244495000Y-115520000D03*
%TD*%
%TO.P,S5,1*%
%TO.N,P15*%
X196945000Y-130320000D03*
%TO.P,S5,2*%
%TO.N,GND*%
X208495000Y-132520000D03*
%TD*%
%TO.P,S1,1*%
%TO.N,P21*%
X178945000Y-151320000D03*
%TO.P,S1,2*%
%TO.N,GND*%
X190495000Y-153520000D03*
%TD*%
D11*
%TO.P,S34,1*%
%TO.N,P7*%
X232220000Y-174070000D03*
X222220000Y-174070000D03*
%TO.P,S34,2*%
%TO.N,GND*%
X227220000Y-176170000D03*
X227220000Y-176170000D03*
%TD*%
%TO.P,S29,1*%
%TO.N,P2*%
X241220000Y-140070000D03*
X231220000Y-140070000D03*
%TO.P,S29,2*%
%TO.N,GND*%
X236220000Y-142170000D03*
X236220000Y-142170000D03*
%TD*%
D13*
%TO.P,T1,*%
%TO.N,*%
X283940000Y-155920000D03*
X286150000Y-155920000D03*
D14*
X283290000Y-154520000D03*
D13*
X283940000Y-148620000D03*
X286150000Y-148620000D03*
D14*
%TO.P,T1,1*%
%TO.N,pos*%
X283290000Y-150020000D03*
%TO.P,T1,2*%
%TO.N,RAW*%
X283290000Y-153020000D03*
%TD*%
D11*
%TO.P,S28,1*%
%TO.N,P0*%
X241220000Y-157070000D03*
X231220000Y-157070000D03*
%TO.P,S28,2*%
%TO.N,GND*%
X236220000Y-159170000D03*
X236220000Y-159170000D03*
%TD*%
D10*
%TO.P,S2,1*%
%TO.N,P20*%
X178945000Y-134320000D03*
%TO.P,S2,2*%
%TO.N,GND*%
X190495000Y-136520000D03*
%TD*%
%TO.P,S8,1*%
%TO.N,P10*%
X214945000Y-128320000D03*
%TO.P,S8,2*%
%TO.N,GND*%
X226495000Y-130520000D03*
%TD*%
D11*
%TO.P,S20,1*%
%TO.N,P20*%
X187220000Y-144070000D03*
X177220000Y-144070000D03*
%TO.P,S20,2*%
%TO.N,GND*%
X182220000Y-146170000D03*
X182220000Y-146170000D03*
%TD*%
D15*
%TO.P,MCU1,*%
%TO.N,*%
X283840000Y-117800000D03*
D16*
X283840000Y-117800000D03*
D17*
X282570000Y-117800000D03*
D18*
X282062000Y-117800000D03*
D19*
X270378000Y-117800000D03*
D20*
X269870000Y-117800000D03*
D15*
X268600000Y-117800000D03*
X283840000Y-120340000D03*
D17*
X282570000Y-120340000D03*
D18*
X282062000Y-120340000D03*
D19*
X270378000Y-120340000D03*
D20*
X269870000Y-120340000D03*
D15*
X268600000Y-120340000D03*
X283840000Y-122880000D03*
D17*
X282570000Y-122880000D03*
D18*
X282062000Y-122880000D03*
D19*
X270378000Y-122880000D03*
D20*
X269870000Y-122880000D03*
D15*
X268600000Y-122880000D03*
X283840000Y-125420000D03*
D17*
X282570000Y-125420000D03*
D18*
X282062000Y-125420000D03*
D19*
X270378000Y-125420000D03*
D20*
X269870000Y-125420000D03*
D15*
X268600000Y-125420000D03*
X283840000Y-127960000D03*
D17*
X282570000Y-127960000D03*
D18*
X282062000Y-127960000D03*
D19*
X270378000Y-127960000D03*
D20*
X269870000Y-127960000D03*
D15*
X268600000Y-127960000D03*
X283840000Y-130500000D03*
D17*
X282570000Y-130500000D03*
D18*
X282062000Y-130500000D03*
D19*
X270378000Y-130500000D03*
D20*
X269870000Y-130500000D03*
D15*
X268600000Y-130500000D03*
X283840000Y-133040000D03*
D17*
X282570000Y-133040000D03*
D18*
X282062000Y-133040000D03*
D19*
X270378000Y-133040000D03*
D20*
X269870000Y-133040000D03*
D15*
X268600000Y-133040000D03*
X283840000Y-135580000D03*
D17*
X282570000Y-135580000D03*
D18*
X282062000Y-135580000D03*
D19*
X270378000Y-135580000D03*
D20*
X269870000Y-135580000D03*
D15*
X268600000Y-135580000D03*
X283840000Y-138120000D03*
D17*
X282570000Y-138120000D03*
D18*
X282062000Y-138120000D03*
D19*
X270378000Y-138120000D03*
D20*
X269870000Y-138120000D03*
D15*
X268600000Y-138120000D03*
X283840000Y-140660000D03*
D17*
X282570000Y-140660000D03*
D18*
X282062000Y-140660000D03*
D19*
X270378000Y-140660000D03*
D20*
X269870000Y-140660000D03*
D15*
X268600000Y-140660000D03*
X283840000Y-143200000D03*
D17*
X282570000Y-143200000D03*
D18*
X282062000Y-143200000D03*
D19*
X270378000Y-143200000D03*
D20*
X269870000Y-143200000D03*
D15*
X268600000Y-143200000D03*
X283840000Y-145740000D03*
D17*
X282570000Y-145740000D03*
D18*
X282062000Y-145740000D03*
D19*
X270378000Y-145740000D03*
D20*
X269870000Y-145740000D03*
D15*
X268600000Y-145740000D03*
D21*
%TO.P,MCU1,1*%
%TO.N,RAW*%
X271394000Y-117800000D03*
%TO.P,MCU1,2*%
%TO.N,N/C*%
X271394000Y-120340000D03*
%TO.P,MCU1,3*%
%TO.N,RST*%
X271394000Y-122880000D03*
%TO.P,MCU1,4*%
%TO.N,VCC*%
X271394000Y-125420000D03*
%TO.P,MCU1,5*%
%TO.N,P21*%
X271394000Y-127960000D03*
%TO.P,MCU1,6*%
%TO.N,P20*%
X271394000Y-130500000D03*
%TO.P,MCU1,7*%
%TO.N,P19*%
X271394000Y-133040000D03*
%TO.P,MCU1,8*%
%TO.N,P18*%
X271394000Y-135580000D03*
%TO.P,MCU1,9*%
%TO.N,P15*%
X271394000Y-138120000D03*
%TO.P,MCU1,10*%
%TO.N,P14*%
X271394000Y-140660000D03*
%TO.P,MCU1,11*%
%TO.N,P16*%
X271394000Y-143200000D03*
%TO.P,MCU1,12*%
%TO.N,P10*%
X271394000Y-145740000D03*
D22*
%TO.P,MCU1,13*%
%TO.N,P9*%
X281046000Y-145740000D03*
%TO.P,MCU1,14*%
%TO.N,P8*%
X281046000Y-143200000D03*
%TO.P,MCU1,15*%
%TO.N,P7*%
X281046000Y-140660000D03*
%TO.P,MCU1,16*%
%TO.N,P6*%
X281046000Y-138120000D03*
%TO.P,MCU1,17*%
%TO.N,P5*%
X281046000Y-135580000D03*
%TO.P,MCU1,18*%
%TO.N,P4*%
X281046000Y-133040000D03*
%TO.P,MCU1,19*%
%TO.N,P3*%
X281046000Y-130500000D03*
%TO.P,MCU1,20*%
%TO.N,P2*%
X281046000Y-127960000D03*
%TO.P,MCU1,21*%
%TO.N,GND*%
X281046000Y-125420000D03*
%TO.P,MCU1,22*%
X281046000Y-122880000D03*
%TO.P,MCU1,23*%
%TO.N,P0*%
X281046000Y-120340000D03*
%TO.P,MCU1,24*%
%TO.N,P1*%
X281046000Y-117800000D03*
%TD*%
D11*
%TO.P,S23,1*%
%TO.N,P15*%
X205220000Y-140070000D03*
X195220000Y-140070000D03*
%TO.P,S23,2*%
%TO.N,GND*%
X200220000Y-142170000D03*
X200220000Y-142170000D03*
%TD*%
D10*
%TO.P,S13,1*%
%TO.N,P4*%
X250945000Y-149320000D03*
%TO.P,S13,2*%
%TO.N,GND*%
X262495000Y-151520000D03*
%TD*%
D11*
%TO.P,S25,1*%
%TO.N,P16*%
X223220000Y-155070000D03*
X213220000Y-155070000D03*
%TO.P,S25,2*%
%TO.N,GND*%
X218220000Y-157170000D03*
X218220000Y-157170000D03*
%TD*%
%TO.P,S35,1*%
%TO.N,P8*%
X250801018Y-178629100D03*
X241290453Y-175538930D03*
%TO.P,S35,2*%
%TO.N,GND*%
X245396800Y-179081233D03*
X245396800Y-179081233D03*
%TD*%
D10*
%TO.P,S16,1*%
%TO.N,P7*%
X223945000Y-164320000D03*
%TO.P,S16,2*%
%TO.N,GND*%
X235495000Y-166520000D03*
%TD*%
D23*
%TO.P,S18,1*%
%TO.N,P9*%
X266067792Y-175931352D03*
%TO.P,S18,2*%
%TO.N,GND*%
X274118810Y-184500109D03*
%TD*%
D11*
%TO.P,S21,1*%
%TO.N,P19*%
X187220000Y-127070000D03*
X177220000Y-127070000D03*
%TO.P,S21,2*%
%TO.N,GND*%
X182220000Y-129170000D03*
X182220000Y-129170000D03*
%TD*%
D24*
%TO.P,_1,1*%
%TO.N,pos*%
X275220000Y-160270000D03*
D25*
%TO.P,_1,2*%
%TO.N,GND*%
X273220000Y-160270000D03*
%TD*%
D11*
%TO.P,S22,1*%
%TO.N,P18*%
X205220000Y-157070000D03*
X195220000Y-157070000D03*
%TO.P,S22,2*%
%TO.N,GND*%
X200220000Y-159170000D03*
X200220000Y-159170000D03*
%TD*%
%TO.P,S24,1*%
%TO.N,P14*%
X205220000Y-123070000D03*
X195220000Y-123070000D03*
%TO.P,S24,2*%
%TO.N,GND*%
X200220000Y-125170000D03*
X200220000Y-125170000D03*
%TD*%
D10*
%TO.P,S3,1*%
%TO.N,P19*%
X178945000Y-117320000D03*
%TO.P,S3,2*%
%TO.N,GND*%
X190495000Y-119520000D03*
%TD*%
D11*
%TO.P,S33,1*%
%TO.N,P6*%
X259220000Y-125070000D03*
X249220000Y-125070000D03*
%TO.P,S33,2*%
%TO.N,GND*%
X254220000Y-127170000D03*
X254220000Y-127170000D03*
%TD*%
D10*
%TO.P,S7,1*%
%TO.N,P16*%
X214945000Y-145320000D03*
%TO.P,S7,2*%
%TO.N,GND*%
X226495000Y-147520000D03*
%TD*%
D11*
%TO.P,S27,1*%
%TO.N,P1*%
X223220000Y-121070000D03*
X213220000Y-121070000D03*
%TO.P,S27,2*%
%TO.N,GND*%
X218220000Y-123170000D03*
X218220000Y-123170000D03*
%TD*%
%TO.P,S19,1*%
%TO.N,P21*%
X187220000Y-161070000D03*
X177220000Y-161070000D03*
%TO.P,S19,2*%
%TO.N,GND*%
X182220000Y-163170000D03*
X182220000Y-163170000D03*
%TD*%
D10*
%TO.P,S10,1*%
%TO.N,P0*%
X232945000Y-147320000D03*
%TO.P,S10,2*%
%TO.N,GND*%
X244495000Y-149520000D03*
%TD*%
%TO.P,S14,1*%
%TO.N,P5*%
X250945000Y-132320000D03*
%TO.P,S14,2*%
%TO.N,GND*%
X262495000Y-134520000D03*
%TD*%
D11*
%TO.P,S31,1*%
%TO.N,P4*%
X259220000Y-159070000D03*
X249220000Y-159070000D03*
%TO.P,S31,2*%
%TO.N,GND*%
X254220000Y-161170000D03*
X254220000Y-161170000D03*
%TD*%
D10*
%TO.P,S6,1*%
%TO.N,P14*%
X196945000Y-113320000D03*
%TO.P,S6,2*%
%TO.N,GND*%
X208495000Y-115520000D03*
%TD*%
%TO.P,S15,1*%
%TO.N,P6*%
X250945000Y-115320000D03*
%TO.P,S15,2*%
%TO.N,GND*%
X262495000Y-117520000D03*
%TD*%
D11*
%TO.P,S32,1*%
%TO.N,P5*%
X259220000Y-142070000D03*
X249220000Y-142070000D03*
%TO.P,S32,2*%
%TO.N,GND*%
X254220000Y-144170000D03*
X254220000Y-144170000D03*
%TD*%
%TO.P,S36,1*%
%TO.N,P9*%
X267031501Y-188683191D03*
X258941331Y-182805338D03*
%TO.P,S36,2*%
%TO.N,GND*%
X261752067Y-187443200D03*
X261752067Y-187443200D03*
%TD*%
D26*
%TO.P,S17,1*%
%TO.N,P8*%
X245943941Y-166799183D03*
%TO.P,S17,2*%
%TO.N,GND*%
X256248806Y-172460654D03*
%TD*%
D11*
%TO.P,S30,1*%
%TO.N,P3*%
X241220000Y-123070000D03*
X231220000Y-123070000D03*
%TO.P,S30,2*%
%TO.N,GND*%
X236220000Y-125170000D03*
X236220000Y-125170000D03*
%TD*%
D27*
%TO.N,P21*%
X266040000Y-129330000D03*
X264965500Y-154730000D03*
D28*
X276982000Y-127960000D03*
%TO.N,GND*%
X275458000Y-122880000D03*
X276987297Y-120354074D03*
D27*
X263118911Y-116896088D03*
D28*
X275458000Y-125420000D03*
D27*
%TO.N,P20*%
X265415500Y-131870000D03*
X264965500Y-152190000D03*
D28*
X276982000Y-130500000D03*
D27*
%TO.N,P19*%
X264791000Y-149650000D03*
X264791000Y-134410000D03*
D28*
X276982000Y-133040000D03*
D27*
%TO.N,P18*%
X245720000Y-162350000D03*
X263500000Y-149650000D03*
X248260000Y-162350000D03*
X264166500Y-139490000D03*
D28*
X276982000Y-135580000D03*
D27*
%TO.N,P15*%
X267437162Y-137540721D03*
X258076642Y-144226642D03*
D28*
X276982000Y-138120000D03*
D27*
X262875500Y-142030000D03*
%TO.N,P14*%
X285420500Y-139490000D03*
D28*
X276982000Y-140660000D03*
D27*
X283820000Y-115269500D03*
%TO.N,P16*%
X258420000Y-163365500D03*
X266664500Y-162350000D03*
X266664500Y-149650000D03*
D28*
X276982000Y-143200000D03*
D27*
%TO.N,P10*%
X215240000Y-162974500D03*
D28*
X276982000Y-145740000D03*
%TO.N,P1*%
X275458000Y-117800000D03*
D27*
%TO.N,P0*%
X238100000Y-149650000D03*
X263500000Y-131870000D03*
D28*
X275458000Y-120340000D03*
D27*
X263500000Y-127769500D03*
D28*
%TO.N,P2*%
X275458000Y-127960000D03*
D27*
%TO.N,P3*%
X271120000Y-121710000D03*
D28*
X275458000Y-130500000D03*
D27*
X284796000Y-131870000D03*
%TO.N,P4*%
X278740000Y-139522721D03*
D28*
X275458000Y-133040000D03*
%TO.N,P5*%
X275458000Y-135580000D03*
D27*
X267064500Y-136291721D03*
%TO.N,P6*%
X263500000Y-121710000D03*
X285370500Y-121710000D03*
X266381092Y-116288905D03*
D28*
X275458000Y-138120000D03*
%TO.N,P7*%
X275458000Y-140660000D03*
%TO.N,P8*%
X275458000Y-143200000D03*
%TO.N,P9*%
X275458000Y-145740000D03*
D27*
%TO.N,RAW*%
X278740000Y-152190000D03*
D28*
X276982000Y-117800000D03*
D27*
%TO.N,RST*%
X267164635Y-148234635D03*
D28*
X276982000Y-122880000D03*
D27*
X270742353Y-152190000D03*
D28*
%TO.N,VCC*%
X276982000Y-125420000D03*
D27*
%TO.N,pos*%
X278740000Y-154730000D03*
%TD*%
D29*
%TO.N,P21*%
X179095000Y-159195000D02*
X177220000Y-161070000D01*
X272160000Y-127194000D02*
X271394000Y-127960000D01*
X266040000Y-153655500D02*
X266040000Y-129330000D01*
X264965500Y-154730000D02*
X266040000Y-153655500D01*
X179095000Y-151470000D02*
X179095000Y-159195000D01*
X276982000Y-127960000D02*
X276216000Y-127194000D01*
X276216000Y-127194000D02*
X272160000Y-127194000D01*
%TO.N,GND*%
X262495000Y-151520000D02*
X262495000Y-154228684D01*
X241970900Y-135044100D02*
X241212216Y-135044100D01*
X187212216Y-122044100D02*
X182220000Y-127036316D01*
X190495000Y-153520000D02*
X187970900Y-156044100D01*
D30*
X283070000Y-158020000D02*
X278740000Y-162350000D01*
D29*
X276221297Y-119588074D02*
X272165297Y-119588074D01*
X205970900Y-152044100D02*
X205212216Y-152044100D01*
X236220000Y-142170000D02*
X237145000Y-142170000D01*
X223212216Y-133044100D02*
X218220000Y-138036316D01*
X235495000Y-177525000D02*
X237051233Y-179081233D01*
D30*
X268536316Y-160270000D02*
X262495000Y-154228684D01*
D29*
X254220000Y-127170000D02*
X239656840Y-127170000D01*
X241212216Y-135044100D02*
X236220000Y-140036316D01*
X237145000Y-142170000D02*
X244495000Y-149520000D01*
X235495000Y-166520000D02*
X232970900Y-169044100D01*
X232212216Y-169044100D02*
X227220000Y-174036316D01*
X241970900Y-152044100D02*
X241212216Y-152044100D01*
X254220000Y-125036316D02*
X254220000Y-127170000D01*
X182220000Y-129170000D02*
X186220000Y-125170000D01*
X258894100Y-139495900D02*
X254220000Y-144170000D01*
X182220000Y-161036316D02*
X182220000Y-163170000D01*
X275452099Y-125432221D02*
X276218099Y-126198221D01*
X190495000Y-119520000D02*
X187970900Y-122044100D01*
X190495000Y-136520000D02*
X187970900Y-139044100D01*
X200220000Y-125170000D02*
X216220000Y-125170000D01*
X232970900Y-169044100D02*
X232212216Y-169044100D01*
X274118810Y-184500109D02*
X269318122Y-184500109D01*
X219145000Y-140170000D02*
X226495000Y-147520000D01*
X241212216Y-118044100D02*
X236220000Y-123036316D01*
X200220000Y-142170000D02*
X201145000Y-142170000D01*
X280274099Y-126198221D02*
X281040099Y-125432221D01*
X221145000Y-125170000D02*
X220272500Y-124297500D01*
X241970900Y-118044100D02*
X241212216Y-118044100D01*
X200220000Y-157036316D02*
X200220000Y-159170000D01*
X208495000Y-149520000D02*
X205970900Y-152044100D01*
X276218099Y-123658221D02*
X280274099Y-123658221D01*
X254220000Y-144170000D02*
X255656840Y-144170000D01*
X208495000Y-132520000D02*
X205970900Y-135044100D01*
D30*
X284220000Y-158020000D02*
X283070000Y-158020000D01*
D29*
X226495000Y-130520000D02*
X223970900Y-133044100D01*
D30*
X275300000Y-162350000D02*
X273220000Y-160270000D01*
D29*
X187970900Y-156044100D02*
X187212216Y-156044100D01*
X260227784Y-139495900D02*
X258894100Y-139495900D01*
D30*
X274109000Y-126769000D02*
X266061000Y-126769000D01*
X280274099Y-126191901D02*
X280274099Y-126198221D01*
D29*
X187970900Y-139044100D02*
X187212216Y-139044100D01*
X182220000Y-129170000D02*
X183145000Y-129170000D01*
X245396800Y-179081233D02*
X246833640Y-179081233D01*
X187212216Y-156044100D02*
X182220000Y-161036316D01*
X236220000Y-125170000D02*
X237656840Y-125170000D01*
D30*
X275458000Y-125420000D02*
X274109000Y-126769000D01*
D29*
X276987297Y-120354074D02*
X276221297Y-119588074D01*
X259518867Y-185210000D02*
X261752067Y-187443200D01*
X255656840Y-144170000D02*
X262495000Y-151008160D01*
X226495000Y-147520000D02*
X223970900Y-150044100D01*
D30*
X266061000Y-126769000D02*
X265660000Y-127170000D01*
D29*
X223970900Y-116044100D02*
X223212216Y-116044100D01*
X237656840Y-125170000D02*
X238688420Y-126201580D01*
X216220000Y-125170000D02*
X218220000Y-123170000D01*
X226495000Y-113520000D02*
X223970900Y-116044100D01*
X280274099Y-123658221D02*
X280274099Y-126198221D01*
X275452099Y-122892221D02*
X276218099Y-123658221D01*
X205970900Y-135044100D02*
X205212216Y-135044100D01*
X258120000Y-157270000D02*
X254220000Y-161170000D01*
X183145000Y-129170000D02*
X190495000Y-136520000D01*
X246833640Y-179081233D02*
X252962407Y-185210000D01*
X219145000Y-123170000D02*
X220272500Y-124297500D01*
X259970900Y-120044100D02*
X259212216Y-120044100D01*
X223970900Y-150044100D02*
X223212216Y-150044100D01*
X223212216Y-150044100D02*
X218220000Y-155036316D01*
X200220000Y-125170000D02*
X201145000Y-125170000D01*
X236220000Y-140036316D02*
X236220000Y-142170000D01*
X262495000Y-137228684D02*
X260227784Y-139495900D01*
X183656840Y-146170000D02*
X190495000Y-153008160D01*
X255217120Y-173492340D02*
X250985693Y-173492340D01*
X223970900Y-133044100D02*
X223212216Y-133044100D01*
X259212216Y-120044100D02*
X254220000Y-125036316D01*
X187212216Y-139044100D02*
X182220000Y-144036316D01*
X244495000Y-115520000D02*
X241970900Y-118044100D01*
X208495000Y-115520000D02*
X205970900Y-118044100D01*
X269318122Y-184500109D02*
X266375031Y-187443200D01*
X280274099Y-123658221D02*
X281040099Y-122892221D01*
X266375031Y-187443200D02*
X261752067Y-187443200D01*
X254220000Y-127170000D02*
X255145000Y-127170000D01*
X262495000Y-154228684D02*
X259453684Y-157270000D01*
X218220000Y-123170000D02*
X219145000Y-123170000D01*
X238688420Y-126201580D02*
X244495000Y-132008160D01*
X272165297Y-119588074D02*
X271399297Y-120354074D01*
X205970900Y-118044100D02*
X205212216Y-118044100D01*
X200220000Y-123036316D02*
X200220000Y-125170000D01*
X259453684Y-157270000D02*
X258120000Y-157270000D01*
X182220000Y-127036316D02*
X182220000Y-129170000D01*
X182220000Y-144036316D02*
X182220000Y-146170000D01*
X187970900Y-122044100D02*
X187212216Y-122044100D01*
X182220000Y-146170000D02*
X183656840Y-146170000D01*
X237051233Y-179081233D02*
X245396800Y-179081233D01*
X227220000Y-174036316D02*
X227220000Y-176170000D01*
X276218099Y-126198221D02*
X280274099Y-126198221D01*
X256248806Y-172460654D02*
X255217120Y-173492340D01*
X205212216Y-118044100D02*
X200220000Y-123036316D01*
X241212216Y-152044100D02*
X236220000Y-157036316D01*
D30*
X265660000Y-127170000D02*
X254220000Y-127170000D01*
D29*
X239656840Y-127170000D02*
X238688420Y-126201580D01*
X218220000Y-155036316D02*
X218220000Y-157170000D01*
X201145000Y-125170000D02*
X208495000Y-132520000D01*
D30*
X273220000Y-160270000D02*
X268536316Y-160270000D01*
D29*
X255145000Y-127170000D02*
X262495000Y-134520000D01*
X205212216Y-135044100D02*
X200220000Y-140036316D01*
X236220000Y-123036316D02*
X236220000Y-125170000D01*
X218220000Y-138036316D02*
X218220000Y-140170000D01*
X236220000Y-125170000D02*
X221145000Y-125170000D01*
X262495000Y-134520000D02*
X262495000Y-137228684D01*
D30*
X278740000Y-162350000D02*
X275300000Y-162350000D01*
D29*
X244495000Y-132520000D02*
X241970900Y-135044100D01*
X235495000Y-166520000D02*
X235495000Y-177525000D01*
X262495000Y-117520000D02*
X259970900Y-120044100D01*
X223212216Y-116044100D02*
X218220000Y-121036316D01*
D30*
X281046000Y-125420000D02*
X280274099Y-126191901D01*
D29*
X200220000Y-140036316D02*
X200220000Y-142170000D01*
X218220000Y-140170000D02*
X219145000Y-140170000D01*
X218220000Y-121036316D02*
X218220000Y-123170000D01*
X236220000Y-157036316D02*
X236220000Y-159170000D01*
X250985693Y-173492340D02*
X245396800Y-179081233D01*
X252962407Y-185210000D02*
X259518867Y-185210000D01*
X226495000Y-130520000D02*
X220272500Y-124297500D01*
X244495000Y-149520000D02*
X241970900Y-152044100D01*
X201145000Y-142170000D02*
X208495000Y-149520000D01*
X236220000Y-159170000D02*
X236220000Y-165795000D01*
X186220000Y-125170000D02*
X200220000Y-125170000D01*
X205212216Y-152044100D02*
X200220000Y-157036316D01*
%TO.N,P20*%
X179095000Y-134470000D02*
X179095000Y-142195000D01*
X276216000Y-129734000D02*
X272160000Y-129734000D01*
X265415500Y-151740000D02*
X265415500Y-131870000D01*
X264965500Y-152190000D02*
X265415500Y-151740000D01*
X179095000Y-142195000D02*
X177220000Y-144070000D01*
X276982000Y-130500000D02*
X276216000Y-129734000D01*
X272160000Y-129734000D02*
X271394000Y-130500000D01*
%TO.N,P19*%
X276982000Y-133040000D02*
X276216000Y-132274000D01*
X179095000Y-125195000D02*
X177220000Y-127070000D01*
X264791000Y-149650000D02*
X264791000Y-134410000D01*
X272160000Y-132274000D02*
X271394000Y-133040000D01*
X179095000Y-117470000D02*
X179095000Y-125195000D01*
X276216000Y-132274000D02*
X272160000Y-132274000D01*
%TO.N,P18*%
X276216000Y-134814000D02*
X272160000Y-134814000D01*
X263500000Y-140156500D02*
X263500000Y-149650000D01*
X197095000Y-147470000D02*
X197095000Y-155195000D01*
X245720000Y-162350000D02*
X248260000Y-162350000D01*
X264166500Y-139490000D02*
X263500000Y-140156500D01*
X272160000Y-134814000D02*
X271394000Y-135580000D01*
X197095000Y-155195000D02*
X195220000Y-157070000D01*
X276982000Y-135580000D02*
X276216000Y-134814000D01*
%TO.N,P15*%
X197095000Y-138195000D02*
X195220000Y-140070000D01*
X260678858Y-144226642D02*
X262875500Y-142030000D01*
X267437162Y-137540721D02*
X267437162Y-138548153D01*
X267437162Y-138548153D02*
X268379009Y-139490000D01*
X258076642Y-144226642D02*
X260678858Y-144226642D01*
X276982000Y-138120000D02*
X276216000Y-137354000D01*
X276216000Y-137354000D02*
X272160000Y-137354000D01*
X272160000Y-137354000D02*
X271394000Y-138120000D01*
X197095000Y-130470000D02*
X197095000Y-138195000D01*
X271120000Y-138394000D02*
X272160000Y-137354000D01*
X271120000Y-139490000D02*
X271120000Y-138394000D01*
X268379009Y-139490000D02*
X271120000Y-139490000D01*
%TO.N,P14*%
X276982000Y-140660000D02*
X276216000Y-139894000D01*
X197095000Y-121195000D02*
X195220000Y-123070000D01*
X285995000Y-116742394D02*
X285995000Y-138915500D01*
X276216000Y-139894000D02*
X272160000Y-139894000D01*
X285995000Y-138915500D02*
X285420500Y-139490000D01*
X283820000Y-115269500D02*
X284522106Y-115269500D01*
X197095000Y-113470000D02*
X197095000Y-121195000D01*
X284522106Y-115269500D02*
X285995000Y-116742394D01*
X272160000Y-139894000D02*
X271394000Y-140660000D01*
%TO.N,P16*%
X269204500Y-147110000D02*
X284060991Y-147110000D01*
X265649000Y-163365500D02*
X266664500Y-162350000D01*
X285995000Y-143764009D02*
X284260991Y-142030000D01*
X215095000Y-153195000D02*
X213220000Y-155070000D01*
X258420000Y-163365500D02*
X265649000Y-163365500D01*
X266664500Y-149650000D02*
X269204500Y-147110000D01*
X285995000Y-145175991D02*
X285995000Y-143764009D01*
X278152000Y-142030000D02*
X276982000Y-143200000D01*
X284260991Y-142030000D02*
X278152000Y-142030000D01*
X284060991Y-147110000D02*
X285995000Y-145175991D01*
X276216000Y-142434000D02*
X272160000Y-142434000D01*
X215095000Y-145470000D02*
X215095000Y-153195000D01*
X272160000Y-142434000D02*
X271394000Y-143200000D01*
X276982000Y-143200000D02*
X276216000Y-142434000D01*
%TO.N,P10*%
X215095000Y-136195000D02*
X213220000Y-138070000D01*
X211345000Y-139945000D02*
X213220000Y-138070000D01*
X211345000Y-159079500D02*
X211345000Y-139945000D01*
X215240000Y-162974500D02*
X211345000Y-159079500D01*
X276216000Y-144974000D02*
X272160000Y-144974000D01*
X276982000Y-145740000D02*
X276216000Y-144974000D01*
X272160000Y-144974000D02*
X271394000Y-145740000D01*
X215095000Y-128470000D02*
X215095000Y-136195000D01*
%TO.N,P1*%
X268134009Y-118925000D02*
X274333000Y-118925000D01*
X215095000Y-119195000D02*
X213220000Y-121070000D01*
X280274099Y-118578221D02*
X281040099Y-117812221D01*
X214945000Y-111320000D02*
X217121293Y-109143707D01*
X243865000Y-109695000D02*
X245865000Y-111695000D01*
X276218099Y-118578221D02*
X280274099Y-118578221D01*
X215095000Y-111470000D02*
X215095000Y-119195000D01*
X227865718Y-109143707D02*
X228417011Y-109695000D01*
X274333000Y-118925000D02*
X275458000Y-117800000D01*
X275452099Y-117812221D02*
X276218099Y-118578221D01*
X260904009Y-111695000D02*
X268134009Y-118925000D01*
X245865000Y-111695000D02*
X260904009Y-111695000D01*
X228417011Y-109695000D02*
X243865000Y-109695000D01*
X217121293Y-109143707D02*
X227865718Y-109143707D01*
D30*
%TO.N,P0*%
X263500000Y-131870000D02*
X263500000Y-127769500D01*
D29*
X280274099Y-121118221D02*
X281040099Y-120352221D01*
X275452099Y-120352221D02*
X276218099Y-121118221D01*
X233095000Y-155195000D02*
X231220000Y-157070000D01*
X233095000Y-147470000D02*
X233095000Y-149650000D01*
D30*
X238100000Y-149650000D02*
X233095000Y-149650000D01*
D29*
X233095000Y-149650000D02*
X233095000Y-155195000D01*
X276218099Y-121118221D02*
X280274099Y-121118221D01*
%TO.N,P2*%
X233095000Y-138195000D02*
X231220000Y-140070000D01*
X275452099Y-127972221D02*
X276218099Y-128738221D01*
X276218099Y-128738221D02*
X280274099Y-128738221D01*
X233095000Y-130470000D02*
X233095000Y-138195000D01*
X280274099Y-128738221D02*
X281040099Y-127972221D01*
%TO.N,P3*%
X233095000Y-113470000D02*
X233095000Y-121195000D01*
X243670000Y-111445000D02*
X245670000Y-113445000D01*
X275452099Y-130512221D02*
X276218099Y-131278221D01*
X276218099Y-131278221D02*
X276809878Y-131870000D01*
X233095000Y-121195000D02*
X231220000Y-123070000D01*
X280274099Y-131278221D02*
X281040099Y-130512221D01*
X261670000Y-113445000D02*
X266040000Y-117815000D01*
X232945000Y-113320000D02*
X234820000Y-111445000D01*
X276809878Y-131870000D02*
X284796000Y-131870000D01*
X245670000Y-113445000D02*
X261670000Y-113445000D01*
X234820000Y-111445000D02*
X243670000Y-111445000D01*
X276218099Y-131278221D02*
X280274099Y-131278221D01*
X266040000Y-117815000D02*
X266040000Y-121710000D01*
X271120000Y-121710000D02*
X266040000Y-121710000D01*
%TO.N,P4*%
X284260991Y-134410000D02*
X279331779Y-134410000D01*
X284965000Y-135114009D02*
X284260991Y-134410000D01*
X251095000Y-149470000D02*
X251095000Y-157195000D01*
X278740000Y-133818221D02*
X280274099Y-133818221D01*
X251095000Y-157195000D02*
X249220000Y-159070000D01*
X280274099Y-133818221D02*
X281040099Y-133052221D01*
X279331779Y-134410000D02*
X278740000Y-133818221D01*
X284965000Y-138585991D02*
X284965000Y-135114009D01*
X276218099Y-133818221D02*
X278740000Y-133818221D01*
X278740000Y-139522721D02*
X284028270Y-139522721D01*
X284028270Y-139522721D02*
X284965000Y-138585991D01*
X275452099Y-133052221D02*
X276218099Y-133818221D01*
%TO.N,P5*%
X251095000Y-140195000D02*
X249220000Y-142070000D01*
X280274099Y-136358221D02*
X281040099Y-135592221D01*
X267064500Y-136291721D02*
X267064500Y-134584500D01*
X278740000Y-136312695D02*
X278740000Y-136358221D01*
X251095000Y-132470000D02*
X251095000Y-140195000D01*
X276218099Y-136358221D02*
X278740000Y-136358221D01*
X275452099Y-135592221D02*
X276218099Y-136358221D01*
X267285000Y-134364000D02*
X276791305Y-134364000D01*
X278740000Y-136358221D02*
X280274099Y-136358221D01*
X276791305Y-134364000D02*
X278740000Y-136312695D01*
X267064500Y-134584500D02*
X267285000Y-134364000D01*
D30*
%TO.N,P6*%
X285370500Y-117130500D02*
X284849000Y-116609000D01*
X262580000Y-121710000D02*
X259220000Y-125070000D01*
X285370500Y-121710000D02*
X285370500Y-117130500D01*
D29*
X251095000Y-123195000D02*
X249220000Y-125070000D01*
D30*
X284849000Y-116609000D02*
X266701187Y-116609000D01*
D29*
X280274099Y-138898221D02*
X281040099Y-138132221D01*
X276218099Y-138898221D02*
X280274099Y-138898221D01*
D30*
X263500000Y-121710000D02*
X262580000Y-121710000D01*
X266701187Y-116609000D02*
X266381092Y-116288905D01*
D29*
X275452099Y-138132221D02*
X276218099Y-138898221D01*
X251095000Y-115470000D02*
X251095000Y-123195000D01*
%TO.N,P7*%
X224095000Y-164470000D02*
X224095000Y-172195000D01*
X280274099Y-141438221D02*
X281040099Y-140672221D01*
X224095000Y-172195000D02*
X222220000Y-174070000D01*
X276218099Y-141438221D02*
X280274099Y-141438221D01*
X275452099Y-140672221D02*
X276218099Y-141438221D01*
%TO.N,P8*%
X280274099Y-143978221D02*
X281040099Y-143212221D01*
X276218099Y-143978221D02*
X280274099Y-143978221D01*
X245943941Y-166799183D02*
X245943941Y-170885442D01*
X245943941Y-170885442D02*
X241290453Y-175538930D01*
X275452099Y-143212221D02*
X276218099Y-143978221D01*
%TO.N,P9*%
X260800695Y-182805338D02*
X258941331Y-182805338D01*
X266067792Y-175931352D02*
X266067792Y-177538241D01*
X266067792Y-177538241D02*
X260800695Y-182805338D01*
X280274099Y-146518221D02*
X281040099Y-145752221D01*
X276218099Y-146518221D02*
X280274099Y-146518221D01*
X275452099Y-145752221D02*
X276218099Y-146518221D01*
%TO.N,RAW*%
X272160000Y-117034000D02*
X271394000Y-117800000D01*
X276982000Y-117800000D02*
X276216000Y-117034000D01*
D30*
X278740000Y-152190000D02*
X279570000Y-153020000D01*
D29*
X276216000Y-117034000D02*
X272160000Y-117034000D01*
D30*
X279570000Y-153020000D02*
X283290000Y-153020000D01*
%TO.N,RST*%
X278082000Y-121780000D02*
X276982000Y-122880000D01*
X285220000Y-156970000D02*
X275900000Y-156970000D01*
X267164635Y-148234635D02*
X266465000Y-147535000D01*
X266465000Y-147535000D02*
X266465000Y-130945807D01*
X284192414Y-129163221D02*
X284940000Y-128415635D01*
X285220000Y-163520000D02*
X285220000Y-156970000D01*
X284940000Y-128415635D02*
X284940000Y-122424365D01*
D29*
X272160000Y-122114000D02*
X271394000Y-122880000D01*
D30*
X284220000Y-164520000D02*
X285220000Y-163520000D01*
X284940000Y-122424365D02*
X284295635Y-121780000D01*
X271120000Y-152190000D02*
X270742353Y-152190000D01*
D29*
X276982000Y-122880000D02*
X276216000Y-122114000D01*
D30*
X266465000Y-130945807D02*
X268247586Y-129163221D01*
D29*
X276216000Y-122114000D02*
X272160000Y-122114000D01*
D30*
X268247586Y-129163221D02*
X284192414Y-129163221D01*
X275900000Y-156970000D02*
X271120000Y-152190000D01*
X284295635Y-121780000D02*
X278082000Y-121780000D01*
D29*
%TO.N,VCC*%
X272160000Y-124654000D02*
X271394000Y-125420000D01*
X276982000Y-125420000D02*
X276216000Y-124654000D01*
X276216000Y-124654000D02*
X272160000Y-124654000D01*
D30*
%TO.N,pos*%
X278140000Y-151941471D02*
X278140000Y-154130000D01*
X280061471Y-150020000D02*
X278140000Y-151941471D01*
X278140000Y-154130000D02*
X278740000Y-154730000D01*
X283290000Y-150020000D02*
X280061471Y-150020000D01*
%TD*%
%TA.AperFunction,Conductor*%
%TO.N,GND*%
G36*
X224583406Y-145427293D02*
G01*
X226601059Y-146216809D01*
X226607515Y-146223015D01*
X226608452Y-146228722D01*
X226496560Y-147510921D01*
X226492427Y-147518865D01*
X226485921Y-147521560D01*
X225203722Y-147633452D01*
X225195182Y-147630757D01*
X225191809Y-147626059D01*
X224402293Y-145608406D01*
X224402470Y-145599453D01*
X224404913Y-145595873D01*
X224570871Y-145429915D01*
X224579143Y-145426489D01*
X224583406Y-145427293D01*
G37*
%TD.AperFunction*%
%TD*%
%TA.AperFunction,Conductor*%
%TO.N,GND*%
G36*
X244485921Y-132518439D02*
G01*
X244493865Y-132522572D01*
X244496560Y-132529078D01*
X244608452Y-133811277D01*
X244605757Y-133819817D01*
X244601059Y-133823190D01*
X242583406Y-134612706D01*
X242574453Y-134612529D01*
X242570870Y-134610083D01*
X242404916Y-134444129D01*
X242401489Y-134435856D01*
X242402293Y-134431593D01*
X242641612Y-133820000D01*
X243191809Y-132413939D01*
X243198015Y-132407484D01*
X243203721Y-132406547D01*
X244485921Y-132518439D01*
G37*
%TD.AperFunction*%
%TD*%
%TA.AperFunction,Conductor*%
%TO.N,GND*%
G36*
X255559211Y-142659006D02*
G01*
X255562251Y-142661198D01*
X255728801Y-142827748D01*
X255732228Y-142836021D01*
X255731628Y-142839721D01*
X255162630Y-144546900D01*
X255156763Y-144553665D01*
X255147830Y-144554300D01*
X255147062Y-144554013D01*
X254631122Y-144340853D01*
X254223781Y-144172561D01*
X254217446Y-144166237D01*
X253835986Y-143242936D01*
X253835994Y-143233982D01*
X253842331Y-143227656D01*
X253843071Y-143227379D01*
X255550279Y-142658371D01*
X255559211Y-142659006D01*
G37*
%TD.AperFunction*%
%TD*%
%TA.AperFunction,Conductor*%
%TO.N,GND*%
G36*
X280383994Y-125955822D02*
G01*
X280510444Y-126082272D01*
X280513871Y-126090545D01*
X280511359Y-126097789D01*
X280370573Y-126276353D01*
X280362759Y-126280728D01*
X280354141Y-126278297D01*
X280353178Y-126277448D01*
X280352065Y-126276353D01*
X280273392Y-126198928D01*
X280194551Y-126118815D01*
X280191190Y-126110514D01*
X280194683Y-126102269D01*
X280195311Y-126101694D01*
X280368157Y-125955169D01*
X280376682Y-125952435D01*
X280383994Y-125955822D01*
G37*
%TD.AperFunction*%
%TD*%
%TA.AperFunction,Conductor*%
%TO.N,P16*%
G36*
X277465014Y-142551643D02*
G01*
X277630356Y-142716985D01*
X277633783Y-142725258D01*
X277632747Y-142730071D01*
X277356206Y-143342760D01*
X277349679Y-143348891D01*
X277341090Y-143348767D01*
X276985804Y-143202563D01*
X276979457Y-143196245D01*
X276979436Y-143196195D01*
X276833232Y-142840909D01*
X276833253Y-142831955D01*
X276839237Y-142825794D01*
X277451928Y-142549251D01*
X277460878Y-142548972D01*
X277465014Y-142551643D01*
G37*
%TD.AperFunction*%
%TD*%
%TA.AperFunction,Conductor*%
%TO.N,GND*%
G36*
X200945505Y-141461037D02*
G01*
X200946526Y-141462206D01*
X202010191Y-142856485D01*
X202012485Y-142865141D01*
X202009162Y-142871854D01*
X201842623Y-143038393D01*
X201835390Y-143041774D01*
X200232731Y-143184863D01*
X200224186Y-143182185D01*
X200220037Y-143174249D01*
X200219991Y-143173217D01*
X200219897Y-143038393D01*
X200219296Y-142174149D01*
X200222716Y-142165876D01*
X200928961Y-141461020D01*
X200937236Y-141457602D01*
X200945505Y-141461037D01*
G37*
%TD.AperFunction*%
%TD*%
%TA.AperFunction,Conductor*%
%TO.N,GND*%
G36*
X262590793Y-154149423D02*
G01*
X262591509Y-154150221D01*
X262735781Y-154326554D01*
X262738368Y-154335127D01*
X262734999Y-154342236D01*
X262608552Y-154468683D01*
X262600279Y-154472110D01*
X262592870Y-154469465D01*
X262476353Y-154374133D01*
X262416536Y-154325192D01*
X262412304Y-154317302D01*
X262414891Y-154308729D01*
X262415597Y-154307941D01*
X262494293Y-154227977D01*
X262574248Y-154149290D01*
X262582548Y-154145930D01*
X262590793Y-154149423D01*
G37*
%TD.AperFunction*%
%TD*%
%TA.AperFunction,Conductor*%
%TO.N,GND*%
G36*
X236346042Y-140157427D02*
G01*
X236348234Y-140160467D01*
X237153049Y-141769969D01*
X237153684Y-141778902D01*
X237147817Y-141785667D01*
X237147071Y-141786007D01*
X236224487Y-142169136D01*
X236215532Y-142169144D01*
X236215513Y-142169136D01*
X235292928Y-141786007D01*
X235286602Y-141779670D01*
X235286610Y-141770715D01*
X235286940Y-141769990D01*
X236091766Y-140160466D01*
X236098531Y-140154600D01*
X236102231Y-140154000D01*
X236337769Y-140154000D01*
X236346042Y-140157427D01*
G37*
%TD.AperFunction*%
%TD*%
%TA.AperFunction,Conductor*%
%TO.N,P6*%
G36*
X260576946Y-123576679D02*
G01*
X260579859Y-123578806D01*
X260711193Y-123710140D01*
X260714620Y-123718413D01*
X260714064Y-123721977D01*
X260162531Y-125446705D01*
X260156747Y-125453541D01*
X260147823Y-125454285D01*
X260146919Y-125453954D01*
X259673413Y-125258326D01*
X259223781Y-125072561D01*
X259217446Y-125066237D01*
X258836045Y-124143079D01*
X258836053Y-124134125D01*
X258842390Y-124127799D01*
X258843279Y-124127473D01*
X260568023Y-123575935D01*
X260576946Y-123576679D01*
G37*
%TD.AperFunction*%
%TD*%
%TA.AperFunction,Conductor*%
%TO.N,P15*%
G36*
X267702030Y-137650388D02*
G01*
X267708342Y-137656740D01*
X267708315Y-137665695D01*
X267707838Y-137666699D01*
X267681223Y-137716494D01*
X267671186Y-137735273D01*
X267671185Y-137735275D01*
X267671185Y-137735276D01*
X267613978Y-137923859D01*
X267613976Y-137923868D01*
X267606679Y-137997945D01*
X267606199Y-138000299D01*
X267564733Y-138132522D01*
X267558987Y-138139391D01*
X267553569Y-138140721D01*
X267320755Y-138140721D01*
X267312482Y-138137294D01*
X267309591Y-138132522D01*
X267163191Y-137665708D01*
X267163985Y-137656789D01*
X267169841Y-137651413D01*
X267432652Y-137541604D01*
X267441606Y-137541578D01*
X267702030Y-137650388D01*
G37*
%TD.AperFunction*%
%TD*%
%TA.AperFunction,Conductor*%
%TO.N,GND*%
G36*
X218945505Y-139461037D02*
G01*
X218946526Y-139462206D01*
X220010191Y-140856485D01*
X220012485Y-140865141D01*
X220009162Y-140871854D01*
X219842623Y-141038393D01*
X219835390Y-141041774D01*
X218232731Y-141184863D01*
X218224186Y-141182185D01*
X218220037Y-141174249D01*
X218219991Y-141173217D01*
X218219897Y-141038393D01*
X218219296Y-140174149D01*
X218222716Y-140165876D01*
X218928961Y-139461020D01*
X218937236Y-139457602D01*
X218945505Y-139461037D01*
G37*
%TD.AperFunction*%
%TD*%
%TA.AperFunction,Conductor*%
%TO.N,P2*%
G36*
X275825847Y-127811333D02*
G01*
X275832097Y-127817518D01*
X276098085Y-128437273D01*
X276098198Y-128446227D01*
X276095606Y-128450160D01*
X275930250Y-128615516D01*
X275921977Y-128618943D01*
X275916992Y-128617828D01*
X275552650Y-128446227D01*
X275314996Y-128334294D01*
X275308972Y-128327669D01*
X275309161Y-128319260D01*
X275455437Y-127963802D01*
X275461753Y-127957457D01*
X275816896Y-127811312D01*
X275825847Y-127811333D01*
G37*
%TD.AperFunction*%
%TD*%
%TA.AperFunction,Conductor*%
%TO.N,GND*%
G36*
X275825847Y-122731333D02*
G01*
X275832097Y-122737518D01*
X276098085Y-123357273D01*
X276098198Y-123366227D01*
X276095606Y-123370160D01*
X275930250Y-123535516D01*
X275921977Y-123538943D01*
X275916992Y-123537828D01*
X275552650Y-123366227D01*
X275314996Y-123254294D01*
X275308972Y-123247669D01*
X275309161Y-123239260D01*
X275455437Y-122883802D01*
X275461753Y-122877457D01*
X275816896Y-122731312D01*
X275825847Y-122731333D01*
G37*
%TD.AperFunction*%
%TD*%
%TA.AperFunction,Conductor*%
%TO.N,GND*%
G36*
X190485921Y-136518439D02*
G01*
X190493865Y-136522572D01*
X190496560Y-136529078D01*
X190608452Y-137811277D01*
X190605757Y-137819817D01*
X190601059Y-137823190D01*
X188583406Y-138612706D01*
X188574453Y-138612529D01*
X188570870Y-138610083D01*
X188404916Y-138444129D01*
X188401489Y-138435856D01*
X188402293Y-138431593D01*
X188641612Y-137820000D01*
X189191809Y-136413939D01*
X189198015Y-136407484D01*
X189203721Y-136406547D01*
X190485921Y-136518439D01*
G37*
%TD.AperFunction*%
%TD*%
%TA.AperFunction,Conductor*%
%TO.N,P7*%
G36*
X223952527Y-164328626D02*
G01*
X223954764Y-164330687D01*
X225025755Y-165612605D01*
X225028429Y-165621151D01*
X225025859Y-165627481D01*
X225013829Y-165642298D01*
X224407714Y-166388807D01*
X224223512Y-166615675D01*
X224215637Y-166619937D01*
X224214429Y-166620000D01*
X223982200Y-166620000D01*
X223973927Y-166616573D01*
X223970500Y-166608300D01*
X223970500Y-166388819D01*
X223970499Y-166388807D01*
X223931397Y-166129392D01*
X223931396Y-166129385D01*
X223854063Y-165878677D01*
X223740228Y-165642296D01*
X223592433Y-165425521D01*
X223413981Y-165233195D01*
X223349912Y-165182101D01*
X223345581Y-165174264D01*
X223347644Y-165166213D01*
X223936225Y-164331444D01*
X223943791Y-164326659D01*
X223952527Y-164328626D01*
G37*
%TD.AperFunction*%
%TD*%
%TA.AperFunction,Conductor*%
%TO.N,GND*%
G36*
X262590793Y-154149423D02*
G01*
X262591509Y-154150221D01*
X262735781Y-154326554D01*
X262738368Y-154335127D01*
X262734999Y-154342236D01*
X262608552Y-154468683D01*
X262600279Y-154472110D01*
X262592870Y-154469465D01*
X262476353Y-154374133D01*
X262416536Y-154325192D01*
X262412304Y-154317302D01*
X262414891Y-154308729D01*
X262415597Y-154307941D01*
X262494293Y-154227977D01*
X262574248Y-154149290D01*
X262582548Y-154145930D01*
X262590793Y-154149423D01*
G37*
%TD.AperFunction*%
%TD*%
%TA.AperFunction,Conductor*%
%TO.N,P5*%
G36*
X250559211Y-140559006D02*
G01*
X250562251Y-140561198D01*
X250728801Y-140727748D01*
X250732228Y-140736021D01*
X250731628Y-140739721D01*
X250162630Y-142446900D01*
X250156763Y-142453665D01*
X250147830Y-142454300D01*
X250147062Y-142454013D01*
X249631122Y-142240853D01*
X249223781Y-142072561D01*
X249217446Y-142066237D01*
X248835986Y-141142936D01*
X248835994Y-141133982D01*
X248842331Y-141127656D01*
X248843071Y-141127379D01*
X250550279Y-140558371D01*
X250559211Y-140559006D01*
G37*
%TD.AperFunction*%
%TD*%
%TA.AperFunction,Conductor*%
%TO.N,P1*%
G36*
X214952527Y-111328626D02*
G01*
X214954764Y-111330687D01*
X216025755Y-112612605D01*
X216028429Y-112621151D01*
X216025859Y-112627481D01*
X216013829Y-112642298D01*
X215407714Y-113388807D01*
X215223512Y-113615675D01*
X215215637Y-113619937D01*
X215214429Y-113620000D01*
X214982200Y-113620000D01*
X214973927Y-113616573D01*
X214970500Y-113608300D01*
X214970500Y-113388819D01*
X214970499Y-113388807D01*
X214931397Y-113129392D01*
X214931396Y-113129385D01*
X214854063Y-112878677D01*
X214740228Y-112642296D01*
X214592433Y-112425521D01*
X214413981Y-112233195D01*
X214349912Y-112182101D01*
X214345581Y-112174264D01*
X214347644Y-112166213D01*
X214936225Y-111331444D01*
X214943791Y-111326659D01*
X214952527Y-111328626D01*
G37*
%TD.AperFunction*%
%TD*%
%TA.AperFunction,Conductor*%
%TO.N,GND*%
G36*
X236945505Y-141461037D02*
G01*
X236946526Y-141462206D01*
X238010191Y-142856485D01*
X238012485Y-142865141D01*
X238009162Y-142871854D01*
X237842623Y-143038393D01*
X237835390Y-143041774D01*
X236232731Y-143184863D01*
X236224186Y-143182185D01*
X236220037Y-143174249D01*
X236219991Y-143173217D01*
X236219897Y-143038393D01*
X236219296Y-142174149D01*
X236222716Y-142165876D01*
X236928961Y-141461020D01*
X236937236Y-141457602D01*
X236945505Y-141461037D01*
G37*
%TD.AperFunction*%
%TD*%
%TA.AperFunction,Conductor*%
%TO.N,P19*%
G36*
X264915680Y-149053427D02*
G01*
X264918571Y-149058199D01*
X265064970Y-149525012D01*
X265064176Y-149533931D01*
X265058317Y-149539309D01*
X264795511Y-149649115D01*
X264786556Y-149649142D01*
X264786489Y-149649115D01*
X264523682Y-149539309D01*
X264517370Y-149532957D01*
X264517029Y-149525013D01*
X264663429Y-149058199D01*
X264669175Y-149051330D01*
X264674593Y-149050000D01*
X264907407Y-149050000D01*
X264915680Y-149053427D01*
G37*
%TD.AperFunction*%
%TD*%
%TA.AperFunction,Conductor*%
%TO.N,P7*%
G36*
X223559211Y-172559006D02*
G01*
X223562251Y-172561198D01*
X223728801Y-172727748D01*
X223732228Y-172736021D01*
X223731628Y-172739721D01*
X223162630Y-174446900D01*
X223156763Y-174453665D01*
X223147830Y-174454300D01*
X223147062Y-174454013D01*
X222631122Y-174240853D01*
X222223781Y-174072561D01*
X222217446Y-174066237D01*
X221835986Y-173142936D01*
X221835994Y-173133982D01*
X221842331Y-173127656D01*
X221843071Y-173127379D01*
X223550279Y-172558371D01*
X223559211Y-172559006D01*
G37*
%TD.AperFunction*%
%TD*%
%TA.AperFunction,Conductor*%
%TO.N,P15*%
G36*
X258668444Y-144099071D02*
G01*
X258675312Y-144104816D01*
X258676642Y-144110234D01*
X258676642Y-144343049D01*
X258673215Y-144351322D01*
X258668443Y-144354213D01*
X258201629Y-144500612D01*
X258192710Y-144499818D01*
X258187333Y-144493960D01*
X258077525Y-144231151D01*
X258077499Y-144222198D01*
X258077504Y-144222184D01*
X258187333Y-143959322D01*
X258193684Y-143953012D01*
X258201628Y-143952671D01*
X258668444Y-144099071D01*
G37*
%TD.AperFunction*%
%TD*%
%TA.AperFunction,Conductor*%
%TO.N,P16*%
G36*
X266397207Y-162239248D02*
G01*
X266660684Y-162347436D01*
X266667036Y-162353748D01*
X266667063Y-162353815D01*
X266775251Y-162617292D01*
X266775224Y-162626247D01*
X266769846Y-162632106D01*
X266336240Y-162858673D01*
X266327321Y-162859467D01*
X266322549Y-162856576D01*
X266157923Y-162691950D01*
X266154496Y-162683677D01*
X266155824Y-162678264D01*
X266382394Y-162244651D01*
X266389262Y-162238907D01*
X266397207Y-162239248D01*
G37*
%TD.AperFunction*%
%TD*%
%TA.AperFunction,Conductor*%
%TO.N,GND*%
G36*
X217292934Y-122785984D02*
G01*
X218216218Y-123167438D01*
X218222554Y-123173763D01*
X218222562Y-123173782D01*
X218604013Y-124097062D01*
X218604005Y-124106017D01*
X218597668Y-124112343D01*
X218596900Y-124112630D01*
X216889721Y-124681628D01*
X216880788Y-124680993D01*
X216877748Y-124678801D01*
X216711198Y-124512251D01*
X216707771Y-124503978D01*
X216708371Y-124500278D01*
X217277370Y-122793096D01*
X217283236Y-122786334D01*
X217292169Y-122785699D01*
X217292934Y-122785984D01*
G37*
%TD.AperFunction*%
%TD*%
%TA.AperFunction,Conductor*%
%TO.N,P21*%
G36*
X276512071Y-127309252D02*
G01*
X277124760Y-127585793D01*
X277130891Y-127592320D01*
X277130767Y-127600909D01*
X276984563Y-127956195D01*
X276978245Y-127962542D01*
X276978195Y-127962563D01*
X276622909Y-128108767D01*
X276613955Y-128108746D01*
X276607793Y-128102760D01*
X276543676Y-127960707D01*
X276381279Y-127600909D01*
X276331252Y-127490071D01*
X276330972Y-127481121D01*
X276333641Y-127476987D01*
X276498986Y-127311642D01*
X276507258Y-127308216D01*
X276512071Y-127309252D01*
G37*
%TD.AperFunction*%
%TD*%
%TA.AperFunction,Conductor*%
%TO.N,P4*%
G36*
X250559211Y-157559006D02*
G01*
X250562251Y-157561198D01*
X250728801Y-157727748D01*
X250732228Y-157736021D01*
X250731628Y-157739721D01*
X250162630Y-159446900D01*
X250156763Y-159453665D01*
X250147830Y-159454300D01*
X250147062Y-159454013D01*
X249631122Y-159240853D01*
X249223781Y-159072561D01*
X249217446Y-159066237D01*
X248835986Y-158142936D01*
X248835994Y-158133982D01*
X248842331Y-158127656D01*
X248843071Y-158127379D01*
X250550279Y-157558371D01*
X250559211Y-157559006D01*
G37*
%TD.AperFunction*%
%TD*%
%TA.AperFunction,Conductor*%
%TO.N,GND*%
G36*
X254619225Y-126236753D02*
G01*
X254620099Y-126237158D01*
X256229660Y-127066732D01*
X256235444Y-127073568D01*
X256236000Y-127077132D01*
X256236000Y-127262867D01*
X256232573Y-127271140D01*
X256229660Y-127273267D01*
X254620098Y-128102841D01*
X254611174Y-128103585D01*
X254604338Y-128097801D01*
X254603933Y-128096928D01*
X254220862Y-127174486D01*
X254220855Y-127165532D01*
X254220863Y-127165513D01*
X254259046Y-127073568D01*
X254603933Y-126243070D01*
X254610270Y-126236745D01*
X254619225Y-126236753D01*
G37*
%TD.AperFunction*%
%TD*%
%TA.AperFunction,Conductor*%
%TO.N,P1*%
G36*
X275098909Y-117651232D02*
G01*
X275241763Y-117710018D01*
X275454195Y-117797436D01*
X275460542Y-117803754D01*
X275460563Y-117803804D01*
X275606767Y-118159090D01*
X275606746Y-118168044D01*
X275600760Y-118174206D01*
X274988071Y-118450747D01*
X274979121Y-118451027D01*
X274974985Y-118448356D01*
X274809643Y-118283014D01*
X274806216Y-118274741D01*
X274807252Y-118269928D01*
X274853238Y-118168044D01*
X275083794Y-117657238D01*
X275090320Y-117651108D01*
X275098909Y-117651232D01*
G37*
%TD.AperFunction*%
%TD*%
%TA.AperFunction,Conductor*%
%TO.N,P6*%
G36*
X250952527Y-115328626D02*
G01*
X250954764Y-115330687D01*
X252025755Y-116612605D01*
X252028429Y-116621151D01*
X252025859Y-116627481D01*
X252013829Y-116642298D01*
X251407714Y-117388807D01*
X251223512Y-117615675D01*
X251215637Y-117619937D01*
X251214429Y-117620000D01*
X250982200Y-117620000D01*
X250973927Y-117616573D01*
X250970500Y-117608300D01*
X250970500Y-117388819D01*
X250970499Y-117388807D01*
X250931397Y-117129392D01*
X250931396Y-117129385D01*
X250854063Y-116878677D01*
X250740228Y-116642296D01*
X250592433Y-116425521D01*
X250413981Y-116233195D01*
X250349912Y-116182101D01*
X250345581Y-116174264D01*
X250347644Y-116166213D01*
X250936225Y-115331444D01*
X250943791Y-115326659D01*
X250952527Y-115328626D01*
G37*
%TD.AperFunction*%
%TD*%
%TA.AperFunction,Conductor*%
%TO.N,GND*%
G36*
X236345709Y-164223427D02*
G01*
X236348105Y-164226899D01*
X236791687Y-165212638D01*
X236791957Y-165221588D01*
X236789294Y-165225709D01*
X235506568Y-166509423D01*
X235498297Y-166512853D01*
X235490022Y-166509429D01*
X235487789Y-166506308D01*
X234860573Y-165228388D01*
X234860004Y-165219451D01*
X234863726Y-165214130D01*
X236091784Y-164222597D01*
X236099134Y-164220000D01*
X236337436Y-164220000D01*
X236345709Y-164223427D01*
G37*
%TD.AperFunction*%
%TD*%
%TA.AperFunction,Conductor*%
%TO.N,P19*%
G36*
X276512071Y-132389252D02*
G01*
X277124760Y-132665793D01*
X277130891Y-132672320D01*
X277130767Y-132680909D01*
X276984563Y-133036195D01*
X276978245Y-133042542D01*
X276978195Y-133042563D01*
X276622909Y-133188767D01*
X276613955Y-133188746D01*
X276607793Y-133182760D01*
X276543676Y-133040707D01*
X276381279Y-132680909D01*
X276331252Y-132570071D01*
X276330972Y-132561121D01*
X276333641Y-132556987D01*
X276498986Y-132391642D01*
X276507258Y-132388216D01*
X276512071Y-132389252D01*
G37*
%TD.AperFunction*%
%TD*%
%TA.AperFunction,Conductor*%
%TO.N,RAW*%
G36*
X276512071Y-117149252D02*
G01*
X277124760Y-117425793D01*
X277130891Y-117432320D01*
X277130767Y-117440909D01*
X276984563Y-117796195D01*
X276978245Y-117802542D01*
X276978195Y-117802563D01*
X276622909Y-117948767D01*
X276613955Y-117948746D01*
X276607793Y-117942760D01*
X276543676Y-117800707D01*
X276381279Y-117440909D01*
X276331252Y-117330071D01*
X276330972Y-117321121D01*
X276333641Y-117316987D01*
X276498986Y-117151642D01*
X276507258Y-117148216D01*
X276512071Y-117149252D01*
G37*
%TD.AperFunction*%
%TD*%
%TA.AperFunction,Conductor*%
%TO.N,GND*%
G36*
X262485921Y-117518439D02*
G01*
X262493865Y-117522572D01*
X262496560Y-117529078D01*
X262608452Y-118811277D01*
X262605757Y-118819817D01*
X262601059Y-118823190D01*
X260583406Y-119612706D01*
X260574453Y-119612529D01*
X260570870Y-119610083D01*
X260404916Y-119444129D01*
X260401489Y-119435856D01*
X260402293Y-119431593D01*
X260641612Y-118820000D01*
X261191809Y-117413939D01*
X261198015Y-117407484D01*
X261203721Y-117406547D01*
X262485921Y-117518439D01*
G37*
%TD.AperFunction*%
%TD*%
%TA.AperFunction,Conductor*%
%TO.N,GND*%
G36*
X283528363Y-157414059D02*
G01*
X284211606Y-158011337D01*
X284215580Y-158019362D01*
X284212715Y-158027846D01*
X284212459Y-158028129D01*
X283527856Y-158761583D01*
X283519706Y-158765293D01*
X283511458Y-158762281D01*
X282964032Y-158267574D01*
X282963834Y-158267387D01*
X282830659Y-158134212D01*
X282827232Y-158125939D01*
X282830530Y-158117797D01*
X283512266Y-157414723D01*
X283520485Y-157411170D01*
X283528363Y-157414059D01*
G37*
%TD.AperFunction*%
%TD*%
%TA.AperFunction,Conductor*%
%TO.N,RST*%
G36*
X276512071Y-122229252D02*
G01*
X277124760Y-122505793D01*
X277130891Y-122512320D01*
X277130767Y-122520909D01*
X276984563Y-122876195D01*
X276978245Y-122882542D01*
X276978195Y-122882563D01*
X276622909Y-123028767D01*
X276613955Y-123028746D01*
X276607793Y-123022760D01*
X276543676Y-122880707D01*
X276381279Y-122520909D01*
X276331252Y-122410071D01*
X276330972Y-122401121D01*
X276333641Y-122396987D01*
X276498986Y-122231642D01*
X276507258Y-122228216D01*
X276512071Y-122229252D01*
G37*
%TD.AperFunction*%
%TD*%
%TA.AperFunction,Conductor*%
%TO.N,GND*%
G36*
X255559211Y-159659006D02*
G01*
X255562251Y-159661198D01*
X255728801Y-159827748D01*
X255732228Y-159836021D01*
X255731628Y-159839721D01*
X255162630Y-161546900D01*
X255156763Y-161553665D01*
X255147830Y-161554300D01*
X255147062Y-161554013D01*
X254631122Y-161340853D01*
X254223781Y-161172561D01*
X254217446Y-161166237D01*
X253835986Y-160242936D01*
X253835994Y-160233982D01*
X253842331Y-160227656D01*
X253843071Y-160227379D01*
X255550279Y-159658371D01*
X255559211Y-159659006D01*
G37*
%TD.AperFunction*%
%TD*%
%TA.AperFunction,Conductor*%
%TO.N,GND*%
G36*
X200945505Y-141461037D02*
G01*
X200946526Y-141462206D01*
X202010191Y-142856485D01*
X202012485Y-142865141D01*
X202009162Y-142871854D01*
X201842623Y-143038393D01*
X201835390Y-143041774D01*
X200232731Y-143184863D01*
X200224186Y-143182185D01*
X200220037Y-143174249D01*
X200219991Y-143173217D01*
X200219897Y-143038393D01*
X200219296Y-142174149D01*
X200222716Y-142165876D01*
X200928961Y-141461020D01*
X200937236Y-141457602D01*
X200945505Y-141461037D01*
G37*
%TD.AperFunction*%
%TD*%
%TA.AperFunction,Conductor*%
%TO.N,GND*%
G36*
X224583406Y-128427293D02*
G01*
X226601059Y-129216809D01*
X226607515Y-129223015D01*
X226608452Y-129228722D01*
X226496560Y-130510921D01*
X226492427Y-130518865D01*
X226485921Y-130521560D01*
X225203722Y-130633452D01*
X225195182Y-130630757D01*
X225191809Y-130626059D01*
X224402293Y-128608406D01*
X224402470Y-128599453D01*
X224404913Y-128595873D01*
X224570871Y-128429915D01*
X224579143Y-128426489D01*
X224583406Y-128427293D01*
G37*
%TD.AperFunction*%
%TD*%
%TA.AperFunction,Conductor*%
%TO.N,GND*%
G36*
X206583406Y-147427293D02*
G01*
X208601059Y-148216809D01*
X208607515Y-148223015D01*
X208608452Y-148228722D01*
X208496560Y-149510921D01*
X208492427Y-149518865D01*
X208485921Y-149521560D01*
X207203722Y-149633452D01*
X207195182Y-149630757D01*
X207191809Y-149626059D01*
X206402293Y-147608406D01*
X206402470Y-147599453D01*
X206404913Y-147595873D01*
X206570871Y-147429915D01*
X206579143Y-147426489D01*
X206583406Y-147427293D01*
G37*
%TD.AperFunction*%
%TD*%
%TA.AperFunction,Conductor*%
%TO.N,P3*%
G36*
X271003931Y-121436823D02*
G01*
X271009309Y-121442682D01*
X271119115Y-121705489D01*
X271119142Y-121714444D01*
X271119115Y-121714511D01*
X271009309Y-121977317D01*
X271002957Y-121983629D01*
X270995012Y-121983970D01*
X270528199Y-121837571D01*
X270521330Y-121831825D01*
X270520000Y-121826407D01*
X270520000Y-121593592D01*
X270523427Y-121585319D01*
X270528196Y-121582429D01*
X270995013Y-121436029D01*
X271003931Y-121436823D01*
G37*
%TD.AperFunction*%
%TD*%
%TA.AperFunction,Conductor*%
%TO.N,P4*%
G36*
X279331802Y-139395150D02*
G01*
X279338670Y-139400895D01*
X279340000Y-139406313D01*
X279340000Y-139639128D01*
X279336573Y-139647401D01*
X279331801Y-139650292D01*
X278864987Y-139796691D01*
X278856068Y-139795897D01*
X278850691Y-139790039D01*
X278740883Y-139527230D01*
X278740857Y-139518277D01*
X278740862Y-139518263D01*
X278850691Y-139255401D01*
X278857042Y-139249091D01*
X278864986Y-139248750D01*
X279331802Y-139395150D01*
G37*
%TD.AperFunction*%
%TD*%
%TA.AperFunction,Conductor*%
%TO.N,GND*%
G36*
X182346042Y-127157427D02*
G01*
X182348234Y-127160467D01*
X183153049Y-128769969D01*
X183153684Y-128778902D01*
X183147817Y-128785667D01*
X183147071Y-128786007D01*
X182224487Y-129169136D01*
X182215532Y-129169144D01*
X182215513Y-129169136D01*
X181292928Y-128786007D01*
X181286602Y-128779670D01*
X181286610Y-128770715D01*
X181286940Y-128769990D01*
X182091766Y-127160466D01*
X182098531Y-127154600D01*
X182102231Y-127154000D01*
X182337769Y-127154000D01*
X182346042Y-127157427D01*
G37*
%TD.AperFunction*%
%TD*%
%TA.AperFunction,Conductor*%
%TO.N,P2*%
G36*
X232559211Y-138559006D02*
G01*
X232562251Y-138561198D01*
X232728801Y-138727748D01*
X232732228Y-138736021D01*
X232731628Y-138739721D01*
X232162630Y-140446900D01*
X232156763Y-140453665D01*
X232147830Y-140454300D01*
X232147062Y-140454013D01*
X231631122Y-140240853D01*
X231223781Y-140072561D01*
X231217446Y-140066237D01*
X230835986Y-139142936D01*
X230835994Y-139133982D01*
X230842331Y-139127656D01*
X230843071Y-139127379D01*
X232550279Y-138558371D01*
X232559211Y-138559006D01*
G37*
%TD.AperFunction*%
%TD*%
%TA.AperFunction,Conductor*%
%TO.N,P10*%
G36*
X214952527Y-128328626D02*
G01*
X214954764Y-128330687D01*
X216025755Y-129612605D01*
X216028429Y-129621151D01*
X216025859Y-129627481D01*
X216013829Y-129642298D01*
X215407714Y-130388807D01*
X215223512Y-130615675D01*
X215215637Y-130619937D01*
X215214429Y-130620000D01*
X214982200Y-130620000D01*
X214973927Y-130616573D01*
X214970500Y-130608300D01*
X214970500Y-130388819D01*
X214970499Y-130388807D01*
X214931397Y-130129392D01*
X214931396Y-130129385D01*
X214854063Y-129878677D01*
X214740228Y-129642296D01*
X214592433Y-129425521D01*
X214413981Y-129233195D01*
X214349912Y-129182101D01*
X214345581Y-129174264D01*
X214347644Y-129166213D01*
X214936225Y-128331444D01*
X214943791Y-128326659D01*
X214952527Y-128328626D01*
G37*
%TD.AperFunction*%
%TD*%
%TA.AperFunction,Conductor*%
%TO.N,GND*%
G36*
X246736011Y-177570239D02*
G01*
X246739051Y-177572431D01*
X246905601Y-177738981D01*
X246909028Y-177747254D01*
X246908428Y-177750954D01*
X246339430Y-179458133D01*
X246333563Y-179464898D01*
X246324630Y-179465533D01*
X246323862Y-179465246D01*
X245807922Y-179252086D01*
X245400581Y-179083794D01*
X245394246Y-179077470D01*
X245012786Y-178154169D01*
X245012794Y-178145215D01*
X245019131Y-178138889D01*
X245019871Y-178138612D01*
X246727079Y-177569604D01*
X246736011Y-177570239D01*
G37*
%TD.AperFunction*%
%TD*%
%TA.AperFunction,Conductor*%
%TO.N,GND*%
G36*
X254346042Y-125157427D02*
G01*
X254348234Y-125160467D01*
X255153049Y-126769969D01*
X255153684Y-126778902D01*
X255147817Y-126785667D01*
X255147071Y-126786007D01*
X254224487Y-127169136D01*
X254215532Y-127169144D01*
X254215513Y-127169136D01*
X253292928Y-126786007D01*
X253286602Y-126779670D01*
X253286610Y-126770715D01*
X253286940Y-126769990D01*
X254091766Y-125160466D01*
X254098531Y-125154600D01*
X254102231Y-125154000D01*
X254337769Y-125154000D01*
X254346042Y-125157427D01*
G37*
%TD.AperFunction*%
%TD*%
%TA.AperFunction,Conductor*%
%TO.N,GND*%
G36*
X273244451Y-183506902D02*
G01*
X274113167Y-184492572D01*
X274116067Y-184501044D01*
X274113365Y-184507814D01*
X273289404Y-185493049D01*
X273281468Y-185497197D01*
X273275248Y-185496033D01*
X271518440Y-184628328D01*
X271512540Y-184621592D01*
X271511921Y-184617838D01*
X271511921Y-184382295D01*
X271515348Y-184374022D01*
X271518327Y-184371862D01*
X271620490Y-184320086D01*
X271624890Y-184318859D01*
X271707068Y-184312701D01*
X271730902Y-184310916D01*
X271730904Y-184310915D01*
X271730910Y-184310915D01*
X271986696Y-184252533D01*
X272230923Y-184156681D01*
X272458137Y-184025499D01*
X272663261Y-183861918D01*
X272784971Y-183730744D01*
X272788248Y-183728274D01*
X273230388Y-183504201D01*
X273239314Y-183503519D01*
X273244451Y-183506902D01*
G37*
%TD.AperFunction*%
%TD*%
%TA.AperFunction,Conductor*%
%TO.N,P14*%
G36*
X196952527Y-113328626D02*
G01*
X196954764Y-113330687D01*
X198025755Y-114612605D01*
X198028429Y-114621151D01*
X198025859Y-114627481D01*
X198013829Y-114642298D01*
X197407714Y-115388807D01*
X197223512Y-115615675D01*
X197215637Y-115619937D01*
X197214429Y-115620000D01*
X196982200Y-115620000D01*
X196973927Y-115616573D01*
X196970500Y-115608300D01*
X196970500Y-115388819D01*
X196970499Y-115388807D01*
X196931397Y-115129392D01*
X196931396Y-115129385D01*
X196854063Y-114878677D01*
X196740228Y-114642296D01*
X196592433Y-114425521D01*
X196413981Y-114233195D01*
X196349912Y-114182101D01*
X196345581Y-114174264D01*
X196347644Y-114166213D01*
X196936225Y-113331444D01*
X196943791Y-113326659D01*
X196952527Y-113328626D01*
G37*
%TD.AperFunction*%
%TD*%
%TA.AperFunction,Conductor*%
%TO.N,GND*%
G36*
X190485921Y-153518439D02*
G01*
X190493865Y-153522572D01*
X190496560Y-153529078D01*
X190608452Y-154811277D01*
X190605757Y-154819817D01*
X190601059Y-154823190D01*
X188583406Y-155612706D01*
X188574453Y-155612529D01*
X188570870Y-155610083D01*
X188404916Y-155444129D01*
X188401489Y-155435856D01*
X188402293Y-155431593D01*
X188641612Y-154820000D01*
X189191809Y-153413939D01*
X189198015Y-153407484D01*
X189203721Y-153406547D01*
X190485921Y-153518439D01*
G37*
%TD.AperFunction*%
%TD*%
%TA.AperFunction,Conductor*%
%TO.N,P15*%
G36*
X196559211Y-138559006D02*
G01*
X196562251Y-138561198D01*
X196728801Y-138727748D01*
X196732228Y-138736021D01*
X196731628Y-138739721D01*
X196162630Y-140446900D01*
X196156763Y-140453665D01*
X196147830Y-140454300D01*
X196147062Y-140454013D01*
X195631122Y-140240853D01*
X195223781Y-140072561D01*
X195217446Y-140066237D01*
X194835986Y-139142936D01*
X194835994Y-139133982D01*
X194842331Y-139127656D01*
X194843071Y-139127379D01*
X196550279Y-138558371D01*
X196559211Y-138559006D01*
G37*
%TD.AperFunction*%
%TD*%
%TA.AperFunction,Conductor*%
%TO.N,P3*%
G36*
X235000389Y-111325736D02*
G01*
X235006238Y-111332517D01*
X235006828Y-111336186D01*
X235006828Y-111567763D01*
X235006002Y-111572080D01*
X234248357Y-113480367D01*
X234242119Y-113486792D01*
X234235977Y-113487653D01*
X232953755Y-113321265D01*
X232945992Y-113316802D01*
X232943572Y-113310172D01*
X232887875Y-112028841D01*
X232890939Y-112020428D01*
X232895894Y-112017224D01*
X234991459Y-111325076D01*
X235000389Y-111325736D01*
G37*
%TD.AperFunction*%
%TD*%
%TA.AperFunction,Conductor*%
%TO.N,P19*%
G36*
X265058318Y-134520691D02*
G01*
X265064629Y-134527042D01*
X265064970Y-134534987D01*
X264918571Y-135001801D01*
X264912825Y-135008670D01*
X264907407Y-135010000D01*
X264674593Y-135010000D01*
X264666320Y-135006573D01*
X264663429Y-135001801D01*
X264517029Y-134534987D01*
X264517823Y-134526068D01*
X264523679Y-134520692D01*
X264786490Y-134410883D01*
X264795444Y-134410857D01*
X265058318Y-134520691D01*
G37*
%TD.AperFunction*%
%TD*%
%TA.AperFunction,Conductor*%
%TO.N,GND*%
G36*
X226485921Y-147518439D02*
G01*
X226493865Y-147522572D01*
X226496560Y-147529078D01*
X226608452Y-148811277D01*
X226605757Y-148819817D01*
X226601059Y-148823190D01*
X224583406Y-149612706D01*
X224574453Y-149612529D01*
X224570870Y-149610083D01*
X224404916Y-149444129D01*
X224401489Y-149435856D01*
X224402293Y-149431593D01*
X224641612Y-148820000D01*
X225191809Y-147413939D01*
X225198015Y-147407484D01*
X225203721Y-147406547D01*
X226485921Y-147518439D01*
G37*
%TD.AperFunction*%
%TD*%
%TA.AperFunction,Conductor*%
%TO.N,GND*%
G36*
X254946636Y-143458602D02*
G01*
X256145138Y-144482919D01*
X256149200Y-144490898D01*
X256146430Y-144499414D01*
X256145809Y-144500085D01*
X255979977Y-144665917D01*
X255975289Y-144668781D01*
X254619069Y-145105358D01*
X254610144Y-145104631D01*
X254604676Y-145098702D01*
X254222290Y-144176523D01*
X254222288Y-144167570D01*
X254224832Y-144163764D01*
X254930770Y-143459214D01*
X254939046Y-143455796D01*
X254946636Y-143458602D01*
G37*
%TD.AperFunction*%
%TD*%
%TA.AperFunction,Conductor*%
%TO.N,GND*%
G36*
X255559211Y-159659006D02*
G01*
X255562251Y-159661198D01*
X255728801Y-159827748D01*
X255732228Y-159836021D01*
X255731628Y-159839721D01*
X255162630Y-161546900D01*
X255156763Y-161553665D01*
X255147830Y-161554300D01*
X255147062Y-161554013D01*
X254631122Y-161340853D01*
X254223781Y-161172561D01*
X254217446Y-161166237D01*
X253835986Y-160242936D01*
X253835994Y-160233982D01*
X253842331Y-160227656D01*
X253843071Y-160227379D01*
X255550279Y-159658371D01*
X255559211Y-159659006D01*
G37*
%TD.AperFunction*%
%TD*%
%TA.AperFunction,Conductor*%
%TO.N,RAW*%
G36*
X279015779Y-152079467D02*
G01*
X279021877Y-152085329D01*
X279231523Y-152536132D01*
X279231904Y-152545079D01*
X279229187Y-152549339D01*
X279099339Y-152679187D01*
X279091066Y-152682614D01*
X279086132Y-152681523D01*
X278792736Y-152545079D01*
X278635328Y-152471876D01*
X278629273Y-152465281D01*
X278629439Y-152456825D01*
X278737436Y-152193814D01*
X278743746Y-152187464D01*
X279006825Y-152079440D01*
X279015779Y-152079467D01*
G37*
%TD.AperFunction*%
%TD*%
%TA.AperFunction,Conductor*%
%TO.N,GND*%
G36*
X200346042Y-140157427D02*
G01*
X200348234Y-140160467D01*
X201153049Y-141769969D01*
X201153684Y-141778902D01*
X201147817Y-141785667D01*
X201147071Y-141786007D01*
X200224487Y-142169136D01*
X200215532Y-142169144D01*
X200215513Y-142169136D01*
X199292928Y-141786007D01*
X199286602Y-141779670D01*
X199286610Y-141770715D01*
X199286940Y-141769990D01*
X200091766Y-140160466D01*
X200098531Y-140154600D01*
X200102231Y-140154000D01*
X200337769Y-140154000D01*
X200346042Y-140157427D01*
G37*
%TD.AperFunction*%
%TD*%
%TA.AperFunction,Conductor*%
%TO.N,RST*%
G36*
X266818499Y-147743110D02*
G01*
X267269306Y-147952758D01*
X267275361Y-147959353D01*
X267275194Y-147967810D01*
X267167198Y-148230819D01*
X267160886Y-148237171D01*
X267160819Y-148237198D01*
X266897810Y-148345194D01*
X266888855Y-148345167D01*
X266882758Y-148339306D01*
X266673110Y-147888500D01*
X266672730Y-147879555D01*
X266675445Y-147875297D01*
X266805296Y-147745446D01*
X266813568Y-147742020D01*
X266818499Y-147743110D01*
G37*
%TD.AperFunction*%
%TD*%
%TA.AperFunction,Conductor*%
%TO.N,GND*%
G36*
X236346042Y-157157427D02*
G01*
X236348234Y-157160467D01*
X237153049Y-158769969D01*
X237153684Y-158778902D01*
X237147817Y-158785667D01*
X237147071Y-158786007D01*
X236224487Y-159169136D01*
X236215532Y-159169144D01*
X236215513Y-159169136D01*
X235292928Y-158786007D01*
X235286602Y-158779670D01*
X235286610Y-158770715D01*
X235286940Y-158769990D01*
X236091766Y-157160466D01*
X236098531Y-157154600D01*
X236102231Y-157154000D01*
X236337769Y-157154000D01*
X236346042Y-157157427D01*
G37*
%TD.AperFunction*%
%TD*%
%TA.AperFunction,Conductor*%
%TO.N,GND*%
G36*
X190485921Y-119518439D02*
G01*
X190493865Y-119522572D01*
X190496560Y-119529078D01*
X190608452Y-120811277D01*
X190605757Y-120819817D01*
X190601059Y-120823190D01*
X188583406Y-121612706D01*
X188574453Y-121612529D01*
X188570870Y-121610083D01*
X188404916Y-121444129D01*
X188401489Y-121435856D01*
X188402293Y-121431593D01*
X188641612Y-120820000D01*
X189191809Y-119413939D01*
X189198015Y-119407484D01*
X189203721Y-119406547D01*
X190485921Y-119518439D01*
G37*
%TD.AperFunction*%
%TD*%
%TA.AperFunction,Conductor*%
%TO.N,P1*%
G36*
X214559211Y-119559006D02*
G01*
X214562251Y-119561198D01*
X214728801Y-119727748D01*
X214732228Y-119736021D01*
X214731628Y-119739721D01*
X214162630Y-121446900D01*
X214156763Y-121453665D01*
X214147830Y-121454300D01*
X214147062Y-121454013D01*
X213631122Y-121240853D01*
X213223781Y-121072561D01*
X213217446Y-121066237D01*
X212835986Y-120142936D01*
X212835994Y-120133982D01*
X212842331Y-120127656D01*
X212843071Y-120127379D01*
X214550279Y-119558371D01*
X214559211Y-119559006D01*
G37*
%TD.AperFunction*%
%TD*%
%TA.AperFunction,Conductor*%
%TO.N,GND*%
G36*
X208485921Y-132518439D02*
G01*
X208493865Y-132522572D01*
X208496560Y-132529078D01*
X208608452Y-133811277D01*
X208605757Y-133819817D01*
X208601059Y-133823190D01*
X206583406Y-134612706D01*
X206574453Y-134612529D01*
X206570870Y-134610083D01*
X206404916Y-134444129D01*
X206401489Y-134435856D01*
X206402293Y-134431593D01*
X206641612Y-133820000D01*
X207191809Y-132413939D01*
X207198015Y-132407484D01*
X207203721Y-132406547D01*
X208485921Y-132518439D01*
G37*
%TD.AperFunction*%
%TD*%
%TA.AperFunction,Conductor*%
%TO.N,GND*%
G36*
X236346042Y-123157427D02*
G01*
X236348234Y-123160467D01*
X237153049Y-124769969D01*
X237153684Y-124778902D01*
X237147817Y-124785667D01*
X237147071Y-124786007D01*
X236224487Y-125169136D01*
X236215532Y-125169144D01*
X236215513Y-125169136D01*
X235292928Y-124786007D01*
X235286602Y-124779670D01*
X235286610Y-124770715D01*
X235286940Y-124769990D01*
X236091766Y-123160466D01*
X236098531Y-123154600D01*
X236102231Y-123154000D01*
X236337769Y-123154000D01*
X236346042Y-123157427D01*
G37*
%TD.AperFunction*%
%TD*%
%TA.AperFunction,Conductor*%
%TO.N,P20*%
G36*
X265307450Y-151683423D02*
G01*
X265472076Y-151848049D01*
X265475503Y-151856322D01*
X265474173Y-151861740D01*
X265247606Y-152295346D01*
X265240737Y-152301092D01*
X265232792Y-152300751D01*
X264969315Y-152192563D01*
X264962963Y-152186251D01*
X264962936Y-152186184D01*
X264854748Y-151922707D01*
X264854775Y-151913752D01*
X264860151Y-151907894D01*
X265293762Y-151681325D01*
X265302678Y-151680532D01*
X265307450Y-151683423D01*
G37*
%TD.AperFunction*%
%TD*%
%TA.AperFunction,Conductor*%
%TO.N,P3*%
G36*
X275825847Y-130351333D02*
G01*
X275832097Y-130357518D01*
X276098085Y-130977273D01*
X276098198Y-130986227D01*
X276095606Y-130990160D01*
X275930250Y-131155516D01*
X275921977Y-131158943D01*
X275916992Y-131157828D01*
X275552650Y-130986227D01*
X275314996Y-130874294D01*
X275308972Y-130867669D01*
X275309161Y-130859260D01*
X275455437Y-130503802D01*
X275461753Y-130497457D01*
X275816896Y-130351312D01*
X275825847Y-130351333D01*
G37*
%TD.AperFunction*%
%TD*%
%TA.AperFunction,Conductor*%
%TO.N,GND*%
G36*
X200346042Y-157157427D02*
G01*
X200348234Y-157160467D01*
X201153049Y-158769969D01*
X201153684Y-158778902D01*
X201147817Y-158785667D01*
X201147071Y-158786007D01*
X200224487Y-159169136D01*
X200215532Y-159169144D01*
X200215513Y-159169136D01*
X199292928Y-158786007D01*
X199286602Y-158779670D01*
X199286610Y-158770715D01*
X199286940Y-158769990D01*
X200091766Y-157160466D01*
X200098531Y-157154600D01*
X200102231Y-157154000D01*
X200337769Y-157154000D01*
X200346042Y-157157427D01*
G37*
%TD.AperFunction*%
%TD*%
%TA.AperFunction,Conductor*%
%TO.N,GND*%
G36*
X182946636Y-145458602D02*
G01*
X184145138Y-146482919D01*
X184149200Y-146490898D01*
X184146430Y-146499414D01*
X184145809Y-146500085D01*
X183979977Y-146665917D01*
X183975289Y-146668781D01*
X182619069Y-147105358D01*
X182610144Y-147104631D01*
X182604676Y-147098702D01*
X182222290Y-146176523D01*
X182222288Y-146167570D01*
X182224832Y-146163764D01*
X182930770Y-145459214D01*
X182939046Y-145455796D01*
X182946636Y-145458602D01*
G37*
%TD.AperFunction*%
%TD*%
%TA.AperFunction,Conductor*%
%TO.N,P15*%
G36*
X276512071Y-137469252D02*
G01*
X277124760Y-137745793D01*
X277130891Y-137752320D01*
X277130767Y-137760909D01*
X276984563Y-138116195D01*
X276978245Y-138122542D01*
X276978195Y-138122563D01*
X276622909Y-138268767D01*
X276613955Y-138268746D01*
X276607793Y-138262760D01*
X276543676Y-138120707D01*
X276381279Y-137760909D01*
X276331252Y-137650071D01*
X276330972Y-137641121D01*
X276333641Y-137636987D01*
X276498986Y-137471642D01*
X276507258Y-137468216D01*
X276512071Y-137469252D01*
G37*
%TD.AperFunction*%
%TD*%
%TA.AperFunction,Conductor*%
%TO.N,GND*%
G36*
X254945505Y-126461037D02*
G01*
X254946526Y-126462206D01*
X256010191Y-127856485D01*
X256012485Y-127865141D01*
X256009162Y-127871854D01*
X255842623Y-128038393D01*
X255835390Y-128041774D01*
X254232731Y-128184863D01*
X254224186Y-128182185D01*
X254220037Y-128174249D01*
X254219991Y-128173217D01*
X254219897Y-128038393D01*
X254219296Y-127174149D01*
X254222716Y-127165876D01*
X254928961Y-126461020D01*
X254937236Y-126457602D01*
X254945505Y-126461037D01*
G37*
%TD.AperFunction*%
%TD*%
%TA.AperFunction,Conductor*%
%TO.N,P9*%
G36*
X259340634Y-181871904D02*
G01*
X259341337Y-181872224D01*
X260821343Y-182605339D01*
X260824423Y-182607550D01*
X260989044Y-182772171D01*
X260992471Y-182780444D01*
X260989044Y-182788717D01*
X260986607Y-182790584D01*
X259341673Y-183737360D01*
X259332794Y-183738517D01*
X259325697Y-183733056D01*
X259325032Y-183731707D01*
X258942486Y-182810529D01*
X258942478Y-182801574D01*
X258942483Y-182801561D01*
X258950193Y-182782968D01*
X259325346Y-181878229D01*
X259331680Y-181871901D01*
X259340634Y-181871904D01*
G37*
%TD.AperFunction*%
%TD*%
%TA.AperFunction,Conductor*%
%TO.N,GND*%
G36*
X237147071Y-159553992D02*
G01*
X237153397Y-159560329D01*
X237153389Y-159569284D01*
X237153049Y-159570030D01*
X236348234Y-161179533D01*
X236341469Y-161185400D01*
X236337769Y-161186000D01*
X236102231Y-161186000D01*
X236093958Y-161182573D01*
X236091766Y-161179533D01*
X235286950Y-159570030D01*
X235286315Y-159561097D01*
X235292182Y-159554332D01*
X235292905Y-159554002D01*
X236215513Y-159170862D01*
X236224466Y-159170855D01*
X237147071Y-159553992D01*
G37*
%TD.AperFunction*%
%TD*%
%TA.AperFunction,Conductor*%
%TO.N,P10*%
G36*
X212292934Y-137685984D02*
G01*
X213216218Y-138067438D01*
X213222554Y-138073763D01*
X213222562Y-138073782D01*
X213604013Y-138997062D01*
X213604005Y-139006017D01*
X213597668Y-139012343D01*
X213596900Y-139012630D01*
X211889721Y-139581628D01*
X211880788Y-139580993D01*
X211877748Y-139578801D01*
X211711198Y-139412251D01*
X211707771Y-139403978D01*
X211708371Y-139400278D01*
X212277370Y-137693096D01*
X212283236Y-137686334D01*
X212292169Y-137685699D01*
X212292934Y-137685984D01*
G37*
%TD.AperFunction*%
%TD*%
%TA.AperFunction,Conductor*%
%TO.N,GND*%
G36*
X226485921Y-113518439D02*
G01*
X226493865Y-113522572D01*
X226496560Y-113529078D01*
X226608452Y-114811277D01*
X226605757Y-114819817D01*
X226601059Y-114823190D01*
X224583406Y-115612706D01*
X224574453Y-115612529D01*
X224570870Y-115610083D01*
X224404916Y-115444129D01*
X224401489Y-115435856D01*
X224402293Y-115431593D01*
X224641612Y-114820000D01*
X225191809Y-113413939D01*
X225198015Y-113407484D01*
X225203721Y-113406547D01*
X226485921Y-113518439D01*
G37*
%TD.AperFunction*%
%TD*%
%TA.AperFunction,Conductor*%
%TO.N,GND*%
G36*
X188583406Y-134427293D02*
G01*
X190601059Y-135216809D01*
X190607515Y-135223015D01*
X190608452Y-135228722D01*
X190496560Y-136510921D01*
X190492427Y-136518865D01*
X190485921Y-136521560D01*
X189203722Y-136633452D01*
X189195182Y-136630757D01*
X189191809Y-136626059D01*
X188402293Y-134608406D01*
X188402470Y-134599453D01*
X188404913Y-134595873D01*
X188570871Y-134429915D01*
X188579143Y-134426489D01*
X188583406Y-134427293D01*
G37*
%TD.AperFunction*%
%TD*%
%TA.AperFunction,Conductor*%
%TO.N,GND*%
G36*
X262151351Y-186509810D02*
G01*
X262152086Y-186510145D01*
X263761600Y-187314966D01*
X263767467Y-187321731D01*
X263768067Y-187325431D01*
X263768067Y-187560968D01*
X263764640Y-187569241D01*
X263761600Y-187571433D01*
X262152097Y-188376249D01*
X262143164Y-188376884D01*
X262136399Y-188371017D01*
X262136064Y-188370283D01*
X261752929Y-187447686D01*
X261752922Y-187438732D01*
X261752930Y-187438713D01*
X262136060Y-186516126D01*
X262142396Y-186509802D01*
X262151351Y-186509810D01*
G37*
%TD.AperFunction*%
%TD*%
%TA.AperFunction,Conductor*%
%TO.N,GND*%
G36*
X182346042Y-161157427D02*
G01*
X182348234Y-161160467D01*
X183153049Y-162769969D01*
X183153684Y-162778902D01*
X183147817Y-162785667D01*
X183147071Y-162786007D01*
X182224487Y-163169136D01*
X182215532Y-163169144D01*
X182215513Y-163169136D01*
X181292928Y-162786007D01*
X181286602Y-162779670D01*
X181286610Y-162770715D01*
X181286940Y-162769990D01*
X182091766Y-161160466D01*
X182098531Y-161154600D01*
X182102231Y-161154000D01*
X182337769Y-161154000D01*
X182346042Y-161157427D01*
G37*
%TD.AperFunction*%
%TD*%
%TA.AperFunction,Conductor*%
%TO.N,GND*%
G36*
X260583406Y-132427293D02*
G01*
X262601059Y-133216809D01*
X262607515Y-133223015D01*
X262608452Y-133228722D01*
X262496560Y-134510921D01*
X262492427Y-134518865D01*
X262485921Y-134521560D01*
X261203722Y-134633452D01*
X261195182Y-134630757D01*
X261191809Y-134626059D01*
X260402293Y-132608406D01*
X260402470Y-132599453D01*
X260404913Y-132595873D01*
X260570871Y-132429915D01*
X260579143Y-132426489D01*
X260583406Y-132427293D01*
G37*
%TD.AperFunction*%
%TD*%
%TA.AperFunction,Conductor*%
%TO.N,GND*%
G36*
X183559211Y-127659006D02*
G01*
X183562251Y-127661198D01*
X183728801Y-127827748D01*
X183732228Y-127836021D01*
X183731628Y-127839721D01*
X183162630Y-129546900D01*
X183156763Y-129553665D01*
X183147830Y-129554300D01*
X183147062Y-129554013D01*
X182631122Y-129340853D01*
X182223781Y-129172561D01*
X182217446Y-129166237D01*
X181835986Y-128242936D01*
X181835994Y-128233982D01*
X181842331Y-128227656D01*
X181843071Y-128227379D01*
X183550279Y-127658371D01*
X183559211Y-127659006D01*
G37*
%TD.AperFunction*%
%TD*%
%TA.AperFunction,Conductor*%
%TO.N,GND*%
G36*
X243095563Y-130428017D02*
G01*
X244765247Y-131216042D01*
X244771266Y-131222672D01*
X244771695Y-131229068D01*
X244497798Y-132510916D01*
X244492718Y-132518290D01*
X244485709Y-132520153D01*
X243204476Y-132449217D01*
X243196405Y-132445338D01*
X243193559Y-132439311D01*
X242912244Y-130607140D01*
X242914375Y-130598442D01*
X242915528Y-130597098D01*
X243082301Y-130430325D01*
X243090573Y-130426899D01*
X243095563Y-130428017D01*
G37*
%TD.AperFunction*%
%TD*%
%TA.AperFunction,Conductor*%
%TO.N,P20*%
G36*
X178559211Y-142559006D02*
G01*
X178562251Y-142561198D01*
X178728801Y-142727748D01*
X178732228Y-142736021D01*
X178731628Y-142739721D01*
X178162630Y-144446900D01*
X178156763Y-144453665D01*
X178147830Y-144454300D01*
X178147062Y-144454013D01*
X177631122Y-144240853D01*
X177223781Y-144072561D01*
X177217446Y-144066237D01*
X176835986Y-143142936D01*
X176835994Y-143133982D01*
X176842331Y-143127656D01*
X176843071Y-143127379D01*
X178550279Y-142558371D01*
X178559211Y-142559006D01*
G37*
%TD.AperFunction*%
%TD*%
%TA.AperFunction,Conductor*%
%TO.N,P16*%
G36*
X214559211Y-153559006D02*
G01*
X214562251Y-153561198D01*
X214728801Y-153727748D01*
X214732228Y-153736021D01*
X214731628Y-153739721D01*
X214162630Y-155446900D01*
X214156763Y-155453665D01*
X214147830Y-155454300D01*
X214147062Y-155454013D01*
X213631122Y-155240853D01*
X213223781Y-155072561D01*
X213217446Y-155066237D01*
X212835986Y-154142936D01*
X212835994Y-154133982D01*
X212842331Y-154127656D01*
X212843071Y-154127379D01*
X214550279Y-153558371D01*
X214559211Y-153559006D01*
G37*
%TD.AperFunction*%
%TD*%
%TA.AperFunction,Conductor*%
%TO.N,GND*%
G36*
X246123436Y-178369835D02*
G01*
X247321938Y-179394152D01*
X247326000Y-179402131D01*
X247323230Y-179410647D01*
X247322609Y-179411318D01*
X247156777Y-179577150D01*
X247152089Y-179580014D01*
X245795869Y-180016591D01*
X245786944Y-180015864D01*
X245781476Y-180009935D01*
X245399090Y-179087756D01*
X245399088Y-179078803D01*
X245401632Y-179074997D01*
X246107570Y-178370447D01*
X246115846Y-178367029D01*
X246123436Y-178369835D01*
G37*
%TD.AperFunction*%
%TD*%
%TA.AperFunction,Conductor*%
%TO.N,P3*%
G36*
X232952527Y-113328626D02*
G01*
X232954764Y-113330687D01*
X234025755Y-114612605D01*
X234028429Y-114621151D01*
X234025859Y-114627481D01*
X234013829Y-114642298D01*
X233407714Y-115388807D01*
X233223512Y-115615675D01*
X233215637Y-115619937D01*
X233214429Y-115620000D01*
X232982200Y-115620000D01*
X232973927Y-115616573D01*
X232970500Y-115608300D01*
X232970500Y-115388819D01*
X232970499Y-115388807D01*
X232931397Y-115129392D01*
X232931396Y-115129385D01*
X232854063Y-114878677D01*
X232740228Y-114642296D01*
X232592433Y-114425521D01*
X232413981Y-114233195D01*
X232349912Y-114182101D01*
X232345581Y-114174264D01*
X232347644Y-114166213D01*
X232936225Y-113331444D01*
X232943791Y-113326659D01*
X232952527Y-113328626D01*
G37*
%TD.AperFunction*%
%TD*%
%TA.AperFunction,Conductor*%
%TO.N,GND*%
G36*
X253835667Y-126242182D02*
G01*
X253836007Y-126242928D01*
X254219136Y-127165513D01*
X254219144Y-127174468D01*
X254219136Y-127174487D01*
X253836007Y-128097071D01*
X253829670Y-128103397D01*
X253820715Y-128103389D01*
X253819969Y-128103049D01*
X252210467Y-127298233D01*
X252204600Y-127291468D01*
X252204000Y-127287768D01*
X252204000Y-127052231D01*
X252207427Y-127043958D01*
X252210467Y-127041766D01*
X253819971Y-126236949D01*
X253828902Y-126236315D01*
X253835667Y-126242182D01*
G37*
%TD.AperFunction*%
%TD*%
%TA.AperFunction,Conductor*%
%TO.N,P18*%
G36*
X276512071Y-134929252D02*
G01*
X277124760Y-135205793D01*
X277130891Y-135212320D01*
X277130767Y-135220909D01*
X276984563Y-135576195D01*
X276978245Y-135582542D01*
X276978195Y-135582563D01*
X276622909Y-135728767D01*
X276613955Y-135728746D01*
X276607793Y-135722760D01*
X276543676Y-135580707D01*
X276381279Y-135220909D01*
X276331252Y-135110071D01*
X276330972Y-135101121D01*
X276333641Y-135096987D01*
X276498986Y-134931642D01*
X276507258Y-134928216D01*
X276512071Y-134929252D01*
G37*
%TD.AperFunction*%
%TD*%
%TA.AperFunction,Conductor*%
%TO.N,GND*%
G36*
X208485921Y-149518439D02*
G01*
X208493865Y-149522572D01*
X208496560Y-149529078D01*
X208608452Y-150811277D01*
X208605757Y-150819817D01*
X208601059Y-150823190D01*
X206583406Y-151612706D01*
X206574453Y-151612529D01*
X206570870Y-151610083D01*
X206404916Y-151444129D01*
X206401489Y-151435856D01*
X206402293Y-151431593D01*
X206641612Y-150820000D01*
X207191809Y-149413939D01*
X207198015Y-149407484D01*
X207203721Y-149406547D01*
X208485921Y-149518439D01*
G37*
%TD.AperFunction*%
%TD*%
%TA.AperFunction,Conductor*%
%TO.N,P21*%
G36*
X178559211Y-159559006D02*
G01*
X178562251Y-159561198D01*
X178728801Y-159727748D01*
X178732228Y-159736021D01*
X178731628Y-159739721D01*
X178162630Y-161446900D01*
X178156763Y-161453665D01*
X178147830Y-161454300D01*
X178147062Y-161454013D01*
X177631122Y-161240853D01*
X177223781Y-161072561D01*
X177217446Y-161066237D01*
X176835986Y-160142936D01*
X176835994Y-160133982D01*
X176842331Y-160127656D01*
X176843071Y-160127379D01*
X178550279Y-159558371D01*
X178559211Y-159559006D01*
G37*
%TD.AperFunction*%
%TD*%
%TA.AperFunction,Conductor*%
%TO.N,P10*%
G36*
X214559211Y-136559006D02*
G01*
X214562251Y-136561198D01*
X214728801Y-136727748D01*
X214732228Y-136736021D01*
X214731628Y-136739721D01*
X214162630Y-138446900D01*
X214156763Y-138453665D01*
X214147830Y-138454300D01*
X214147062Y-138454013D01*
X213631122Y-138240853D01*
X213223781Y-138072561D01*
X213217446Y-138066237D01*
X212835986Y-137142936D01*
X212835994Y-137133982D01*
X212842331Y-137127656D01*
X212843071Y-137127379D01*
X214550279Y-136558371D01*
X214559211Y-136559006D01*
G37*
%TD.AperFunction*%
%TD*%
%TA.AperFunction,Conductor*%
%TO.N,P6*%
G36*
X250559211Y-123559006D02*
G01*
X250562251Y-123561198D01*
X250728801Y-123727748D01*
X250732228Y-123736021D01*
X250731628Y-123739721D01*
X250162630Y-125446900D01*
X250156763Y-125453665D01*
X250147830Y-125454300D01*
X250147062Y-125454013D01*
X249631122Y-125240853D01*
X249223781Y-125072561D01*
X249217446Y-125066237D01*
X248835986Y-124142936D01*
X248835994Y-124133982D01*
X248842331Y-124127656D01*
X248843071Y-124127379D01*
X250550279Y-123558371D01*
X250559211Y-123559006D01*
G37*
%TD.AperFunction*%
%TD*%
%TA.AperFunction,Conductor*%
%TO.N,GND*%
G36*
X235835667Y-124242182D02*
G01*
X235836007Y-124242928D01*
X236219136Y-125165513D01*
X236219144Y-125174468D01*
X236219136Y-125174487D01*
X235836007Y-126097071D01*
X235829670Y-126103397D01*
X235820715Y-126103389D01*
X235819969Y-126103049D01*
X234210467Y-125298233D01*
X234204600Y-125291468D01*
X234204000Y-125287768D01*
X234204000Y-125052231D01*
X234207427Y-125043958D01*
X234210467Y-125041766D01*
X235819971Y-124236949D01*
X235828902Y-124236315D01*
X235835667Y-124242182D01*
G37*
%TD.AperFunction*%
%TD*%
%TA.AperFunction,Conductor*%
%TO.N,GND*%
G36*
X236945505Y-141461037D02*
G01*
X236946526Y-141462206D01*
X238010191Y-142856485D01*
X238012485Y-142865141D01*
X238009162Y-142871854D01*
X237842623Y-143038393D01*
X237835390Y-143041774D01*
X236232731Y-143184863D01*
X236224186Y-143182185D01*
X236220037Y-143174249D01*
X236219991Y-143173217D01*
X236219897Y-143038393D01*
X236219296Y-142174149D01*
X236222716Y-142165876D01*
X236928961Y-141461020D01*
X236937236Y-141457602D01*
X236945505Y-141461037D01*
G37*
%TD.AperFunction*%
%TD*%
%TA.AperFunction,Conductor*%
%TO.N,GND*%
G36*
X200619284Y-124236610D02*
G01*
X200620019Y-124236945D01*
X202229533Y-125041766D01*
X202235400Y-125048531D01*
X202236000Y-125052231D01*
X202236000Y-125287768D01*
X202232573Y-125296041D01*
X202229533Y-125298233D01*
X200620030Y-126103049D01*
X200611097Y-126103684D01*
X200604332Y-126097817D01*
X200603997Y-126097083D01*
X200220862Y-125174486D01*
X200220855Y-125165532D01*
X200220863Y-125165513D01*
X200603993Y-124242926D01*
X200610329Y-124236602D01*
X200619284Y-124236610D01*
G37*
%TD.AperFunction*%
%TD*%
%TA.AperFunction,Conductor*%
%TO.N,P18*%
G36*
X246311802Y-162222429D02*
G01*
X246318670Y-162228174D01*
X246320000Y-162233592D01*
X246320000Y-162466407D01*
X246316573Y-162474680D01*
X246311801Y-162477571D01*
X245844987Y-162623970D01*
X245836068Y-162623176D01*
X245830691Y-162617318D01*
X245720883Y-162354509D01*
X245720857Y-162345556D01*
X245720862Y-162345542D01*
X245830691Y-162082680D01*
X245837042Y-162076370D01*
X245844986Y-162076029D01*
X246311802Y-162222429D01*
G37*
%TD.AperFunction*%
%TD*%
%TA.AperFunction,Conductor*%
%TO.N,P0*%
G36*
X232952527Y-147328626D02*
G01*
X232954764Y-147330687D01*
X234025755Y-148612605D01*
X234028429Y-148621151D01*
X234025859Y-148627481D01*
X234013829Y-148642298D01*
X233407714Y-149388807D01*
X233223512Y-149615675D01*
X233215637Y-149619937D01*
X233214429Y-149620000D01*
X232982200Y-149620000D01*
X232973927Y-149616573D01*
X232970500Y-149608300D01*
X232970500Y-149388819D01*
X232970499Y-149388807D01*
X232931397Y-149129392D01*
X232931396Y-149129385D01*
X232854063Y-148878677D01*
X232740228Y-148642296D01*
X232592433Y-148425521D01*
X232413981Y-148233195D01*
X232349912Y-148182101D01*
X232345581Y-148174264D01*
X232347644Y-148166213D01*
X232936225Y-147331444D01*
X232943791Y-147326659D01*
X232952527Y-147328626D01*
G37*
%TD.AperFunction*%
%TD*%
%TA.AperFunction,Conductor*%
%TO.N,P9*%
G36*
X275825847Y-145591333D02*
G01*
X275832097Y-145597518D01*
X276098085Y-146217273D01*
X276098198Y-146226227D01*
X276095606Y-146230160D01*
X275930250Y-146395516D01*
X275921977Y-146398943D01*
X275916992Y-146397828D01*
X275552650Y-146226227D01*
X275314996Y-146114294D01*
X275308972Y-146107669D01*
X275309161Y-146099260D01*
X275455437Y-145743802D01*
X275461753Y-145737457D01*
X275816896Y-145591312D01*
X275825847Y-145591333D01*
G37*
%TD.AperFunction*%
%TD*%
%TA.AperFunction,Conductor*%
%TO.N,P6*%
G36*
X266657671Y-116178048D02*
G01*
X266663353Y-116183073D01*
X266846978Y-116506312D01*
X266848505Y-116512090D01*
X266848505Y-116694080D01*
X266845078Y-116702353D01*
X266836805Y-116705780D01*
X266834016Y-116705443D01*
X266279481Y-116569308D01*
X266272263Y-116564007D01*
X266270907Y-116555156D01*
X266271447Y-116553501D01*
X266378240Y-116293412D01*
X266384548Y-116287065D01*
X266648716Y-116178037D01*
X266657671Y-116178048D01*
G37*
%TD.AperFunction*%
%TD*%
%TA.AperFunction,Conductor*%
%TO.N,GND*%
G36*
X236346042Y-123157427D02*
G01*
X236348234Y-123160467D01*
X237153049Y-124769969D01*
X237153684Y-124778902D01*
X237147817Y-124785667D01*
X237147071Y-124786007D01*
X236224487Y-125169136D01*
X236215532Y-125169144D01*
X236215513Y-125169136D01*
X235292928Y-124786007D01*
X235286602Y-124779670D01*
X235286610Y-124770715D01*
X235286940Y-124769990D01*
X236091766Y-123160466D01*
X236098531Y-123154600D01*
X236102231Y-123154000D01*
X236337769Y-123154000D01*
X236346042Y-123157427D01*
G37*
%TD.AperFunction*%
%TD*%
%TA.AperFunction,Conductor*%
%TO.N,RST*%
G36*
X285313091Y-163247691D02*
G01*
X285316518Y-163255964D01*
X285316132Y-163258945D01*
X284923211Y-164750315D01*
X284917789Y-164757442D01*
X284908916Y-164758648D01*
X284908081Y-164758394D01*
X284884664Y-164750315D01*
X284778823Y-164713798D01*
X284225054Y-164522743D01*
X284218351Y-164516806D01*
X284218010Y-164516035D01*
X283923277Y-163780523D01*
X283923380Y-163771569D01*
X283929443Y-163765454D01*
X285117757Y-163245246D01*
X285122449Y-163244264D01*
X285304818Y-163244264D01*
X285313091Y-163247691D01*
G37*
%TD.AperFunction*%
%TD*%
%TA.AperFunction,Conductor*%
%TO.N,P0*%
G36*
X232559211Y-155559006D02*
G01*
X232562251Y-155561198D01*
X232728801Y-155727748D01*
X232732228Y-155736021D01*
X232731628Y-155739721D01*
X232162630Y-157446900D01*
X232156763Y-157453665D01*
X232147830Y-157454300D01*
X232147062Y-157454013D01*
X231631122Y-157240853D01*
X231223781Y-157072561D01*
X231217446Y-157066237D01*
X230835986Y-156142936D01*
X230835994Y-156133982D01*
X230842331Y-156127656D01*
X230843071Y-156127379D01*
X232550279Y-155558371D01*
X232559211Y-155559006D01*
G37*
%TD.AperFunction*%
%TD*%
%TA.AperFunction,Conductor*%
%TO.N,P18*%
G36*
X263899207Y-139379248D02*
G01*
X264162684Y-139487436D01*
X264169036Y-139493748D01*
X264169063Y-139493815D01*
X264277251Y-139757292D01*
X264277224Y-139766247D01*
X264271846Y-139772106D01*
X263838240Y-139998673D01*
X263829321Y-139999467D01*
X263824549Y-139996576D01*
X263659923Y-139831950D01*
X263656496Y-139823677D01*
X263657824Y-139818264D01*
X263884394Y-139384651D01*
X263891262Y-139378907D01*
X263899207Y-139379248D01*
G37*
%TD.AperFunction*%
%TD*%
%TA.AperFunction,Conductor*%
%TO.N,GND*%
G36*
X182346042Y-144157427D02*
G01*
X182348234Y-144160467D01*
X183153049Y-145769969D01*
X183153684Y-145778902D01*
X183147817Y-145785667D01*
X183147071Y-145786007D01*
X182224487Y-146169136D01*
X182215532Y-146169144D01*
X182215513Y-146169136D01*
X181292928Y-145786007D01*
X181286602Y-145779670D01*
X181286610Y-145770715D01*
X181286940Y-145769990D01*
X182091766Y-144160466D01*
X182098531Y-144154600D01*
X182102231Y-144154000D01*
X182337769Y-144154000D01*
X182346042Y-144157427D01*
G37*
%TD.AperFunction*%
%TD*%
%TA.AperFunction,Conductor*%
%TO.N,P21*%
G36*
X265307450Y-154223423D02*
G01*
X265472076Y-154388049D01*
X265475503Y-154396322D01*
X265474173Y-154401740D01*
X265247606Y-154835346D01*
X265240737Y-154841092D01*
X265232792Y-154840751D01*
X264969315Y-154732563D01*
X264962963Y-154726251D01*
X264962936Y-154726184D01*
X264854748Y-154462707D01*
X264854775Y-154453752D01*
X264860151Y-154447894D01*
X265293762Y-154221325D01*
X265302678Y-154220532D01*
X265307450Y-154223423D01*
G37*
%TD.AperFunction*%
%TD*%
%TA.AperFunction,Conductor*%
%TO.N,GND*%
G36*
X218346042Y-138157427D02*
G01*
X218348234Y-138160467D01*
X219153049Y-139769969D01*
X219153684Y-139778902D01*
X219147817Y-139785667D01*
X219147071Y-139786007D01*
X218224487Y-140169136D01*
X218215532Y-140169144D01*
X218215513Y-140169136D01*
X217292928Y-139786007D01*
X217286602Y-139779670D01*
X217286610Y-139770715D01*
X217286940Y-139769990D01*
X218091766Y-138160466D01*
X218098531Y-138154600D01*
X218102231Y-138154000D01*
X218337769Y-138154000D01*
X218346042Y-138157427D01*
G37*
%TD.AperFunction*%
%TD*%
%TA.AperFunction,Conductor*%
%TO.N,P1*%
G36*
X275825847Y-117651333D02*
G01*
X275832097Y-117657518D01*
X276098085Y-118277273D01*
X276098198Y-118286227D01*
X276095606Y-118290160D01*
X275930250Y-118455516D01*
X275921977Y-118458943D01*
X275916992Y-118457828D01*
X275552650Y-118286227D01*
X275314996Y-118174294D01*
X275308972Y-118167669D01*
X275309161Y-118159260D01*
X275455437Y-117803802D01*
X275461753Y-117797457D01*
X275816896Y-117651312D01*
X275825847Y-117651333D01*
G37*
%TD.AperFunction*%
%TD*%
%TA.AperFunction,Conductor*%
%TO.N,GND*%
G36*
X275825847Y-125271333D02*
G01*
X275832097Y-125277518D01*
X276098085Y-125897273D01*
X276098198Y-125906227D01*
X276095606Y-125910160D01*
X275930250Y-126075516D01*
X275921977Y-126078943D01*
X275916992Y-126077828D01*
X275552650Y-125906227D01*
X275314996Y-125794294D01*
X275308972Y-125787669D01*
X275309161Y-125779260D01*
X275455437Y-125423802D01*
X275461753Y-125417457D01*
X275816896Y-125271312D01*
X275825847Y-125271333D01*
G37*
%TD.AperFunction*%
%TD*%
%TA.AperFunction,Conductor*%
%TO.N,GND*%
G36*
X208485921Y-115518439D02*
G01*
X208493865Y-115522572D01*
X208496560Y-115529078D01*
X208608452Y-116811277D01*
X208605757Y-116819817D01*
X208601059Y-116823190D01*
X206583406Y-117612706D01*
X206574453Y-117612529D01*
X206570870Y-117610083D01*
X206404916Y-117444129D01*
X206401489Y-117435856D01*
X206402293Y-117431593D01*
X206641612Y-116820000D01*
X207191809Y-115413939D01*
X207198015Y-115407484D01*
X207203721Y-115406547D01*
X208485921Y-115518439D01*
G37*
%TD.AperFunction*%
%TD*%
%TA.AperFunction,Conductor*%
%TO.N,GND*%
G36*
X218346042Y-121157427D02*
G01*
X218348234Y-121160467D01*
X219153049Y-122769969D01*
X219153684Y-122778902D01*
X219147817Y-122785667D01*
X219147071Y-122786007D01*
X218224487Y-123169136D01*
X218215532Y-123169144D01*
X218215513Y-123169136D01*
X217292928Y-122786007D01*
X217286602Y-122779670D01*
X217286610Y-122770715D01*
X217286940Y-122769990D01*
X218091766Y-121160466D01*
X218098531Y-121154600D01*
X218102231Y-121154000D01*
X218337769Y-121154000D01*
X218346042Y-121157427D01*
G37*
%TD.AperFunction*%
%TD*%
%TA.AperFunction,Conductor*%
%TO.N,GND*%
G36*
X254619225Y-126236753D02*
G01*
X254620099Y-126237158D01*
X256229660Y-127066732D01*
X256235444Y-127073568D01*
X256236000Y-127077132D01*
X256236000Y-127262867D01*
X256232573Y-127271140D01*
X256229660Y-127273267D01*
X254620098Y-128102841D01*
X254611174Y-128103585D01*
X254604338Y-128097801D01*
X254603933Y-128096928D01*
X254220862Y-127174486D01*
X254220855Y-127165532D01*
X254220863Y-127165513D01*
X254259046Y-127073568D01*
X254603933Y-126243070D01*
X254610270Y-126236745D01*
X254619225Y-126236753D01*
G37*
%TD.AperFunction*%
%TD*%
%TA.AperFunction,Conductor*%
%TO.N,GND*%
G36*
X183559211Y-127659006D02*
G01*
X183562251Y-127661198D01*
X183728801Y-127827748D01*
X183732228Y-127836021D01*
X183731628Y-127839721D01*
X183162630Y-129546900D01*
X183156763Y-129553665D01*
X183147830Y-129554300D01*
X183147062Y-129554013D01*
X182631122Y-129340853D01*
X182223781Y-129172561D01*
X182217446Y-129166237D01*
X181835986Y-128242936D01*
X181835994Y-128233982D01*
X181842331Y-128227656D01*
X181843071Y-128227379D01*
X183550279Y-127658371D01*
X183559211Y-127659006D01*
G37*
%TD.AperFunction*%
%TD*%
%TA.AperFunction,Conductor*%
%TO.N,GND*%
G36*
X275454195Y-125417436D02*
G01*
X275460542Y-125423754D01*
X275460563Y-125423804D01*
X275606621Y-125778734D01*
X275606600Y-125787688D01*
X275600256Y-125794005D01*
X274970237Y-126053426D01*
X274961282Y-126053407D01*
X274957509Y-126050880D01*
X274827119Y-125920490D01*
X274823692Y-125912217D01*
X274824572Y-125907766D01*
X275083994Y-125277742D01*
X275090313Y-125271398D01*
X275099264Y-125271378D01*
X275454195Y-125417436D01*
G37*
%TD.AperFunction*%
%TD*%
%TA.AperFunction,Conductor*%
%TO.N,GND*%
G36*
X245012467Y-178153415D02*
G01*
X245012807Y-178154161D01*
X245395936Y-179076746D01*
X245395944Y-179085701D01*
X245395936Y-179085720D01*
X245012807Y-180008304D01*
X245006470Y-180014630D01*
X244997515Y-180014622D01*
X244996769Y-180014282D01*
X243387267Y-179209466D01*
X243381400Y-179202701D01*
X243380800Y-179199001D01*
X243380800Y-178963464D01*
X243384227Y-178955191D01*
X243387267Y-178952999D01*
X244996771Y-178148182D01*
X245005702Y-178147548D01*
X245012467Y-178153415D01*
G37*
%TD.AperFunction*%
%TD*%
%TA.AperFunction,Conductor*%
%TO.N,GND*%
G36*
X235835667Y-124242182D02*
G01*
X235836007Y-124242928D01*
X236219136Y-125165513D01*
X236219144Y-125174468D01*
X236219136Y-125174487D01*
X235836007Y-126097071D01*
X235829670Y-126103397D01*
X235820715Y-126103389D01*
X235819969Y-126103049D01*
X234210467Y-125298233D01*
X234204600Y-125291468D01*
X234204000Y-125287768D01*
X234204000Y-125052231D01*
X234207427Y-125043958D01*
X234210467Y-125041766D01*
X235819971Y-124236949D01*
X235828902Y-124236315D01*
X235835667Y-124242182D01*
G37*
%TD.AperFunction*%
%TD*%
%TA.AperFunction,Conductor*%
%TO.N,GND*%
G36*
X236946636Y-124458602D02*
G01*
X238145138Y-125482919D01*
X238149200Y-125490898D01*
X238146430Y-125499414D01*
X238145809Y-125500085D01*
X237979977Y-125665917D01*
X237975289Y-125668781D01*
X236619069Y-126105358D01*
X236610144Y-126104631D01*
X236604676Y-126098702D01*
X236222290Y-125176523D01*
X236222288Y-125167570D01*
X236224832Y-125163764D01*
X236930770Y-124459214D01*
X236939046Y-124455796D01*
X236946636Y-124458602D01*
G37*
%TD.AperFunction*%
%TD*%
%TA.AperFunction,Conductor*%
%TO.N,GND*%
G36*
X227346042Y-174157427D02*
G01*
X227348234Y-174160467D01*
X228153049Y-175769969D01*
X228153684Y-175778902D01*
X228147817Y-175785667D01*
X228147071Y-175786007D01*
X227224487Y-176169136D01*
X227215532Y-176169144D01*
X227215513Y-176169136D01*
X226292928Y-175786007D01*
X226286602Y-175779670D01*
X226286610Y-175770715D01*
X226286940Y-175769990D01*
X227091766Y-174160466D01*
X227098531Y-174154600D01*
X227102231Y-174154000D01*
X227337769Y-174154000D01*
X227346042Y-174157427D01*
G37*
%TD.AperFunction*%
%TD*%
%TA.AperFunction,Conductor*%
%TO.N,GND*%
G36*
X261095563Y-149428017D02*
G01*
X262765247Y-150216042D01*
X262771266Y-150222672D01*
X262771695Y-150229068D01*
X262497798Y-151510916D01*
X262492718Y-151518290D01*
X262485709Y-151520153D01*
X261204476Y-151449217D01*
X261196405Y-151445338D01*
X261193559Y-151439311D01*
X260912244Y-149607140D01*
X260914375Y-149598442D01*
X260915528Y-149597098D01*
X261082301Y-149430325D01*
X261090573Y-149426899D01*
X261095563Y-149428017D01*
G37*
%TD.AperFunction*%
%TD*%
%TA.AperFunction,Conductor*%
%TO.N,GND*%
G36*
X255057576Y-171953177D02*
G01*
X255484938Y-172135085D01*
X256240769Y-172456807D01*
X256247039Y-172463200D01*
X256247584Y-172470219D01*
X255956792Y-173722260D01*
X255951582Y-173729543D01*
X255944625Y-173731288D01*
X254228050Y-173618060D01*
X254220020Y-173614096D01*
X254217120Y-173606385D01*
X254217120Y-173370515D01*
X254218725Y-173364600D01*
X254746896Y-172463200D01*
X255042900Y-171958026D01*
X255050038Y-171952621D01*
X255057576Y-171953177D01*
G37*
%TD.AperFunction*%
%TD*%
%TA.AperFunction,Conductor*%
%TO.N,P16*%
G36*
X267006450Y-149143423D02*
G01*
X267171076Y-149308049D01*
X267174503Y-149316322D01*
X267173173Y-149321740D01*
X266946606Y-149755346D01*
X266939737Y-149761092D01*
X266931792Y-149760751D01*
X266668315Y-149652563D01*
X266661963Y-149646251D01*
X266661936Y-149646184D01*
X266553748Y-149382707D01*
X266553775Y-149373752D01*
X266559151Y-149367894D01*
X266992762Y-149141325D01*
X267001678Y-149140532D01*
X267006450Y-149143423D01*
G37*
%TD.AperFunction*%
%TD*%
%TA.AperFunction,Conductor*%
%TO.N,GND*%
G36*
X218945505Y-122461037D02*
G01*
X218946526Y-122462206D01*
X220010191Y-123856485D01*
X220012485Y-123865141D01*
X220009162Y-123871854D01*
X219842623Y-124038393D01*
X219835390Y-124041774D01*
X218232731Y-124184863D01*
X218224186Y-124182185D01*
X218220037Y-124174249D01*
X218219991Y-124173217D01*
X218219897Y-124038393D01*
X218219296Y-123174149D01*
X218222716Y-123165876D01*
X218928961Y-122461020D01*
X218937236Y-122457602D01*
X218945505Y-122461037D01*
G37*
%TD.AperFunction*%
%TD*%
%TA.AperFunction,Conductor*%
%TO.N,GND*%
G36*
X262151351Y-186509810D02*
G01*
X262152086Y-186510145D01*
X263761600Y-187314966D01*
X263767467Y-187321731D01*
X263768067Y-187325431D01*
X263768067Y-187560968D01*
X263764640Y-187569241D01*
X263761600Y-187571433D01*
X262152097Y-188376249D01*
X262143164Y-188376884D01*
X262136399Y-188371017D01*
X262136064Y-188370283D01*
X261752929Y-187447686D01*
X261752922Y-187438732D01*
X261752930Y-187438713D01*
X262136060Y-186516126D01*
X262142396Y-186509802D01*
X262151351Y-186509810D01*
G37*
%TD.AperFunction*%
%TD*%
%TA.AperFunction,Conductor*%
%TO.N,P16*%
G36*
X214952527Y-145328626D02*
G01*
X214954764Y-145330687D01*
X216025755Y-146612605D01*
X216028429Y-146621151D01*
X216025859Y-146627481D01*
X216013829Y-146642298D01*
X215407714Y-147388807D01*
X215223512Y-147615675D01*
X215215637Y-147619937D01*
X215214429Y-147620000D01*
X214982200Y-147620000D01*
X214973927Y-147616573D01*
X214970500Y-147608300D01*
X214970500Y-147388819D01*
X214970499Y-147388807D01*
X214931397Y-147129392D01*
X214931396Y-147129385D01*
X214854063Y-146878677D01*
X214740228Y-146642296D01*
X214592433Y-146425521D01*
X214413981Y-146233195D01*
X214349912Y-146182101D01*
X214345581Y-146174264D01*
X214347644Y-146166213D01*
X214936225Y-145331444D01*
X214943791Y-145326659D01*
X214952527Y-145328626D01*
G37*
%TD.AperFunction*%
%TD*%
%TA.AperFunction,Conductor*%
%TO.N,P5*%
G36*
X275825847Y-135431333D02*
G01*
X275832097Y-135437518D01*
X276098085Y-136057273D01*
X276098198Y-136066227D01*
X276095606Y-136070160D01*
X275930250Y-136235516D01*
X275921977Y-136238943D01*
X275916992Y-136237828D01*
X275552650Y-136066227D01*
X275314996Y-135954294D01*
X275308972Y-135947669D01*
X275309161Y-135939260D01*
X275455437Y-135583802D01*
X275461753Y-135577457D01*
X275816896Y-135431312D01*
X275825847Y-135431333D01*
G37*
%TD.AperFunction*%
%TD*%
%TA.AperFunction,Conductor*%
%TO.N,GND*%
G36*
X218945505Y-122461037D02*
G01*
X218946526Y-122462206D01*
X220010191Y-123856485D01*
X220012485Y-123865141D01*
X220009162Y-123871854D01*
X219842623Y-124038393D01*
X219835390Y-124041774D01*
X218232731Y-124184863D01*
X218224186Y-124182185D01*
X218220037Y-124174249D01*
X218219991Y-124173217D01*
X218219897Y-124038393D01*
X218219296Y-123174149D01*
X218222716Y-123165876D01*
X218928961Y-122461020D01*
X218937236Y-122457602D01*
X218945505Y-122461037D01*
G37*
%TD.AperFunction*%
%TD*%
%TA.AperFunction,Conductor*%
%TO.N,P18*%
G36*
X196952527Y-147328626D02*
G01*
X196954764Y-147330687D01*
X198025755Y-148612605D01*
X198028429Y-148621151D01*
X198025859Y-148627481D01*
X198013829Y-148642298D01*
X197407714Y-149388807D01*
X197223512Y-149615675D01*
X197215637Y-149619937D01*
X197214429Y-149620000D01*
X196982200Y-149620000D01*
X196973927Y-149616573D01*
X196970500Y-149608300D01*
X196970500Y-149388819D01*
X196970499Y-149388807D01*
X196931397Y-149129392D01*
X196931396Y-149129385D01*
X196854063Y-148878677D01*
X196740228Y-148642296D01*
X196592433Y-148425521D01*
X196413981Y-148233195D01*
X196349912Y-148182101D01*
X196345581Y-148174264D01*
X196347644Y-148166213D01*
X196936225Y-147331444D01*
X196943791Y-147326659D01*
X196952527Y-147328626D01*
G37*
%TD.AperFunction*%
%TD*%
%TA.AperFunction,Conductor*%
%TO.N,P18*%
G36*
X263624680Y-149053427D02*
G01*
X263627571Y-149058199D01*
X263773970Y-149525012D01*
X263773176Y-149533931D01*
X263767317Y-149539309D01*
X263504511Y-149649115D01*
X263495556Y-149649142D01*
X263495489Y-149649115D01*
X263232682Y-149539309D01*
X263226370Y-149532957D01*
X263226029Y-149525013D01*
X263372429Y-149058199D01*
X263378175Y-149051330D01*
X263383593Y-149050000D01*
X263616407Y-149050000D01*
X263624680Y-149053427D01*
G37*
%TD.AperFunction*%
%TD*%
%TA.AperFunction,Conductor*%
%TO.N,GND*%
G36*
X200945505Y-124461037D02*
G01*
X200946526Y-124462206D01*
X202010191Y-125856485D01*
X202012485Y-125865141D01*
X202009162Y-125871854D01*
X201842623Y-126038393D01*
X201835390Y-126041774D01*
X200232731Y-126184863D01*
X200224186Y-126182185D01*
X200220037Y-126174249D01*
X200219991Y-126173217D01*
X200219897Y-126038393D01*
X200219296Y-125174149D01*
X200222716Y-125165876D01*
X200928961Y-124461020D01*
X200937236Y-124457602D01*
X200945505Y-124461037D01*
G37*
%TD.AperFunction*%
%TD*%
%TA.AperFunction,Conductor*%
%TO.N,GND*%
G36*
X218346042Y-121157427D02*
G01*
X218348234Y-121160467D01*
X219153049Y-122769969D01*
X219153684Y-122778902D01*
X219147817Y-122785667D01*
X219147071Y-122786007D01*
X218224487Y-123169136D01*
X218215532Y-123169144D01*
X218215513Y-123169136D01*
X217292928Y-122786007D01*
X217286602Y-122779670D01*
X217286610Y-122770715D01*
X217286940Y-122769990D01*
X218091766Y-121160466D01*
X218098531Y-121154600D01*
X218102231Y-121154000D01*
X218337769Y-121154000D01*
X218346042Y-121157427D01*
G37*
%TD.AperFunction*%
%TD*%
%TA.AperFunction,Conductor*%
%TO.N,P20*%
G36*
X265682818Y-131980691D02*
G01*
X265689129Y-131987042D01*
X265689470Y-131994987D01*
X265543071Y-132461801D01*
X265537325Y-132468670D01*
X265531907Y-132470000D01*
X265299093Y-132470000D01*
X265290820Y-132466573D01*
X265287929Y-132461801D01*
X265141529Y-131994987D01*
X265142323Y-131986068D01*
X265148179Y-131980692D01*
X265410990Y-131870883D01*
X265419944Y-131870857D01*
X265682818Y-131980691D01*
G37*
%TD.AperFunction*%
%TD*%
%TA.AperFunction,Conductor*%
%TO.N,P14*%
G36*
X284411802Y-115141929D02*
G01*
X284418670Y-115147674D01*
X284420000Y-115153092D01*
X284420000Y-115385907D01*
X284416573Y-115394180D01*
X284411801Y-115397071D01*
X283944987Y-115543470D01*
X283936068Y-115542676D01*
X283930691Y-115536818D01*
X283820883Y-115274009D01*
X283820857Y-115265056D01*
X283820862Y-115265042D01*
X283930691Y-115002180D01*
X283937042Y-114995870D01*
X283944986Y-114995529D01*
X284411802Y-115141929D01*
G37*
%TD.AperFunction*%
%TD*%
%TA.AperFunction,Conductor*%
%TO.N,GND*%
G36*
X280383994Y-125955822D02*
G01*
X280510444Y-126082272D01*
X280513871Y-126090545D01*
X280511359Y-126097789D01*
X280370573Y-126276353D01*
X280362759Y-126280728D01*
X280354141Y-126278297D01*
X280353178Y-126277448D01*
X280352065Y-126276353D01*
X280273392Y-126198928D01*
X280194551Y-126118815D01*
X280191190Y-126110514D01*
X280194683Y-126102269D01*
X280195311Y-126101694D01*
X280368157Y-125955169D01*
X280376682Y-125952435D01*
X280383994Y-125955822D01*
G37*
%TD.AperFunction*%
%TD*%
%TA.AperFunction,Conductor*%
%TO.N,GND*%
G36*
X262502130Y-134528922D02*
G01*
X262504276Y-134531068D01*
X263489149Y-135812389D01*
X263491474Y-135821037D01*
X263488678Y-135827223D01*
X262623496Y-136816004D01*
X262615469Y-136819974D01*
X262614691Y-136820000D01*
X262375309Y-136820000D01*
X262367036Y-136816573D01*
X262366504Y-136816005D01*
X262366503Y-136816004D01*
X261501321Y-135827224D01*
X261498452Y-135818741D01*
X261500850Y-135812389D01*
X262485724Y-134531068D01*
X262493482Y-134526597D01*
X262502130Y-134528922D01*
G37*
%TD.AperFunction*%
%TD*%
%TA.AperFunction,Conductor*%
%TO.N,VCC*%
G36*
X276512071Y-124769252D02*
G01*
X277124760Y-125045793D01*
X277130891Y-125052320D01*
X277130767Y-125060909D01*
X276984563Y-125416195D01*
X276978245Y-125422542D01*
X276978195Y-125422563D01*
X276622909Y-125568767D01*
X276613955Y-125568746D01*
X276607793Y-125562760D01*
X276543676Y-125420707D01*
X276381279Y-125060909D01*
X276331252Y-124950071D01*
X276330972Y-124941121D01*
X276333641Y-124936987D01*
X276498986Y-124771642D01*
X276507258Y-124768216D01*
X276512071Y-124769252D01*
G37*
%TD.AperFunction*%
%TD*%
%TA.AperFunction,Conductor*%
%TO.N,GND*%
G36*
X218945505Y-139461037D02*
G01*
X218946526Y-139462206D01*
X220010191Y-140856485D01*
X220012485Y-140865141D01*
X220009162Y-140871854D01*
X219842623Y-141038393D01*
X219835390Y-141041774D01*
X218232731Y-141184863D01*
X218224186Y-141182185D01*
X218220037Y-141174249D01*
X218219991Y-141173217D01*
X218219897Y-141038393D01*
X218219296Y-140174149D01*
X218222716Y-140165876D01*
X218928961Y-139461020D01*
X218937236Y-139457602D01*
X218945505Y-139461037D01*
G37*
%TD.AperFunction*%
%TD*%
%TA.AperFunction,Conductor*%
%TO.N,GND*%
G36*
X236346042Y-157157427D02*
G01*
X236348234Y-157160467D01*
X237153049Y-158769969D01*
X237153684Y-158778902D01*
X237147817Y-158785667D01*
X237147071Y-158786007D01*
X236224487Y-159169136D01*
X236215532Y-159169144D01*
X236215513Y-159169136D01*
X235292928Y-158786007D01*
X235286602Y-158779670D01*
X235286610Y-158770715D01*
X235286940Y-158769990D01*
X236091766Y-157160466D01*
X236098531Y-157154600D01*
X236102231Y-157154000D01*
X236337769Y-157154000D01*
X236346042Y-157157427D01*
G37*
%TD.AperFunction*%
%TD*%
%TA.AperFunction,Conductor*%
%TO.N,P6*%
G36*
X275825847Y-137971333D02*
G01*
X275832097Y-137977518D01*
X276098085Y-138597273D01*
X276098198Y-138606227D01*
X276095606Y-138610160D01*
X275930250Y-138775516D01*
X275921977Y-138778943D01*
X275916992Y-138777828D01*
X275552650Y-138606227D01*
X275314996Y-138494294D01*
X275308972Y-138487669D01*
X275309161Y-138479260D01*
X275455437Y-138123802D01*
X275461753Y-138117457D01*
X275816896Y-137971312D01*
X275825847Y-137971333D01*
G37*
%TD.AperFunction*%
%TD*%
%TA.AperFunction,Conductor*%
%TO.N,GND*%
G36*
X253835667Y-126242182D02*
G01*
X253836007Y-126242928D01*
X254219136Y-127165513D01*
X254219144Y-127174468D01*
X254219136Y-127174487D01*
X253836007Y-128097071D01*
X253829670Y-128103397D01*
X253820715Y-128103389D01*
X253819969Y-128103049D01*
X252210467Y-127298233D01*
X252204600Y-127291468D01*
X252204000Y-127287768D01*
X252204000Y-127052231D01*
X252207427Y-127043958D01*
X252210467Y-127041766D01*
X253819971Y-126236949D01*
X253828902Y-126236315D01*
X253835667Y-126242182D01*
G37*
%TD.AperFunction*%
%TD*%
%TA.AperFunction,Conductor*%
%TO.N,pos*%
G36*
X282546184Y-149672882D02*
G01*
X282953468Y-149862694D01*
X283268244Y-150009395D01*
X283274296Y-150015996D01*
X283273907Y-150024942D01*
X283268244Y-150030605D01*
X282546187Y-150367116D01*
X282537241Y-150367505D01*
X282534445Y-150366032D01*
X282194900Y-150123500D01*
X282190159Y-150115902D01*
X282190000Y-150113979D01*
X282190000Y-149926021D01*
X282193427Y-149917748D01*
X282194893Y-149916504D01*
X282534447Y-149673966D01*
X282543168Y-149671947D01*
X282546184Y-149672882D01*
G37*
%TD.AperFunction*%
%TD*%
%TA.AperFunction,Conductor*%
%TO.N,GND*%
G36*
X217292934Y-122785984D02*
G01*
X218216218Y-123167438D01*
X218222554Y-123173763D01*
X218222562Y-123173782D01*
X218604013Y-124097062D01*
X218604005Y-124106017D01*
X218597668Y-124112343D01*
X218596900Y-124112630D01*
X216889721Y-124681628D01*
X216880788Y-124680993D01*
X216877748Y-124678801D01*
X216711198Y-124512251D01*
X216707771Y-124503978D01*
X216708371Y-124500278D01*
X217277370Y-122793096D01*
X217283236Y-122786334D01*
X217292169Y-122785699D01*
X217292934Y-122785984D01*
G37*
%TD.AperFunction*%
%TD*%
%TA.AperFunction,Conductor*%
%TO.N,GND*%
G36*
X237147071Y-159553992D02*
G01*
X237153397Y-159560329D01*
X237153389Y-159569284D01*
X237153049Y-159570030D01*
X236348234Y-161179533D01*
X236341469Y-161185400D01*
X236337769Y-161186000D01*
X236102231Y-161186000D01*
X236093958Y-161182573D01*
X236091766Y-161179533D01*
X235286950Y-159570030D01*
X235286315Y-159561097D01*
X235292182Y-159554332D01*
X235292905Y-159554002D01*
X236215513Y-159170862D01*
X236224466Y-159170855D01*
X237147071Y-159553992D01*
G37*
%TD.AperFunction*%
%TD*%
%TA.AperFunction,Conductor*%
%TO.N,GND*%
G36*
X182346042Y-127157427D02*
G01*
X182348234Y-127160467D01*
X183153049Y-128769969D01*
X183153684Y-128778902D01*
X183147817Y-128785667D01*
X183147071Y-128786007D01*
X182224487Y-129169136D01*
X182215532Y-129169144D01*
X182215513Y-129169136D01*
X181292928Y-128786007D01*
X181286602Y-128779670D01*
X181286610Y-128770715D01*
X181286940Y-128769990D01*
X182091766Y-127160466D01*
X182098531Y-127154600D01*
X182102231Y-127154000D01*
X182337769Y-127154000D01*
X182346042Y-127157427D01*
G37*
%TD.AperFunction*%
%TD*%
%TA.AperFunction,Conductor*%
%TO.N,P6*%
G36*
X263383641Y-121437050D02*
G01*
X263389503Y-121443148D01*
X263499115Y-121705489D01*
X263499142Y-121714444D01*
X263499115Y-121714511D01*
X263389503Y-121976851D01*
X263383151Y-121983163D01*
X263374694Y-121983329D01*
X263240947Y-121934493D01*
X262907687Y-121812806D01*
X262901091Y-121806750D01*
X262900000Y-121801816D01*
X262900000Y-121618183D01*
X262903427Y-121609910D01*
X262907687Y-121607193D01*
X263374697Y-121436669D01*
X263383641Y-121437050D01*
G37*
%TD.AperFunction*%
%TD*%
%TA.AperFunction,Conductor*%
%TO.N,GND*%
G36*
X182945505Y-128461037D02*
G01*
X182946526Y-128462206D01*
X184010191Y-129856485D01*
X184012485Y-129865141D01*
X184009162Y-129871854D01*
X183842623Y-130038393D01*
X183835390Y-130041774D01*
X182232731Y-130184863D01*
X182224186Y-130182185D01*
X182220037Y-130174249D01*
X182219991Y-130173217D01*
X182219897Y-130038393D01*
X182219296Y-129174149D01*
X182222716Y-129165876D01*
X182928961Y-128461020D01*
X182937236Y-128457602D01*
X182945505Y-128461037D01*
G37*
%TD.AperFunction*%
%TD*%
%TA.AperFunction,Conductor*%
%TO.N,GND*%
G36*
X199835667Y-124242182D02*
G01*
X199836007Y-124242928D01*
X200219136Y-125165513D01*
X200219144Y-125174468D01*
X200219136Y-125174487D01*
X199836007Y-126097071D01*
X199829670Y-126103397D01*
X199820715Y-126103389D01*
X199819969Y-126103049D01*
X198210467Y-125298233D01*
X198204600Y-125291468D01*
X198204000Y-125287768D01*
X198204000Y-125052231D01*
X198207427Y-125043958D01*
X198210467Y-125041766D01*
X199819971Y-124236949D01*
X199828902Y-124236315D01*
X199835667Y-124242182D01*
G37*
%TD.AperFunction*%
%TD*%
%TA.AperFunction,Conductor*%
%TO.N,P0*%
G36*
X237983641Y-149377050D02*
G01*
X237989503Y-149383148D01*
X238099115Y-149645489D01*
X238099142Y-149654444D01*
X238099115Y-149654511D01*
X237989503Y-149916851D01*
X237983151Y-149923163D01*
X237974694Y-149923329D01*
X237840947Y-149874493D01*
X237507687Y-149752806D01*
X237501091Y-149746750D01*
X237500000Y-149741816D01*
X237500000Y-149558183D01*
X237503427Y-149549910D01*
X237507687Y-149547193D01*
X237974697Y-149376669D01*
X237983641Y-149377050D01*
G37*
%TD.AperFunction*%
%TD*%
%TA.AperFunction,Conductor*%
%TO.N,P1*%
G36*
X216865546Y-109227470D02*
G01*
X216869129Y-109229916D01*
X217035083Y-109395870D01*
X217038510Y-109404143D01*
X217037706Y-109408406D01*
X216248190Y-111426059D01*
X216241984Y-111432515D01*
X216236277Y-111433452D01*
X214954078Y-111321560D01*
X214946134Y-111317427D01*
X214943439Y-111310921D01*
X214831547Y-110028722D01*
X214834242Y-110020182D01*
X214838939Y-110016809D01*
X216856593Y-109227293D01*
X216865546Y-109227470D01*
G37*
%TD.AperFunction*%
%TD*%
%TA.AperFunction,Conductor*%
%TO.N,P8*%
G36*
X245949085Y-166809722D02*
G01*
X245951414Y-166812858D01*
X246774789Y-168429811D01*
X246775489Y-168438738D01*
X246772746Y-168443282D01*
X246072386Y-169162546D01*
X246064159Y-169166083D01*
X246064003Y-169166084D01*
X245825235Y-169166084D01*
X245816962Y-169162657D01*
X245815472Y-169160832D01*
X245375968Y-168495336D01*
X245374031Y-168488888D01*
X245374031Y-168227272D01*
X245374030Y-168227260D01*
X245334928Y-167967845D01*
X245334927Y-167967838D01*
X245257594Y-167717130D01*
X245196009Y-167589247D01*
X245195507Y-167580307D01*
X245198101Y-167576078D01*
X245932544Y-166810069D01*
X245940742Y-166806470D01*
X245949085Y-166809722D01*
G37*
%TD.AperFunction*%
%TD*%
%TA.AperFunction,Conductor*%
%TO.N,P0*%
G36*
X263766851Y-127879996D02*
G01*
X263773163Y-127886348D01*
X263773330Y-127894805D01*
X263602807Y-128361813D01*
X263596751Y-128368409D01*
X263591817Y-128369500D01*
X263408183Y-128369500D01*
X263399910Y-128366073D01*
X263397193Y-128361813D01*
X263226669Y-127894802D01*
X263227050Y-127885858D01*
X263233147Y-127879996D01*
X263495490Y-127770383D01*
X263504444Y-127770357D01*
X263766851Y-127879996D01*
G37*
%TD.AperFunction*%
%TD*%
%TA.AperFunction,Conductor*%
%TO.N,RAW*%
G36*
X282546184Y-152672882D02*
G01*
X282953468Y-152862694D01*
X283268244Y-153009395D01*
X283274296Y-153015996D01*
X283273907Y-153024942D01*
X283268244Y-153030605D01*
X282546187Y-153367116D01*
X282537241Y-153367505D01*
X282534445Y-153366032D01*
X282194900Y-153123500D01*
X282190159Y-153115902D01*
X282190000Y-153113979D01*
X282190000Y-152926021D01*
X282193427Y-152917748D01*
X282194893Y-152916504D01*
X282534447Y-152673966D01*
X282543168Y-152671947D01*
X282546184Y-152672882D01*
G37*
%TD.AperFunction*%
%TD*%
%TA.AperFunction,Conductor*%
%TO.N,P4*%
G36*
X250952527Y-149328626D02*
G01*
X250954764Y-149330687D01*
X252025755Y-150612605D01*
X252028429Y-150621151D01*
X252025859Y-150627481D01*
X252013829Y-150642298D01*
X251407714Y-151388807D01*
X251223512Y-151615675D01*
X251215637Y-151619937D01*
X251214429Y-151620000D01*
X250982200Y-151620000D01*
X250973927Y-151616573D01*
X250970500Y-151608300D01*
X250970500Y-151388819D01*
X250970499Y-151388807D01*
X250931397Y-151129392D01*
X250931396Y-151129385D01*
X250854063Y-150878677D01*
X250740228Y-150642296D01*
X250592433Y-150425521D01*
X250413981Y-150233195D01*
X250349912Y-150182101D01*
X250345581Y-150174264D01*
X250347644Y-150166213D01*
X250936225Y-149331444D01*
X250943791Y-149326659D01*
X250952527Y-149328626D01*
G37*
%TD.AperFunction*%
%TD*%
%TA.AperFunction,Conductor*%
%TO.N,GND*%
G36*
X245012467Y-178153415D02*
G01*
X245012807Y-178154161D01*
X245395936Y-179076746D01*
X245395944Y-179085701D01*
X245395936Y-179085720D01*
X245012807Y-180008304D01*
X245006470Y-180014630D01*
X244997515Y-180014622D01*
X244996769Y-180014282D01*
X243387267Y-179209466D01*
X243381400Y-179202701D01*
X243380800Y-179199001D01*
X243380800Y-178963464D01*
X243384227Y-178955191D01*
X243387267Y-178952999D01*
X244996771Y-178148182D01*
X245005702Y-178147548D01*
X245012467Y-178153415D01*
G37*
%TD.AperFunction*%
%TD*%
%TA.AperFunction,Conductor*%
%TO.N,P18*%
G36*
X248143931Y-162076823D02*
G01*
X248149309Y-162082682D01*
X248259115Y-162345489D01*
X248259142Y-162354444D01*
X248259115Y-162354511D01*
X248149309Y-162617317D01*
X248142957Y-162623629D01*
X248135012Y-162623970D01*
X247668199Y-162477571D01*
X247661330Y-162471825D01*
X247660000Y-162466407D01*
X247660000Y-162233592D01*
X247663427Y-162225319D01*
X247668196Y-162222429D01*
X248135013Y-162076029D01*
X248143931Y-162076823D01*
G37*
%TD.AperFunction*%
%TD*%
%TA.AperFunction,Conductor*%
%TO.N,GND*%
G36*
X254946636Y-143458602D02*
G01*
X256145138Y-144482919D01*
X256149200Y-144490898D01*
X256146430Y-144499414D01*
X256145809Y-144500085D01*
X255979977Y-144665917D01*
X255975289Y-144668781D01*
X254619069Y-145105358D01*
X254610144Y-145104631D01*
X254604676Y-145098702D01*
X254222290Y-144176523D01*
X254222288Y-144167570D01*
X254224832Y-144163764D01*
X254930770Y-143459214D01*
X254939046Y-143455796D01*
X254946636Y-143458602D01*
G37*
%TD.AperFunction*%
%TD*%
%TA.AperFunction,Conductor*%
%TO.N,P7*%
G36*
X275825847Y-140511333D02*
G01*
X275832097Y-140517518D01*
X276098085Y-141137273D01*
X276098198Y-141146227D01*
X276095606Y-141150160D01*
X275930250Y-141315516D01*
X275921977Y-141318943D01*
X275916992Y-141317828D01*
X275552650Y-141146227D01*
X275314996Y-141034294D01*
X275308972Y-141027669D01*
X275309161Y-141019260D01*
X275455437Y-140663802D01*
X275461753Y-140657457D01*
X275816896Y-140511312D01*
X275825847Y-140511333D01*
G37*
%TD.AperFunction*%
%TD*%
%TA.AperFunction,Conductor*%
%TO.N,P5*%
G36*
X267189180Y-135695148D02*
G01*
X267192071Y-135699920D01*
X267338470Y-136166733D01*
X267337676Y-136175652D01*
X267331817Y-136181030D01*
X267069011Y-136290836D01*
X267060056Y-136290863D01*
X267059989Y-136290836D01*
X266797182Y-136181030D01*
X266790870Y-136174678D01*
X266790529Y-136166734D01*
X266936929Y-135699920D01*
X266942675Y-135693051D01*
X266948093Y-135691721D01*
X267180907Y-135691721D01*
X267189180Y-135695148D01*
G37*
%TD.AperFunction*%
%TD*%
%TA.AperFunction,Conductor*%
%TO.N,GND*%
G36*
X227346042Y-174157427D02*
G01*
X227348234Y-174160467D01*
X228153049Y-175769969D01*
X228153684Y-175778902D01*
X228147817Y-175785667D01*
X228147071Y-175786007D01*
X227224487Y-176169136D01*
X227215532Y-176169144D01*
X227215513Y-176169136D01*
X226292928Y-175786007D01*
X226286602Y-175779670D01*
X226286610Y-175770715D01*
X226286940Y-175769990D01*
X227091766Y-174160466D01*
X227098531Y-174154600D01*
X227102231Y-174154000D01*
X227337769Y-174154000D01*
X227346042Y-174157427D01*
G37*
%TD.AperFunction*%
%TD*%
%TA.AperFunction,Conductor*%
%TO.N,GND*%
G36*
X200346042Y-140157427D02*
G01*
X200348234Y-140160467D01*
X201153049Y-141769969D01*
X201153684Y-141778902D01*
X201147817Y-141785667D01*
X201147071Y-141786007D01*
X200224487Y-142169136D01*
X200215532Y-142169144D01*
X200215513Y-142169136D01*
X199292928Y-141786007D01*
X199286602Y-141779670D01*
X199286610Y-141770715D01*
X199286940Y-141769990D01*
X200091766Y-140160466D01*
X200098531Y-140154600D01*
X200102231Y-140154000D01*
X200337769Y-140154000D01*
X200346042Y-140157427D01*
G37*
%TD.AperFunction*%
%TD*%
%TA.AperFunction,Conductor*%
%TO.N,GND*%
G36*
X200346042Y-123157427D02*
G01*
X200348234Y-123160467D01*
X201153049Y-124769969D01*
X201153684Y-124778902D01*
X201147817Y-124785667D01*
X201147071Y-124786007D01*
X200224487Y-125169136D01*
X200215532Y-125169144D01*
X200215513Y-125169136D01*
X199292928Y-124786007D01*
X199286602Y-124779670D01*
X199286610Y-124770715D01*
X199286940Y-124769990D01*
X200091766Y-123160466D01*
X200098531Y-123154600D01*
X200102231Y-123154000D01*
X200337769Y-123154000D01*
X200346042Y-123157427D01*
G37*
%TD.AperFunction*%
%TD*%
%TA.AperFunction,Conductor*%
%TO.N,P0*%
G36*
X275825847Y-120191333D02*
G01*
X275832097Y-120197518D01*
X276098085Y-120817273D01*
X276098198Y-120826227D01*
X276095606Y-120830160D01*
X275930250Y-120995516D01*
X275921977Y-120998943D01*
X275916992Y-120997828D01*
X275552650Y-120826227D01*
X275314996Y-120714294D01*
X275308972Y-120707669D01*
X275309161Y-120699260D01*
X275455437Y-120343802D01*
X275461753Y-120337457D01*
X275816896Y-120191312D01*
X275825847Y-120191333D01*
G37*
%TD.AperFunction*%
%TD*%
%TA.AperFunction,Conductor*%
%TO.N,P18*%
G36*
X196559211Y-155559006D02*
G01*
X196562251Y-155561198D01*
X196728801Y-155727748D01*
X196732228Y-155736021D01*
X196731628Y-155739721D01*
X196162630Y-157446900D01*
X196156763Y-157453665D01*
X196147830Y-157454300D01*
X196147062Y-157454013D01*
X195631122Y-157240853D01*
X195223781Y-157072561D01*
X195217446Y-157066237D01*
X194835986Y-156142936D01*
X194835994Y-156133982D01*
X194842331Y-156127656D01*
X194843071Y-156127379D01*
X196550279Y-155558371D01*
X196559211Y-155559006D01*
G37*
%TD.AperFunction*%
%TD*%
%TA.AperFunction,Conductor*%
%TO.N,GND*%
G36*
X199835667Y-124242182D02*
G01*
X199836007Y-124242928D01*
X200219136Y-125165513D01*
X200219144Y-125174468D01*
X200219136Y-125174487D01*
X199836007Y-126097071D01*
X199829670Y-126103397D01*
X199820715Y-126103389D01*
X199819969Y-126103049D01*
X198210467Y-125298233D01*
X198204600Y-125291468D01*
X198204000Y-125287768D01*
X198204000Y-125052231D01*
X198207427Y-125043958D01*
X198210467Y-125041766D01*
X199819971Y-124236949D01*
X199828902Y-124236315D01*
X199835667Y-124242182D01*
G37*
%TD.AperFunction*%
%TD*%
%TA.AperFunction,Conductor*%
%TO.N,GND*%
G36*
X272736305Y-159678416D02*
G01*
X273214924Y-160262585D01*
X273217517Y-160271156D01*
X273214924Y-160277415D01*
X272736305Y-160861583D01*
X272728411Y-160865811D01*
X272720515Y-160863731D01*
X272717467Y-160861583D01*
X272543643Y-160739069D01*
X272024960Y-160373495D01*
X272020172Y-160365928D01*
X272020000Y-160363932D01*
X272020000Y-160176067D01*
X272023427Y-160167794D01*
X272024960Y-160166504D01*
X272720517Y-159676267D01*
X272729251Y-159674303D01*
X272736305Y-159678416D01*
G37*
%TD.AperFunction*%
%TD*%
%TA.AperFunction,Conductor*%
%TO.N,GND*%
G36*
X200619284Y-124236610D02*
G01*
X200620019Y-124236945D01*
X202229533Y-125041766D01*
X202235400Y-125048531D01*
X202236000Y-125052231D01*
X202236000Y-125287768D01*
X202232573Y-125296041D01*
X202229533Y-125298233D01*
X200620030Y-126103049D01*
X200611097Y-126103684D01*
X200604332Y-126097817D01*
X200603997Y-126097083D01*
X200220862Y-125174486D01*
X200220855Y-125165532D01*
X200220863Y-125165513D01*
X200603993Y-124242926D01*
X200610329Y-124236602D01*
X200619284Y-124236610D01*
G37*
%TD.AperFunction*%
%TD*%
%TA.AperFunction,Conductor*%
%TO.N,GND*%
G36*
X273817809Y-160026083D02*
G01*
X273824132Y-160032424D01*
X273824261Y-160032751D01*
X274246718Y-161150900D01*
X274246436Y-161159850D01*
X274244046Y-161163308D01*
X274112309Y-161295045D01*
X274104036Y-161298472D01*
X274101926Y-161298280D01*
X273251417Y-161142320D01*
X273243897Y-161137457D01*
X273241831Y-161131120D01*
X273219503Y-160277341D01*
X273222712Y-160268983D01*
X273226733Y-160266223D01*
X273808854Y-160026070D01*
X273817809Y-160026083D01*
G37*
%TD.AperFunction*%
%TD*%
%TA.AperFunction,Conductor*%
%TO.N,P4*%
G36*
X275825847Y-132891333D02*
G01*
X275832097Y-132897518D01*
X276098085Y-133517273D01*
X276098198Y-133526227D01*
X276095606Y-133530160D01*
X275930250Y-133695516D01*
X275921977Y-133698943D01*
X275916992Y-133697828D01*
X275552650Y-133526227D01*
X275314996Y-133414294D01*
X275308972Y-133407669D01*
X275309161Y-133399260D01*
X275455437Y-133043802D01*
X275461753Y-133037457D01*
X275816896Y-132891312D01*
X275825847Y-132891333D01*
G37*
%TD.AperFunction*%
%TD*%
%TA.AperFunction,Conductor*%
%TO.N,P8*%
G36*
X275825847Y-143051333D02*
G01*
X275832097Y-143057518D01*
X276098085Y-143677273D01*
X276098198Y-143686227D01*
X276095606Y-143690160D01*
X275930250Y-143855516D01*
X275921977Y-143858943D01*
X275916992Y-143857828D01*
X275552650Y-143686227D01*
X275314996Y-143574294D01*
X275308972Y-143567669D01*
X275309161Y-143559260D01*
X275455437Y-143203802D01*
X275461753Y-143197457D01*
X275816896Y-143051312D01*
X275825847Y-143051333D01*
G37*
%TD.AperFunction*%
%TD*%
%TA.AperFunction,Conductor*%
%TO.N,GND*%
G36*
X260421787Y-185931570D02*
G01*
X262128968Y-186500570D01*
X262135732Y-186506436D01*
X262136367Y-186515369D01*
X262136080Y-186516137D01*
X261754629Y-187439417D01*
X261748303Y-187445754D01*
X261748284Y-187445762D01*
X260825004Y-187827213D01*
X260816049Y-187827205D01*
X260809723Y-187820868D01*
X260809443Y-187820118D01*
X260240438Y-186112920D01*
X260241073Y-186103988D01*
X260243262Y-186100951D01*
X260409816Y-185934397D01*
X260418088Y-185930971D01*
X260421787Y-185931570D01*
G37*
%TD.AperFunction*%
%TD*%
%TA.AperFunction,Conductor*%
%TO.N,GND*%
G36*
X236346042Y-140157427D02*
G01*
X236348234Y-140160467D01*
X237153049Y-141769969D01*
X237153684Y-141778902D01*
X237147817Y-141785667D01*
X237147071Y-141786007D01*
X236224487Y-142169136D01*
X236215532Y-142169144D01*
X236215513Y-142169136D01*
X235292928Y-141786007D01*
X235286602Y-141779670D01*
X235286610Y-141770715D01*
X235286940Y-141769990D01*
X236091766Y-140160466D01*
X236098531Y-140154600D01*
X236102231Y-140154000D01*
X236337769Y-140154000D01*
X236346042Y-140157427D01*
G37*
%TD.AperFunction*%
%TD*%
%TA.AperFunction,Conductor*%
%TO.N,GND*%
G36*
X242583406Y-147427293D02*
G01*
X244601059Y-148216809D01*
X244607515Y-148223015D01*
X244608452Y-148228722D01*
X244496560Y-149510921D01*
X244492427Y-149518865D01*
X244485921Y-149521560D01*
X243203722Y-149633452D01*
X243195182Y-149630757D01*
X243191809Y-149626059D01*
X242402293Y-147608406D01*
X242402470Y-147599453D01*
X242404913Y-147595873D01*
X242570871Y-147429915D01*
X242579143Y-147426489D01*
X242583406Y-147427293D01*
G37*
%TD.AperFunction*%
%TD*%
%TA.AperFunction,Conductor*%
%TO.N,P0*%
G36*
X233107758Y-149526275D02*
G01*
X233334464Y-149548946D01*
X233342355Y-149553179D01*
X233345000Y-149560588D01*
X233345000Y-149739411D01*
X233341573Y-149747684D01*
X233334464Y-149751053D01*
X233107761Y-149773723D01*
X233099188Y-149771136D01*
X233094955Y-149763245D01*
X233094897Y-149762175D01*
X233094000Y-149650000D01*
X233094715Y-149560588D01*
X233094897Y-149537823D01*
X233098390Y-149529579D01*
X233106691Y-149526218D01*
X233107758Y-149526275D01*
G37*
%TD.AperFunction*%
%TD*%
%TA.AperFunction,Conductor*%
%TO.N,P20*%
G36*
X276512071Y-129849252D02*
G01*
X277124760Y-130125793D01*
X277130891Y-130132320D01*
X277130767Y-130140909D01*
X276984563Y-130496195D01*
X276978245Y-130502542D01*
X276978195Y-130502563D01*
X276622909Y-130648767D01*
X276613955Y-130648746D01*
X276607793Y-130642760D01*
X276543676Y-130500707D01*
X276381279Y-130140909D01*
X276331252Y-130030071D01*
X276330972Y-130021121D01*
X276333641Y-130016987D01*
X276498986Y-129851642D01*
X276507258Y-129848216D01*
X276512071Y-129849252D01*
G37*
%TD.AperFunction*%
%TD*%
%TA.AperFunction,Conductor*%
%TO.N,GND*%
G36*
X235485921Y-166518439D02*
G01*
X235493865Y-166522572D01*
X235496560Y-166529078D01*
X235608452Y-167811277D01*
X235605757Y-167819817D01*
X235601059Y-167823190D01*
X233583406Y-168612706D01*
X233574453Y-168612529D01*
X233570870Y-168610083D01*
X233404916Y-168444129D01*
X233401489Y-168435856D01*
X233402293Y-168431593D01*
X233641612Y-167820000D01*
X234191809Y-166413939D01*
X234198015Y-166407484D01*
X234203721Y-166406547D01*
X235485921Y-166518439D01*
G37*
%TD.AperFunction*%
%TD*%
%TA.AperFunction,Conductor*%
%TO.N,P15*%
G36*
X262608207Y-141919248D02*
G01*
X262871684Y-142027436D01*
X262878036Y-142033748D01*
X262878063Y-142033815D01*
X262986251Y-142297292D01*
X262986224Y-142306247D01*
X262980846Y-142312106D01*
X262547240Y-142538673D01*
X262538321Y-142539467D01*
X262533549Y-142536576D01*
X262368923Y-142371950D01*
X262365496Y-142363677D01*
X262366824Y-142358264D01*
X262593394Y-141924651D01*
X262600262Y-141918907D01*
X262608207Y-141919248D01*
G37*
%TD.AperFunction*%
%TD*%
%TA.AperFunction,Conductor*%
%TO.N,GND*%
G36*
X244485921Y-149518439D02*
G01*
X244493865Y-149522572D01*
X244496560Y-149529078D01*
X244608452Y-150811277D01*
X244605757Y-150819817D01*
X244601059Y-150823190D01*
X242583406Y-151612706D01*
X242574453Y-151612529D01*
X242570870Y-151610083D01*
X242404916Y-151444129D01*
X242401489Y-151435856D01*
X242402293Y-151431593D01*
X242641612Y-150820000D01*
X243191809Y-149413939D01*
X243198015Y-149407484D01*
X243203721Y-149406547D01*
X244485921Y-149518439D01*
G37*
%TD.AperFunction*%
%TD*%
%TA.AperFunction,Conductor*%
%TO.N,P2*%
G36*
X232952527Y-130328626D02*
G01*
X232954764Y-130330687D01*
X234025755Y-131612605D01*
X234028429Y-131621151D01*
X234025859Y-131627481D01*
X234013829Y-131642298D01*
X233407714Y-132388807D01*
X233223512Y-132615675D01*
X233215637Y-132619937D01*
X233214429Y-132620000D01*
X232982200Y-132620000D01*
X232973927Y-132616573D01*
X232970500Y-132608300D01*
X232970500Y-132388819D01*
X232970499Y-132388807D01*
X232931397Y-132129392D01*
X232931396Y-132129385D01*
X232854063Y-131878677D01*
X232740228Y-131642296D01*
X232592433Y-131425521D01*
X232413981Y-131233195D01*
X232349912Y-131182101D01*
X232345581Y-131174264D01*
X232347644Y-131166213D01*
X232936225Y-130331444D01*
X232943791Y-130326659D01*
X232952527Y-130328626D01*
G37*
%TD.AperFunction*%
%TD*%
%TA.AperFunction,Conductor*%
%TO.N,GND*%
G36*
X280383994Y-125955822D02*
G01*
X280510444Y-126082272D01*
X280513871Y-126090545D01*
X280511359Y-126097789D01*
X280370573Y-126276353D01*
X280362759Y-126280728D01*
X280354141Y-126278297D01*
X280353178Y-126277448D01*
X280352065Y-126276353D01*
X280273392Y-126198928D01*
X280194551Y-126118815D01*
X280191190Y-126110514D01*
X280194683Y-126102269D01*
X280195311Y-126101694D01*
X280368157Y-125955169D01*
X280376682Y-125952435D01*
X280383994Y-125955822D01*
G37*
%TD.AperFunction*%
%TD*%
%TA.AperFunction,Conductor*%
%TO.N,GND*%
G36*
X218346042Y-138157427D02*
G01*
X218348234Y-138160467D01*
X219153049Y-139769969D01*
X219153684Y-139778902D01*
X219147817Y-139785667D01*
X219147071Y-139786007D01*
X218224487Y-140169136D01*
X218215532Y-140169144D01*
X218215513Y-140169136D01*
X217292928Y-139786007D01*
X217286602Y-139779670D01*
X217286610Y-139770715D01*
X217286940Y-139769990D01*
X218091766Y-138160466D01*
X218098531Y-138154600D01*
X218102231Y-138154000D01*
X218337769Y-138154000D01*
X218346042Y-138157427D01*
G37*
%TD.AperFunction*%
%TD*%
%TA.AperFunction,Conductor*%
%TO.N,GND*%
G36*
X182946636Y-145458602D02*
G01*
X184145138Y-146482919D01*
X184149200Y-146490898D01*
X184146430Y-146499414D01*
X184145809Y-146500085D01*
X183979977Y-146665917D01*
X183975289Y-146668781D01*
X182619069Y-147105358D01*
X182610144Y-147104631D01*
X182604676Y-147098702D01*
X182222290Y-146176523D01*
X182222288Y-146167570D01*
X182224832Y-146163764D01*
X182930770Y-145459214D01*
X182939046Y-145455796D01*
X182946636Y-145458602D01*
G37*
%TD.AperFunction*%
%TD*%
%TA.AperFunction,Conductor*%
%TO.N,P10*%
G36*
X276512071Y-145089252D02*
G01*
X277124760Y-145365793D01*
X277130891Y-145372320D01*
X277130767Y-145380909D01*
X276984563Y-145736195D01*
X276978245Y-145742542D01*
X276978195Y-145742563D01*
X276622909Y-145888767D01*
X276613955Y-145888746D01*
X276607793Y-145882760D01*
X276543676Y-145740707D01*
X276381279Y-145380909D01*
X276331252Y-145270071D01*
X276330972Y-145261121D01*
X276333641Y-145256987D01*
X276498986Y-145091642D01*
X276507258Y-145088216D01*
X276512071Y-145089252D01*
G37*
%TD.AperFunction*%
%TD*%
%TA.AperFunction,Conductor*%
%TO.N,GND*%
G36*
X260421787Y-185931570D02*
G01*
X262128968Y-186500570D01*
X262135732Y-186506436D01*
X262136367Y-186515369D01*
X262136080Y-186516137D01*
X261754629Y-187439417D01*
X261748303Y-187445754D01*
X261748284Y-187445762D01*
X260825004Y-187827213D01*
X260816049Y-187827205D01*
X260809723Y-187820868D01*
X260809443Y-187820118D01*
X260240438Y-186112920D01*
X260241073Y-186103988D01*
X260243262Y-186100951D01*
X260409816Y-185934397D01*
X260418088Y-185930971D01*
X260421787Y-185931570D01*
G37*
%TD.AperFunction*%
%TD*%
%TA.AperFunction,Conductor*%
%TO.N,GND*%
G36*
X254945505Y-126461037D02*
G01*
X254946526Y-126462206D01*
X256010191Y-127856485D01*
X256012485Y-127865141D01*
X256009162Y-127871854D01*
X255842623Y-128038393D01*
X255835390Y-128041774D01*
X254232731Y-128184863D01*
X254224186Y-128182185D01*
X254220037Y-128174249D01*
X254219991Y-128173217D01*
X254219897Y-128038393D01*
X254219296Y-127174149D01*
X254222716Y-127165876D01*
X254928961Y-126461020D01*
X254937236Y-126457602D01*
X254945505Y-126461037D01*
G37*
%TD.AperFunction*%
%TD*%
%TA.AperFunction,Conductor*%
%TO.N,GND*%
G36*
X236946636Y-124458602D02*
G01*
X238145138Y-125482919D01*
X238149200Y-125490898D01*
X238146430Y-125499414D01*
X238145809Y-125500085D01*
X237979977Y-125665917D01*
X237975289Y-125668781D01*
X236619069Y-126105358D01*
X236610144Y-126104631D01*
X236604676Y-126098702D01*
X236222290Y-125176523D01*
X236222288Y-125167570D01*
X236224832Y-125163764D01*
X236930770Y-124459214D01*
X236939046Y-124455796D01*
X236946636Y-124458602D01*
G37*
%TD.AperFunction*%
%TD*%
%TA.AperFunction,Conductor*%
%TO.N,GND*%
G36*
X206583406Y-130427293D02*
G01*
X208601059Y-131216809D01*
X208607515Y-131223015D01*
X208608452Y-131228722D01*
X208496560Y-132510921D01*
X208492427Y-132518865D01*
X208485921Y-132521560D01*
X207203722Y-132633452D01*
X207195182Y-132630757D01*
X207191809Y-132626059D01*
X206402293Y-130608406D01*
X206402470Y-130599453D01*
X206404913Y-130595873D01*
X206570871Y-130429915D01*
X206579143Y-130426489D01*
X206583406Y-130427293D01*
G37*
%TD.AperFunction*%
%TD*%
%TA.AperFunction,Conductor*%
%TO.N,GND*%
G36*
X182346042Y-144157427D02*
G01*
X182348234Y-144160467D01*
X183153049Y-145769969D01*
X183153684Y-145778902D01*
X183147817Y-145785667D01*
X183147071Y-145786007D01*
X182224487Y-146169136D01*
X182215532Y-146169144D01*
X182215513Y-146169136D01*
X181292928Y-145786007D01*
X181286602Y-145779670D01*
X181286610Y-145770715D01*
X181286940Y-145769990D01*
X182091766Y-144160466D01*
X182098531Y-144154600D01*
X182102231Y-144154000D01*
X182337769Y-144154000D01*
X182346042Y-144157427D01*
G37*
%TD.AperFunction*%
%TD*%
%TA.AperFunction,Conductor*%
%TO.N,P10*%
G36*
X214911736Y-162465825D02*
G01*
X215345346Y-162692393D01*
X215351092Y-162699262D01*
X215350751Y-162707207D01*
X215242563Y-162970684D01*
X215236251Y-162977036D01*
X215236184Y-162977063D01*
X214972707Y-163085251D01*
X214963752Y-163085224D01*
X214957893Y-163079846D01*
X214731325Y-162646237D01*
X214730532Y-162637321D01*
X214733421Y-162632551D01*
X214898050Y-162467922D01*
X214906322Y-162464496D01*
X214911736Y-162465825D01*
G37*
%TD.AperFunction*%
%TD*%
%TA.AperFunction,Conductor*%
%TO.N,P15*%
G36*
X196952527Y-130328626D02*
G01*
X196954764Y-130330687D01*
X198025755Y-131612605D01*
X198028429Y-131621151D01*
X198025859Y-131627481D01*
X198013829Y-131642298D01*
X197407714Y-132388807D01*
X197223512Y-132615675D01*
X197215637Y-132619937D01*
X197214429Y-132620000D01*
X196982200Y-132620000D01*
X196973927Y-132616573D01*
X196970500Y-132608300D01*
X196970500Y-132388819D01*
X196970499Y-132388807D01*
X196931397Y-132129392D01*
X196931396Y-132129385D01*
X196854063Y-131878677D01*
X196740228Y-131642296D01*
X196592433Y-131425521D01*
X196413981Y-131233195D01*
X196349912Y-131182101D01*
X196345581Y-131174264D01*
X196347644Y-131166213D01*
X196936225Y-130331444D01*
X196943791Y-130326659D01*
X196952527Y-130328626D01*
G37*
%TD.AperFunction*%
%TD*%
%TA.AperFunction,Conductor*%
%TO.N,P16*%
G36*
X259011802Y-163237929D02*
G01*
X259018670Y-163243674D01*
X259020000Y-163249092D01*
X259020000Y-163481907D01*
X259016573Y-163490180D01*
X259011801Y-163493071D01*
X258544987Y-163639470D01*
X258536068Y-163638676D01*
X258530691Y-163632818D01*
X258420883Y-163370009D01*
X258420857Y-163361056D01*
X258420862Y-163361042D01*
X258530691Y-163098180D01*
X258537042Y-163091870D01*
X258544986Y-163091529D01*
X259011802Y-163237929D01*
G37*
%TD.AperFunction*%
%TD*%
%TA.AperFunction,Conductor*%
%TO.N,P9*%
G36*
X266069788Y-175943296D02*
G01*
X266071101Y-175947124D01*
X266354206Y-177739681D01*
X266352111Y-177748387D01*
X266349006Y-177751328D01*
X265457015Y-178328596D01*
X265448207Y-178330214D01*
X265442385Y-178327047D01*
X265274377Y-178159039D01*
X265271448Y-178154142D01*
X265150047Y-177751328D01*
X265020514Y-177321529D01*
X265020535Y-177314712D01*
X265090506Y-177087875D01*
X265101793Y-177012991D01*
X265129609Y-176828452D01*
X265129610Y-176828440D01*
X265129610Y-176566079D01*
X265129609Y-176566067D01*
X265121120Y-176509755D01*
X265114492Y-176465780D01*
X265116647Y-176457090D01*
X265120404Y-176453797D01*
X266053892Y-175938704D01*
X266062791Y-175937708D01*
X266069788Y-175943296D01*
G37*
%TD.AperFunction*%
%TD*%
%TA.AperFunction,Conductor*%
%TO.N,P14*%
G36*
X196559211Y-121559006D02*
G01*
X196562251Y-121561198D01*
X196728801Y-121727748D01*
X196732228Y-121736021D01*
X196731628Y-121739721D01*
X196162630Y-123446900D01*
X196156763Y-123453665D01*
X196147830Y-123454300D01*
X196147062Y-123454013D01*
X195631122Y-123240853D01*
X195223781Y-123072561D01*
X195217446Y-123066237D01*
X194835986Y-122142936D01*
X194835994Y-122133982D01*
X194842331Y-122127656D01*
X194843071Y-122127379D01*
X196550279Y-121558371D01*
X196559211Y-121559006D01*
G37*
%TD.AperFunction*%
%TD*%
%TA.AperFunction,Conductor*%
%TO.N,GND*%
G36*
X182346042Y-161157427D02*
G01*
X182348234Y-161160467D01*
X183153049Y-162769969D01*
X183153684Y-162778902D01*
X183147817Y-162785667D01*
X183147071Y-162786007D01*
X182224487Y-163169136D01*
X182215532Y-163169144D01*
X182215513Y-163169136D01*
X181292928Y-162786007D01*
X181286602Y-162779670D01*
X181286610Y-162770715D01*
X181286940Y-162769990D01*
X182091766Y-161160466D01*
X182098531Y-161154600D01*
X182102231Y-161154000D01*
X182337769Y-161154000D01*
X182346042Y-161157427D01*
G37*
%TD.AperFunction*%
%TD*%
%TA.AperFunction,Conductor*%
%TO.N,GND*%
G36*
X235502130Y-166528922D02*
G01*
X235504276Y-166531068D01*
X236489149Y-167812389D01*
X236491474Y-167821037D01*
X236488678Y-167827223D01*
X235623496Y-168816004D01*
X235615469Y-168819974D01*
X235614691Y-168820000D01*
X235375309Y-168820000D01*
X235367036Y-168816573D01*
X235366504Y-168816005D01*
X235366503Y-168816004D01*
X234501321Y-167827224D01*
X234498452Y-167818741D01*
X234500850Y-167812389D01*
X235485724Y-166531068D01*
X235493482Y-166526597D01*
X235502130Y-166528922D01*
G37*
%TD.AperFunction*%
%TD*%
%TA.AperFunction,Conductor*%
%TO.N,GND*%
G36*
X189095563Y-151428017D02*
G01*
X190765247Y-152216042D01*
X190771266Y-152222672D01*
X190771695Y-152229068D01*
X190497798Y-153510916D01*
X190492718Y-153518290D01*
X190485709Y-153520153D01*
X189204476Y-153449217D01*
X189196405Y-153445338D01*
X189193559Y-153439311D01*
X188912244Y-151607140D01*
X188914375Y-151598442D01*
X188915528Y-151597098D01*
X189082301Y-151430325D01*
X189090573Y-151426899D01*
X189095563Y-151428017D01*
G37*
%TD.AperFunction*%
%TD*%
%TA.AperFunction,Conductor*%
%TO.N,P21*%
G36*
X266307318Y-129440691D02*
G01*
X266313629Y-129447042D01*
X266313970Y-129454987D01*
X266167571Y-129921801D01*
X266161825Y-129928670D01*
X266156407Y-129930000D01*
X265923593Y-129930000D01*
X265915320Y-129926573D01*
X265912429Y-129921801D01*
X265766029Y-129454987D01*
X265766823Y-129446068D01*
X265772679Y-129440692D01*
X266035490Y-129330883D01*
X266044444Y-129330857D01*
X266307318Y-129440691D01*
G37*
%TD.AperFunction*%
%TD*%
%TA.AperFunction,Conductor*%
%TO.N,GND*%
G36*
X218346042Y-155157427D02*
G01*
X218348234Y-155160467D01*
X219153049Y-156769969D01*
X219153684Y-156778902D01*
X219147817Y-156785667D01*
X219147071Y-156786007D01*
X218224487Y-157169136D01*
X218215532Y-157169144D01*
X218215513Y-157169136D01*
X217292928Y-156786007D01*
X217286602Y-156779670D01*
X217286610Y-156770715D01*
X217286940Y-156769990D01*
X218091766Y-155160466D01*
X218098531Y-155154600D01*
X218102231Y-155154000D01*
X218337769Y-155154000D01*
X218346042Y-155157427D01*
G37*
%TD.AperFunction*%
%TD*%
%TA.AperFunction,Conductor*%
%TO.N,GND*%
G36*
X200346042Y-123157427D02*
G01*
X200348234Y-123160467D01*
X201153049Y-124769969D01*
X201153684Y-124778902D01*
X201147817Y-124785667D01*
X201147071Y-124786007D01*
X200224487Y-125169136D01*
X200215532Y-125169144D01*
X200215513Y-125169136D01*
X199292928Y-124786007D01*
X199286602Y-124779670D01*
X199286610Y-124770715D01*
X199286940Y-124769990D01*
X200091766Y-123160466D01*
X200098531Y-123154600D01*
X200102231Y-123154000D01*
X200337769Y-123154000D01*
X200346042Y-123157427D01*
G37*
%TD.AperFunction*%
%TD*%
%TA.AperFunction,Conductor*%
%TO.N,pos*%
G36*
X278393864Y-154238475D02*
G01*
X278844671Y-154448123D01*
X278850726Y-154454718D01*
X278850559Y-154463175D01*
X278742563Y-154726184D01*
X278736251Y-154732536D01*
X278736184Y-154732563D01*
X278473175Y-154840559D01*
X278464220Y-154840532D01*
X278458123Y-154834671D01*
X278248475Y-154383865D01*
X278248095Y-154374920D01*
X278250810Y-154370662D01*
X278380661Y-154240811D01*
X278388933Y-154237385D01*
X278393864Y-154238475D01*
G37*
%TD.AperFunction*%
%TD*%
%TA.AperFunction,Conductor*%
%TO.N,GND*%
G36*
X262502130Y-151528922D02*
G01*
X262504276Y-151531068D01*
X263489149Y-152812389D01*
X263491474Y-152821037D01*
X263488678Y-152827223D01*
X262623496Y-153816004D01*
X262615469Y-153819974D01*
X262614691Y-153820000D01*
X262375309Y-153820000D01*
X262367036Y-153816573D01*
X262366504Y-153816005D01*
X262366503Y-153816004D01*
X261501321Y-152827224D01*
X261498452Y-152818741D01*
X261500850Y-152812389D01*
X262485724Y-151531068D01*
X262493482Y-151526597D01*
X262502130Y-151528922D01*
G37*
%TD.AperFunction*%
%TD*%
%TA.AperFunction,Conductor*%
%TO.N,P5*%
G36*
X250952527Y-132328626D02*
G01*
X250954764Y-132330687D01*
X252025755Y-133612605D01*
X252028429Y-133621151D01*
X252025859Y-133627481D01*
X252013829Y-133642298D01*
X251407714Y-134388807D01*
X251223512Y-134615675D01*
X251215637Y-134619937D01*
X251214429Y-134620000D01*
X250982200Y-134620000D01*
X250973927Y-134616573D01*
X250970500Y-134608300D01*
X250970500Y-134388819D01*
X250970499Y-134388807D01*
X250931397Y-134129392D01*
X250931396Y-134129385D01*
X250854063Y-133878677D01*
X250740228Y-133642296D01*
X250592433Y-133425521D01*
X250413981Y-133233195D01*
X250349912Y-133182101D01*
X250345581Y-133174264D01*
X250347644Y-133166213D01*
X250936225Y-132331444D01*
X250943791Y-132326659D01*
X250952527Y-132328626D01*
G37*
%TD.AperFunction*%
%TD*%
%TA.AperFunction,Conductor*%
%TO.N,GND*%
G36*
X218346042Y-155157427D02*
G01*
X218348234Y-155160467D01*
X219153049Y-156769969D01*
X219153684Y-156778902D01*
X219147817Y-156785667D01*
X219147071Y-156786007D01*
X218224487Y-157169136D01*
X218215532Y-157169144D01*
X218215513Y-157169136D01*
X217292928Y-156786007D01*
X217286602Y-156779670D01*
X217286610Y-156770715D01*
X217286940Y-156769990D01*
X218091766Y-155160466D01*
X218098531Y-155154600D01*
X218102231Y-155154000D01*
X218337769Y-155154000D01*
X218346042Y-155157427D01*
G37*
%TD.AperFunction*%
%TD*%
%TA.AperFunction,Conductor*%
%TO.N,P19*%
G36*
X178559211Y-125559006D02*
G01*
X178562251Y-125561198D01*
X178728801Y-125727748D01*
X178732228Y-125736021D01*
X178731628Y-125739721D01*
X178162630Y-127446900D01*
X178156763Y-127453665D01*
X178147830Y-127454300D01*
X178147062Y-127454013D01*
X177631122Y-127240853D01*
X177223781Y-127072561D01*
X177217446Y-127066237D01*
X176835986Y-126142936D01*
X176835994Y-126133982D01*
X176842331Y-126127656D01*
X176843071Y-126127379D01*
X178550279Y-125558371D01*
X178559211Y-125559006D01*
G37*
%TD.AperFunction*%
%TD*%
%TA.AperFunction,Conductor*%
%TO.N,P0*%
G36*
X233107758Y-149526275D02*
G01*
X233334464Y-149548946D01*
X233342355Y-149553179D01*
X233345000Y-149560588D01*
X233345000Y-149739411D01*
X233341573Y-149747684D01*
X233334464Y-149751053D01*
X233107761Y-149773723D01*
X233099188Y-149771136D01*
X233094955Y-149763245D01*
X233094897Y-149762175D01*
X233094000Y-149650000D01*
X233094715Y-149560588D01*
X233094897Y-149537823D01*
X233098390Y-149529579D01*
X233106691Y-149526218D01*
X233107758Y-149526275D01*
G37*
%TD.AperFunction*%
%TD*%
%TA.AperFunction,Conductor*%
%TO.N,GND*%
G36*
X255559211Y-142659006D02*
G01*
X255562251Y-142661198D01*
X255728801Y-142827748D01*
X255732228Y-142836021D01*
X255731628Y-142839721D01*
X255162630Y-144546900D01*
X255156763Y-144553665D01*
X255147830Y-144554300D01*
X255147062Y-144554013D01*
X254631122Y-144340853D01*
X254223781Y-144172561D01*
X254217446Y-144166237D01*
X253835986Y-143242936D01*
X253835994Y-143233982D01*
X253842331Y-143227656D01*
X253843071Y-143227379D01*
X255550279Y-142658371D01*
X255559211Y-142659006D01*
G37*
%TD.AperFunction*%
%TD*%
%TA.AperFunction,Conductor*%
%TO.N,GND*%
G36*
X254346042Y-125157427D02*
G01*
X254348234Y-125160467D01*
X255153049Y-126769969D01*
X255153684Y-126778902D01*
X255147817Y-126785667D01*
X255147071Y-126786007D01*
X254224487Y-127169136D01*
X254215532Y-127169144D01*
X254215513Y-127169136D01*
X253292928Y-126786007D01*
X253286602Y-126779670D01*
X253286610Y-126770715D01*
X253286940Y-126769990D01*
X254091766Y-125160466D01*
X254098531Y-125154600D01*
X254102231Y-125154000D01*
X254337769Y-125154000D01*
X254346042Y-125157427D01*
G37*
%TD.AperFunction*%
%TD*%
%TA.AperFunction,Conductor*%
%TO.N,P8*%
G36*
X242629664Y-174027936D02*
G01*
X242632704Y-174030128D01*
X242799254Y-174196678D01*
X242802681Y-174204951D01*
X242802081Y-174208651D01*
X242233083Y-175915830D01*
X242227216Y-175922595D01*
X242218283Y-175923230D01*
X242217515Y-175922943D01*
X241701575Y-175709783D01*
X241294234Y-175541491D01*
X241287899Y-175535167D01*
X240906439Y-174611866D01*
X240906447Y-174602912D01*
X240912784Y-174596586D01*
X240913524Y-174596309D01*
X242620732Y-174027301D01*
X242629664Y-174027936D01*
G37*
%TD.AperFunction*%
%TD*%
%TA.AperFunction,Conductor*%
%TO.N,P16*%
G36*
X276512071Y-142549252D02*
G01*
X277124760Y-142825793D01*
X277130891Y-142832320D01*
X277130767Y-142840909D01*
X276984563Y-143196195D01*
X276978245Y-143202542D01*
X276978195Y-143202563D01*
X276622909Y-143348767D01*
X276613955Y-143348746D01*
X276607793Y-143342760D01*
X276543676Y-143200707D01*
X276381279Y-142840909D01*
X276331252Y-142730071D01*
X276330972Y-142721121D01*
X276333641Y-142716987D01*
X276498986Y-142551642D01*
X276507258Y-142548216D01*
X276512071Y-142549252D01*
G37*
%TD.AperFunction*%
%TD*%
%TA.AperFunction,Conductor*%
%TO.N,P14*%
G36*
X276512071Y-140009252D02*
G01*
X277124760Y-140285793D01*
X277130891Y-140292320D01*
X277130767Y-140300909D01*
X276984563Y-140656195D01*
X276978245Y-140662542D01*
X276978195Y-140662563D01*
X276622909Y-140808767D01*
X276613955Y-140808746D01*
X276607793Y-140802760D01*
X276543676Y-140660707D01*
X276381279Y-140300909D01*
X276331252Y-140190071D01*
X276330972Y-140181121D01*
X276333641Y-140176987D01*
X276498986Y-140011642D01*
X276507258Y-140008216D01*
X276512071Y-140009252D01*
G37*
%TD.AperFunction*%
%TD*%
%TA.AperFunction,Conductor*%
%TO.N,RST*%
G36*
X277478717Y-122246592D02*
G01*
X277482490Y-122249119D01*
X277612880Y-122379509D01*
X277616307Y-122387782D01*
X277615426Y-122392237D01*
X277356005Y-123022256D01*
X277349686Y-123028601D01*
X277340734Y-123028621D01*
X276985804Y-122882563D01*
X276979457Y-122876245D01*
X276979436Y-122876195D01*
X276833378Y-122521265D01*
X276833399Y-122512311D01*
X276839742Y-122505994D01*
X277469764Y-122246573D01*
X277478717Y-122246592D01*
G37*
%TD.AperFunction*%
%TD*%
%TA.AperFunction,Conductor*%
%TO.N,GND*%
G36*
X244485921Y-115518439D02*
G01*
X244493865Y-115522572D01*
X244496560Y-115529078D01*
X244608452Y-116811277D01*
X244605757Y-116819817D01*
X244601059Y-116823190D01*
X242583406Y-117612706D01*
X242574453Y-117612529D01*
X242570870Y-117610083D01*
X242404916Y-117444129D01*
X242401489Y-117435856D01*
X242402293Y-117431593D01*
X242641612Y-116820000D01*
X243191809Y-115413939D01*
X243198015Y-115407484D01*
X243203721Y-115406547D01*
X244485921Y-115518439D01*
G37*
%TD.AperFunction*%
%TD*%
%TA.AperFunction,Conductor*%
%TO.N,GND*%
G36*
X182945505Y-128461037D02*
G01*
X182946526Y-128462206D01*
X184010191Y-129856485D01*
X184012485Y-129865141D01*
X184009162Y-129871854D01*
X183842623Y-130038393D01*
X183835390Y-130041774D01*
X182232731Y-130184863D01*
X182224186Y-130182185D01*
X182220037Y-130174249D01*
X182219991Y-130173217D01*
X182219897Y-130038393D01*
X182219296Y-129174149D01*
X182222716Y-129165876D01*
X182928961Y-128461020D01*
X182937236Y-128457602D01*
X182945505Y-128461037D01*
G37*
%TD.AperFunction*%
%TD*%
%TA.AperFunction,Conductor*%
%TO.N,P6*%
G36*
X285470590Y-121113427D02*
G01*
X285473307Y-121117687D01*
X285643830Y-121584694D01*
X285643449Y-121593641D01*
X285637351Y-121599503D01*
X285375011Y-121709115D01*
X285366056Y-121709142D01*
X285365989Y-121709115D01*
X285103648Y-121599503D01*
X285097336Y-121593151D01*
X285097169Y-121584697D01*
X285267693Y-121117686D01*
X285273749Y-121111091D01*
X285278683Y-121110000D01*
X285462317Y-121110000D01*
X285470590Y-121113427D01*
G37*
%TD.AperFunction*%
%TD*%
%TA.AperFunction,Conductor*%
%TO.N,GND*%
G36*
X200346042Y-157157427D02*
G01*
X200348234Y-157160467D01*
X201153049Y-158769969D01*
X201153684Y-158778902D01*
X201147817Y-158785667D01*
X201147071Y-158786007D01*
X200224487Y-159169136D01*
X200215532Y-159169144D01*
X200215513Y-159169136D01*
X199292928Y-158786007D01*
X199286602Y-158779670D01*
X199286610Y-158770715D01*
X199286940Y-158769990D01*
X200091766Y-157160466D01*
X200098531Y-157154600D01*
X200102231Y-157154000D01*
X200337769Y-157154000D01*
X200346042Y-157157427D01*
G37*
%TD.AperFunction*%
%TD*%
%TA.AperFunction,Conductor*%
%TO.N,GND*%
G36*
X246736011Y-177570239D02*
G01*
X246739051Y-177572431D01*
X246905601Y-177738981D01*
X246909028Y-177747254D01*
X246908428Y-177750954D01*
X246339430Y-179458133D01*
X246333563Y-179464898D01*
X246324630Y-179465533D01*
X246323862Y-179465246D01*
X245807922Y-179252086D01*
X245400581Y-179083794D01*
X245394246Y-179077470D01*
X245012786Y-178154169D01*
X245012794Y-178145215D01*
X245019131Y-178138889D01*
X245019871Y-178138612D01*
X246727079Y-177569604D01*
X246736011Y-177570239D01*
G37*
%TD.AperFunction*%
%TD*%
%TA.AperFunction,Conductor*%
%TO.N,P19*%
G36*
X178952527Y-117328626D02*
G01*
X178954764Y-117330687D01*
X180025755Y-118612605D01*
X180028429Y-118621151D01*
X180025859Y-118627481D01*
X180013829Y-118642298D01*
X179407714Y-119388807D01*
X179223512Y-119615675D01*
X179215637Y-119619937D01*
X179214429Y-119620000D01*
X178982200Y-119620000D01*
X178973927Y-119616573D01*
X178970500Y-119608300D01*
X178970500Y-119388819D01*
X178970499Y-119388807D01*
X178931397Y-119129392D01*
X178931396Y-119129385D01*
X178854063Y-118878677D01*
X178740228Y-118642296D01*
X178592433Y-118425521D01*
X178413981Y-118233195D01*
X178349912Y-118182101D01*
X178345581Y-118174264D01*
X178347644Y-118166213D01*
X178936225Y-117331444D01*
X178943791Y-117326659D01*
X178952527Y-117328626D01*
G37*
%TD.AperFunction*%
%TD*%
%TA.AperFunction,Conductor*%
%TO.N,GND*%
G36*
X226485921Y-130518439D02*
G01*
X226493865Y-130522572D01*
X226496560Y-130529078D01*
X226608452Y-131811277D01*
X226605757Y-131819817D01*
X226601059Y-131823190D01*
X224583406Y-132612706D01*
X224574453Y-132612529D01*
X224570870Y-132610083D01*
X224404916Y-132444129D01*
X224401489Y-132435856D01*
X224402293Y-132431593D01*
X224641612Y-131820000D01*
X225191809Y-130413939D01*
X225198015Y-130407484D01*
X225203721Y-130406547D01*
X226485921Y-130518439D01*
G37*
%TD.AperFunction*%
%TD*%
%TA.AperFunction,Conductor*%
%TO.N,P20*%
G36*
X178952527Y-134328626D02*
G01*
X178954764Y-134330687D01*
X180025755Y-135612605D01*
X180028429Y-135621151D01*
X180025859Y-135627481D01*
X180013829Y-135642298D01*
X179407714Y-136388807D01*
X179223512Y-136615675D01*
X179215637Y-136619937D01*
X179214429Y-136620000D01*
X178982200Y-136620000D01*
X178973927Y-136616573D01*
X178970500Y-136608300D01*
X178970500Y-136388819D01*
X178970499Y-136388807D01*
X178931397Y-136129392D01*
X178931396Y-136129385D01*
X178854063Y-135878677D01*
X178740228Y-135642296D01*
X178592433Y-135425521D01*
X178413981Y-135233195D01*
X178349912Y-135182101D01*
X178345581Y-135174264D01*
X178347644Y-135166213D01*
X178936225Y-134331444D01*
X178943791Y-134326659D01*
X178952527Y-134328626D01*
G37*
%TD.AperFunction*%
%TD*%
%TA.AperFunction,Conductor*%
%TO.N,P0*%
G36*
X263600090Y-131273427D02*
G01*
X263602807Y-131277687D01*
X263773330Y-131744694D01*
X263772949Y-131753641D01*
X263766851Y-131759503D01*
X263504511Y-131869115D01*
X263495556Y-131869142D01*
X263495489Y-131869115D01*
X263233148Y-131759503D01*
X263226836Y-131753151D01*
X263226669Y-131744697D01*
X263397193Y-131277686D01*
X263403249Y-131271091D01*
X263408183Y-131270000D01*
X263591817Y-131270000D01*
X263600090Y-131273427D01*
G37*
%TD.AperFunction*%
%TD*%
%TA.AperFunction,Conductor*%
%TO.N,GND*%
G36*
X246123436Y-178369835D02*
G01*
X247321938Y-179394152D01*
X247326000Y-179402131D01*
X247323230Y-179410647D01*
X247322609Y-179411318D01*
X247156777Y-179577150D01*
X247152089Y-179580014D01*
X245795869Y-180016591D01*
X245786944Y-180015864D01*
X245781476Y-180009935D01*
X245399090Y-179087756D01*
X245399088Y-179078803D01*
X245401632Y-179074997D01*
X246107570Y-178370447D01*
X246115846Y-178367029D01*
X246123436Y-178369835D01*
G37*
%TD.AperFunction*%
%TD*%
%TA.AperFunction,Conductor*%
%TO.N,P3*%
G36*
X232559211Y-121559006D02*
G01*
X232562251Y-121561198D01*
X232728801Y-121727748D01*
X232732228Y-121736021D01*
X232731628Y-121739721D01*
X232162630Y-123446900D01*
X232156763Y-123453665D01*
X232147830Y-123454300D01*
X232147062Y-123454013D01*
X231631122Y-123240853D01*
X231223781Y-123072561D01*
X231217446Y-123066237D01*
X230835986Y-122142936D01*
X230835994Y-122133982D01*
X230842331Y-122127656D01*
X230843071Y-122127379D01*
X232550279Y-121558371D01*
X232559211Y-121559006D01*
G37*
%TD.AperFunction*%
%TD*%
%TA.AperFunction,Conductor*%
%TO.N,P3*%
G36*
X284679931Y-131596823D02*
G01*
X284685309Y-131602682D01*
X284795115Y-131865489D01*
X284795142Y-131874444D01*
X284795115Y-131874511D01*
X284685309Y-132137317D01*
X284678957Y-132143629D01*
X284671012Y-132143970D01*
X284204199Y-131997571D01*
X284197330Y-131991825D01*
X284196000Y-131986407D01*
X284196000Y-131753592D01*
X284199427Y-131745319D01*
X284204196Y-131742429D01*
X284671013Y-131596029D01*
X284679931Y-131596823D01*
G37*
%TD.AperFunction*%
%TD*%
%TA.AperFunction,Conductor*%
%TO.N,P21*%
G36*
X178952527Y-151328626D02*
G01*
X178954764Y-151330687D01*
X180025755Y-152612605D01*
X180028429Y-152621151D01*
X180025859Y-152627481D01*
X180013829Y-152642298D01*
X179407714Y-153388807D01*
X179223512Y-153615675D01*
X179215637Y-153619937D01*
X179214429Y-153620000D01*
X178982200Y-153620000D01*
X178973927Y-153616573D01*
X178970500Y-153608300D01*
X178970500Y-153388819D01*
X178970499Y-153388807D01*
X178931397Y-153129392D01*
X178931396Y-153129385D01*
X178854063Y-152878677D01*
X178740228Y-152642296D01*
X178592433Y-152425521D01*
X178413981Y-152233195D01*
X178349912Y-152182101D01*
X178345581Y-152174264D01*
X178347644Y-152166213D01*
X178936225Y-151331444D01*
X178943791Y-151326659D01*
X178952527Y-151328626D01*
G37*
%TD.AperFunction*%
%TD*%
%TA.AperFunction,Conductor*%
%TO.N,P14*%
G36*
X285762450Y-138983423D02*
G01*
X285927076Y-139148049D01*
X285930503Y-139156322D01*
X285929173Y-139161740D01*
X285702606Y-139595346D01*
X285695737Y-139601092D01*
X285687792Y-139600751D01*
X285424315Y-139492563D01*
X285417963Y-139486251D01*
X285417936Y-139486184D01*
X285309748Y-139222707D01*
X285309775Y-139213752D01*
X285315151Y-139207894D01*
X285748762Y-138981325D01*
X285757678Y-138980532D01*
X285762450Y-138983423D01*
G37*
%TD.AperFunction*%
%TD*%
%TA.AperFunction,Conductor*%
%TO.N,GND*%
G36*
X200945505Y-124461037D02*
G01*
X200946526Y-124462206D01*
X202010191Y-125856485D01*
X202012485Y-125865141D01*
X202009162Y-125871854D01*
X201842623Y-126038393D01*
X201835390Y-126041774D01*
X200232731Y-126184863D01*
X200224186Y-126182185D01*
X200220037Y-126174249D01*
X200219991Y-126173217D01*
X200219897Y-126038393D01*
X200219296Y-125174149D01*
X200222716Y-125165876D01*
X200928961Y-124461020D01*
X200937236Y-124457602D01*
X200945505Y-124461037D01*
G37*
%TD.AperFunction*%
%TD*%
%TA.AperFunction,Conductor*%
%TO.N,RST*%
G36*
X270962586Y-151984017D02*
G01*
X271337254Y-152268407D01*
X271341772Y-152276138D01*
X271339499Y-152284800D01*
X271338453Y-152285999D01*
X271209217Y-152415235D01*
X271202739Y-152418523D01*
X270755815Y-152487909D01*
X270747114Y-152485792D01*
X270742459Y-152478143D01*
X270742320Y-152476387D01*
X270741657Y-152194176D01*
X270745063Y-152185898D01*
X270947269Y-151985035D01*
X270955553Y-151981637D01*
X270962586Y-151984017D01*
G37*
%TD.AperFunction*%
%TD*%
M02*
