%TF.GenerationSoftware,KiCad,Pcbnew,7.0.9*%
%TF.CreationDate,2023-11-22T09:35:42+00:00*%
%TF.ProjectId,vee_board_routed,7665655f-626f-4617-9264-5f726f757465,v1.0.0*%
%TF.SameCoordinates,Original*%
%TF.FileFunction,Drillmap*%
%TF.FilePolarity,Positive*%
%FSLAX45Y45*%
G04 Gerber Fmt 4.5, Leading zero omitted, Abs format (unit mm)*
G04 Created by KiCad (PCBNEW 7.0.9) date 2023-11-22 09:35:42*
%MOMM*%
%LPD*%
G01*
G04 APERTURE LIST*
%ADD10C,0.150000*%
%ADD11C,0.200000*%
%ADD12C,0.100000*%
%ADD13C,0.110000*%
%ADD14C,0.127000*%
G04 APERTURE END LIST*
D10*
X24581586Y-10973207D02*
X24702000Y-11107000D01*
X19251317Y-10906997D02*
G75*
G03*
X19068933Y-11024927I3J-200003D01*
G01*
X18995067Y-11189073D02*
X19068933Y-11024927D01*
X27982458Y-18094258D02*
X26913754Y-19565202D01*
X25075724Y-18534423D02*
X23735937Y-18099100D01*
X26378343Y-11213421D02*
G75*
G03*
X26201584Y-11107000I-176763J-93589D01*
G01*
X20686384Y-10907000D02*
G75*
G03*
X20789632Y-10878288I7J199980D01*
G01*
X26378341Y-11213422D02*
X26445659Y-11340577D01*
X26634394Y-19609448D02*
X25351962Y-18677707D01*
X25106333Y-18547265D02*
G75*
G03*
X25075724Y-18534424I-92453J-177475D01*
G01*
X26622416Y-11447000D02*
X28462000Y-11447000D01*
X22586204Y-10731558D02*
X22856697Y-10881832D01*
X22586205Y-10731556D02*
G75*
G03*
X22491436Y-10706403I-97115J-174794D01*
G01*
X17342000Y-16747000D02*
X20968509Y-16747000D01*
X21153209Y-16870278D02*
G75*
G03*
X20968509Y-16747000I-184699J-76722D01*
G01*
X22856695Y-10881834D02*
G75*
G03*
X22953825Y-10907000I97135J174874D01*
G01*
X27982458Y-18094258D02*
G75*
G03*
X28003995Y-18056615I-161858J117588D01*
G01*
X25326817Y-18662141D02*
X25106333Y-18547265D01*
X24581585Y-10973208D02*
G75*
G03*
X24432927Y-10907000I-148655J-133782D01*
G01*
X21590791Y-17923722D02*
G75*
G03*
X21775491Y-18047000I184699J76722D01*
G01*
X23425129Y-18047000D02*
X21775491Y-18047000D01*
X28645341Y-16585220D02*
X28003995Y-18056615D01*
X17142000Y-16547000D02*
G75*
G03*
X17342000Y-16747000I200000J0D01*
G01*
X20789632Y-10878288D02*
X21053277Y-10719369D01*
X21158886Y-10690672D02*
G75*
G03*
X21053277Y-10719370I-2366J-199968D01*
G01*
X28662000Y-11647000D02*
G75*
G03*
X28462000Y-11447000I-200000J0D01*
G01*
X26445657Y-11340578D02*
G75*
G03*
X26622416Y-11447000I176763J93589D01*
G01*
X23707638Y-18092138D02*
X23458633Y-18049826D01*
X26634394Y-19609449D02*
G75*
G03*
X26913754Y-19565202I117556J161809D01*
G01*
X28645340Y-16585220D02*
G75*
G03*
X28662000Y-16505307I-183310J79910D01*
G01*
X28662000Y-11647000D02*
X28662000Y-16505307D01*
X23735937Y-18099100D02*
G75*
G03*
X23707638Y-18092138I-61817J-190270D01*
G01*
X22953825Y-10907000D02*
X24432927Y-10907000D01*
X18812683Y-11307003D02*
G75*
G03*
X18995067Y-11189073I-3J200003D01*
G01*
X17342000Y-11307000D02*
X18812683Y-11307000D01*
X21158886Y-10690672D02*
X22491436Y-10706403D01*
X17342000Y-11307000D02*
G75*
G03*
X17142000Y-11507000I0J-200000D01*
G01*
X25351962Y-18677708D02*
G75*
G03*
X25326817Y-18662141I-117582J-161832D01*
G01*
X17142000Y-16547000D02*
X17142000Y-11507000D01*
X19251317Y-10907000D02*
X20686384Y-10907000D01*
X23458633Y-18049826D02*
G75*
G03*
X23425129Y-18047000I-33503J-197164D01*
G01*
X21590792Y-17923721D02*
X21153208Y-16870279D01*
X24702000Y-11107000D02*
X26201584Y-11107000D01*
D11*
D12*
X21509000Y-16282450D02*
X21539000Y-16312450D01*
X21539000Y-16282450D02*
X21509000Y-16312450D01*
X23795000Y-14950000D02*
X23825000Y-14980000D01*
X23825000Y-14950000D02*
X23795000Y-14980000D01*
X24557000Y-16220000D02*
X24587000Y-16250000D01*
X24587000Y-16220000D02*
X24557000Y-16250000D01*
X24811000Y-16220000D02*
X24841000Y-16250000D01*
X24841000Y-16220000D02*
X24811000Y-16250000D01*
X25792664Y-14407664D02*
X25822664Y-14437664D01*
X25822664Y-14407664D02*
X25792664Y-14437664D01*
X25827000Y-16321550D02*
X25857000Y-16351550D01*
X25857000Y-16321550D02*
X25827000Y-16351550D01*
X26272550Y-14188000D02*
X26302550Y-14218000D01*
X26302550Y-14188000D02*
X26272550Y-14218000D01*
X26296891Y-11674609D02*
X26326891Y-11704609D01*
X26326891Y-11674609D02*
X26296891Y-11704609D01*
X26335000Y-12156000D02*
X26365000Y-12186000D01*
X26365000Y-12156000D02*
X26335000Y-12186000D01*
X26335000Y-12761950D02*
X26365000Y-12791950D01*
X26365000Y-12761950D02*
X26335000Y-12791950D01*
X26335000Y-13172000D02*
X26365000Y-13202000D01*
X26365000Y-13172000D02*
X26335000Y-13202000D01*
X26335000Y-14950000D02*
X26365000Y-14980000D01*
X26365000Y-14950000D02*
X26335000Y-14980000D01*
X26401650Y-13934000D02*
X26431650Y-13964000D01*
X26431650Y-13934000D02*
X26401650Y-13964000D01*
X26464100Y-13426000D02*
X26494100Y-13456000D01*
X26494100Y-13426000D02*
X26464100Y-13456000D01*
X26464100Y-14950000D02*
X26494100Y-14980000D01*
X26494100Y-14950000D02*
X26464100Y-14980000D01*
X26481550Y-15204000D02*
X26511550Y-15234000D01*
X26511550Y-15204000D02*
X26481550Y-15234000D01*
X26481550Y-15458000D02*
X26511550Y-15488000D01*
X26511550Y-15458000D02*
X26481550Y-15488000D01*
X26526550Y-13172000D02*
X26556550Y-13202000D01*
X26556550Y-13172000D02*
X26526550Y-13202000D01*
X26589000Y-12918000D02*
X26619000Y-12948000D01*
X26619000Y-12918000D02*
X26589000Y-12948000D01*
X26623109Y-11613890D02*
X26653109Y-11643890D01*
X26653109Y-11613890D02*
X26623109Y-11643890D01*
X26651450Y-14950000D02*
X26681450Y-14980000D01*
X26681450Y-14950000D02*
X26651450Y-14980000D01*
X26651450Y-16220000D02*
X26681450Y-16250000D01*
X26681450Y-16220000D02*
X26651450Y-16250000D01*
X26691450Y-13614172D02*
X26721450Y-13644172D01*
X26721450Y-13614172D02*
X26691450Y-13644172D01*
X26701463Y-14808463D02*
X26731463Y-14838463D01*
X26731463Y-14808463D02*
X26701463Y-14838463D01*
X26728716Y-13739072D02*
X26758716Y-13769072D01*
X26758716Y-13739072D02*
X26728716Y-13769072D01*
X27059235Y-15204000D02*
X27089235Y-15234000D01*
X27089235Y-15204000D02*
X27059235Y-15234000D01*
X27097000Y-12156000D02*
X27127000Y-12186000D01*
X27127000Y-12156000D02*
X27097000Y-12186000D01*
X27859000Y-13937272D02*
X27889000Y-13967272D01*
X27889000Y-13937272D02*
X27859000Y-13967272D01*
X27859000Y-15204000D02*
X27889000Y-15234000D01*
X27889000Y-15204000D02*
X27859000Y-15234000D01*
X27859000Y-15458000D02*
X27889000Y-15488000D01*
X27889000Y-15458000D02*
X27859000Y-15488000D01*
X28367000Y-11511950D02*
X28397000Y-11541950D01*
X28397000Y-11511950D02*
X28367000Y-11541950D01*
X28464600Y-13172000D02*
X28494600Y-13202000D01*
X28494600Y-13172000D02*
X28464600Y-13202000D01*
X28522050Y-12156000D02*
X28552050Y-12186000D01*
X28552050Y-12156000D02*
X28522050Y-12186000D01*
X28527050Y-13934000D02*
X28557050Y-13964000D01*
X28557050Y-13934000D02*
X28527050Y-13964000D01*
X28437000Y-15802000D02*
G75*
G03*
X28437000Y-15802000I-15000J0D01*
G01*
X28437000Y-16452000D02*
G75*
G03*
X28437000Y-16452000I-15000J0D01*
G01*
X27545800Y-11760000D02*
X27545800Y-11800000D01*
X27525800Y-11780000D02*
X27565800Y-11780000D01*
X27545800Y-12014000D02*
X27545800Y-12054000D01*
X27525800Y-12034000D02*
X27565800Y-12034000D01*
X27545800Y-12268000D02*
X27545800Y-12308000D01*
X27525800Y-12288000D02*
X27565800Y-12288000D01*
X27545800Y-12522000D02*
X27545800Y-12562000D01*
X27525800Y-12542000D02*
X27565800Y-12542000D01*
X27545800Y-12776000D02*
X27545800Y-12816000D01*
X27525800Y-12796000D02*
X27565800Y-12796000D01*
X27545800Y-13030000D02*
X27545800Y-13070000D01*
X27525800Y-13050000D02*
X27565800Y-13050000D01*
X27545800Y-13284000D02*
X27545800Y-13324000D01*
X27525800Y-13304000D02*
X27565800Y-13304000D01*
X27545800Y-13538000D02*
X27545800Y-13578000D01*
X27525800Y-13558000D02*
X27565800Y-13558000D01*
X27545800Y-13792000D02*
X27545800Y-13832000D01*
X27525800Y-13812000D02*
X27565800Y-13812000D01*
X27545800Y-14046000D02*
X27545800Y-14086000D01*
X27525800Y-14066000D02*
X27565800Y-14066000D01*
X27545800Y-14300000D02*
X27545800Y-14340000D01*
X27525800Y-14320000D02*
X27565800Y-14320000D01*
X27545800Y-14554000D02*
X27545800Y-14594000D01*
X27525800Y-14574000D02*
X27565800Y-14574000D01*
X27698200Y-11760000D02*
X27698200Y-11800000D01*
X27678200Y-11780000D02*
X27718200Y-11780000D01*
X27698200Y-12268000D02*
X27698200Y-12308000D01*
X27678200Y-12288000D02*
X27718200Y-12288000D01*
X27698200Y-12522000D02*
X27698200Y-12562000D01*
X27678200Y-12542000D02*
X27718200Y-12542000D01*
X27698200Y-12776000D02*
X27698200Y-12816000D01*
X27678200Y-12796000D02*
X27718200Y-12796000D01*
X27698200Y-13030000D02*
X27698200Y-13070000D01*
X27678200Y-13050000D02*
X27718200Y-13050000D01*
X27698200Y-13284000D02*
X27698200Y-13324000D01*
X27678200Y-13304000D02*
X27718200Y-13304000D01*
X27698200Y-13538000D02*
X27698200Y-13578000D01*
X27678200Y-13558000D02*
X27718200Y-13558000D01*
X27698200Y-13792000D02*
X27698200Y-13832000D01*
X27678200Y-13812000D02*
X27718200Y-13812000D01*
X27698200Y-14046000D02*
X27698200Y-14086000D01*
X27678200Y-14066000D02*
X27718200Y-14066000D01*
X27698200Y-14300000D02*
X27698200Y-14340000D01*
X27678200Y-14320000D02*
X27718200Y-14320000D01*
X27698200Y-14554000D02*
X27698200Y-14594000D01*
X27678200Y-14574000D02*
X27718200Y-14574000D01*
X27698730Y-12015407D02*
X27698730Y-12055407D01*
X27678730Y-12035407D02*
X27718730Y-12035407D01*
X27348517Y-16053517D02*
X27348517Y-16000483D01*
X27295483Y-16000483D01*
X27295483Y-16053517D01*
X27348517Y-16053517D01*
X27548517Y-16053517D02*
X27548517Y-16000483D01*
X27495483Y-16000483D01*
X27495483Y-16053517D01*
X27548517Y-16053517D01*
D13*
X26860000Y-11835000D02*
X26915000Y-11780000D01*
X26860000Y-11725000D01*
X26805000Y-11780000D01*
X26860000Y-11835000D01*
X26860000Y-11835000D02*
X26915000Y-11780000D01*
X26860000Y-11725000D01*
X26805000Y-11780000D01*
X26860000Y-11835000D01*
X26860000Y-12089000D02*
X26915000Y-12034000D01*
X26860000Y-11979000D01*
X26805000Y-12034000D01*
X26860000Y-12089000D01*
X26860000Y-12343000D02*
X26915000Y-12288000D01*
X26860000Y-12233000D01*
X26805000Y-12288000D01*
X26860000Y-12343000D01*
X26860000Y-12597000D02*
X26915000Y-12542000D01*
X26860000Y-12487000D01*
X26805000Y-12542000D01*
X26860000Y-12597000D01*
X26860000Y-12851000D02*
X26915000Y-12796000D01*
X26860000Y-12741000D01*
X26805000Y-12796000D01*
X26860000Y-12851000D01*
X26860000Y-13105000D02*
X26915000Y-13050000D01*
X26860000Y-12995000D01*
X26805000Y-13050000D01*
X26860000Y-13105000D01*
X26860000Y-13359000D02*
X26915000Y-13304000D01*
X26860000Y-13249000D01*
X26805000Y-13304000D01*
X26860000Y-13359000D01*
X26860000Y-13613000D02*
X26915000Y-13558000D01*
X26860000Y-13503000D01*
X26805000Y-13558000D01*
X26860000Y-13613000D01*
X26860000Y-13867000D02*
X26915000Y-13812000D01*
X26860000Y-13757000D01*
X26805000Y-13812000D01*
X26860000Y-13867000D01*
X26860000Y-14121000D02*
X26915000Y-14066000D01*
X26860000Y-14011000D01*
X26805000Y-14066000D01*
X26860000Y-14121000D01*
X26860000Y-14375000D02*
X26915000Y-14320000D01*
X26860000Y-14265000D01*
X26805000Y-14320000D01*
X26860000Y-14375000D01*
X26860000Y-14629000D02*
X26915000Y-14574000D01*
X26860000Y-14519000D01*
X26805000Y-14574000D01*
X26860000Y-14629000D01*
X28384000Y-11835000D02*
X28439000Y-11780000D01*
X28384000Y-11725000D01*
X28329000Y-11780000D01*
X28384000Y-11835000D01*
X28384000Y-11835000D02*
X28439000Y-11780000D01*
X28384000Y-11725000D01*
X28329000Y-11780000D01*
X28384000Y-11835000D01*
X28384000Y-12089000D02*
X28439000Y-12034000D01*
X28384000Y-11979000D01*
X28329000Y-12034000D01*
X28384000Y-12089000D01*
X28384000Y-12343000D02*
X28439000Y-12288000D01*
X28384000Y-12233000D01*
X28329000Y-12288000D01*
X28384000Y-12343000D01*
X28384000Y-12597000D02*
X28439000Y-12542000D01*
X28384000Y-12487000D01*
X28329000Y-12542000D01*
X28384000Y-12597000D01*
X28384000Y-12851000D02*
X28439000Y-12796000D01*
X28384000Y-12741000D01*
X28329000Y-12796000D01*
X28384000Y-12851000D01*
X28384000Y-13105000D02*
X28439000Y-13050000D01*
X28384000Y-12995000D01*
X28329000Y-13050000D01*
X28384000Y-13105000D01*
X28384000Y-13359000D02*
X28439000Y-13304000D01*
X28384000Y-13249000D01*
X28329000Y-13304000D01*
X28384000Y-13359000D01*
X28384000Y-13613000D02*
X28439000Y-13558000D01*
X28384000Y-13503000D01*
X28329000Y-13558000D01*
X28384000Y-13613000D01*
X28384000Y-13867000D02*
X28439000Y-13812000D01*
X28384000Y-13757000D01*
X28329000Y-13812000D01*
X28384000Y-13867000D01*
X28384000Y-14121000D02*
X28439000Y-14066000D01*
X28384000Y-14011000D01*
X28329000Y-14066000D01*
X28384000Y-14121000D01*
X28384000Y-14375000D02*
X28439000Y-14320000D01*
X28384000Y-14265000D01*
X28329000Y-14320000D01*
X28384000Y-14375000D01*
X28384000Y-14629000D02*
X28439000Y-14574000D01*
X28384000Y-14519000D01*
X28329000Y-14574000D01*
X28384000Y-14629000D01*
D14*
X17658500Y-12643500D02*
X17785500Y-12770500D01*
X17785500Y-12643500D02*
X17658500Y-12770500D01*
X17785500Y-12707000D02*
G75*
G03*
X17785500Y-12707000I-63500J0D01*
G01*
X17658500Y-14343500D02*
X17785500Y-14470500D01*
X17785500Y-14343500D02*
X17658500Y-14470500D01*
X17785500Y-14407000D02*
G75*
G03*
X17785500Y-14407000I-63500J0D01*
G01*
X17658500Y-16043500D02*
X17785500Y-16170500D01*
X17785500Y-16043500D02*
X17658500Y-16170500D01*
X17785500Y-16107000D02*
G75*
G03*
X17785500Y-16107000I-63500J0D01*
G01*
X18158500Y-12853500D02*
X18285500Y-12980500D01*
X18285500Y-12853500D02*
X18158500Y-12980500D01*
X18285500Y-12917000D02*
G75*
G03*
X18285500Y-12917000I-63500J0D01*
G01*
X18158500Y-12853500D02*
X18285500Y-12980500D01*
X18285500Y-12853500D02*
X18158500Y-12980500D01*
X18285500Y-12917000D02*
G75*
G03*
X18285500Y-12917000I-63500J0D01*
G01*
X18158500Y-14553500D02*
X18285500Y-14680500D01*
X18285500Y-14553500D02*
X18158500Y-14680500D01*
X18285500Y-14617000D02*
G75*
G03*
X18285500Y-14617000I-63500J0D01*
G01*
X18158500Y-14553500D02*
X18285500Y-14680500D01*
X18285500Y-14553500D02*
X18158500Y-14680500D01*
X18285500Y-14617000D02*
G75*
G03*
X18285500Y-14617000I-63500J0D01*
G01*
X18158500Y-16253500D02*
X18285500Y-16380500D01*
X18285500Y-16253500D02*
X18158500Y-16380500D01*
X18285500Y-16317000D02*
G75*
G03*
X18285500Y-16317000I-63500J0D01*
G01*
X18158500Y-16253500D02*
X18285500Y-16380500D01*
X18285500Y-16253500D02*
X18158500Y-16380500D01*
X18285500Y-16317000D02*
G75*
G03*
X18285500Y-16317000I-63500J0D01*
G01*
X18658500Y-12643500D02*
X18785500Y-12770500D01*
X18785500Y-12643500D02*
X18658500Y-12770500D01*
X18785500Y-12707000D02*
G75*
G03*
X18785500Y-12707000I-63500J0D01*
G01*
X18658500Y-14343500D02*
X18785500Y-14470500D01*
X18785500Y-14343500D02*
X18658500Y-14470500D01*
X18785500Y-14407000D02*
G75*
G03*
X18785500Y-14407000I-63500J0D01*
G01*
X18658500Y-16043500D02*
X18785500Y-16170500D01*
X18785500Y-16043500D02*
X18658500Y-16170500D01*
X18785500Y-16107000D02*
G75*
G03*
X18785500Y-16107000I-63500J0D01*
G01*
X19458500Y-12243500D02*
X19585500Y-12370500D01*
X19585500Y-12243500D02*
X19458500Y-12370500D01*
X19585500Y-12307000D02*
G75*
G03*
X19585500Y-12307000I-63500J0D01*
G01*
X19458500Y-13943500D02*
X19585500Y-14070500D01*
X19585500Y-13943500D02*
X19458500Y-14070500D01*
X19585500Y-14007000D02*
G75*
G03*
X19585500Y-14007000I-63500J0D01*
G01*
X19458500Y-15643500D02*
X19585500Y-15770500D01*
X19585500Y-15643500D02*
X19458500Y-15770500D01*
X19585500Y-15707000D02*
G75*
G03*
X19585500Y-15707000I-63500J0D01*
G01*
X19958500Y-12453500D02*
X20085500Y-12580500D01*
X20085500Y-12453500D02*
X19958500Y-12580500D01*
X20085500Y-12517000D02*
G75*
G03*
X20085500Y-12517000I-63500J0D01*
G01*
X19958500Y-12453500D02*
X20085500Y-12580500D01*
X20085500Y-12453500D02*
X19958500Y-12580500D01*
X20085500Y-12517000D02*
G75*
G03*
X20085500Y-12517000I-63500J0D01*
G01*
X19958500Y-14153500D02*
X20085500Y-14280500D01*
X20085500Y-14153500D02*
X19958500Y-14280500D01*
X20085500Y-14217000D02*
G75*
G03*
X20085500Y-14217000I-63500J0D01*
G01*
X19958500Y-14153500D02*
X20085500Y-14280500D01*
X20085500Y-14153500D02*
X19958500Y-14280500D01*
X20085500Y-14217000D02*
G75*
G03*
X20085500Y-14217000I-63500J0D01*
G01*
X19958500Y-15853500D02*
X20085500Y-15980500D01*
X20085500Y-15853500D02*
X19958500Y-15980500D01*
X20085500Y-15917000D02*
G75*
G03*
X20085500Y-15917000I-63500J0D01*
G01*
X19958500Y-15853500D02*
X20085500Y-15980500D01*
X20085500Y-15853500D02*
X19958500Y-15980500D01*
X20085500Y-15917000D02*
G75*
G03*
X20085500Y-15917000I-63500J0D01*
G01*
X20458500Y-12243500D02*
X20585500Y-12370500D01*
X20585500Y-12243500D02*
X20458500Y-12370500D01*
X20585500Y-12307000D02*
G75*
G03*
X20585500Y-12307000I-63500J0D01*
G01*
X20458500Y-13943500D02*
X20585500Y-14070500D01*
X20585500Y-13943500D02*
X20458500Y-14070500D01*
X20585500Y-14007000D02*
G75*
G03*
X20585500Y-14007000I-63500J0D01*
G01*
X20458500Y-15643500D02*
X20585500Y-15770500D01*
X20585500Y-15643500D02*
X20458500Y-15770500D01*
X20585500Y-15707000D02*
G75*
G03*
X20585500Y-15707000I-63500J0D01*
G01*
X21258500Y-12043500D02*
X21385500Y-12170500D01*
X21385500Y-12043500D02*
X21258500Y-12170500D01*
X21385500Y-12107000D02*
G75*
G03*
X21385500Y-12107000I-63500J0D01*
G01*
X21258500Y-13743500D02*
X21385500Y-13870500D01*
X21385500Y-13743500D02*
X21258500Y-13870500D01*
X21385500Y-13807000D02*
G75*
G03*
X21385500Y-13807000I-63500J0D01*
G01*
X21258500Y-15443500D02*
X21385500Y-15570500D01*
X21385500Y-15443500D02*
X21258500Y-15570500D01*
X21385500Y-15507000D02*
G75*
G03*
X21385500Y-15507000I-63500J0D01*
G01*
X21758500Y-12253500D02*
X21885500Y-12380500D01*
X21885500Y-12253500D02*
X21758500Y-12380500D01*
X21885500Y-12317000D02*
G75*
G03*
X21885500Y-12317000I-63500J0D01*
G01*
X21758500Y-12253500D02*
X21885500Y-12380500D01*
X21885500Y-12253500D02*
X21758500Y-12380500D01*
X21885500Y-12317000D02*
G75*
G03*
X21885500Y-12317000I-63500J0D01*
G01*
X21758500Y-13953500D02*
X21885500Y-14080500D01*
X21885500Y-13953500D02*
X21758500Y-14080500D01*
X21885500Y-14017000D02*
G75*
G03*
X21885500Y-14017000I-63500J0D01*
G01*
X21758500Y-13953500D02*
X21885500Y-14080500D01*
X21885500Y-13953500D02*
X21758500Y-14080500D01*
X21885500Y-14017000D02*
G75*
G03*
X21885500Y-14017000I-63500J0D01*
G01*
X21758500Y-15653500D02*
X21885500Y-15780500D01*
X21885500Y-15653500D02*
X21758500Y-15780500D01*
X21885500Y-15717000D02*
G75*
G03*
X21885500Y-15717000I-63500J0D01*
G01*
X21758500Y-15653500D02*
X21885500Y-15780500D01*
X21885500Y-15653500D02*
X21758500Y-15780500D01*
X21885500Y-15717000D02*
G75*
G03*
X21885500Y-15717000I-63500J0D01*
G01*
X22158500Y-17343500D02*
X22285500Y-17470500D01*
X22285500Y-17343500D02*
X22158500Y-17470500D01*
X22285500Y-17407000D02*
G75*
G03*
X22285500Y-17407000I-63500J0D01*
G01*
X22258500Y-12043500D02*
X22385500Y-12170500D01*
X22385500Y-12043500D02*
X22258500Y-12170500D01*
X22385500Y-12107000D02*
G75*
G03*
X22385500Y-12107000I-63500J0D01*
G01*
X22258500Y-13743500D02*
X22385500Y-13870500D01*
X22385500Y-13743500D02*
X22258500Y-13870500D01*
X22385500Y-13807000D02*
G75*
G03*
X22385500Y-13807000I-63500J0D01*
G01*
X22258500Y-15443500D02*
X22385500Y-15570500D01*
X22385500Y-15443500D02*
X22258500Y-15570500D01*
X22385500Y-15507000D02*
G75*
G03*
X22385500Y-15507000I-63500J0D01*
G01*
X22658500Y-17553500D02*
X22785500Y-17680500D01*
X22785500Y-17553500D02*
X22658500Y-17680500D01*
X22785500Y-17617000D02*
G75*
G03*
X22785500Y-17617000I-63500J0D01*
G01*
X22658500Y-17553500D02*
X22785500Y-17680500D01*
X22785500Y-17553500D02*
X22658500Y-17680500D01*
X22785500Y-17617000D02*
G75*
G03*
X22785500Y-17617000I-63500J0D01*
G01*
X23058500Y-12243500D02*
X23185500Y-12370500D01*
X23185500Y-12243500D02*
X23058500Y-12370500D01*
X23185500Y-12307000D02*
G75*
G03*
X23185500Y-12307000I-63500J0D01*
G01*
X23058500Y-13943500D02*
X23185500Y-14070500D01*
X23185500Y-13943500D02*
X23058500Y-14070500D01*
X23185500Y-14007000D02*
G75*
G03*
X23185500Y-14007000I-63500J0D01*
G01*
X23058500Y-15643500D02*
X23185500Y-15770500D01*
X23185500Y-15643500D02*
X23058500Y-15770500D01*
X23185500Y-15707000D02*
G75*
G03*
X23185500Y-15707000I-63500J0D01*
G01*
X23158500Y-17343500D02*
X23285500Y-17470500D01*
X23285500Y-17343500D02*
X23158500Y-17470500D01*
X23285500Y-17407000D02*
G75*
G03*
X23285500Y-17407000I-63500J0D01*
G01*
X23558500Y-12453500D02*
X23685500Y-12580500D01*
X23685500Y-12453500D02*
X23558500Y-12580500D01*
X23685500Y-12517000D02*
G75*
G03*
X23685500Y-12517000I-63500J0D01*
G01*
X23558500Y-12453500D02*
X23685500Y-12580500D01*
X23685500Y-12453500D02*
X23558500Y-12580500D01*
X23685500Y-12517000D02*
G75*
G03*
X23685500Y-12517000I-63500J0D01*
G01*
X23558500Y-14153500D02*
X23685500Y-14280500D01*
X23685500Y-14153500D02*
X23558500Y-14280500D01*
X23685500Y-14217000D02*
G75*
G03*
X23685500Y-14217000I-63500J0D01*
G01*
X23558500Y-14153500D02*
X23685500Y-14280500D01*
X23685500Y-14153500D02*
X23558500Y-14280500D01*
X23685500Y-14217000D02*
G75*
G03*
X23685500Y-14217000I-63500J0D01*
G01*
X23558500Y-15853500D02*
X23685500Y-15980500D01*
X23685500Y-15853500D02*
X23558500Y-15980500D01*
X23685500Y-15917000D02*
G75*
G03*
X23685500Y-15917000I-63500J0D01*
G01*
X23558500Y-15853500D02*
X23685500Y-15980500D01*
X23685500Y-15853500D02*
X23558500Y-15980500D01*
X23685500Y-15917000D02*
G75*
G03*
X23685500Y-15917000I-63500J0D01*
G01*
X24058500Y-12243500D02*
X24185500Y-12370500D01*
X24185500Y-12243500D02*
X24058500Y-12370500D01*
X24185500Y-12307000D02*
G75*
G03*
X24185500Y-12307000I-63500J0D01*
G01*
X24058500Y-13943500D02*
X24185500Y-14070500D01*
X24185500Y-13943500D02*
X24058500Y-14070500D01*
X24185500Y-14007000D02*
G75*
G03*
X24185500Y-14007000I-63500J0D01*
G01*
X24058500Y-15643500D02*
X24185500Y-15770500D01*
X24185500Y-15643500D02*
X24058500Y-15770500D01*
X24185500Y-15707000D02*
G75*
G03*
X24185500Y-15707000I-63500J0D01*
G01*
X24065545Y-17490393D02*
X24192545Y-17617393D01*
X24192545Y-17490393D02*
X24065545Y-17617393D01*
X24192545Y-17553893D02*
G75*
G03*
X24192545Y-17553893I-63500J0D01*
G01*
X24476180Y-17844623D02*
X24603180Y-17971623D01*
X24603180Y-17844623D02*
X24476180Y-17971623D01*
X24603180Y-17908123D02*
G75*
G03*
X24603180Y-17908123I-63500J0D01*
G01*
X24476180Y-17844623D02*
X24603180Y-17971623D01*
X24603180Y-17844623D02*
X24476180Y-17971623D01*
X24603180Y-17908123D02*
G75*
G03*
X24603180Y-17908123I-63500J0D01*
G01*
X24858500Y-12443500D02*
X24985500Y-12570500D01*
X24985500Y-12443500D02*
X24858500Y-12570500D01*
X24985500Y-12507000D02*
G75*
G03*
X24985500Y-12507000I-63500J0D01*
G01*
X24858500Y-14143500D02*
X24985500Y-14270500D01*
X24985500Y-14143500D02*
X24858500Y-14270500D01*
X24985500Y-14207000D02*
G75*
G03*
X24985500Y-14207000I-63500J0D01*
G01*
X24858500Y-15843500D02*
X24985500Y-15970500D01*
X24985500Y-15843500D02*
X24858500Y-15970500D01*
X24985500Y-15907000D02*
G75*
G03*
X24985500Y-15907000I-63500J0D01*
G01*
X25016602Y-17799410D02*
X25143602Y-17926410D01*
X25143602Y-17799410D02*
X25016602Y-17926410D01*
X25143602Y-17862910D02*
G75*
G03*
X25143602Y-17862910I-63500J0D01*
G01*
X25358500Y-12653500D02*
X25485500Y-12780500D01*
X25485500Y-12653500D02*
X25358500Y-12780500D01*
X25485500Y-12717000D02*
G75*
G03*
X25485500Y-12717000I-63500J0D01*
G01*
X25358500Y-12653500D02*
X25485500Y-12780500D01*
X25485500Y-12653500D02*
X25358500Y-12780500D01*
X25485500Y-12717000D02*
G75*
G03*
X25485500Y-12717000I-63500J0D01*
G01*
X25358500Y-14353500D02*
X25485500Y-14480500D01*
X25485500Y-14353500D02*
X25358500Y-14480500D01*
X25485500Y-14417000D02*
G75*
G03*
X25485500Y-14417000I-63500J0D01*
G01*
X25358500Y-14353500D02*
X25485500Y-14480500D01*
X25485500Y-14353500D02*
X25358500Y-14480500D01*
X25485500Y-14417000D02*
G75*
G03*
X25485500Y-14417000I-63500J0D01*
G01*
X25358500Y-16053500D02*
X25485500Y-16180500D01*
X25485500Y-16053500D02*
X25358500Y-16180500D01*
X25485500Y-16117000D02*
G75*
G03*
X25485500Y-16117000I-63500J0D01*
G01*
X25358500Y-16053500D02*
X25485500Y-16180500D01*
X25485500Y-16053500D02*
X25358500Y-16180500D01*
X25485500Y-16117000D02*
G75*
G03*
X25485500Y-16117000I-63500J0D01*
G01*
X25830633Y-18217034D02*
X25957633Y-18344034D01*
X25957633Y-18217034D02*
X25830633Y-18344034D01*
X25957633Y-18280534D02*
G75*
G03*
X25957633Y-18280534I-63500J0D01*
G01*
X25858500Y-12443500D02*
X25985500Y-12570500D01*
X25985500Y-12443500D02*
X25858500Y-12570500D01*
X25985500Y-12507000D02*
G75*
G03*
X25985500Y-12507000I-63500J0D01*
G01*
X25858500Y-14143500D02*
X25985500Y-14270500D01*
X25985500Y-14143500D02*
X25858500Y-14270500D01*
X25985500Y-14207000D02*
G75*
G03*
X25985500Y-14207000I-63500J0D01*
G01*
X25858500Y-15843500D02*
X25985500Y-15970500D01*
X25985500Y-15843500D02*
X25858500Y-15970500D01*
X25985500Y-15907000D02*
G75*
G03*
X25985500Y-15907000I-63500J0D01*
G01*
X26111707Y-18680820D02*
X26238707Y-18807820D01*
X26238707Y-18680820D02*
X26111707Y-18807820D01*
X26238707Y-18744320D02*
G75*
G03*
X26238707Y-18744320I-63500J0D01*
G01*
X26111707Y-18680820D02*
X26238707Y-18807820D01*
X26238707Y-18680820D02*
X26111707Y-18807820D01*
X26238707Y-18744320D02*
G75*
G03*
X26238707Y-18744320I-63500J0D01*
G01*
X26639650Y-18804819D02*
X26766650Y-18931819D01*
X26766650Y-18804819D02*
X26639650Y-18931819D01*
X26766650Y-18868319D02*
G75*
G03*
X26766650Y-18868319I-63500J0D01*
G01*
D11*
X17395277Y-19966628D02*
X17395277Y-19766628D01*
X17395277Y-19766628D02*
X17442896Y-19766628D01*
X17442896Y-19766628D02*
X17471467Y-19776151D01*
X17471467Y-19776151D02*
X17490515Y-19795199D01*
X17490515Y-19795199D02*
X17500039Y-19814247D01*
X17500039Y-19814247D02*
X17509563Y-19852342D01*
X17509563Y-19852342D02*
X17509563Y-19880913D01*
X17509563Y-19880913D02*
X17500039Y-19919009D01*
X17500039Y-19919009D02*
X17490515Y-19938056D01*
X17490515Y-19938056D02*
X17471467Y-19957104D01*
X17471467Y-19957104D02*
X17442896Y-19966628D01*
X17442896Y-19966628D02*
X17395277Y-19966628D01*
X17595277Y-19966628D02*
X17595277Y-19833294D01*
X17595277Y-19871390D02*
X17604801Y-19852342D01*
X17604801Y-19852342D02*
X17614324Y-19842818D01*
X17614324Y-19842818D02*
X17633372Y-19833294D01*
X17633372Y-19833294D02*
X17652420Y-19833294D01*
X17719086Y-19966628D02*
X17719086Y-19833294D01*
X17719086Y-19766628D02*
X17709563Y-19776151D01*
X17709563Y-19776151D02*
X17719086Y-19785675D01*
X17719086Y-19785675D02*
X17728610Y-19776151D01*
X17728610Y-19776151D02*
X17719086Y-19766628D01*
X17719086Y-19766628D02*
X17719086Y-19785675D01*
X17842896Y-19966628D02*
X17823848Y-19957104D01*
X17823848Y-19957104D02*
X17814324Y-19938056D01*
X17814324Y-19938056D02*
X17814324Y-19766628D01*
X17947658Y-19966628D02*
X17928610Y-19957104D01*
X17928610Y-19957104D02*
X17919086Y-19938056D01*
X17919086Y-19938056D02*
X17919086Y-19766628D01*
X18176229Y-19966628D02*
X18176229Y-19766628D01*
X18176229Y-19766628D02*
X18242896Y-19909485D01*
X18242896Y-19909485D02*
X18309563Y-19766628D01*
X18309563Y-19766628D02*
X18309563Y-19966628D01*
X18490515Y-19966628D02*
X18490515Y-19861866D01*
X18490515Y-19861866D02*
X18480991Y-19842818D01*
X18480991Y-19842818D02*
X18461944Y-19833294D01*
X18461944Y-19833294D02*
X18423848Y-19833294D01*
X18423848Y-19833294D02*
X18404801Y-19842818D01*
X18490515Y-19957104D02*
X18471467Y-19966628D01*
X18471467Y-19966628D02*
X18423848Y-19966628D01*
X18423848Y-19966628D02*
X18404801Y-19957104D01*
X18404801Y-19957104D02*
X18395277Y-19938056D01*
X18395277Y-19938056D02*
X18395277Y-19919009D01*
X18395277Y-19919009D02*
X18404801Y-19899961D01*
X18404801Y-19899961D02*
X18423848Y-19890437D01*
X18423848Y-19890437D02*
X18471467Y-19890437D01*
X18471467Y-19890437D02*
X18490515Y-19880913D01*
X18585753Y-19833294D02*
X18585753Y-20033294D01*
X18585753Y-19842818D02*
X18604801Y-19833294D01*
X18604801Y-19833294D02*
X18642896Y-19833294D01*
X18642896Y-19833294D02*
X18661944Y-19842818D01*
X18661944Y-19842818D02*
X18671467Y-19852342D01*
X18671467Y-19852342D02*
X18680991Y-19871390D01*
X18680991Y-19871390D02*
X18680991Y-19928532D01*
X18680991Y-19928532D02*
X18671467Y-19947580D01*
X18671467Y-19947580D02*
X18661944Y-19957104D01*
X18661944Y-19957104D02*
X18642896Y-19966628D01*
X18642896Y-19966628D02*
X18604801Y-19966628D01*
X18604801Y-19966628D02*
X18585753Y-19957104D01*
X18766705Y-19947580D02*
X18776229Y-19957104D01*
X18776229Y-19957104D02*
X18766705Y-19966628D01*
X18766705Y-19966628D02*
X18757182Y-19957104D01*
X18757182Y-19957104D02*
X18766705Y-19947580D01*
X18766705Y-19947580D02*
X18766705Y-19966628D01*
X18766705Y-19842818D02*
X18776229Y-19852342D01*
X18776229Y-19852342D02*
X18766705Y-19861866D01*
X18766705Y-19861866D02*
X18757182Y-19852342D01*
X18757182Y-19852342D02*
X18766705Y-19842818D01*
X18766705Y-19842818D02*
X18766705Y-19861866D01*
D12*
X17104500Y-20280144D02*
X17134500Y-20310144D01*
X17134500Y-20280144D02*
X17104500Y-20310144D01*
D11*
X17433372Y-20186628D02*
X17452420Y-20186628D01*
X17452420Y-20186628D02*
X17471467Y-20196151D01*
X17471467Y-20196151D02*
X17480991Y-20205675D01*
X17480991Y-20205675D02*
X17490515Y-20224723D01*
X17490515Y-20224723D02*
X17500039Y-20262818D01*
X17500039Y-20262818D02*
X17500039Y-20310437D01*
X17500039Y-20310437D02*
X17490515Y-20348532D01*
X17490515Y-20348532D02*
X17480991Y-20367580D01*
X17480991Y-20367580D02*
X17471467Y-20377104D01*
X17471467Y-20377104D02*
X17452420Y-20386628D01*
X17452420Y-20386628D02*
X17433372Y-20386628D01*
X17433372Y-20386628D02*
X17414324Y-20377104D01*
X17414324Y-20377104D02*
X17404801Y-20367580D01*
X17404801Y-20367580D02*
X17395277Y-20348532D01*
X17395277Y-20348532D02*
X17385753Y-20310437D01*
X17385753Y-20310437D02*
X17385753Y-20262818D01*
X17385753Y-20262818D02*
X17395277Y-20224723D01*
X17395277Y-20224723D02*
X17404801Y-20205675D01*
X17404801Y-20205675D02*
X17414324Y-20196151D01*
X17414324Y-20196151D02*
X17433372Y-20186628D01*
X17585753Y-20367580D02*
X17595277Y-20377104D01*
X17595277Y-20377104D02*
X17585753Y-20386628D01*
X17585753Y-20386628D02*
X17576229Y-20377104D01*
X17576229Y-20377104D02*
X17585753Y-20367580D01*
X17585753Y-20367580D02*
X17585753Y-20386628D01*
X17661944Y-20186628D02*
X17785753Y-20186628D01*
X17785753Y-20186628D02*
X17719086Y-20262818D01*
X17719086Y-20262818D02*
X17747658Y-20262818D01*
X17747658Y-20262818D02*
X17766705Y-20272342D01*
X17766705Y-20272342D02*
X17776229Y-20281866D01*
X17776229Y-20281866D02*
X17785753Y-20300913D01*
X17785753Y-20300913D02*
X17785753Y-20348532D01*
X17785753Y-20348532D02*
X17776229Y-20367580D01*
X17776229Y-20367580D02*
X17766705Y-20377104D01*
X17766705Y-20377104D02*
X17747658Y-20386628D01*
X17747658Y-20386628D02*
X17690515Y-20386628D01*
X17690515Y-20386628D02*
X17671467Y-20377104D01*
X17671467Y-20377104D02*
X17661944Y-20367580D01*
X17909563Y-20186628D02*
X17928610Y-20186628D01*
X17928610Y-20186628D02*
X17947658Y-20196151D01*
X17947658Y-20196151D02*
X17957182Y-20205675D01*
X17957182Y-20205675D02*
X17966705Y-20224723D01*
X17966705Y-20224723D02*
X17976229Y-20262818D01*
X17976229Y-20262818D02*
X17976229Y-20310437D01*
X17976229Y-20310437D02*
X17966705Y-20348532D01*
X17966705Y-20348532D02*
X17957182Y-20367580D01*
X17957182Y-20367580D02*
X17947658Y-20377104D01*
X17947658Y-20377104D02*
X17928610Y-20386628D01*
X17928610Y-20386628D02*
X17909563Y-20386628D01*
X17909563Y-20386628D02*
X17890515Y-20377104D01*
X17890515Y-20377104D02*
X17880991Y-20367580D01*
X17880991Y-20367580D02*
X17871467Y-20348532D01*
X17871467Y-20348532D02*
X17861944Y-20310437D01*
X17861944Y-20310437D02*
X17861944Y-20262818D01*
X17861944Y-20262818D02*
X17871467Y-20224723D01*
X17871467Y-20224723D02*
X17880991Y-20205675D01*
X17880991Y-20205675D02*
X17890515Y-20196151D01*
X17890515Y-20196151D02*
X17909563Y-20186628D01*
X18100039Y-20186628D02*
X18119086Y-20186628D01*
X18119086Y-20186628D02*
X18138134Y-20196151D01*
X18138134Y-20196151D02*
X18147658Y-20205675D01*
X18147658Y-20205675D02*
X18157182Y-20224723D01*
X18157182Y-20224723D02*
X18166705Y-20262818D01*
X18166705Y-20262818D02*
X18166705Y-20310437D01*
X18166705Y-20310437D02*
X18157182Y-20348532D01*
X18157182Y-20348532D02*
X18147658Y-20367580D01*
X18147658Y-20367580D02*
X18138134Y-20377104D01*
X18138134Y-20377104D02*
X18119086Y-20386628D01*
X18119086Y-20386628D02*
X18100039Y-20386628D01*
X18100039Y-20386628D02*
X18080991Y-20377104D01*
X18080991Y-20377104D02*
X18071467Y-20367580D01*
X18071467Y-20367580D02*
X18061944Y-20348532D01*
X18061944Y-20348532D02*
X18052420Y-20310437D01*
X18052420Y-20310437D02*
X18052420Y-20262818D01*
X18052420Y-20262818D02*
X18061944Y-20224723D01*
X18061944Y-20224723D02*
X18071467Y-20205675D01*
X18071467Y-20205675D02*
X18080991Y-20196151D01*
X18080991Y-20196151D02*
X18100039Y-20186628D01*
X18252420Y-20386628D02*
X18252420Y-20253294D01*
X18252420Y-20272342D02*
X18261944Y-20262818D01*
X18261944Y-20262818D02*
X18280991Y-20253294D01*
X18280991Y-20253294D02*
X18309563Y-20253294D01*
X18309563Y-20253294D02*
X18328610Y-20262818D01*
X18328610Y-20262818D02*
X18338134Y-20281866D01*
X18338134Y-20281866D02*
X18338134Y-20386628D01*
X18338134Y-20281866D02*
X18347658Y-20262818D01*
X18347658Y-20262818D02*
X18366705Y-20253294D01*
X18366705Y-20253294D02*
X18395277Y-20253294D01*
X18395277Y-20253294D02*
X18414325Y-20262818D01*
X18414325Y-20262818D02*
X18423848Y-20281866D01*
X18423848Y-20281866D02*
X18423848Y-20386628D01*
X18519086Y-20386628D02*
X18519086Y-20253294D01*
X18519086Y-20272342D02*
X18528610Y-20262818D01*
X18528610Y-20262818D02*
X18547658Y-20253294D01*
X18547658Y-20253294D02*
X18576229Y-20253294D01*
X18576229Y-20253294D02*
X18595277Y-20262818D01*
X18595277Y-20262818D02*
X18604801Y-20281866D01*
X18604801Y-20281866D02*
X18604801Y-20386628D01*
X18604801Y-20281866D02*
X18614325Y-20262818D01*
X18614325Y-20262818D02*
X18633372Y-20253294D01*
X18633372Y-20253294D02*
X18661944Y-20253294D01*
X18661944Y-20253294D02*
X18680991Y-20262818D01*
X18680991Y-20262818D02*
X18690515Y-20281866D01*
X18690515Y-20281866D02*
X18690515Y-20386628D01*
X19080991Y-20177104D02*
X18909563Y-20434247D01*
X19338134Y-20186628D02*
X19357182Y-20186628D01*
X19357182Y-20186628D02*
X19376229Y-20196151D01*
X19376229Y-20196151D02*
X19385753Y-20205675D01*
X19385753Y-20205675D02*
X19395277Y-20224723D01*
X19395277Y-20224723D02*
X19404801Y-20262818D01*
X19404801Y-20262818D02*
X19404801Y-20310437D01*
X19404801Y-20310437D02*
X19395277Y-20348532D01*
X19395277Y-20348532D02*
X19385753Y-20367580D01*
X19385753Y-20367580D02*
X19376229Y-20377104D01*
X19376229Y-20377104D02*
X19357182Y-20386628D01*
X19357182Y-20386628D02*
X19338134Y-20386628D01*
X19338134Y-20386628D02*
X19319087Y-20377104D01*
X19319087Y-20377104D02*
X19309563Y-20367580D01*
X19309563Y-20367580D02*
X19300039Y-20348532D01*
X19300039Y-20348532D02*
X19290515Y-20310437D01*
X19290515Y-20310437D02*
X19290515Y-20262818D01*
X19290515Y-20262818D02*
X19300039Y-20224723D01*
X19300039Y-20224723D02*
X19309563Y-20205675D01*
X19309563Y-20205675D02*
X19319087Y-20196151D01*
X19319087Y-20196151D02*
X19338134Y-20186628D01*
X19490515Y-20367580D02*
X19500039Y-20377104D01*
X19500039Y-20377104D02*
X19490515Y-20386628D01*
X19490515Y-20386628D02*
X19480991Y-20377104D01*
X19480991Y-20377104D02*
X19490515Y-20367580D01*
X19490515Y-20367580D02*
X19490515Y-20386628D01*
X19623848Y-20186628D02*
X19642896Y-20186628D01*
X19642896Y-20186628D02*
X19661944Y-20196151D01*
X19661944Y-20196151D02*
X19671468Y-20205675D01*
X19671468Y-20205675D02*
X19680991Y-20224723D01*
X19680991Y-20224723D02*
X19690515Y-20262818D01*
X19690515Y-20262818D02*
X19690515Y-20310437D01*
X19690515Y-20310437D02*
X19680991Y-20348532D01*
X19680991Y-20348532D02*
X19671468Y-20367580D01*
X19671468Y-20367580D02*
X19661944Y-20377104D01*
X19661944Y-20377104D02*
X19642896Y-20386628D01*
X19642896Y-20386628D02*
X19623848Y-20386628D01*
X19623848Y-20386628D02*
X19604801Y-20377104D01*
X19604801Y-20377104D02*
X19595277Y-20367580D01*
X19595277Y-20367580D02*
X19585753Y-20348532D01*
X19585753Y-20348532D02*
X19576229Y-20310437D01*
X19576229Y-20310437D02*
X19576229Y-20262818D01*
X19576229Y-20262818D02*
X19585753Y-20224723D01*
X19585753Y-20224723D02*
X19595277Y-20205675D01*
X19595277Y-20205675D02*
X19604801Y-20196151D01*
X19604801Y-20196151D02*
X19623848Y-20186628D01*
X19880991Y-20386628D02*
X19766706Y-20386628D01*
X19823848Y-20386628D02*
X19823848Y-20186628D01*
X19823848Y-20186628D02*
X19804801Y-20215199D01*
X19804801Y-20215199D02*
X19785753Y-20234247D01*
X19785753Y-20234247D02*
X19766706Y-20243770D01*
X20071468Y-20386628D02*
X19957182Y-20386628D01*
X20014325Y-20386628D02*
X20014325Y-20186628D01*
X20014325Y-20186628D02*
X19995277Y-20215199D01*
X19995277Y-20215199D02*
X19976229Y-20234247D01*
X19976229Y-20234247D02*
X19957182Y-20243770D01*
X20185753Y-20272342D02*
X20166706Y-20262818D01*
X20166706Y-20262818D02*
X20157182Y-20253294D01*
X20157182Y-20253294D02*
X20147658Y-20234247D01*
X20147658Y-20234247D02*
X20147658Y-20224723D01*
X20147658Y-20224723D02*
X20157182Y-20205675D01*
X20157182Y-20205675D02*
X20166706Y-20196151D01*
X20166706Y-20196151D02*
X20185753Y-20186628D01*
X20185753Y-20186628D02*
X20223849Y-20186628D01*
X20223849Y-20186628D02*
X20242896Y-20196151D01*
X20242896Y-20196151D02*
X20252420Y-20205675D01*
X20252420Y-20205675D02*
X20261944Y-20224723D01*
X20261944Y-20224723D02*
X20261944Y-20234247D01*
X20261944Y-20234247D02*
X20252420Y-20253294D01*
X20252420Y-20253294D02*
X20242896Y-20262818D01*
X20242896Y-20262818D02*
X20223849Y-20272342D01*
X20223849Y-20272342D02*
X20185753Y-20272342D01*
X20185753Y-20272342D02*
X20166706Y-20281866D01*
X20166706Y-20281866D02*
X20157182Y-20291390D01*
X20157182Y-20291390D02*
X20147658Y-20310437D01*
X20147658Y-20310437D02*
X20147658Y-20348532D01*
X20147658Y-20348532D02*
X20157182Y-20367580D01*
X20157182Y-20367580D02*
X20166706Y-20377104D01*
X20166706Y-20377104D02*
X20185753Y-20386628D01*
X20185753Y-20386628D02*
X20223849Y-20386628D01*
X20223849Y-20386628D02*
X20242896Y-20377104D01*
X20242896Y-20377104D02*
X20252420Y-20367580D01*
X20252420Y-20367580D02*
X20261944Y-20348532D01*
X20261944Y-20348532D02*
X20261944Y-20310437D01*
X20261944Y-20310437D02*
X20252420Y-20291390D01*
X20252420Y-20291390D02*
X20242896Y-20281866D01*
X20242896Y-20281866D02*
X20223849Y-20272342D01*
X20338134Y-20186628D02*
X20338134Y-20224723D01*
X20414325Y-20186628D02*
X20414325Y-20224723D01*
X20709563Y-20462818D02*
X20700039Y-20453294D01*
X20700039Y-20453294D02*
X20680991Y-20424723D01*
X20680991Y-20424723D02*
X20671468Y-20405675D01*
X20671468Y-20405675D02*
X20661944Y-20377104D01*
X20661944Y-20377104D02*
X20652420Y-20329485D01*
X20652420Y-20329485D02*
X20652420Y-20291390D01*
X20652420Y-20291390D02*
X20661944Y-20243770D01*
X20661944Y-20243770D02*
X20671468Y-20215199D01*
X20671468Y-20215199D02*
X20680991Y-20196151D01*
X20680991Y-20196151D02*
X20700039Y-20167580D01*
X20700039Y-20167580D02*
X20709563Y-20158056D01*
X20766706Y-20186628D02*
X20890515Y-20186628D01*
X20890515Y-20186628D02*
X20823849Y-20262818D01*
X20823849Y-20262818D02*
X20852420Y-20262818D01*
X20852420Y-20262818D02*
X20871468Y-20272342D01*
X20871468Y-20272342D02*
X20880991Y-20281866D01*
X20880991Y-20281866D02*
X20890515Y-20300913D01*
X20890515Y-20300913D02*
X20890515Y-20348532D01*
X20890515Y-20348532D02*
X20880991Y-20367580D01*
X20880991Y-20367580D02*
X20871468Y-20377104D01*
X20871468Y-20377104D02*
X20852420Y-20386628D01*
X20852420Y-20386628D02*
X20795277Y-20386628D01*
X20795277Y-20386628D02*
X20776230Y-20377104D01*
X20776230Y-20377104D02*
X20766706Y-20367580D01*
X21061944Y-20253294D02*
X21061944Y-20386628D01*
X21014325Y-20177104D02*
X20966706Y-20319961D01*
X20966706Y-20319961D02*
X21090515Y-20319961D01*
X21319087Y-20386628D02*
X21319087Y-20186628D01*
X21404801Y-20386628D02*
X21404801Y-20281866D01*
X21404801Y-20281866D02*
X21395277Y-20262818D01*
X21395277Y-20262818D02*
X21376230Y-20253294D01*
X21376230Y-20253294D02*
X21347658Y-20253294D01*
X21347658Y-20253294D02*
X21328611Y-20262818D01*
X21328611Y-20262818D02*
X21319087Y-20272342D01*
X21528611Y-20386628D02*
X21509563Y-20377104D01*
X21509563Y-20377104D02*
X21500039Y-20367580D01*
X21500039Y-20367580D02*
X21490515Y-20348532D01*
X21490515Y-20348532D02*
X21490515Y-20291390D01*
X21490515Y-20291390D02*
X21500039Y-20272342D01*
X21500039Y-20272342D02*
X21509563Y-20262818D01*
X21509563Y-20262818D02*
X21528611Y-20253294D01*
X21528611Y-20253294D02*
X21557182Y-20253294D01*
X21557182Y-20253294D02*
X21576230Y-20262818D01*
X21576230Y-20262818D02*
X21585753Y-20272342D01*
X21585753Y-20272342D02*
X21595277Y-20291390D01*
X21595277Y-20291390D02*
X21595277Y-20348532D01*
X21595277Y-20348532D02*
X21585753Y-20367580D01*
X21585753Y-20367580D02*
X21576230Y-20377104D01*
X21576230Y-20377104D02*
X21557182Y-20386628D01*
X21557182Y-20386628D02*
X21528611Y-20386628D01*
X21709563Y-20386628D02*
X21690515Y-20377104D01*
X21690515Y-20377104D02*
X21680992Y-20358056D01*
X21680992Y-20358056D02*
X21680992Y-20186628D01*
X21861944Y-20377104D02*
X21842896Y-20386628D01*
X21842896Y-20386628D02*
X21804801Y-20386628D01*
X21804801Y-20386628D02*
X21785753Y-20377104D01*
X21785753Y-20377104D02*
X21776230Y-20358056D01*
X21776230Y-20358056D02*
X21776230Y-20281866D01*
X21776230Y-20281866D02*
X21785753Y-20262818D01*
X21785753Y-20262818D02*
X21804801Y-20253294D01*
X21804801Y-20253294D02*
X21842896Y-20253294D01*
X21842896Y-20253294D02*
X21861944Y-20262818D01*
X21861944Y-20262818D02*
X21871468Y-20281866D01*
X21871468Y-20281866D02*
X21871468Y-20300913D01*
X21871468Y-20300913D02*
X21776230Y-20319961D01*
X21947658Y-20377104D02*
X21966706Y-20386628D01*
X21966706Y-20386628D02*
X22004801Y-20386628D01*
X22004801Y-20386628D02*
X22023849Y-20377104D01*
X22023849Y-20377104D02*
X22033373Y-20358056D01*
X22033373Y-20358056D02*
X22033373Y-20348532D01*
X22033373Y-20348532D02*
X22023849Y-20329485D01*
X22023849Y-20329485D02*
X22004801Y-20319961D01*
X22004801Y-20319961D02*
X21976230Y-20319961D01*
X21976230Y-20319961D02*
X21957182Y-20310437D01*
X21957182Y-20310437D02*
X21947658Y-20291390D01*
X21947658Y-20291390D02*
X21947658Y-20281866D01*
X21947658Y-20281866D02*
X21957182Y-20262818D01*
X21957182Y-20262818D02*
X21976230Y-20253294D01*
X21976230Y-20253294D02*
X22004801Y-20253294D01*
X22004801Y-20253294D02*
X22023849Y-20262818D01*
X22100039Y-20462818D02*
X22109563Y-20453294D01*
X22109563Y-20453294D02*
X22128611Y-20424723D01*
X22128611Y-20424723D02*
X22138134Y-20405675D01*
X22138134Y-20405675D02*
X22147658Y-20377104D01*
X22147658Y-20377104D02*
X22157182Y-20329485D01*
X22157182Y-20329485D02*
X22157182Y-20291390D01*
X22157182Y-20291390D02*
X22147658Y-20243770D01*
X22147658Y-20243770D02*
X22138134Y-20215199D01*
X22138134Y-20215199D02*
X22128611Y-20196151D01*
X22128611Y-20196151D02*
X22109563Y-20167580D01*
X22109563Y-20167580D02*
X22100039Y-20158056D01*
D12*
X17134500Y-20559144D02*
G75*
G03*
X17134500Y-20559144I-15000J0D01*
G01*
D11*
X17433372Y-20450628D02*
X17452420Y-20450628D01*
X17452420Y-20450628D02*
X17471467Y-20460151D01*
X17471467Y-20460151D02*
X17480991Y-20469675D01*
X17480991Y-20469675D02*
X17490515Y-20488723D01*
X17490515Y-20488723D02*
X17500039Y-20526818D01*
X17500039Y-20526818D02*
X17500039Y-20574437D01*
X17500039Y-20574437D02*
X17490515Y-20612532D01*
X17490515Y-20612532D02*
X17480991Y-20631580D01*
X17480991Y-20631580D02*
X17471467Y-20641104D01*
X17471467Y-20641104D02*
X17452420Y-20650628D01*
X17452420Y-20650628D02*
X17433372Y-20650628D01*
X17433372Y-20650628D02*
X17414324Y-20641104D01*
X17414324Y-20641104D02*
X17404801Y-20631580D01*
X17404801Y-20631580D02*
X17395277Y-20612532D01*
X17395277Y-20612532D02*
X17385753Y-20574437D01*
X17385753Y-20574437D02*
X17385753Y-20526818D01*
X17385753Y-20526818D02*
X17395277Y-20488723D01*
X17395277Y-20488723D02*
X17404801Y-20469675D01*
X17404801Y-20469675D02*
X17414324Y-20460151D01*
X17414324Y-20460151D02*
X17433372Y-20450628D01*
X17585753Y-20631580D02*
X17595277Y-20641104D01*
X17595277Y-20641104D02*
X17585753Y-20650628D01*
X17585753Y-20650628D02*
X17576229Y-20641104D01*
X17576229Y-20641104D02*
X17585753Y-20631580D01*
X17585753Y-20631580D02*
X17585753Y-20650628D01*
X17661944Y-20450628D02*
X17785753Y-20450628D01*
X17785753Y-20450628D02*
X17719086Y-20526818D01*
X17719086Y-20526818D02*
X17747658Y-20526818D01*
X17747658Y-20526818D02*
X17766705Y-20536342D01*
X17766705Y-20536342D02*
X17776229Y-20545866D01*
X17776229Y-20545866D02*
X17785753Y-20564913D01*
X17785753Y-20564913D02*
X17785753Y-20612532D01*
X17785753Y-20612532D02*
X17776229Y-20631580D01*
X17776229Y-20631580D02*
X17766705Y-20641104D01*
X17766705Y-20641104D02*
X17747658Y-20650628D01*
X17747658Y-20650628D02*
X17690515Y-20650628D01*
X17690515Y-20650628D02*
X17671467Y-20641104D01*
X17671467Y-20641104D02*
X17661944Y-20631580D01*
X17909563Y-20450628D02*
X17928610Y-20450628D01*
X17928610Y-20450628D02*
X17947658Y-20460151D01*
X17947658Y-20460151D02*
X17957182Y-20469675D01*
X17957182Y-20469675D02*
X17966705Y-20488723D01*
X17966705Y-20488723D02*
X17976229Y-20526818D01*
X17976229Y-20526818D02*
X17976229Y-20574437D01*
X17976229Y-20574437D02*
X17966705Y-20612532D01*
X17966705Y-20612532D02*
X17957182Y-20631580D01*
X17957182Y-20631580D02*
X17947658Y-20641104D01*
X17947658Y-20641104D02*
X17928610Y-20650628D01*
X17928610Y-20650628D02*
X17909563Y-20650628D01*
X17909563Y-20650628D02*
X17890515Y-20641104D01*
X17890515Y-20641104D02*
X17880991Y-20631580D01*
X17880991Y-20631580D02*
X17871467Y-20612532D01*
X17871467Y-20612532D02*
X17861944Y-20574437D01*
X17861944Y-20574437D02*
X17861944Y-20526818D01*
X17861944Y-20526818D02*
X17871467Y-20488723D01*
X17871467Y-20488723D02*
X17880991Y-20469675D01*
X17880991Y-20469675D02*
X17890515Y-20460151D01*
X17890515Y-20460151D02*
X17909563Y-20450628D01*
X18100039Y-20450628D02*
X18119086Y-20450628D01*
X18119086Y-20450628D02*
X18138134Y-20460151D01*
X18138134Y-20460151D02*
X18147658Y-20469675D01*
X18147658Y-20469675D02*
X18157182Y-20488723D01*
X18157182Y-20488723D02*
X18166705Y-20526818D01*
X18166705Y-20526818D02*
X18166705Y-20574437D01*
X18166705Y-20574437D02*
X18157182Y-20612532D01*
X18157182Y-20612532D02*
X18147658Y-20631580D01*
X18147658Y-20631580D02*
X18138134Y-20641104D01*
X18138134Y-20641104D02*
X18119086Y-20650628D01*
X18119086Y-20650628D02*
X18100039Y-20650628D01*
X18100039Y-20650628D02*
X18080991Y-20641104D01*
X18080991Y-20641104D02*
X18071467Y-20631580D01*
X18071467Y-20631580D02*
X18061944Y-20612532D01*
X18061944Y-20612532D02*
X18052420Y-20574437D01*
X18052420Y-20574437D02*
X18052420Y-20526818D01*
X18052420Y-20526818D02*
X18061944Y-20488723D01*
X18061944Y-20488723D02*
X18071467Y-20469675D01*
X18071467Y-20469675D02*
X18080991Y-20460151D01*
X18080991Y-20460151D02*
X18100039Y-20450628D01*
X18252420Y-20650628D02*
X18252420Y-20517294D01*
X18252420Y-20536342D02*
X18261944Y-20526818D01*
X18261944Y-20526818D02*
X18280991Y-20517294D01*
X18280991Y-20517294D02*
X18309563Y-20517294D01*
X18309563Y-20517294D02*
X18328610Y-20526818D01*
X18328610Y-20526818D02*
X18338134Y-20545866D01*
X18338134Y-20545866D02*
X18338134Y-20650628D01*
X18338134Y-20545866D02*
X18347658Y-20526818D01*
X18347658Y-20526818D02*
X18366705Y-20517294D01*
X18366705Y-20517294D02*
X18395277Y-20517294D01*
X18395277Y-20517294D02*
X18414325Y-20526818D01*
X18414325Y-20526818D02*
X18423848Y-20545866D01*
X18423848Y-20545866D02*
X18423848Y-20650628D01*
X18519086Y-20650628D02*
X18519086Y-20517294D01*
X18519086Y-20536342D02*
X18528610Y-20526818D01*
X18528610Y-20526818D02*
X18547658Y-20517294D01*
X18547658Y-20517294D02*
X18576229Y-20517294D01*
X18576229Y-20517294D02*
X18595277Y-20526818D01*
X18595277Y-20526818D02*
X18604801Y-20545866D01*
X18604801Y-20545866D02*
X18604801Y-20650628D01*
X18604801Y-20545866D02*
X18614325Y-20526818D01*
X18614325Y-20526818D02*
X18633372Y-20517294D01*
X18633372Y-20517294D02*
X18661944Y-20517294D01*
X18661944Y-20517294D02*
X18680991Y-20526818D01*
X18680991Y-20526818D02*
X18690515Y-20545866D01*
X18690515Y-20545866D02*
X18690515Y-20650628D01*
X19080991Y-20441104D02*
X18909563Y-20698247D01*
X19338134Y-20450628D02*
X19357182Y-20450628D01*
X19357182Y-20450628D02*
X19376229Y-20460151D01*
X19376229Y-20460151D02*
X19385753Y-20469675D01*
X19385753Y-20469675D02*
X19395277Y-20488723D01*
X19395277Y-20488723D02*
X19404801Y-20526818D01*
X19404801Y-20526818D02*
X19404801Y-20574437D01*
X19404801Y-20574437D02*
X19395277Y-20612532D01*
X19395277Y-20612532D02*
X19385753Y-20631580D01*
X19385753Y-20631580D02*
X19376229Y-20641104D01*
X19376229Y-20641104D02*
X19357182Y-20650628D01*
X19357182Y-20650628D02*
X19338134Y-20650628D01*
X19338134Y-20650628D02*
X19319087Y-20641104D01*
X19319087Y-20641104D02*
X19309563Y-20631580D01*
X19309563Y-20631580D02*
X19300039Y-20612532D01*
X19300039Y-20612532D02*
X19290515Y-20574437D01*
X19290515Y-20574437D02*
X19290515Y-20526818D01*
X19290515Y-20526818D02*
X19300039Y-20488723D01*
X19300039Y-20488723D02*
X19309563Y-20469675D01*
X19309563Y-20469675D02*
X19319087Y-20460151D01*
X19319087Y-20460151D02*
X19338134Y-20450628D01*
X19490515Y-20631580D02*
X19500039Y-20641104D01*
X19500039Y-20641104D02*
X19490515Y-20650628D01*
X19490515Y-20650628D02*
X19480991Y-20641104D01*
X19480991Y-20641104D02*
X19490515Y-20631580D01*
X19490515Y-20631580D02*
X19490515Y-20650628D01*
X19623848Y-20450628D02*
X19642896Y-20450628D01*
X19642896Y-20450628D02*
X19661944Y-20460151D01*
X19661944Y-20460151D02*
X19671468Y-20469675D01*
X19671468Y-20469675D02*
X19680991Y-20488723D01*
X19680991Y-20488723D02*
X19690515Y-20526818D01*
X19690515Y-20526818D02*
X19690515Y-20574437D01*
X19690515Y-20574437D02*
X19680991Y-20612532D01*
X19680991Y-20612532D02*
X19671468Y-20631580D01*
X19671468Y-20631580D02*
X19661944Y-20641104D01*
X19661944Y-20641104D02*
X19642896Y-20650628D01*
X19642896Y-20650628D02*
X19623848Y-20650628D01*
X19623848Y-20650628D02*
X19604801Y-20641104D01*
X19604801Y-20641104D02*
X19595277Y-20631580D01*
X19595277Y-20631580D02*
X19585753Y-20612532D01*
X19585753Y-20612532D02*
X19576229Y-20574437D01*
X19576229Y-20574437D02*
X19576229Y-20526818D01*
X19576229Y-20526818D02*
X19585753Y-20488723D01*
X19585753Y-20488723D02*
X19595277Y-20469675D01*
X19595277Y-20469675D02*
X19604801Y-20460151D01*
X19604801Y-20460151D02*
X19623848Y-20450628D01*
X19880991Y-20650628D02*
X19766706Y-20650628D01*
X19823848Y-20650628D02*
X19823848Y-20450628D01*
X19823848Y-20450628D02*
X19804801Y-20479199D01*
X19804801Y-20479199D02*
X19785753Y-20498247D01*
X19785753Y-20498247D02*
X19766706Y-20507770D01*
X20071468Y-20650628D02*
X19957182Y-20650628D01*
X20014325Y-20650628D02*
X20014325Y-20450628D01*
X20014325Y-20450628D02*
X19995277Y-20479199D01*
X19995277Y-20479199D02*
X19976229Y-20498247D01*
X19976229Y-20498247D02*
X19957182Y-20507770D01*
X20185753Y-20536342D02*
X20166706Y-20526818D01*
X20166706Y-20526818D02*
X20157182Y-20517294D01*
X20157182Y-20517294D02*
X20147658Y-20498247D01*
X20147658Y-20498247D02*
X20147658Y-20488723D01*
X20147658Y-20488723D02*
X20157182Y-20469675D01*
X20157182Y-20469675D02*
X20166706Y-20460151D01*
X20166706Y-20460151D02*
X20185753Y-20450628D01*
X20185753Y-20450628D02*
X20223849Y-20450628D01*
X20223849Y-20450628D02*
X20242896Y-20460151D01*
X20242896Y-20460151D02*
X20252420Y-20469675D01*
X20252420Y-20469675D02*
X20261944Y-20488723D01*
X20261944Y-20488723D02*
X20261944Y-20498247D01*
X20261944Y-20498247D02*
X20252420Y-20517294D01*
X20252420Y-20517294D02*
X20242896Y-20526818D01*
X20242896Y-20526818D02*
X20223849Y-20536342D01*
X20223849Y-20536342D02*
X20185753Y-20536342D01*
X20185753Y-20536342D02*
X20166706Y-20545866D01*
X20166706Y-20545866D02*
X20157182Y-20555390D01*
X20157182Y-20555390D02*
X20147658Y-20574437D01*
X20147658Y-20574437D02*
X20147658Y-20612532D01*
X20147658Y-20612532D02*
X20157182Y-20631580D01*
X20157182Y-20631580D02*
X20166706Y-20641104D01*
X20166706Y-20641104D02*
X20185753Y-20650628D01*
X20185753Y-20650628D02*
X20223849Y-20650628D01*
X20223849Y-20650628D02*
X20242896Y-20641104D01*
X20242896Y-20641104D02*
X20252420Y-20631580D01*
X20252420Y-20631580D02*
X20261944Y-20612532D01*
X20261944Y-20612532D02*
X20261944Y-20574437D01*
X20261944Y-20574437D02*
X20252420Y-20555390D01*
X20252420Y-20555390D02*
X20242896Y-20545866D01*
X20242896Y-20545866D02*
X20223849Y-20536342D01*
X20338134Y-20450628D02*
X20338134Y-20488723D01*
X20414325Y-20450628D02*
X20414325Y-20488723D01*
X20709563Y-20726818D02*
X20700039Y-20717294D01*
X20700039Y-20717294D02*
X20680991Y-20688723D01*
X20680991Y-20688723D02*
X20671468Y-20669675D01*
X20671468Y-20669675D02*
X20661944Y-20641104D01*
X20661944Y-20641104D02*
X20652420Y-20593485D01*
X20652420Y-20593485D02*
X20652420Y-20555390D01*
X20652420Y-20555390D02*
X20661944Y-20507770D01*
X20661944Y-20507770D02*
X20671468Y-20479199D01*
X20671468Y-20479199D02*
X20680991Y-20460151D01*
X20680991Y-20460151D02*
X20700039Y-20431580D01*
X20700039Y-20431580D02*
X20709563Y-20422056D01*
X20776230Y-20469675D02*
X20785753Y-20460151D01*
X20785753Y-20460151D02*
X20804801Y-20450628D01*
X20804801Y-20450628D02*
X20852420Y-20450628D01*
X20852420Y-20450628D02*
X20871468Y-20460151D01*
X20871468Y-20460151D02*
X20880991Y-20469675D01*
X20880991Y-20469675D02*
X20890515Y-20488723D01*
X20890515Y-20488723D02*
X20890515Y-20507770D01*
X20890515Y-20507770D02*
X20880991Y-20536342D01*
X20880991Y-20536342D02*
X20766706Y-20650628D01*
X20766706Y-20650628D02*
X20890515Y-20650628D01*
X21128611Y-20650628D02*
X21128611Y-20450628D01*
X21214325Y-20650628D02*
X21214325Y-20545866D01*
X21214325Y-20545866D02*
X21204801Y-20526818D01*
X21204801Y-20526818D02*
X21185753Y-20517294D01*
X21185753Y-20517294D02*
X21157182Y-20517294D01*
X21157182Y-20517294D02*
X21138134Y-20526818D01*
X21138134Y-20526818D02*
X21128611Y-20536342D01*
X21338134Y-20650628D02*
X21319087Y-20641104D01*
X21319087Y-20641104D02*
X21309563Y-20631580D01*
X21309563Y-20631580D02*
X21300039Y-20612532D01*
X21300039Y-20612532D02*
X21300039Y-20555390D01*
X21300039Y-20555390D02*
X21309563Y-20536342D01*
X21309563Y-20536342D02*
X21319087Y-20526818D01*
X21319087Y-20526818D02*
X21338134Y-20517294D01*
X21338134Y-20517294D02*
X21366706Y-20517294D01*
X21366706Y-20517294D02*
X21385753Y-20526818D01*
X21385753Y-20526818D02*
X21395277Y-20536342D01*
X21395277Y-20536342D02*
X21404801Y-20555390D01*
X21404801Y-20555390D02*
X21404801Y-20612532D01*
X21404801Y-20612532D02*
X21395277Y-20631580D01*
X21395277Y-20631580D02*
X21385753Y-20641104D01*
X21385753Y-20641104D02*
X21366706Y-20650628D01*
X21366706Y-20650628D02*
X21338134Y-20650628D01*
X21519087Y-20650628D02*
X21500039Y-20641104D01*
X21500039Y-20641104D02*
X21490515Y-20622056D01*
X21490515Y-20622056D02*
X21490515Y-20450628D01*
X21671468Y-20641104D02*
X21652420Y-20650628D01*
X21652420Y-20650628D02*
X21614325Y-20650628D01*
X21614325Y-20650628D02*
X21595277Y-20641104D01*
X21595277Y-20641104D02*
X21585753Y-20622056D01*
X21585753Y-20622056D02*
X21585753Y-20545866D01*
X21585753Y-20545866D02*
X21595277Y-20526818D01*
X21595277Y-20526818D02*
X21614325Y-20517294D01*
X21614325Y-20517294D02*
X21652420Y-20517294D01*
X21652420Y-20517294D02*
X21671468Y-20526818D01*
X21671468Y-20526818D02*
X21680992Y-20545866D01*
X21680992Y-20545866D02*
X21680992Y-20564913D01*
X21680992Y-20564913D02*
X21585753Y-20583961D01*
X21757182Y-20641104D02*
X21776230Y-20650628D01*
X21776230Y-20650628D02*
X21814325Y-20650628D01*
X21814325Y-20650628D02*
X21833373Y-20641104D01*
X21833373Y-20641104D02*
X21842896Y-20622056D01*
X21842896Y-20622056D02*
X21842896Y-20612532D01*
X21842896Y-20612532D02*
X21833373Y-20593485D01*
X21833373Y-20593485D02*
X21814325Y-20583961D01*
X21814325Y-20583961D02*
X21785753Y-20583961D01*
X21785753Y-20583961D02*
X21766706Y-20574437D01*
X21766706Y-20574437D02*
X21757182Y-20555390D01*
X21757182Y-20555390D02*
X21757182Y-20545866D01*
X21757182Y-20545866D02*
X21766706Y-20526818D01*
X21766706Y-20526818D02*
X21785753Y-20517294D01*
X21785753Y-20517294D02*
X21814325Y-20517294D01*
X21814325Y-20517294D02*
X21833373Y-20526818D01*
X21909563Y-20726818D02*
X21919087Y-20717294D01*
X21919087Y-20717294D02*
X21938134Y-20688723D01*
X21938134Y-20688723D02*
X21947658Y-20669675D01*
X21947658Y-20669675D02*
X21957182Y-20641104D01*
X21957182Y-20641104D02*
X21966706Y-20593485D01*
X21966706Y-20593485D02*
X21966706Y-20555390D01*
X21966706Y-20555390D02*
X21957182Y-20507770D01*
X21957182Y-20507770D02*
X21947658Y-20479199D01*
X21947658Y-20479199D02*
X21938134Y-20460151D01*
X21938134Y-20460151D02*
X21919087Y-20431580D01*
X21919087Y-20431580D02*
X21909563Y-20422056D01*
D12*
X17114500Y-20803144D02*
X17114500Y-20843144D01*
X17094500Y-20823144D02*
X17134500Y-20823144D01*
D11*
X17433372Y-20714628D02*
X17452420Y-20714628D01*
X17452420Y-20714628D02*
X17471467Y-20724151D01*
X17471467Y-20724151D02*
X17480991Y-20733675D01*
X17480991Y-20733675D02*
X17490515Y-20752723D01*
X17490515Y-20752723D02*
X17500039Y-20790818D01*
X17500039Y-20790818D02*
X17500039Y-20838437D01*
X17500039Y-20838437D02*
X17490515Y-20876532D01*
X17490515Y-20876532D02*
X17480991Y-20895580D01*
X17480991Y-20895580D02*
X17471467Y-20905104D01*
X17471467Y-20905104D02*
X17452420Y-20914628D01*
X17452420Y-20914628D02*
X17433372Y-20914628D01*
X17433372Y-20914628D02*
X17414324Y-20905104D01*
X17414324Y-20905104D02*
X17404801Y-20895580D01*
X17404801Y-20895580D02*
X17395277Y-20876532D01*
X17395277Y-20876532D02*
X17385753Y-20838437D01*
X17385753Y-20838437D02*
X17385753Y-20790818D01*
X17385753Y-20790818D02*
X17395277Y-20752723D01*
X17395277Y-20752723D02*
X17404801Y-20733675D01*
X17404801Y-20733675D02*
X17414324Y-20724151D01*
X17414324Y-20724151D02*
X17433372Y-20714628D01*
X17585753Y-20895580D02*
X17595277Y-20905104D01*
X17595277Y-20905104D02*
X17585753Y-20914628D01*
X17585753Y-20914628D02*
X17576229Y-20905104D01*
X17576229Y-20905104D02*
X17585753Y-20895580D01*
X17585753Y-20895580D02*
X17585753Y-20914628D01*
X17766705Y-20781294D02*
X17766705Y-20914628D01*
X17719086Y-20705104D02*
X17671467Y-20847961D01*
X17671467Y-20847961D02*
X17795277Y-20847961D01*
X17909563Y-20714628D02*
X17928610Y-20714628D01*
X17928610Y-20714628D02*
X17947658Y-20724151D01*
X17947658Y-20724151D02*
X17957182Y-20733675D01*
X17957182Y-20733675D02*
X17966705Y-20752723D01*
X17966705Y-20752723D02*
X17976229Y-20790818D01*
X17976229Y-20790818D02*
X17976229Y-20838437D01*
X17976229Y-20838437D02*
X17966705Y-20876532D01*
X17966705Y-20876532D02*
X17957182Y-20895580D01*
X17957182Y-20895580D02*
X17947658Y-20905104D01*
X17947658Y-20905104D02*
X17928610Y-20914628D01*
X17928610Y-20914628D02*
X17909563Y-20914628D01*
X17909563Y-20914628D02*
X17890515Y-20905104D01*
X17890515Y-20905104D02*
X17880991Y-20895580D01*
X17880991Y-20895580D02*
X17871467Y-20876532D01*
X17871467Y-20876532D02*
X17861944Y-20838437D01*
X17861944Y-20838437D02*
X17861944Y-20790818D01*
X17861944Y-20790818D02*
X17871467Y-20752723D01*
X17871467Y-20752723D02*
X17880991Y-20733675D01*
X17880991Y-20733675D02*
X17890515Y-20724151D01*
X17890515Y-20724151D02*
X17909563Y-20714628D01*
X18100039Y-20714628D02*
X18119086Y-20714628D01*
X18119086Y-20714628D02*
X18138134Y-20724151D01*
X18138134Y-20724151D02*
X18147658Y-20733675D01*
X18147658Y-20733675D02*
X18157182Y-20752723D01*
X18157182Y-20752723D02*
X18166705Y-20790818D01*
X18166705Y-20790818D02*
X18166705Y-20838437D01*
X18166705Y-20838437D02*
X18157182Y-20876532D01*
X18157182Y-20876532D02*
X18147658Y-20895580D01*
X18147658Y-20895580D02*
X18138134Y-20905104D01*
X18138134Y-20905104D02*
X18119086Y-20914628D01*
X18119086Y-20914628D02*
X18100039Y-20914628D01*
X18100039Y-20914628D02*
X18080991Y-20905104D01*
X18080991Y-20905104D02*
X18071467Y-20895580D01*
X18071467Y-20895580D02*
X18061944Y-20876532D01*
X18061944Y-20876532D02*
X18052420Y-20838437D01*
X18052420Y-20838437D02*
X18052420Y-20790818D01*
X18052420Y-20790818D02*
X18061944Y-20752723D01*
X18061944Y-20752723D02*
X18071467Y-20733675D01*
X18071467Y-20733675D02*
X18080991Y-20724151D01*
X18080991Y-20724151D02*
X18100039Y-20714628D01*
X18252420Y-20914628D02*
X18252420Y-20781294D01*
X18252420Y-20800342D02*
X18261944Y-20790818D01*
X18261944Y-20790818D02*
X18280991Y-20781294D01*
X18280991Y-20781294D02*
X18309563Y-20781294D01*
X18309563Y-20781294D02*
X18328610Y-20790818D01*
X18328610Y-20790818D02*
X18338134Y-20809866D01*
X18338134Y-20809866D02*
X18338134Y-20914628D01*
X18338134Y-20809866D02*
X18347658Y-20790818D01*
X18347658Y-20790818D02*
X18366705Y-20781294D01*
X18366705Y-20781294D02*
X18395277Y-20781294D01*
X18395277Y-20781294D02*
X18414325Y-20790818D01*
X18414325Y-20790818D02*
X18423848Y-20809866D01*
X18423848Y-20809866D02*
X18423848Y-20914628D01*
X18519086Y-20914628D02*
X18519086Y-20781294D01*
X18519086Y-20800342D02*
X18528610Y-20790818D01*
X18528610Y-20790818D02*
X18547658Y-20781294D01*
X18547658Y-20781294D02*
X18576229Y-20781294D01*
X18576229Y-20781294D02*
X18595277Y-20790818D01*
X18595277Y-20790818D02*
X18604801Y-20809866D01*
X18604801Y-20809866D02*
X18604801Y-20914628D01*
X18604801Y-20809866D02*
X18614325Y-20790818D01*
X18614325Y-20790818D02*
X18633372Y-20781294D01*
X18633372Y-20781294D02*
X18661944Y-20781294D01*
X18661944Y-20781294D02*
X18680991Y-20790818D01*
X18680991Y-20790818D02*
X18690515Y-20809866D01*
X18690515Y-20809866D02*
X18690515Y-20914628D01*
X19080991Y-20705104D02*
X18909563Y-20962247D01*
X19338134Y-20714628D02*
X19357182Y-20714628D01*
X19357182Y-20714628D02*
X19376229Y-20724151D01*
X19376229Y-20724151D02*
X19385753Y-20733675D01*
X19385753Y-20733675D02*
X19395277Y-20752723D01*
X19395277Y-20752723D02*
X19404801Y-20790818D01*
X19404801Y-20790818D02*
X19404801Y-20838437D01*
X19404801Y-20838437D02*
X19395277Y-20876532D01*
X19395277Y-20876532D02*
X19385753Y-20895580D01*
X19385753Y-20895580D02*
X19376229Y-20905104D01*
X19376229Y-20905104D02*
X19357182Y-20914628D01*
X19357182Y-20914628D02*
X19338134Y-20914628D01*
X19338134Y-20914628D02*
X19319087Y-20905104D01*
X19319087Y-20905104D02*
X19309563Y-20895580D01*
X19309563Y-20895580D02*
X19300039Y-20876532D01*
X19300039Y-20876532D02*
X19290515Y-20838437D01*
X19290515Y-20838437D02*
X19290515Y-20790818D01*
X19290515Y-20790818D02*
X19300039Y-20752723D01*
X19300039Y-20752723D02*
X19309563Y-20733675D01*
X19309563Y-20733675D02*
X19319087Y-20724151D01*
X19319087Y-20724151D02*
X19338134Y-20714628D01*
X19490515Y-20895580D02*
X19500039Y-20905104D01*
X19500039Y-20905104D02*
X19490515Y-20914628D01*
X19490515Y-20914628D02*
X19480991Y-20905104D01*
X19480991Y-20905104D02*
X19490515Y-20895580D01*
X19490515Y-20895580D02*
X19490515Y-20914628D01*
X19623848Y-20714628D02*
X19642896Y-20714628D01*
X19642896Y-20714628D02*
X19661944Y-20724151D01*
X19661944Y-20724151D02*
X19671468Y-20733675D01*
X19671468Y-20733675D02*
X19680991Y-20752723D01*
X19680991Y-20752723D02*
X19690515Y-20790818D01*
X19690515Y-20790818D02*
X19690515Y-20838437D01*
X19690515Y-20838437D02*
X19680991Y-20876532D01*
X19680991Y-20876532D02*
X19671468Y-20895580D01*
X19671468Y-20895580D02*
X19661944Y-20905104D01*
X19661944Y-20905104D02*
X19642896Y-20914628D01*
X19642896Y-20914628D02*
X19623848Y-20914628D01*
X19623848Y-20914628D02*
X19604801Y-20905104D01*
X19604801Y-20905104D02*
X19595277Y-20895580D01*
X19595277Y-20895580D02*
X19585753Y-20876532D01*
X19585753Y-20876532D02*
X19576229Y-20838437D01*
X19576229Y-20838437D02*
X19576229Y-20790818D01*
X19576229Y-20790818D02*
X19585753Y-20752723D01*
X19585753Y-20752723D02*
X19595277Y-20733675D01*
X19595277Y-20733675D02*
X19604801Y-20724151D01*
X19604801Y-20724151D02*
X19623848Y-20714628D01*
X19880991Y-20914628D02*
X19766706Y-20914628D01*
X19823848Y-20914628D02*
X19823848Y-20714628D01*
X19823848Y-20714628D02*
X19804801Y-20743199D01*
X19804801Y-20743199D02*
X19785753Y-20762247D01*
X19785753Y-20762247D02*
X19766706Y-20771770D01*
X20061944Y-20714628D02*
X19966706Y-20714628D01*
X19966706Y-20714628D02*
X19957182Y-20809866D01*
X19957182Y-20809866D02*
X19966706Y-20800342D01*
X19966706Y-20800342D02*
X19985753Y-20790818D01*
X19985753Y-20790818D02*
X20033372Y-20790818D01*
X20033372Y-20790818D02*
X20052420Y-20800342D01*
X20052420Y-20800342D02*
X20061944Y-20809866D01*
X20061944Y-20809866D02*
X20071468Y-20828913D01*
X20071468Y-20828913D02*
X20071468Y-20876532D01*
X20071468Y-20876532D02*
X20061944Y-20895580D01*
X20061944Y-20895580D02*
X20052420Y-20905104D01*
X20052420Y-20905104D02*
X20033372Y-20914628D01*
X20033372Y-20914628D02*
X19985753Y-20914628D01*
X19985753Y-20914628D02*
X19966706Y-20905104D01*
X19966706Y-20905104D02*
X19957182Y-20895580D01*
X20138134Y-20714628D02*
X20271468Y-20714628D01*
X20271468Y-20714628D02*
X20185753Y-20914628D01*
X20338134Y-20714628D02*
X20338134Y-20752723D01*
X20414325Y-20714628D02*
X20414325Y-20752723D01*
X20709563Y-20990818D02*
X20700039Y-20981294D01*
X20700039Y-20981294D02*
X20680991Y-20952723D01*
X20680991Y-20952723D02*
X20671468Y-20933675D01*
X20671468Y-20933675D02*
X20661944Y-20905104D01*
X20661944Y-20905104D02*
X20652420Y-20857485D01*
X20652420Y-20857485D02*
X20652420Y-20819390D01*
X20652420Y-20819390D02*
X20661944Y-20771770D01*
X20661944Y-20771770D02*
X20671468Y-20743199D01*
X20671468Y-20743199D02*
X20680991Y-20724151D01*
X20680991Y-20724151D02*
X20700039Y-20695580D01*
X20700039Y-20695580D02*
X20709563Y-20686056D01*
X20776230Y-20733675D02*
X20785753Y-20724151D01*
X20785753Y-20724151D02*
X20804801Y-20714628D01*
X20804801Y-20714628D02*
X20852420Y-20714628D01*
X20852420Y-20714628D02*
X20871468Y-20724151D01*
X20871468Y-20724151D02*
X20880991Y-20733675D01*
X20880991Y-20733675D02*
X20890515Y-20752723D01*
X20890515Y-20752723D02*
X20890515Y-20771770D01*
X20890515Y-20771770D02*
X20880991Y-20800342D01*
X20880991Y-20800342D02*
X20766706Y-20914628D01*
X20766706Y-20914628D02*
X20890515Y-20914628D01*
X21061944Y-20781294D02*
X21061944Y-20914628D01*
X21014325Y-20705104D02*
X20966706Y-20847961D01*
X20966706Y-20847961D02*
X21090515Y-20847961D01*
X21319087Y-20914628D02*
X21319087Y-20714628D01*
X21404801Y-20914628D02*
X21404801Y-20809866D01*
X21404801Y-20809866D02*
X21395277Y-20790818D01*
X21395277Y-20790818D02*
X21376230Y-20781294D01*
X21376230Y-20781294D02*
X21347658Y-20781294D01*
X21347658Y-20781294D02*
X21328611Y-20790818D01*
X21328611Y-20790818D02*
X21319087Y-20800342D01*
X21528611Y-20914628D02*
X21509563Y-20905104D01*
X21509563Y-20905104D02*
X21500039Y-20895580D01*
X21500039Y-20895580D02*
X21490515Y-20876532D01*
X21490515Y-20876532D02*
X21490515Y-20819390D01*
X21490515Y-20819390D02*
X21500039Y-20800342D01*
X21500039Y-20800342D02*
X21509563Y-20790818D01*
X21509563Y-20790818D02*
X21528611Y-20781294D01*
X21528611Y-20781294D02*
X21557182Y-20781294D01*
X21557182Y-20781294D02*
X21576230Y-20790818D01*
X21576230Y-20790818D02*
X21585753Y-20800342D01*
X21585753Y-20800342D02*
X21595277Y-20819390D01*
X21595277Y-20819390D02*
X21595277Y-20876532D01*
X21595277Y-20876532D02*
X21585753Y-20895580D01*
X21585753Y-20895580D02*
X21576230Y-20905104D01*
X21576230Y-20905104D02*
X21557182Y-20914628D01*
X21557182Y-20914628D02*
X21528611Y-20914628D01*
X21709563Y-20914628D02*
X21690515Y-20905104D01*
X21690515Y-20905104D02*
X21680992Y-20886056D01*
X21680992Y-20886056D02*
X21680992Y-20714628D01*
X21861944Y-20905104D02*
X21842896Y-20914628D01*
X21842896Y-20914628D02*
X21804801Y-20914628D01*
X21804801Y-20914628D02*
X21785753Y-20905104D01*
X21785753Y-20905104D02*
X21776230Y-20886056D01*
X21776230Y-20886056D02*
X21776230Y-20809866D01*
X21776230Y-20809866D02*
X21785753Y-20790818D01*
X21785753Y-20790818D02*
X21804801Y-20781294D01*
X21804801Y-20781294D02*
X21842896Y-20781294D01*
X21842896Y-20781294D02*
X21861944Y-20790818D01*
X21861944Y-20790818D02*
X21871468Y-20809866D01*
X21871468Y-20809866D02*
X21871468Y-20828913D01*
X21871468Y-20828913D02*
X21776230Y-20847961D01*
X21947658Y-20905104D02*
X21966706Y-20914628D01*
X21966706Y-20914628D02*
X22004801Y-20914628D01*
X22004801Y-20914628D02*
X22023849Y-20905104D01*
X22023849Y-20905104D02*
X22033373Y-20886056D01*
X22033373Y-20886056D02*
X22033373Y-20876532D01*
X22033373Y-20876532D02*
X22023849Y-20857485D01*
X22023849Y-20857485D02*
X22004801Y-20847961D01*
X22004801Y-20847961D02*
X21976230Y-20847961D01*
X21976230Y-20847961D02*
X21957182Y-20838437D01*
X21957182Y-20838437D02*
X21947658Y-20819390D01*
X21947658Y-20819390D02*
X21947658Y-20809866D01*
X21947658Y-20809866D02*
X21957182Y-20790818D01*
X21957182Y-20790818D02*
X21976230Y-20781294D01*
X21976230Y-20781294D02*
X22004801Y-20781294D01*
X22004801Y-20781294D02*
X22023849Y-20790818D01*
X22100039Y-20990818D02*
X22109563Y-20981294D01*
X22109563Y-20981294D02*
X22128611Y-20952723D01*
X22128611Y-20952723D02*
X22138134Y-20933675D01*
X22138134Y-20933675D02*
X22147658Y-20905104D01*
X22147658Y-20905104D02*
X22157182Y-20857485D01*
X22157182Y-20857485D02*
X22157182Y-20819390D01*
X22157182Y-20819390D02*
X22147658Y-20771770D01*
X22147658Y-20771770D02*
X22138134Y-20743199D01*
X22138134Y-20743199D02*
X22128611Y-20724151D01*
X22128611Y-20724151D02*
X22109563Y-20695580D01*
X22109563Y-20695580D02*
X22100039Y-20686056D01*
D12*
X17123517Y-21113661D02*
X17123517Y-21060627D01*
X17070483Y-21060627D01*
X17070483Y-21113661D01*
X17123517Y-21113661D01*
D11*
X17433372Y-20978628D02*
X17452420Y-20978628D01*
X17452420Y-20978628D02*
X17471467Y-20988151D01*
X17471467Y-20988151D02*
X17480991Y-20997675D01*
X17480991Y-20997675D02*
X17490515Y-21016723D01*
X17490515Y-21016723D02*
X17500039Y-21054818D01*
X17500039Y-21054818D02*
X17500039Y-21102437D01*
X17500039Y-21102437D02*
X17490515Y-21140532D01*
X17490515Y-21140532D02*
X17480991Y-21159580D01*
X17480991Y-21159580D02*
X17471467Y-21169104D01*
X17471467Y-21169104D02*
X17452420Y-21178628D01*
X17452420Y-21178628D02*
X17433372Y-21178628D01*
X17433372Y-21178628D02*
X17414324Y-21169104D01*
X17414324Y-21169104D02*
X17404801Y-21159580D01*
X17404801Y-21159580D02*
X17395277Y-21140532D01*
X17395277Y-21140532D02*
X17385753Y-21102437D01*
X17385753Y-21102437D02*
X17385753Y-21054818D01*
X17385753Y-21054818D02*
X17395277Y-21016723D01*
X17395277Y-21016723D02*
X17404801Y-20997675D01*
X17404801Y-20997675D02*
X17414324Y-20988151D01*
X17414324Y-20988151D02*
X17433372Y-20978628D01*
X17585753Y-21159580D02*
X17595277Y-21169104D01*
X17595277Y-21169104D02*
X17585753Y-21178628D01*
X17585753Y-21178628D02*
X17576229Y-21169104D01*
X17576229Y-21169104D02*
X17585753Y-21159580D01*
X17585753Y-21159580D02*
X17585753Y-21178628D01*
X17661944Y-20978628D02*
X17795277Y-20978628D01*
X17795277Y-20978628D02*
X17709563Y-21178628D01*
X17966705Y-20978628D02*
X17871467Y-20978628D01*
X17871467Y-20978628D02*
X17861944Y-21073866D01*
X17861944Y-21073866D02*
X17871467Y-21064342D01*
X17871467Y-21064342D02*
X17890515Y-21054818D01*
X17890515Y-21054818D02*
X17938134Y-21054818D01*
X17938134Y-21054818D02*
X17957182Y-21064342D01*
X17957182Y-21064342D02*
X17966705Y-21073866D01*
X17966705Y-21073866D02*
X17976229Y-21092913D01*
X17976229Y-21092913D02*
X17976229Y-21140532D01*
X17976229Y-21140532D02*
X17966705Y-21159580D01*
X17966705Y-21159580D02*
X17957182Y-21169104D01*
X17957182Y-21169104D02*
X17938134Y-21178628D01*
X17938134Y-21178628D02*
X17890515Y-21178628D01*
X17890515Y-21178628D02*
X17871467Y-21169104D01*
X17871467Y-21169104D02*
X17861944Y-21159580D01*
X18100039Y-20978628D02*
X18119086Y-20978628D01*
X18119086Y-20978628D02*
X18138134Y-20988151D01*
X18138134Y-20988151D02*
X18147658Y-20997675D01*
X18147658Y-20997675D02*
X18157182Y-21016723D01*
X18157182Y-21016723D02*
X18166705Y-21054818D01*
X18166705Y-21054818D02*
X18166705Y-21102437D01*
X18166705Y-21102437D02*
X18157182Y-21140532D01*
X18157182Y-21140532D02*
X18147658Y-21159580D01*
X18147658Y-21159580D02*
X18138134Y-21169104D01*
X18138134Y-21169104D02*
X18119086Y-21178628D01*
X18119086Y-21178628D02*
X18100039Y-21178628D01*
X18100039Y-21178628D02*
X18080991Y-21169104D01*
X18080991Y-21169104D02*
X18071467Y-21159580D01*
X18071467Y-21159580D02*
X18061944Y-21140532D01*
X18061944Y-21140532D02*
X18052420Y-21102437D01*
X18052420Y-21102437D02*
X18052420Y-21054818D01*
X18052420Y-21054818D02*
X18061944Y-21016723D01*
X18061944Y-21016723D02*
X18071467Y-20997675D01*
X18071467Y-20997675D02*
X18080991Y-20988151D01*
X18080991Y-20988151D02*
X18100039Y-20978628D01*
X18252420Y-21178628D02*
X18252420Y-21045294D01*
X18252420Y-21064342D02*
X18261944Y-21054818D01*
X18261944Y-21054818D02*
X18280991Y-21045294D01*
X18280991Y-21045294D02*
X18309563Y-21045294D01*
X18309563Y-21045294D02*
X18328610Y-21054818D01*
X18328610Y-21054818D02*
X18338134Y-21073866D01*
X18338134Y-21073866D02*
X18338134Y-21178628D01*
X18338134Y-21073866D02*
X18347658Y-21054818D01*
X18347658Y-21054818D02*
X18366705Y-21045294D01*
X18366705Y-21045294D02*
X18395277Y-21045294D01*
X18395277Y-21045294D02*
X18414325Y-21054818D01*
X18414325Y-21054818D02*
X18423848Y-21073866D01*
X18423848Y-21073866D02*
X18423848Y-21178628D01*
X18519086Y-21178628D02*
X18519086Y-21045294D01*
X18519086Y-21064342D02*
X18528610Y-21054818D01*
X18528610Y-21054818D02*
X18547658Y-21045294D01*
X18547658Y-21045294D02*
X18576229Y-21045294D01*
X18576229Y-21045294D02*
X18595277Y-21054818D01*
X18595277Y-21054818D02*
X18604801Y-21073866D01*
X18604801Y-21073866D02*
X18604801Y-21178628D01*
X18604801Y-21073866D02*
X18614325Y-21054818D01*
X18614325Y-21054818D02*
X18633372Y-21045294D01*
X18633372Y-21045294D02*
X18661944Y-21045294D01*
X18661944Y-21045294D02*
X18680991Y-21054818D01*
X18680991Y-21054818D02*
X18690515Y-21073866D01*
X18690515Y-21073866D02*
X18690515Y-21178628D01*
X19080991Y-20969104D02*
X18909563Y-21226247D01*
X19338134Y-20978628D02*
X19357182Y-20978628D01*
X19357182Y-20978628D02*
X19376229Y-20988151D01*
X19376229Y-20988151D02*
X19385753Y-20997675D01*
X19385753Y-20997675D02*
X19395277Y-21016723D01*
X19395277Y-21016723D02*
X19404801Y-21054818D01*
X19404801Y-21054818D02*
X19404801Y-21102437D01*
X19404801Y-21102437D02*
X19395277Y-21140532D01*
X19395277Y-21140532D02*
X19385753Y-21159580D01*
X19385753Y-21159580D02*
X19376229Y-21169104D01*
X19376229Y-21169104D02*
X19357182Y-21178628D01*
X19357182Y-21178628D02*
X19338134Y-21178628D01*
X19338134Y-21178628D02*
X19319087Y-21169104D01*
X19319087Y-21169104D02*
X19309563Y-21159580D01*
X19309563Y-21159580D02*
X19300039Y-21140532D01*
X19300039Y-21140532D02*
X19290515Y-21102437D01*
X19290515Y-21102437D02*
X19290515Y-21054818D01*
X19290515Y-21054818D02*
X19300039Y-21016723D01*
X19300039Y-21016723D02*
X19309563Y-20997675D01*
X19309563Y-20997675D02*
X19319087Y-20988151D01*
X19319087Y-20988151D02*
X19338134Y-20978628D01*
X19490515Y-21159580D02*
X19500039Y-21169104D01*
X19500039Y-21169104D02*
X19490515Y-21178628D01*
X19490515Y-21178628D02*
X19480991Y-21169104D01*
X19480991Y-21169104D02*
X19490515Y-21159580D01*
X19490515Y-21159580D02*
X19490515Y-21178628D01*
X19623848Y-20978628D02*
X19642896Y-20978628D01*
X19642896Y-20978628D02*
X19661944Y-20988151D01*
X19661944Y-20988151D02*
X19671468Y-20997675D01*
X19671468Y-20997675D02*
X19680991Y-21016723D01*
X19680991Y-21016723D02*
X19690515Y-21054818D01*
X19690515Y-21054818D02*
X19690515Y-21102437D01*
X19690515Y-21102437D02*
X19680991Y-21140532D01*
X19680991Y-21140532D02*
X19671468Y-21159580D01*
X19671468Y-21159580D02*
X19661944Y-21169104D01*
X19661944Y-21169104D02*
X19642896Y-21178628D01*
X19642896Y-21178628D02*
X19623848Y-21178628D01*
X19623848Y-21178628D02*
X19604801Y-21169104D01*
X19604801Y-21169104D02*
X19595277Y-21159580D01*
X19595277Y-21159580D02*
X19585753Y-21140532D01*
X19585753Y-21140532D02*
X19576229Y-21102437D01*
X19576229Y-21102437D02*
X19576229Y-21054818D01*
X19576229Y-21054818D02*
X19585753Y-21016723D01*
X19585753Y-21016723D02*
X19595277Y-20997675D01*
X19595277Y-20997675D02*
X19604801Y-20988151D01*
X19604801Y-20988151D02*
X19623848Y-20978628D01*
X19766706Y-20997675D02*
X19776229Y-20988151D01*
X19776229Y-20988151D02*
X19795277Y-20978628D01*
X19795277Y-20978628D02*
X19842896Y-20978628D01*
X19842896Y-20978628D02*
X19861944Y-20988151D01*
X19861944Y-20988151D02*
X19871468Y-20997675D01*
X19871468Y-20997675D02*
X19880991Y-21016723D01*
X19880991Y-21016723D02*
X19880991Y-21035770D01*
X19880991Y-21035770D02*
X19871468Y-21064342D01*
X19871468Y-21064342D02*
X19757182Y-21178628D01*
X19757182Y-21178628D02*
X19880991Y-21178628D01*
X19976229Y-21178628D02*
X20014325Y-21178628D01*
X20014325Y-21178628D02*
X20033372Y-21169104D01*
X20033372Y-21169104D02*
X20042896Y-21159580D01*
X20042896Y-21159580D02*
X20061944Y-21131009D01*
X20061944Y-21131009D02*
X20071468Y-21092913D01*
X20071468Y-21092913D02*
X20071468Y-21016723D01*
X20071468Y-21016723D02*
X20061944Y-20997675D01*
X20061944Y-20997675D02*
X20052420Y-20988151D01*
X20052420Y-20988151D02*
X20033372Y-20978628D01*
X20033372Y-20978628D02*
X19995277Y-20978628D01*
X19995277Y-20978628D02*
X19976229Y-20988151D01*
X19976229Y-20988151D02*
X19966706Y-20997675D01*
X19966706Y-20997675D02*
X19957182Y-21016723D01*
X19957182Y-21016723D02*
X19957182Y-21064342D01*
X19957182Y-21064342D02*
X19966706Y-21083390D01*
X19966706Y-21083390D02*
X19976229Y-21092913D01*
X19976229Y-21092913D02*
X19995277Y-21102437D01*
X19995277Y-21102437D02*
X20033372Y-21102437D01*
X20033372Y-21102437D02*
X20052420Y-21092913D01*
X20052420Y-21092913D02*
X20061944Y-21083390D01*
X20061944Y-21083390D02*
X20071468Y-21064342D01*
X20252420Y-20978628D02*
X20157182Y-20978628D01*
X20157182Y-20978628D02*
X20147658Y-21073866D01*
X20147658Y-21073866D02*
X20157182Y-21064342D01*
X20157182Y-21064342D02*
X20176229Y-21054818D01*
X20176229Y-21054818D02*
X20223849Y-21054818D01*
X20223849Y-21054818D02*
X20242896Y-21064342D01*
X20242896Y-21064342D02*
X20252420Y-21073866D01*
X20252420Y-21073866D02*
X20261944Y-21092913D01*
X20261944Y-21092913D02*
X20261944Y-21140532D01*
X20261944Y-21140532D02*
X20252420Y-21159580D01*
X20252420Y-21159580D02*
X20242896Y-21169104D01*
X20242896Y-21169104D02*
X20223849Y-21178628D01*
X20223849Y-21178628D02*
X20176229Y-21178628D01*
X20176229Y-21178628D02*
X20157182Y-21169104D01*
X20157182Y-21169104D02*
X20147658Y-21159580D01*
X20338134Y-20978628D02*
X20338134Y-21016723D01*
X20414325Y-20978628D02*
X20414325Y-21016723D01*
X20709563Y-21254818D02*
X20700039Y-21245294D01*
X20700039Y-21245294D02*
X20680991Y-21216723D01*
X20680991Y-21216723D02*
X20671468Y-21197675D01*
X20671468Y-21197675D02*
X20661944Y-21169104D01*
X20661944Y-21169104D02*
X20652420Y-21121485D01*
X20652420Y-21121485D02*
X20652420Y-21083390D01*
X20652420Y-21083390D02*
X20661944Y-21035770D01*
X20661944Y-21035770D02*
X20671468Y-21007199D01*
X20671468Y-21007199D02*
X20680991Y-20988151D01*
X20680991Y-20988151D02*
X20700039Y-20959580D01*
X20700039Y-20959580D02*
X20709563Y-20950056D01*
X20776230Y-20997675D02*
X20785753Y-20988151D01*
X20785753Y-20988151D02*
X20804801Y-20978628D01*
X20804801Y-20978628D02*
X20852420Y-20978628D01*
X20852420Y-20978628D02*
X20871468Y-20988151D01*
X20871468Y-20988151D02*
X20880991Y-20997675D01*
X20880991Y-20997675D02*
X20890515Y-21016723D01*
X20890515Y-21016723D02*
X20890515Y-21035770D01*
X20890515Y-21035770D02*
X20880991Y-21064342D01*
X20880991Y-21064342D02*
X20766706Y-21178628D01*
X20766706Y-21178628D02*
X20890515Y-21178628D01*
X21128611Y-21178628D02*
X21128611Y-20978628D01*
X21214325Y-21178628D02*
X21214325Y-21073866D01*
X21214325Y-21073866D02*
X21204801Y-21054818D01*
X21204801Y-21054818D02*
X21185753Y-21045294D01*
X21185753Y-21045294D02*
X21157182Y-21045294D01*
X21157182Y-21045294D02*
X21138134Y-21054818D01*
X21138134Y-21054818D02*
X21128611Y-21064342D01*
X21338134Y-21178628D02*
X21319087Y-21169104D01*
X21319087Y-21169104D02*
X21309563Y-21159580D01*
X21309563Y-21159580D02*
X21300039Y-21140532D01*
X21300039Y-21140532D02*
X21300039Y-21083390D01*
X21300039Y-21083390D02*
X21309563Y-21064342D01*
X21309563Y-21064342D02*
X21319087Y-21054818D01*
X21319087Y-21054818D02*
X21338134Y-21045294D01*
X21338134Y-21045294D02*
X21366706Y-21045294D01*
X21366706Y-21045294D02*
X21385753Y-21054818D01*
X21385753Y-21054818D02*
X21395277Y-21064342D01*
X21395277Y-21064342D02*
X21404801Y-21083390D01*
X21404801Y-21083390D02*
X21404801Y-21140532D01*
X21404801Y-21140532D02*
X21395277Y-21159580D01*
X21395277Y-21159580D02*
X21385753Y-21169104D01*
X21385753Y-21169104D02*
X21366706Y-21178628D01*
X21366706Y-21178628D02*
X21338134Y-21178628D01*
X21519087Y-21178628D02*
X21500039Y-21169104D01*
X21500039Y-21169104D02*
X21490515Y-21150056D01*
X21490515Y-21150056D02*
X21490515Y-20978628D01*
X21671468Y-21169104D02*
X21652420Y-21178628D01*
X21652420Y-21178628D02*
X21614325Y-21178628D01*
X21614325Y-21178628D02*
X21595277Y-21169104D01*
X21595277Y-21169104D02*
X21585753Y-21150056D01*
X21585753Y-21150056D02*
X21585753Y-21073866D01*
X21585753Y-21073866D02*
X21595277Y-21054818D01*
X21595277Y-21054818D02*
X21614325Y-21045294D01*
X21614325Y-21045294D02*
X21652420Y-21045294D01*
X21652420Y-21045294D02*
X21671468Y-21054818D01*
X21671468Y-21054818D02*
X21680992Y-21073866D01*
X21680992Y-21073866D02*
X21680992Y-21092913D01*
X21680992Y-21092913D02*
X21585753Y-21111961D01*
X21757182Y-21169104D02*
X21776230Y-21178628D01*
X21776230Y-21178628D02*
X21814325Y-21178628D01*
X21814325Y-21178628D02*
X21833373Y-21169104D01*
X21833373Y-21169104D02*
X21842896Y-21150056D01*
X21842896Y-21150056D02*
X21842896Y-21140532D01*
X21842896Y-21140532D02*
X21833373Y-21121485D01*
X21833373Y-21121485D02*
X21814325Y-21111961D01*
X21814325Y-21111961D02*
X21785753Y-21111961D01*
X21785753Y-21111961D02*
X21766706Y-21102437D01*
X21766706Y-21102437D02*
X21757182Y-21083390D01*
X21757182Y-21083390D02*
X21757182Y-21073866D01*
X21757182Y-21073866D02*
X21766706Y-21054818D01*
X21766706Y-21054818D02*
X21785753Y-21045294D01*
X21785753Y-21045294D02*
X21814325Y-21045294D01*
X21814325Y-21045294D02*
X21833373Y-21054818D01*
X21909563Y-21254818D02*
X21919087Y-21245294D01*
X21919087Y-21245294D02*
X21938134Y-21216723D01*
X21938134Y-21216723D02*
X21947658Y-21197675D01*
X21947658Y-21197675D02*
X21957182Y-21169104D01*
X21957182Y-21169104D02*
X21966706Y-21121485D01*
X21966706Y-21121485D02*
X21966706Y-21083390D01*
X21966706Y-21083390D02*
X21957182Y-21035770D01*
X21957182Y-21035770D02*
X21947658Y-21007199D01*
X21947658Y-21007199D02*
X21938134Y-20988151D01*
X21938134Y-20988151D02*
X21919087Y-20959580D01*
X21919087Y-20959580D02*
X21909563Y-20950056D01*
D13*
X17079500Y-21406144D02*
X17134500Y-21351144D01*
X17079500Y-21296144D01*
X17024500Y-21351144D01*
X17079500Y-21406144D01*
D11*
X17500039Y-21442628D02*
X17385753Y-21442628D01*
X17442896Y-21442628D02*
X17442896Y-21242628D01*
X17442896Y-21242628D02*
X17423848Y-21271199D01*
X17423848Y-21271199D02*
X17404801Y-21290247D01*
X17404801Y-21290247D02*
X17385753Y-21299770D01*
X17585753Y-21423580D02*
X17595277Y-21433104D01*
X17595277Y-21433104D02*
X17585753Y-21442628D01*
X17585753Y-21442628D02*
X17576229Y-21433104D01*
X17576229Y-21433104D02*
X17585753Y-21423580D01*
X17585753Y-21423580D02*
X17585753Y-21442628D01*
X17785753Y-21442628D02*
X17671467Y-21442628D01*
X17728610Y-21442628D02*
X17728610Y-21242628D01*
X17728610Y-21242628D02*
X17709563Y-21271199D01*
X17709563Y-21271199D02*
X17690515Y-21290247D01*
X17690515Y-21290247D02*
X17671467Y-21299770D01*
X17909563Y-21242628D02*
X17928610Y-21242628D01*
X17928610Y-21242628D02*
X17947658Y-21252151D01*
X17947658Y-21252151D02*
X17957182Y-21261675D01*
X17957182Y-21261675D02*
X17966705Y-21280723D01*
X17966705Y-21280723D02*
X17976229Y-21318818D01*
X17976229Y-21318818D02*
X17976229Y-21366437D01*
X17976229Y-21366437D02*
X17966705Y-21404532D01*
X17966705Y-21404532D02*
X17957182Y-21423580D01*
X17957182Y-21423580D02*
X17947658Y-21433104D01*
X17947658Y-21433104D02*
X17928610Y-21442628D01*
X17928610Y-21442628D02*
X17909563Y-21442628D01*
X17909563Y-21442628D02*
X17890515Y-21433104D01*
X17890515Y-21433104D02*
X17880991Y-21423580D01*
X17880991Y-21423580D02*
X17871467Y-21404532D01*
X17871467Y-21404532D02*
X17861944Y-21366437D01*
X17861944Y-21366437D02*
X17861944Y-21318818D01*
X17861944Y-21318818D02*
X17871467Y-21280723D01*
X17871467Y-21280723D02*
X17880991Y-21261675D01*
X17880991Y-21261675D02*
X17890515Y-21252151D01*
X17890515Y-21252151D02*
X17909563Y-21242628D01*
X18100039Y-21242628D02*
X18119086Y-21242628D01*
X18119086Y-21242628D02*
X18138134Y-21252151D01*
X18138134Y-21252151D02*
X18147658Y-21261675D01*
X18147658Y-21261675D02*
X18157182Y-21280723D01*
X18157182Y-21280723D02*
X18166705Y-21318818D01*
X18166705Y-21318818D02*
X18166705Y-21366437D01*
X18166705Y-21366437D02*
X18157182Y-21404532D01*
X18157182Y-21404532D02*
X18147658Y-21423580D01*
X18147658Y-21423580D02*
X18138134Y-21433104D01*
X18138134Y-21433104D02*
X18119086Y-21442628D01*
X18119086Y-21442628D02*
X18100039Y-21442628D01*
X18100039Y-21442628D02*
X18080991Y-21433104D01*
X18080991Y-21433104D02*
X18071467Y-21423580D01*
X18071467Y-21423580D02*
X18061944Y-21404532D01*
X18061944Y-21404532D02*
X18052420Y-21366437D01*
X18052420Y-21366437D02*
X18052420Y-21318818D01*
X18052420Y-21318818D02*
X18061944Y-21280723D01*
X18061944Y-21280723D02*
X18071467Y-21261675D01*
X18071467Y-21261675D02*
X18080991Y-21252151D01*
X18080991Y-21252151D02*
X18100039Y-21242628D01*
X18252420Y-21442628D02*
X18252420Y-21309294D01*
X18252420Y-21328342D02*
X18261944Y-21318818D01*
X18261944Y-21318818D02*
X18280991Y-21309294D01*
X18280991Y-21309294D02*
X18309563Y-21309294D01*
X18309563Y-21309294D02*
X18328610Y-21318818D01*
X18328610Y-21318818D02*
X18338134Y-21337866D01*
X18338134Y-21337866D02*
X18338134Y-21442628D01*
X18338134Y-21337866D02*
X18347658Y-21318818D01*
X18347658Y-21318818D02*
X18366705Y-21309294D01*
X18366705Y-21309294D02*
X18395277Y-21309294D01*
X18395277Y-21309294D02*
X18414325Y-21318818D01*
X18414325Y-21318818D02*
X18423848Y-21337866D01*
X18423848Y-21337866D02*
X18423848Y-21442628D01*
X18519086Y-21442628D02*
X18519086Y-21309294D01*
X18519086Y-21328342D02*
X18528610Y-21318818D01*
X18528610Y-21318818D02*
X18547658Y-21309294D01*
X18547658Y-21309294D02*
X18576229Y-21309294D01*
X18576229Y-21309294D02*
X18595277Y-21318818D01*
X18595277Y-21318818D02*
X18604801Y-21337866D01*
X18604801Y-21337866D02*
X18604801Y-21442628D01*
X18604801Y-21337866D02*
X18614325Y-21318818D01*
X18614325Y-21318818D02*
X18633372Y-21309294D01*
X18633372Y-21309294D02*
X18661944Y-21309294D01*
X18661944Y-21309294D02*
X18680991Y-21318818D01*
X18680991Y-21318818D02*
X18690515Y-21337866D01*
X18690515Y-21337866D02*
X18690515Y-21442628D01*
X19080991Y-21233104D02*
X18909563Y-21490247D01*
X19338134Y-21242628D02*
X19357182Y-21242628D01*
X19357182Y-21242628D02*
X19376229Y-21252151D01*
X19376229Y-21252151D02*
X19385753Y-21261675D01*
X19385753Y-21261675D02*
X19395277Y-21280723D01*
X19395277Y-21280723D02*
X19404801Y-21318818D01*
X19404801Y-21318818D02*
X19404801Y-21366437D01*
X19404801Y-21366437D02*
X19395277Y-21404532D01*
X19395277Y-21404532D02*
X19385753Y-21423580D01*
X19385753Y-21423580D02*
X19376229Y-21433104D01*
X19376229Y-21433104D02*
X19357182Y-21442628D01*
X19357182Y-21442628D02*
X19338134Y-21442628D01*
X19338134Y-21442628D02*
X19319087Y-21433104D01*
X19319087Y-21433104D02*
X19309563Y-21423580D01*
X19309563Y-21423580D02*
X19300039Y-21404532D01*
X19300039Y-21404532D02*
X19290515Y-21366437D01*
X19290515Y-21366437D02*
X19290515Y-21318818D01*
X19290515Y-21318818D02*
X19300039Y-21280723D01*
X19300039Y-21280723D02*
X19309563Y-21261675D01*
X19309563Y-21261675D02*
X19319087Y-21252151D01*
X19319087Y-21252151D02*
X19338134Y-21242628D01*
X19490515Y-21423580D02*
X19500039Y-21433104D01*
X19500039Y-21433104D02*
X19490515Y-21442628D01*
X19490515Y-21442628D02*
X19480991Y-21433104D01*
X19480991Y-21433104D02*
X19490515Y-21423580D01*
X19490515Y-21423580D02*
X19490515Y-21442628D01*
X19623848Y-21242628D02*
X19642896Y-21242628D01*
X19642896Y-21242628D02*
X19661944Y-21252151D01*
X19661944Y-21252151D02*
X19671468Y-21261675D01*
X19671468Y-21261675D02*
X19680991Y-21280723D01*
X19680991Y-21280723D02*
X19690515Y-21318818D01*
X19690515Y-21318818D02*
X19690515Y-21366437D01*
X19690515Y-21366437D02*
X19680991Y-21404532D01*
X19680991Y-21404532D02*
X19671468Y-21423580D01*
X19671468Y-21423580D02*
X19661944Y-21433104D01*
X19661944Y-21433104D02*
X19642896Y-21442628D01*
X19642896Y-21442628D02*
X19623848Y-21442628D01*
X19623848Y-21442628D02*
X19604801Y-21433104D01*
X19604801Y-21433104D02*
X19595277Y-21423580D01*
X19595277Y-21423580D02*
X19585753Y-21404532D01*
X19585753Y-21404532D02*
X19576229Y-21366437D01*
X19576229Y-21366437D02*
X19576229Y-21318818D01*
X19576229Y-21318818D02*
X19585753Y-21280723D01*
X19585753Y-21280723D02*
X19595277Y-21261675D01*
X19595277Y-21261675D02*
X19604801Y-21252151D01*
X19604801Y-21252151D02*
X19623848Y-21242628D01*
X19861944Y-21309294D02*
X19861944Y-21442628D01*
X19814325Y-21233104D02*
X19766706Y-21375961D01*
X19766706Y-21375961D02*
X19890515Y-21375961D01*
X19947658Y-21242628D02*
X20071468Y-21242628D01*
X20071468Y-21242628D02*
X20004801Y-21318818D01*
X20004801Y-21318818D02*
X20033372Y-21318818D01*
X20033372Y-21318818D02*
X20052420Y-21328342D01*
X20052420Y-21328342D02*
X20061944Y-21337866D01*
X20061944Y-21337866D02*
X20071468Y-21356913D01*
X20071468Y-21356913D02*
X20071468Y-21404532D01*
X20071468Y-21404532D02*
X20061944Y-21423580D01*
X20061944Y-21423580D02*
X20052420Y-21433104D01*
X20052420Y-21433104D02*
X20033372Y-21442628D01*
X20033372Y-21442628D02*
X19976229Y-21442628D01*
X19976229Y-21442628D02*
X19957182Y-21433104D01*
X19957182Y-21433104D02*
X19947658Y-21423580D01*
X20138134Y-21242628D02*
X20261944Y-21242628D01*
X20261944Y-21242628D02*
X20195277Y-21318818D01*
X20195277Y-21318818D02*
X20223849Y-21318818D01*
X20223849Y-21318818D02*
X20242896Y-21328342D01*
X20242896Y-21328342D02*
X20252420Y-21337866D01*
X20252420Y-21337866D02*
X20261944Y-21356913D01*
X20261944Y-21356913D02*
X20261944Y-21404532D01*
X20261944Y-21404532D02*
X20252420Y-21423580D01*
X20252420Y-21423580D02*
X20242896Y-21433104D01*
X20242896Y-21433104D02*
X20223849Y-21442628D01*
X20223849Y-21442628D02*
X20166706Y-21442628D01*
X20166706Y-21442628D02*
X20147658Y-21433104D01*
X20147658Y-21433104D02*
X20138134Y-21423580D01*
X20338134Y-21242628D02*
X20338134Y-21280723D01*
X20414325Y-21242628D02*
X20414325Y-21280723D01*
X20709563Y-21518818D02*
X20700039Y-21509294D01*
X20700039Y-21509294D02*
X20680991Y-21480723D01*
X20680991Y-21480723D02*
X20671468Y-21461675D01*
X20671468Y-21461675D02*
X20661944Y-21433104D01*
X20661944Y-21433104D02*
X20652420Y-21385485D01*
X20652420Y-21385485D02*
X20652420Y-21347390D01*
X20652420Y-21347390D02*
X20661944Y-21299770D01*
X20661944Y-21299770D02*
X20671468Y-21271199D01*
X20671468Y-21271199D02*
X20680991Y-21252151D01*
X20680991Y-21252151D02*
X20700039Y-21223580D01*
X20700039Y-21223580D02*
X20709563Y-21214056D01*
X20776230Y-21261675D02*
X20785753Y-21252151D01*
X20785753Y-21252151D02*
X20804801Y-21242628D01*
X20804801Y-21242628D02*
X20852420Y-21242628D01*
X20852420Y-21242628D02*
X20871468Y-21252151D01*
X20871468Y-21252151D02*
X20880991Y-21261675D01*
X20880991Y-21261675D02*
X20890515Y-21280723D01*
X20890515Y-21280723D02*
X20890515Y-21299770D01*
X20890515Y-21299770D02*
X20880991Y-21328342D01*
X20880991Y-21328342D02*
X20766706Y-21442628D01*
X20766706Y-21442628D02*
X20890515Y-21442628D01*
X21061944Y-21242628D02*
X21023849Y-21242628D01*
X21023849Y-21242628D02*
X21004801Y-21252151D01*
X21004801Y-21252151D02*
X20995277Y-21261675D01*
X20995277Y-21261675D02*
X20976230Y-21290247D01*
X20976230Y-21290247D02*
X20966706Y-21328342D01*
X20966706Y-21328342D02*
X20966706Y-21404532D01*
X20966706Y-21404532D02*
X20976230Y-21423580D01*
X20976230Y-21423580D02*
X20985753Y-21433104D01*
X20985753Y-21433104D02*
X21004801Y-21442628D01*
X21004801Y-21442628D02*
X21042896Y-21442628D01*
X21042896Y-21442628D02*
X21061944Y-21433104D01*
X21061944Y-21433104D02*
X21071468Y-21423580D01*
X21071468Y-21423580D02*
X21080991Y-21404532D01*
X21080991Y-21404532D02*
X21080991Y-21356913D01*
X21080991Y-21356913D02*
X21071468Y-21337866D01*
X21071468Y-21337866D02*
X21061944Y-21328342D01*
X21061944Y-21328342D02*
X21042896Y-21318818D01*
X21042896Y-21318818D02*
X21004801Y-21318818D01*
X21004801Y-21318818D02*
X20985753Y-21328342D01*
X20985753Y-21328342D02*
X20976230Y-21337866D01*
X20976230Y-21337866D02*
X20966706Y-21356913D01*
X21319087Y-21442628D02*
X21319087Y-21242628D01*
X21404801Y-21442628D02*
X21404801Y-21337866D01*
X21404801Y-21337866D02*
X21395277Y-21318818D01*
X21395277Y-21318818D02*
X21376230Y-21309294D01*
X21376230Y-21309294D02*
X21347658Y-21309294D01*
X21347658Y-21309294D02*
X21328611Y-21318818D01*
X21328611Y-21318818D02*
X21319087Y-21328342D01*
X21528611Y-21442628D02*
X21509563Y-21433104D01*
X21509563Y-21433104D02*
X21500039Y-21423580D01*
X21500039Y-21423580D02*
X21490515Y-21404532D01*
X21490515Y-21404532D02*
X21490515Y-21347390D01*
X21490515Y-21347390D02*
X21500039Y-21328342D01*
X21500039Y-21328342D02*
X21509563Y-21318818D01*
X21509563Y-21318818D02*
X21528611Y-21309294D01*
X21528611Y-21309294D02*
X21557182Y-21309294D01*
X21557182Y-21309294D02*
X21576230Y-21318818D01*
X21576230Y-21318818D02*
X21585753Y-21328342D01*
X21585753Y-21328342D02*
X21595277Y-21347390D01*
X21595277Y-21347390D02*
X21595277Y-21404532D01*
X21595277Y-21404532D02*
X21585753Y-21423580D01*
X21585753Y-21423580D02*
X21576230Y-21433104D01*
X21576230Y-21433104D02*
X21557182Y-21442628D01*
X21557182Y-21442628D02*
X21528611Y-21442628D01*
X21709563Y-21442628D02*
X21690515Y-21433104D01*
X21690515Y-21433104D02*
X21680992Y-21414056D01*
X21680992Y-21414056D02*
X21680992Y-21242628D01*
X21861944Y-21433104D02*
X21842896Y-21442628D01*
X21842896Y-21442628D02*
X21804801Y-21442628D01*
X21804801Y-21442628D02*
X21785753Y-21433104D01*
X21785753Y-21433104D02*
X21776230Y-21414056D01*
X21776230Y-21414056D02*
X21776230Y-21337866D01*
X21776230Y-21337866D02*
X21785753Y-21318818D01*
X21785753Y-21318818D02*
X21804801Y-21309294D01*
X21804801Y-21309294D02*
X21842896Y-21309294D01*
X21842896Y-21309294D02*
X21861944Y-21318818D01*
X21861944Y-21318818D02*
X21871468Y-21337866D01*
X21871468Y-21337866D02*
X21871468Y-21356913D01*
X21871468Y-21356913D02*
X21776230Y-21375961D01*
X21947658Y-21433104D02*
X21966706Y-21442628D01*
X21966706Y-21442628D02*
X22004801Y-21442628D01*
X22004801Y-21442628D02*
X22023849Y-21433104D01*
X22023849Y-21433104D02*
X22033373Y-21414056D01*
X22033373Y-21414056D02*
X22033373Y-21404532D01*
X22033373Y-21404532D02*
X22023849Y-21385485D01*
X22023849Y-21385485D02*
X22004801Y-21375961D01*
X22004801Y-21375961D02*
X21976230Y-21375961D01*
X21976230Y-21375961D02*
X21957182Y-21366437D01*
X21957182Y-21366437D02*
X21947658Y-21347390D01*
X21947658Y-21347390D02*
X21947658Y-21337866D01*
X21947658Y-21337866D02*
X21957182Y-21318818D01*
X21957182Y-21318818D02*
X21976230Y-21309294D01*
X21976230Y-21309294D02*
X22004801Y-21309294D01*
X22004801Y-21309294D02*
X22023849Y-21318818D01*
X22100039Y-21518818D02*
X22109563Y-21509294D01*
X22109563Y-21509294D02*
X22128611Y-21480723D01*
X22128611Y-21480723D02*
X22138134Y-21461675D01*
X22138134Y-21461675D02*
X22147658Y-21433104D01*
X22147658Y-21433104D02*
X22157182Y-21385485D01*
X22157182Y-21385485D02*
X22157182Y-21347390D01*
X22157182Y-21347390D02*
X22147658Y-21299770D01*
X22147658Y-21299770D02*
X22138134Y-21271199D01*
X22138134Y-21271199D02*
X22128611Y-21252151D01*
X22128611Y-21252151D02*
X22109563Y-21223580D01*
X22109563Y-21223580D02*
X22100039Y-21214056D01*
D14*
X17007500Y-21551644D02*
X17134500Y-21678644D01*
X17134500Y-21551644D02*
X17007500Y-21678644D01*
X17134500Y-21615144D02*
G75*
G03*
X17134500Y-21615144I-63500J0D01*
G01*
D11*
X17500039Y-21706628D02*
X17385753Y-21706628D01*
X17442896Y-21706628D02*
X17442896Y-21506628D01*
X17442896Y-21506628D02*
X17423848Y-21535199D01*
X17423848Y-21535199D02*
X17404801Y-21554247D01*
X17404801Y-21554247D02*
X17385753Y-21563770D01*
X17585753Y-21687580D02*
X17595277Y-21697104D01*
X17595277Y-21697104D02*
X17585753Y-21706628D01*
X17585753Y-21706628D02*
X17576229Y-21697104D01*
X17576229Y-21697104D02*
X17585753Y-21687580D01*
X17585753Y-21687580D02*
X17585753Y-21706628D01*
X17671467Y-21525675D02*
X17680991Y-21516151D01*
X17680991Y-21516151D02*
X17700039Y-21506628D01*
X17700039Y-21506628D02*
X17747658Y-21506628D01*
X17747658Y-21506628D02*
X17766705Y-21516151D01*
X17766705Y-21516151D02*
X17776229Y-21525675D01*
X17776229Y-21525675D02*
X17785753Y-21544723D01*
X17785753Y-21544723D02*
X17785753Y-21563770D01*
X17785753Y-21563770D02*
X17776229Y-21592342D01*
X17776229Y-21592342D02*
X17661944Y-21706628D01*
X17661944Y-21706628D02*
X17785753Y-21706628D01*
X17852420Y-21506628D02*
X17985753Y-21506628D01*
X17985753Y-21506628D02*
X17900039Y-21706628D01*
X18100039Y-21506628D02*
X18119086Y-21506628D01*
X18119086Y-21506628D02*
X18138134Y-21516151D01*
X18138134Y-21516151D02*
X18147658Y-21525675D01*
X18147658Y-21525675D02*
X18157182Y-21544723D01*
X18157182Y-21544723D02*
X18166705Y-21582818D01*
X18166705Y-21582818D02*
X18166705Y-21630437D01*
X18166705Y-21630437D02*
X18157182Y-21668532D01*
X18157182Y-21668532D02*
X18147658Y-21687580D01*
X18147658Y-21687580D02*
X18138134Y-21697104D01*
X18138134Y-21697104D02*
X18119086Y-21706628D01*
X18119086Y-21706628D02*
X18100039Y-21706628D01*
X18100039Y-21706628D02*
X18080991Y-21697104D01*
X18080991Y-21697104D02*
X18071467Y-21687580D01*
X18071467Y-21687580D02*
X18061944Y-21668532D01*
X18061944Y-21668532D02*
X18052420Y-21630437D01*
X18052420Y-21630437D02*
X18052420Y-21582818D01*
X18052420Y-21582818D02*
X18061944Y-21544723D01*
X18061944Y-21544723D02*
X18071467Y-21525675D01*
X18071467Y-21525675D02*
X18080991Y-21516151D01*
X18080991Y-21516151D02*
X18100039Y-21506628D01*
X18252420Y-21706628D02*
X18252420Y-21573294D01*
X18252420Y-21592342D02*
X18261944Y-21582818D01*
X18261944Y-21582818D02*
X18280991Y-21573294D01*
X18280991Y-21573294D02*
X18309563Y-21573294D01*
X18309563Y-21573294D02*
X18328610Y-21582818D01*
X18328610Y-21582818D02*
X18338134Y-21601866D01*
X18338134Y-21601866D02*
X18338134Y-21706628D01*
X18338134Y-21601866D02*
X18347658Y-21582818D01*
X18347658Y-21582818D02*
X18366705Y-21573294D01*
X18366705Y-21573294D02*
X18395277Y-21573294D01*
X18395277Y-21573294D02*
X18414325Y-21582818D01*
X18414325Y-21582818D02*
X18423848Y-21601866D01*
X18423848Y-21601866D02*
X18423848Y-21706628D01*
X18519086Y-21706628D02*
X18519086Y-21573294D01*
X18519086Y-21592342D02*
X18528610Y-21582818D01*
X18528610Y-21582818D02*
X18547658Y-21573294D01*
X18547658Y-21573294D02*
X18576229Y-21573294D01*
X18576229Y-21573294D02*
X18595277Y-21582818D01*
X18595277Y-21582818D02*
X18604801Y-21601866D01*
X18604801Y-21601866D02*
X18604801Y-21706628D01*
X18604801Y-21601866D02*
X18614325Y-21582818D01*
X18614325Y-21582818D02*
X18633372Y-21573294D01*
X18633372Y-21573294D02*
X18661944Y-21573294D01*
X18661944Y-21573294D02*
X18680991Y-21582818D01*
X18680991Y-21582818D02*
X18690515Y-21601866D01*
X18690515Y-21601866D02*
X18690515Y-21706628D01*
X19080991Y-21497104D02*
X18909563Y-21754247D01*
X19338134Y-21506628D02*
X19357182Y-21506628D01*
X19357182Y-21506628D02*
X19376229Y-21516151D01*
X19376229Y-21516151D02*
X19385753Y-21525675D01*
X19385753Y-21525675D02*
X19395277Y-21544723D01*
X19395277Y-21544723D02*
X19404801Y-21582818D01*
X19404801Y-21582818D02*
X19404801Y-21630437D01*
X19404801Y-21630437D02*
X19395277Y-21668532D01*
X19395277Y-21668532D02*
X19385753Y-21687580D01*
X19385753Y-21687580D02*
X19376229Y-21697104D01*
X19376229Y-21697104D02*
X19357182Y-21706628D01*
X19357182Y-21706628D02*
X19338134Y-21706628D01*
X19338134Y-21706628D02*
X19319087Y-21697104D01*
X19319087Y-21697104D02*
X19309563Y-21687580D01*
X19309563Y-21687580D02*
X19300039Y-21668532D01*
X19300039Y-21668532D02*
X19290515Y-21630437D01*
X19290515Y-21630437D02*
X19290515Y-21582818D01*
X19290515Y-21582818D02*
X19300039Y-21544723D01*
X19300039Y-21544723D02*
X19309563Y-21525675D01*
X19309563Y-21525675D02*
X19319087Y-21516151D01*
X19319087Y-21516151D02*
X19338134Y-21506628D01*
X19490515Y-21687580D02*
X19500039Y-21697104D01*
X19500039Y-21697104D02*
X19490515Y-21706628D01*
X19490515Y-21706628D02*
X19480991Y-21697104D01*
X19480991Y-21697104D02*
X19490515Y-21687580D01*
X19490515Y-21687580D02*
X19490515Y-21706628D01*
X19623848Y-21506628D02*
X19642896Y-21506628D01*
X19642896Y-21506628D02*
X19661944Y-21516151D01*
X19661944Y-21516151D02*
X19671468Y-21525675D01*
X19671468Y-21525675D02*
X19680991Y-21544723D01*
X19680991Y-21544723D02*
X19690515Y-21582818D01*
X19690515Y-21582818D02*
X19690515Y-21630437D01*
X19690515Y-21630437D02*
X19680991Y-21668532D01*
X19680991Y-21668532D02*
X19671468Y-21687580D01*
X19671468Y-21687580D02*
X19661944Y-21697104D01*
X19661944Y-21697104D02*
X19642896Y-21706628D01*
X19642896Y-21706628D02*
X19623848Y-21706628D01*
X19623848Y-21706628D02*
X19604801Y-21697104D01*
X19604801Y-21697104D02*
X19595277Y-21687580D01*
X19595277Y-21687580D02*
X19585753Y-21668532D01*
X19585753Y-21668532D02*
X19576229Y-21630437D01*
X19576229Y-21630437D02*
X19576229Y-21582818D01*
X19576229Y-21582818D02*
X19585753Y-21544723D01*
X19585753Y-21544723D02*
X19595277Y-21525675D01*
X19595277Y-21525675D02*
X19604801Y-21516151D01*
X19604801Y-21516151D02*
X19623848Y-21506628D01*
X19871468Y-21506628D02*
X19776229Y-21506628D01*
X19776229Y-21506628D02*
X19766706Y-21601866D01*
X19766706Y-21601866D02*
X19776229Y-21592342D01*
X19776229Y-21592342D02*
X19795277Y-21582818D01*
X19795277Y-21582818D02*
X19842896Y-21582818D01*
X19842896Y-21582818D02*
X19861944Y-21592342D01*
X19861944Y-21592342D02*
X19871468Y-21601866D01*
X19871468Y-21601866D02*
X19880991Y-21620913D01*
X19880991Y-21620913D02*
X19880991Y-21668532D01*
X19880991Y-21668532D02*
X19871468Y-21687580D01*
X19871468Y-21687580D02*
X19861944Y-21697104D01*
X19861944Y-21697104D02*
X19842896Y-21706628D01*
X19842896Y-21706628D02*
X19795277Y-21706628D01*
X19795277Y-21706628D02*
X19776229Y-21697104D01*
X19776229Y-21697104D02*
X19766706Y-21687580D01*
X20004801Y-21506628D02*
X20023849Y-21506628D01*
X20023849Y-21506628D02*
X20042896Y-21516151D01*
X20042896Y-21516151D02*
X20052420Y-21525675D01*
X20052420Y-21525675D02*
X20061944Y-21544723D01*
X20061944Y-21544723D02*
X20071468Y-21582818D01*
X20071468Y-21582818D02*
X20071468Y-21630437D01*
X20071468Y-21630437D02*
X20061944Y-21668532D01*
X20061944Y-21668532D02*
X20052420Y-21687580D01*
X20052420Y-21687580D02*
X20042896Y-21697104D01*
X20042896Y-21697104D02*
X20023849Y-21706628D01*
X20023849Y-21706628D02*
X20004801Y-21706628D01*
X20004801Y-21706628D02*
X19985753Y-21697104D01*
X19985753Y-21697104D02*
X19976229Y-21687580D01*
X19976229Y-21687580D02*
X19966706Y-21668532D01*
X19966706Y-21668532D02*
X19957182Y-21630437D01*
X19957182Y-21630437D02*
X19957182Y-21582818D01*
X19957182Y-21582818D02*
X19966706Y-21544723D01*
X19966706Y-21544723D02*
X19976229Y-21525675D01*
X19976229Y-21525675D02*
X19985753Y-21516151D01*
X19985753Y-21516151D02*
X20004801Y-21506628D01*
X20195277Y-21506628D02*
X20214325Y-21506628D01*
X20214325Y-21506628D02*
X20233372Y-21516151D01*
X20233372Y-21516151D02*
X20242896Y-21525675D01*
X20242896Y-21525675D02*
X20252420Y-21544723D01*
X20252420Y-21544723D02*
X20261944Y-21582818D01*
X20261944Y-21582818D02*
X20261944Y-21630437D01*
X20261944Y-21630437D02*
X20252420Y-21668532D01*
X20252420Y-21668532D02*
X20242896Y-21687580D01*
X20242896Y-21687580D02*
X20233372Y-21697104D01*
X20233372Y-21697104D02*
X20214325Y-21706628D01*
X20214325Y-21706628D02*
X20195277Y-21706628D01*
X20195277Y-21706628D02*
X20176229Y-21697104D01*
X20176229Y-21697104D02*
X20166706Y-21687580D01*
X20166706Y-21687580D02*
X20157182Y-21668532D01*
X20157182Y-21668532D02*
X20147658Y-21630437D01*
X20147658Y-21630437D02*
X20147658Y-21582818D01*
X20147658Y-21582818D02*
X20157182Y-21544723D01*
X20157182Y-21544723D02*
X20166706Y-21525675D01*
X20166706Y-21525675D02*
X20176229Y-21516151D01*
X20176229Y-21516151D02*
X20195277Y-21506628D01*
X20338134Y-21506628D02*
X20338134Y-21544723D01*
X20414325Y-21506628D02*
X20414325Y-21544723D01*
X20709563Y-21782818D02*
X20700039Y-21773294D01*
X20700039Y-21773294D02*
X20680991Y-21744723D01*
X20680991Y-21744723D02*
X20671468Y-21725675D01*
X20671468Y-21725675D02*
X20661944Y-21697104D01*
X20661944Y-21697104D02*
X20652420Y-21649485D01*
X20652420Y-21649485D02*
X20652420Y-21611390D01*
X20652420Y-21611390D02*
X20661944Y-21563770D01*
X20661944Y-21563770D02*
X20671468Y-21535199D01*
X20671468Y-21535199D02*
X20680991Y-21516151D01*
X20680991Y-21516151D02*
X20700039Y-21487580D01*
X20700039Y-21487580D02*
X20709563Y-21478056D01*
X20766706Y-21506628D02*
X20900039Y-21506628D01*
X20900039Y-21506628D02*
X20814325Y-21706628D01*
X20966706Y-21525675D02*
X20976230Y-21516151D01*
X20976230Y-21516151D02*
X20995277Y-21506628D01*
X20995277Y-21506628D02*
X21042896Y-21506628D01*
X21042896Y-21506628D02*
X21061944Y-21516151D01*
X21061944Y-21516151D02*
X21071468Y-21525675D01*
X21071468Y-21525675D02*
X21080991Y-21544723D01*
X21080991Y-21544723D02*
X21080991Y-21563770D01*
X21080991Y-21563770D02*
X21071468Y-21592342D01*
X21071468Y-21592342D02*
X20957182Y-21706628D01*
X20957182Y-21706628D02*
X21080991Y-21706628D01*
X21319087Y-21706628D02*
X21319087Y-21506628D01*
X21404801Y-21706628D02*
X21404801Y-21601866D01*
X21404801Y-21601866D02*
X21395277Y-21582818D01*
X21395277Y-21582818D02*
X21376230Y-21573294D01*
X21376230Y-21573294D02*
X21347658Y-21573294D01*
X21347658Y-21573294D02*
X21328611Y-21582818D01*
X21328611Y-21582818D02*
X21319087Y-21592342D01*
X21528611Y-21706628D02*
X21509563Y-21697104D01*
X21509563Y-21697104D02*
X21500039Y-21687580D01*
X21500039Y-21687580D02*
X21490515Y-21668532D01*
X21490515Y-21668532D02*
X21490515Y-21611390D01*
X21490515Y-21611390D02*
X21500039Y-21592342D01*
X21500039Y-21592342D02*
X21509563Y-21582818D01*
X21509563Y-21582818D02*
X21528611Y-21573294D01*
X21528611Y-21573294D02*
X21557182Y-21573294D01*
X21557182Y-21573294D02*
X21576230Y-21582818D01*
X21576230Y-21582818D02*
X21585753Y-21592342D01*
X21585753Y-21592342D02*
X21595277Y-21611390D01*
X21595277Y-21611390D02*
X21595277Y-21668532D01*
X21595277Y-21668532D02*
X21585753Y-21687580D01*
X21585753Y-21687580D02*
X21576230Y-21697104D01*
X21576230Y-21697104D02*
X21557182Y-21706628D01*
X21557182Y-21706628D02*
X21528611Y-21706628D01*
X21709563Y-21706628D02*
X21690515Y-21697104D01*
X21690515Y-21697104D02*
X21680992Y-21678056D01*
X21680992Y-21678056D02*
X21680992Y-21506628D01*
X21861944Y-21697104D02*
X21842896Y-21706628D01*
X21842896Y-21706628D02*
X21804801Y-21706628D01*
X21804801Y-21706628D02*
X21785753Y-21697104D01*
X21785753Y-21697104D02*
X21776230Y-21678056D01*
X21776230Y-21678056D02*
X21776230Y-21601866D01*
X21776230Y-21601866D02*
X21785753Y-21582818D01*
X21785753Y-21582818D02*
X21804801Y-21573294D01*
X21804801Y-21573294D02*
X21842896Y-21573294D01*
X21842896Y-21573294D02*
X21861944Y-21582818D01*
X21861944Y-21582818D02*
X21871468Y-21601866D01*
X21871468Y-21601866D02*
X21871468Y-21620913D01*
X21871468Y-21620913D02*
X21776230Y-21639961D01*
X21947658Y-21697104D02*
X21966706Y-21706628D01*
X21966706Y-21706628D02*
X22004801Y-21706628D01*
X22004801Y-21706628D02*
X22023849Y-21697104D01*
X22023849Y-21697104D02*
X22033373Y-21678056D01*
X22033373Y-21678056D02*
X22033373Y-21668532D01*
X22033373Y-21668532D02*
X22023849Y-21649485D01*
X22023849Y-21649485D02*
X22004801Y-21639961D01*
X22004801Y-21639961D02*
X21976230Y-21639961D01*
X21976230Y-21639961D02*
X21957182Y-21630437D01*
X21957182Y-21630437D02*
X21947658Y-21611390D01*
X21947658Y-21611390D02*
X21947658Y-21601866D01*
X21947658Y-21601866D02*
X21957182Y-21582818D01*
X21957182Y-21582818D02*
X21976230Y-21573294D01*
X21976230Y-21573294D02*
X22004801Y-21573294D01*
X22004801Y-21573294D02*
X22023849Y-21582818D01*
X22100039Y-21782818D02*
X22109563Y-21773294D01*
X22109563Y-21773294D02*
X22128611Y-21744723D01*
X22128611Y-21744723D02*
X22138134Y-21725675D01*
X22138134Y-21725675D02*
X22147658Y-21697104D01*
X22147658Y-21697104D02*
X22157182Y-21649485D01*
X22157182Y-21649485D02*
X22157182Y-21611390D01*
X22157182Y-21611390D02*
X22147658Y-21563770D01*
X22147658Y-21563770D02*
X22138134Y-21535199D01*
X22138134Y-21535199D02*
X22128611Y-21516151D01*
X22128611Y-21516151D02*
X22109563Y-21487580D01*
X22109563Y-21487580D02*
X22100039Y-21478056D01*
M02*
