%TF.GenerationSoftware,KiCad,Pcbnew,7.0.9*%
%TF.CreationDate,2023-11-22T09:36:00+00:00*%
%TF.ProjectId,vee_board_routed,7665655f-626f-4617-9264-5f726f757465,v1.0.0*%
%TF.SameCoordinates,Original*%
%TF.FileFunction,Legend,Top*%
%TF.FilePolarity,Positive*%
%FSLAX46Y46*%
G04 Gerber Fmt 4.6, Leading zero omitted, Abs format (unit mm)*
G04 Created by KiCad (PCBNEW 7.0.9) date 2023-11-22 09:36:00*
%MOMM*%
%LPD*%
G01*
G04 APERTURE LIST*
%ADD10C,0.150000*%
%ADD11C,0.500000*%
%ADD12C,0.200000*%
%ADD13C,0.120000*%
G04 APERTURE END LIST*
D10*
X194461541Y-163253152D02*
X194699636Y-163919819D01*
X194699636Y-163919819D02*
X194937731Y-163253152D01*
X195699636Y-163872200D02*
X195604398Y-163919819D01*
X195604398Y-163919819D02*
X195413922Y-163919819D01*
X195413922Y-163919819D02*
X195318684Y-163872200D01*
X195318684Y-163872200D02*
X195271065Y-163776961D01*
X195271065Y-163776961D02*
X195271065Y-163396009D01*
X195271065Y-163396009D02*
X195318684Y-163300771D01*
X195318684Y-163300771D02*
X195413922Y-163253152D01*
X195413922Y-163253152D02*
X195604398Y-163253152D01*
X195604398Y-163253152D02*
X195699636Y-163300771D01*
X195699636Y-163300771D02*
X195747255Y-163396009D01*
X195747255Y-163396009D02*
X195747255Y-163491247D01*
X195747255Y-163491247D02*
X195271065Y-163586485D01*
X196556779Y-163872200D02*
X196461541Y-163919819D01*
X196461541Y-163919819D02*
X196271065Y-163919819D01*
X196271065Y-163919819D02*
X196175827Y-163872200D01*
X196175827Y-163872200D02*
X196128208Y-163776961D01*
X196128208Y-163776961D02*
X196128208Y-163396009D01*
X196128208Y-163396009D02*
X196175827Y-163300771D01*
X196175827Y-163300771D02*
X196271065Y-163253152D01*
X196271065Y-163253152D02*
X196461541Y-163253152D01*
X196461541Y-163253152D02*
X196556779Y-163300771D01*
X196556779Y-163300771D02*
X196604398Y-163396009D01*
X196604398Y-163396009D02*
X196604398Y-163491247D01*
X196604398Y-163491247D02*
X196128208Y-163586485D01*
X196794875Y-164015057D02*
X197556779Y-164015057D01*
X197794875Y-163919819D02*
X197794875Y-162919819D01*
X197794875Y-163300771D02*
X197890113Y-163253152D01*
X197890113Y-163253152D02*
X198080589Y-163253152D01*
X198080589Y-163253152D02*
X198175827Y-163300771D01*
X198175827Y-163300771D02*
X198223446Y-163348390D01*
X198223446Y-163348390D02*
X198271065Y-163443628D01*
X198271065Y-163443628D02*
X198271065Y-163729342D01*
X198271065Y-163729342D02*
X198223446Y-163824580D01*
X198223446Y-163824580D02*
X198175827Y-163872200D01*
X198175827Y-163872200D02*
X198080589Y-163919819D01*
X198080589Y-163919819D02*
X197890113Y-163919819D01*
X197890113Y-163919819D02*
X197794875Y-163872200D01*
X198842494Y-163919819D02*
X198747256Y-163872200D01*
X198747256Y-163872200D02*
X198699637Y-163824580D01*
X198699637Y-163824580D02*
X198652018Y-163729342D01*
X198652018Y-163729342D02*
X198652018Y-163443628D01*
X198652018Y-163443628D02*
X198699637Y-163348390D01*
X198699637Y-163348390D02*
X198747256Y-163300771D01*
X198747256Y-163300771D02*
X198842494Y-163253152D01*
X198842494Y-163253152D02*
X198985351Y-163253152D01*
X198985351Y-163253152D02*
X199080589Y-163300771D01*
X199080589Y-163300771D02*
X199128208Y-163348390D01*
X199128208Y-163348390D02*
X199175827Y-163443628D01*
X199175827Y-163443628D02*
X199175827Y-163729342D01*
X199175827Y-163729342D02*
X199128208Y-163824580D01*
X199128208Y-163824580D02*
X199080589Y-163872200D01*
X199080589Y-163872200D02*
X198985351Y-163919819D01*
X198985351Y-163919819D02*
X198842494Y-163919819D01*
X200032970Y-163919819D02*
X200032970Y-163396009D01*
X200032970Y-163396009D02*
X199985351Y-163300771D01*
X199985351Y-163300771D02*
X199890113Y-163253152D01*
X199890113Y-163253152D02*
X199699637Y-163253152D01*
X199699637Y-163253152D02*
X199604399Y-163300771D01*
X200032970Y-163872200D02*
X199937732Y-163919819D01*
X199937732Y-163919819D02*
X199699637Y-163919819D01*
X199699637Y-163919819D02*
X199604399Y-163872200D01*
X199604399Y-163872200D02*
X199556780Y-163776961D01*
X199556780Y-163776961D02*
X199556780Y-163681723D01*
X199556780Y-163681723D02*
X199604399Y-163586485D01*
X199604399Y-163586485D02*
X199699637Y-163538866D01*
X199699637Y-163538866D02*
X199937732Y-163538866D01*
X199937732Y-163538866D02*
X200032970Y-163491247D01*
X200509161Y-163919819D02*
X200509161Y-163253152D01*
X200509161Y-163443628D02*
X200556780Y-163348390D01*
X200556780Y-163348390D02*
X200604399Y-163300771D01*
X200604399Y-163300771D02*
X200699637Y-163253152D01*
X200699637Y-163253152D02*
X200794875Y-163253152D01*
X201556780Y-163919819D02*
X201556780Y-162919819D01*
X201556780Y-163872200D02*
X201461542Y-163919819D01*
X201461542Y-163919819D02*
X201271066Y-163919819D01*
X201271066Y-163919819D02*
X201175828Y-163872200D01*
X201175828Y-163872200D02*
X201128209Y-163824580D01*
X201128209Y-163824580D02*
X201080590Y-163729342D01*
X201080590Y-163729342D02*
X201080590Y-163443628D01*
X201080590Y-163443628D02*
X201128209Y-163348390D01*
X201128209Y-163348390D02*
X201175828Y-163300771D01*
X201175828Y-163300771D02*
X201271066Y-163253152D01*
X201271066Y-163253152D02*
X201461542Y-163253152D01*
X201461542Y-163253152D02*
X201556780Y-163300771D01*
X194556779Y-165529819D02*
X194556779Y-164529819D01*
X194556779Y-164910771D02*
X194652017Y-164863152D01*
X194652017Y-164863152D02*
X194842493Y-164863152D01*
X194842493Y-164863152D02*
X194937731Y-164910771D01*
X194937731Y-164910771D02*
X194985350Y-164958390D01*
X194985350Y-164958390D02*
X195032969Y-165053628D01*
X195032969Y-165053628D02*
X195032969Y-165339342D01*
X195032969Y-165339342D02*
X194985350Y-165434580D01*
X194985350Y-165434580D02*
X194937731Y-165482200D01*
X194937731Y-165482200D02*
X194842493Y-165529819D01*
X194842493Y-165529819D02*
X194652017Y-165529819D01*
X194652017Y-165529819D02*
X194556779Y-165482200D01*
X195366303Y-164863152D02*
X195604398Y-165529819D01*
X195842493Y-164863152D02*
X195604398Y-165529819D01*
X195604398Y-165529819D02*
X195509160Y-165767914D01*
X195509160Y-165767914D02*
X195461541Y-165815533D01*
X195461541Y-165815533D02*
X195366303Y-165863152D01*
X196890113Y-164863152D02*
X197128208Y-165529819D01*
X197128208Y-165529819D02*
X197366303Y-164863152D01*
X197509161Y-165625057D02*
X198271065Y-165625057D01*
X198413923Y-164529819D02*
X199080589Y-164529819D01*
X199080589Y-164529819D02*
X198413923Y-165529819D01*
X198413923Y-165529819D02*
X199080589Y-165529819D01*
X199890113Y-165529819D02*
X199890113Y-165006009D01*
X199890113Y-165006009D02*
X199842494Y-164910771D01*
X199842494Y-164910771D02*
X199747256Y-164863152D01*
X199747256Y-164863152D02*
X199556780Y-164863152D01*
X199556780Y-164863152D02*
X199461542Y-164910771D01*
X199890113Y-165482200D02*
X199794875Y-165529819D01*
X199794875Y-165529819D02*
X199556780Y-165529819D01*
X199556780Y-165529819D02*
X199461542Y-165482200D01*
X199461542Y-165482200D02*
X199413923Y-165386961D01*
X199413923Y-165386961D02*
X199413923Y-165291723D01*
X199413923Y-165291723D02*
X199461542Y-165196485D01*
X199461542Y-165196485D02*
X199556780Y-165148866D01*
X199556780Y-165148866D02*
X199794875Y-165148866D01*
X199794875Y-165148866D02*
X199890113Y-165101247D01*
X200366304Y-165529819D02*
X200366304Y-164529819D01*
X200461542Y-165148866D02*
X200747256Y-165529819D01*
X200747256Y-164863152D02*
X200366304Y-165244104D01*
D11*
X272585137Y-167082095D02*
X274251804Y-172082095D01*
X274251804Y-172082095D02*
X275918470Y-167082095D01*
X276394661Y-172558285D02*
X280204184Y-172558285D01*
D12*
%TO.C,S37*%
X282170000Y-164370000D02*
X282170000Y-158170000D01*
X283120000Y-164370000D02*
X282170000Y-164370000D01*
X285320000Y-164370000D02*
X286270000Y-164370000D01*
X286270000Y-164370000D02*
X286270000Y-158170000D01*
X282170000Y-158170000D02*
X283120000Y-158170000D01*
X286270000Y-158170000D02*
X285320000Y-158170000D01*
X283120000Y-163870000D02*
G75*
G03*
X283120000Y-163870000I-100000J0D01*
G01*
D10*
%TO.C,MCU1*%
X269870000Y-116530000D02*
X267330000Y-116530000D01*
X269870000Y-116530000D02*
X269870000Y-119070000D01*
X269870000Y-119070000D02*
X267330000Y-119070000D01*
X267330000Y-119070000D02*
X267330000Y-116530000D01*
D13*
%TO.C,_1*%
X277280000Y-161730000D02*
X277280000Y-153910000D01*
X277280000Y-160130000D02*
X276360000Y-160130000D01*
X277280000Y-153910000D02*
X271160000Y-153910000D01*
X276520000Y-157770000D02*
X276520000Y-156170000D01*
X276520000Y-156170000D02*
X275520000Y-156170000D01*
X276360000Y-161730000D02*
X277280000Y-161730000D01*
X276360000Y-160130000D02*
X276360000Y-161730000D01*
X276080000Y-160130000D02*
X276360000Y-160130000D01*
X276080000Y-160130000D02*
X276080000Y-161345000D01*
X276020000Y-156170000D02*
X276020000Y-153910000D01*
X275520000Y-157770000D02*
X276520000Y-157770000D01*
X275520000Y-156170000D02*
X275520000Y-157770000D01*
X275520000Y-156170000D02*
X275520000Y-153910000D01*
X274720000Y-158270000D02*
X273720000Y-158270000D01*
X274720000Y-153910000D02*
X274720000Y-158270000D01*
X273720000Y-158270000D02*
X273720000Y-153910000D01*
X272920000Y-157770000D02*
X271920000Y-157770000D01*
X272920000Y-156170000D02*
X272920000Y-157770000D01*
X272080000Y-161730000D02*
X272080000Y-160130000D01*
X272080000Y-160130000D02*
X272360000Y-160130000D01*
X271920000Y-157770000D02*
X271920000Y-156170000D01*
X271920000Y-156170000D02*
X272920000Y-156170000D01*
X271160000Y-161730000D02*
X272080000Y-161730000D01*
X271160000Y-160130000D02*
X272080000Y-160130000D01*
X271160000Y-153910000D02*
X271160000Y-161730000D01*
%TD*%
M02*
