%TF.GenerationSoftware,KiCad,Pcbnew,7.0.9*%
%TF.CreationDate,2023-11-22T09:35:42+00:00*%
%TF.ProjectId,vee_board_routed,7665655f-626f-4617-9264-5f726f757465,v1.0.0*%
%TF.SameCoordinates,Original*%
%TF.FileFunction,Drillmap*%
%TF.FilePolarity,Positive*%
%FSLAX45Y45*%
G04 Gerber Fmt 4.5, Leading zero omitted, Abs format (unit mm)*
G04 Created by KiCad (PCBNEW 7.0.9) date 2023-11-22 09:35:42*
%MOMM*%
%LPD*%
G01*
G04 APERTURE LIST*
%ADD10C,0.150000*%
%ADD11C,0.200000*%
%ADD12C,0.100000*%
%ADD13C,0.170180*%
%ADD14C,0.300000*%
%ADD15C,0.342900*%
G04 APERTURE END LIST*
D10*
X24581586Y-10973207D02*
X24702000Y-11107000D01*
X19251317Y-10906997D02*
G75*
G03*
X19068933Y-11024927I3J-200003D01*
G01*
X18995067Y-11189073D02*
X19068933Y-11024927D01*
X27982458Y-18094258D02*
X26913754Y-19565202D01*
X25075724Y-18534423D02*
X23735937Y-18099100D01*
X26378343Y-11213421D02*
G75*
G03*
X26201584Y-11107000I-176763J-93589D01*
G01*
X20686384Y-10907000D02*
G75*
G03*
X20789632Y-10878288I7J199980D01*
G01*
X26378341Y-11213422D02*
X26445659Y-11340577D01*
X26634394Y-19609448D02*
X25351962Y-18677707D01*
X25106333Y-18547265D02*
G75*
G03*
X25075724Y-18534424I-92453J-177475D01*
G01*
X26622416Y-11447000D02*
X28462000Y-11447000D01*
X22586204Y-10731558D02*
X22856697Y-10881832D01*
X22586205Y-10731556D02*
G75*
G03*
X22491436Y-10706403I-97115J-174794D01*
G01*
X17342000Y-16747000D02*
X20968509Y-16747000D01*
X21153209Y-16870278D02*
G75*
G03*
X20968509Y-16747000I-184699J-76722D01*
G01*
X22856695Y-10881834D02*
G75*
G03*
X22953825Y-10907000I97135J174874D01*
G01*
X27982458Y-18094258D02*
G75*
G03*
X28003995Y-18056615I-161858J117588D01*
G01*
X25326817Y-18662141D02*
X25106333Y-18547265D01*
X24581585Y-10973208D02*
G75*
G03*
X24432927Y-10907000I-148655J-133782D01*
G01*
X21590791Y-17923722D02*
G75*
G03*
X21775491Y-18047000I184699J76722D01*
G01*
X23425129Y-18047000D02*
X21775491Y-18047000D01*
X28645341Y-16585220D02*
X28003995Y-18056615D01*
X17142000Y-16547000D02*
G75*
G03*
X17342000Y-16747000I200000J0D01*
G01*
X20789632Y-10878288D02*
X21053277Y-10719369D01*
X21158886Y-10690672D02*
G75*
G03*
X21053277Y-10719370I-2366J-199968D01*
G01*
X28662000Y-11647000D02*
G75*
G03*
X28462000Y-11447000I-200000J0D01*
G01*
X26445657Y-11340578D02*
G75*
G03*
X26622416Y-11447000I176763J93589D01*
G01*
X23707638Y-18092138D02*
X23458633Y-18049826D01*
X26634394Y-19609449D02*
G75*
G03*
X26913754Y-19565202I117556J161809D01*
G01*
X28645340Y-16585220D02*
G75*
G03*
X28662000Y-16505307I-183310J79910D01*
G01*
X28662000Y-11647000D02*
X28662000Y-16505307D01*
X23735937Y-18099100D02*
G75*
G03*
X23707638Y-18092138I-61817J-190270D01*
G01*
X22953825Y-10907000D02*
X24432927Y-10907000D01*
X18812683Y-11307003D02*
G75*
G03*
X18995067Y-11189073I-3J200003D01*
G01*
X17342000Y-11307000D02*
X18812683Y-11307000D01*
X21158886Y-10690672D02*
X22491436Y-10706403D01*
X17342000Y-11307000D02*
G75*
G03*
X17142000Y-11507000I0J-200000D01*
G01*
X25351962Y-18677708D02*
G75*
G03*
X25326817Y-18662141I-117582J-161832D01*
G01*
X17142000Y-16547000D02*
X17142000Y-11507000D01*
X19251317Y-10907000D02*
X20686384Y-10907000D01*
X23458633Y-18049826D02*
G75*
G03*
X23425129Y-18047000I-33503J-197164D01*
G01*
X21590792Y-17923721D02*
X21153208Y-16870279D01*
X24702000Y-11107000D02*
X26201584Y-11107000D01*
D11*
D12*
X28460000Y-15032000D02*
X28550000Y-15122000D01*
X28550000Y-15032000D02*
X28460000Y-15122000D01*
X28460000Y-15032000D02*
X28550000Y-15122000D01*
X28550000Y-15032000D02*
X28460000Y-15122000D01*
X28460000Y-15332000D02*
X28550000Y-15422000D01*
X28550000Y-15332000D02*
X28460000Y-15422000D01*
X28460000Y-15332000D02*
X28550000Y-15422000D01*
X28550000Y-15332000D02*
X28460000Y-15422000D01*
D13*
X17757090Y-12327000D02*
G75*
G03*
X17757090Y-12327000I-85090J0D01*
G01*
X17757090Y-12327000D02*
G75*
G03*
X17757090Y-12327000I-85090J0D01*
G01*
X17757090Y-14027000D02*
G75*
G03*
X17757090Y-14027000I-85090J0D01*
G01*
X17757090Y-14027000D02*
G75*
G03*
X17757090Y-14027000I-85090J0D01*
G01*
X17757090Y-15727000D02*
G75*
G03*
X17757090Y-15727000I-85090J0D01*
G01*
X17757090Y-15727000D02*
G75*
G03*
X17757090Y-15727000I-85090J0D01*
G01*
X18857090Y-12327000D02*
G75*
G03*
X18857090Y-12327000I-85090J0D01*
G01*
X18857090Y-12327000D02*
G75*
G03*
X18857090Y-12327000I-85090J0D01*
G01*
X18857090Y-14027000D02*
G75*
G03*
X18857090Y-14027000I-85090J0D01*
G01*
X18857090Y-14027000D02*
G75*
G03*
X18857090Y-14027000I-85090J0D01*
G01*
X18857090Y-15727000D02*
G75*
G03*
X18857090Y-15727000I-85090J0D01*
G01*
X18857090Y-15727000D02*
G75*
G03*
X18857090Y-15727000I-85090J0D01*
G01*
X19557090Y-11927000D02*
G75*
G03*
X19557090Y-11927000I-85090J0D01*
G01*
X19557090Y-11927000D02*
G75*
G03*
X19557090Y-11927000I-85090J0D01*
G01*
X19557090Y-13627000D02*
G75*
G03*
X19557090Y-13627000I-85090J0D01*
G01*
X19557090Y-13627000D02*
G75*
G03*
X19557090Y-13627000I-85090J0D01*
G01*
X19557090Y-15327000D02*
G75*
G03*
X19557090Y-15327000I-85090J0D01*
G01*
X19557090Y-15327000D02*
G75*
G03*
X19557090Y-15327000I-85090J0D01*
G01*
X20657090Y-11927000D02*
G75*
G03*
X20657090Y-11927000I-85090J0D01*
G01*
X20657090Y-11927000D02*
G75*
G03*
X20657090Y-11927000I-85090J0D01*
G01*
X20657090Y-13627000D02*
G75*
G03*
X20657090Y-13627000I-85090J0D01*
G01*
X20657090Y-13627000D02*
G75*
G03*
X20657090Y-13627000I-85090J0D01*
G01*
X20657090Y-15327000D02*
G75*
G03*
X20657090Y-15327000I-85090J0D01*
G01*
X20657090Y-15327000D02*
G75*
G03*
X20657090Y-15327000I-85090J0D01*
G01*
X21357090Y-11727000D02*
G75*
G03*
X21357090Y-11727000I-85090J0D01*
G01*
X21357090Y-11727000D02*
G75*
G03*
X21357090Y-11727000I-85090J0D01*
G01*
X21357090Y-13427000D02*
G75*
G03*
X21357090Y-13427000I-85090J0D01*
G01*
X21357090Y-13427000D02*
G75*
G03*
X21357090Y-13427000I-85090J0D01*
G01*
X21357090Y-15127000D02*
G75*
G03*
X21357090Y-15127000I-85090J0D01*
G01*
X21357090Y-15127000D02*
G75*
G03*
X21357090Y-15127000I-85090J0D01*
G01*
X22257090Y-17027000D02*
G75*
G03*
X22257090Y-17027000I-85090J0D01*
G01*
X22257090Y-17027000D02*
G75*
G03*
X22257090Y-17027000I-85090J0D01*
G01*
X22457090Y-11727000D02*
G75*
G03*
X22457090Y-11727000I-85090J0D01*
G01*
X22457090Y-11727000D02*
G75*
G03*
X22457090Y-11727000I-85090J0D01*
G01*
X22457090Y-13427000D02*
G75*
G03*
X22457090Y-13427000I-85090J0D01*
G01*
X22457090Y-13427000D02*
G75*
G03*
X22457090Y-13427000I-85090J0D01*
G01*
X22457090Y-15127000D02*
G75*
G03*
X22457090Y-15127000I-85090J0D01*
G01*
X22457090Y-15127000D02*
G75*
G03*
X22457090Y-15127000I-85090J0D01*
G01*
X23157090Y-11927000D02*
G75*
G03*
X23157090Y-11927000I-85090J0D01*
G01*
X23157090Y-11927000D02*
G75*
G03*
X23157090Y-11927000I-85090J0D01*
G01*
X23157090Y-13627000D02*
G75*
G03*
X23157090Y-13627000I-85090J0D01*
G01*
X23157090Y-13627000D02*
G75*
G03*
X23157090Y-13627000I-85090J0D01*
G01*
X23157090Y-15327000D02*
G75*
G03*
X23157090Y-15327000I-85090J0D01*
G01*
X23157090Y-15327000D02*
G75*
G03*
X23157090Y-15327000I-85090J0D01*
G01*
X23357090Y-17027000D02*
G75*
G03*
X23357090Y-17027000I-85090J0D01*
G01*
X23357090Y-17027000D02*
G75*
G03*
X23357090Y-17027000I-85090J0D01*
G01*
X24257090Y-11927000D02*
G75*
G03*
X24257090Y-11927000I-85090J0D01*
G01*
X24257090Y-11927000D02*
G75*
G03*
X24257090Y-11927000I-85090J0D01*
G01*
X24257090Y-13627000D02*
G75*
G03*
X24257090Y-13627000I-85090J0D01*
G01*
X24257090Y-13627000D02*
G75*
G03*
X24257090Y-13627000I-85090J0D01*
G01*
X24257090Y-15327000D02*
G75*
G03*
X24257090Y-15327000I-85090J0D01*
G01*
X24257090Y-15327000D02*
G75*
G03*
X24257090Y-15327000I-85090J0D01*
G01*
X24284009Y-17177041D02*
G75*
G03*
X24284009Y-17177041I-85090J0D01*
G01*
X24284009Y-17177041D02*
G75*
G03*
X24284009Y-17177041I-85090J0D01*
G01*
X24957090Y-12127000D02*
G75*
G03*
X24957090Y-12127000I-85090J0D01*
G01*
X24957090Y-12127000D02*
G75*
G03*
X24957090Y-12127000I-85090J0D01*
G01*
X24957090Y-13827000D02*
G75*
G03*
X24957090Y-13827000I-85090J0D01*
G01*
X24957090Y-13827000D02*
G75*
G03*
X24957090Y-13827000I-85090J0D01*
G01*
X24957090Y-15527000D02*
G75*
G03*
X24957090Y-15527000I-85090J0D01*
G01*
X24957090Y-15527000D02*
G75*
G03*
X24957090Y-15527000I-85090J0D01*
G01*
X25330171Y-17516959D02*
G75*
G03*
X25330171Y-17516959I-85090J0D01*
G01*
X25330171Y-17516959D02*
G75*
G03*
X25330171Y-17516959I-85090J0D01*
G01*
X26057090Y-12127000D02*
G75*
G03*
X26057090Y-12127000I-85090J0D01*
G01*
X26057090Y-12127000D02*
G75*
G03*
X26057090Y-12127000I-85090J0D01*
G01*
X26057090Y-13827000D02*
G75*
G03*
X26057090Y-13827000I-85090J0D01*
G01*
X26057090Y-13827000D02*
G75*
G03*
X26057090Y-13827000I-85090J0D01*
G01*
X26057090Y-15527000D02*
G75*
G03*
X26057090Y-15527000I-85090J0D01*
G01*
X26057090Y-15527000D02*
G75*
G03*
X26057090Y-15527000I-85090J0D01*
G01*
X26162131Y-17943718D02*
G75*
G03*
X26162131Y-17943718I-85090J0D01*
G01*
X26162131Y-17943718D02*
G75*
G03*
X26162131Y-17943718I-85090J0D01*
G01*
X27052049Y-18590282D02*
G75*
G03*
X27052049Y-18590282I-85090J0D01*
G01*
X27052049Y-18590282D02*
G75*
G03*
X27052049Y-18590282I-85090J0D01*
G01*
D14*
X17722000Y-11802000D02*
X17722000Y-12102000D01*
X17572000Y-11952000D02*
X17872000Y-11952000D01*
X17722000Y-13502000D02*
X17722000Y-13802000D01*
X17572000Y-13652000D02*
X17872000Y-13652000D01*
X17722000Y-15202000D02*
X17722000Y-15502000D01*
X17572000Y-15352000D02*
X17872000Y-15352000D01*
X18222000Y-11582000D02*
X18222000Y-11882000D01*
X18072000Y-11732000D02*
X18372000Y-11732000D01*
X18222000Y-11582000D02*
X18222000Y-11882000D01*
X18072000Y-11732000D02*
X18372000Y-11732000D01*
X18222000Y-13282000D02*
X18222000Y-13582000D01*
X18072000Y-13432000D02*
X18372000Y-13432000D01*
X18222000Y-13282000D02*
X18222000Y-13582000D01*
X18072000Y-13432000D02*
X18372000Y-13432000D01*
X18222000Y-14982000D02*
X18222000Y-15282000D01*
X18072000Y-15132000D02*
X18372000Y-15132000D01*
X18222000Y-14982000D02*
X18222000Y-15282000D01*
X18072000Y-15132000D02*
X18372000Y-15132000D01*
X18722000Y-11802000D02*
X18722000Y-12102000D01*
X18572000Y-11952000D02*
X18872000Y-11952000D01*
X18722000Y-13502000D02*
X18722000Y-13802000D01*
X18572000Y-13652000D02*
X18872000Y-13652000D01*
X18722000Y-15202000D02*
X18722000Y-15502000D01*
X18572000Y-15352000D02*
X18872000Y-15352000D01*
X19522000Y-11402000D02*
X19522000Y-11702000D01*
X19372000Y-11552000D02*
X19672000Y-11552000D01*
X19522000Y-13102000D02*
X19522000Y-13402000D01*
X19372000Y-13252000D02*
X19672000Y-13252000D01*
X19522000Y-14802000D02*
X19522000Y-15102000D01*
X19372000Y-14952000D02*
X19672000Y-14952000D01*
X20022000Y-11182000D02*
X20022000Y-11482000D01*
X19872000Y-11332000D02*
X20172000Y-11332000D01*
X20022000Y-11182000D02*
X20022000Y-11482000D01*
X19872000Y-11332000D02*
X20172000Y-11332000D01*
X20022000Y-12882000D02*
X20022000Y-13182000D01*
X19872000Y-13032000D02*
X20172000Y-13032000D01*
X20022000Y-12882000D02*
X20022000Y-13182000D01*
X19872000Y-13032000D02*
X20172000Y-13032000D01*
X20022000Y-14582000D02*
X20022000Y-14882000D01*
X19872000Y-14732000D02*
X20172000Y-14732000D01*
X20022000Y-14582000D02*
X20022000Y-14882000D01*
X19872000Y-14732000D02*
X20172000Y-14732000D01*
X20522000Y-11402000D02*
X20522000Y-11702000D01*
X20372000Y-11552000D02*
X20672000Y-11552000D01*
X20522000Y-13102000D02*
X20522000Y-13402000D01*
X20372000Y-13252000D02*
X20672000Y-13252000D01*
X20522000Y-14802000D02*
X20522000Y-15102000D01*
X20372000Y-14952000D02*
X20672000Y-14952000D01*
X21322000Y-11202000D02*
X21322000Y-11502000D01*
X21172000Y-11352000D02*
X21472000Y-11352000D01*
X21322000Y-12902000D02*
X21322000Y-13202000D01*
X21172000Y-13052000D02*
X21472000Y-13052000D01*
X21322000Y-14602000D02*
X21322000Y-14902000D01*
X21172000Y-14752000D02*
X21472000Y-14752000D01*
X21822000Y-10982000D02*
X21822000Y-11282000D01*
X21672000Y-11132000D02*
X21972000Y-11132000D01*
X21822000Y-10982000D02*
X21822000Y-11282000D01*
X21672000Y-11132000D02*
X21972000Y-11132000D01*
X21822000Y-12682000D02*
X21822000Y-12982000D01*
X21672000Y-12832000D02*
X21972000Y-12832000D01*
X21822000Y-12682000D02*
X21822000Y-12982000D01*
X21672000Y-12832000D02*
X21972000Y-12832000D01*
X21822000Y-14382000D02*
X21822000Y-14682000D01*
X21672000Y-14532000D02*
X21972000Y-14532000D01*
X21822000Y-14382000D02*
X21822000Y-14682000D01*
X21672000Y-14532000D02*
X21972000Y-14532000D01*
X22222000Y-16502000D02*
X22222000Y-16802000D01*
X22072000Y-16652000D02*
X22372000Y-16652000D01*
X22322000Y-11202000D02*
X22322000Y-11502000D01*
X22172000Y-11352000D02*
X22472000Y-11352000D01*
X22322000Y-12902000D02*
X22322000Y-13202000D01*
X22172000Y-13052000D02*
X22472000Y-13052000D01*
X22322000Y-14602000D02*
X22322000Y-14902000D01*
X22172000Y-14752000D02*
X22472000Y-14752000D01*
X22722000Y-16282000D02*
X22722000Y-16582000D01*
X22572000Y-16432000D02*
X22872000Y-16432000D01*
X22722000Y-16282000D02*
X22722000Y-16582000D01*
X22572000Y-16432000D02*
X22872000Y-16432000D01*
X23122000Y-11402000D02*
X23122000Y-11702000D01*
X22972000Y-11552000D02*
X23272000Y-11552000D01*
X23122000Y-13102000D02*
X23122000Y-13402000D01*
X22972000Y-13252000D02*
X23272000Y-13252000D01*
X23122000Y-14802000D02*
X23122000Y-15102000D01*
X22972000Y-14952000D02*
X23272000Y-14952000D01*
X23222000Y-16502000D02*
X23222000Y-16802000D01*
X23072000Y-16652000D02*
X23372000Y-16652000D01*
X23622000Y-11182000D02*
X23622000Y-11482000D01*
X23472000Y-11332000D02*
X23772000Y-11332000D01*
X23622000Y-11182000D02*
X23622000Y-11482000D01*
X23472000Y-11332000D02*
X23772000Y-11332000D01*
X23622000Y-12882000D02*
X23622000Y-13182000D01*
X23472000Y-13032000D02*
X23772000Y-13032000D01*
X23622000Y-12882000D02*
X23622000Y-13182000D01*
X23472000Y-13032000D02*
X23772000Y-13032000D01*
X23622000Y-14582000D02*
X23622000Y-14882000D01*
X23472000Y-14732000D02*
X23772000Y-14732000D01*
X23622000Y-14582000D02*
X23622000Y-14882000D01*
X23472000Y-14732000D02*
X23772000Y-14732000D01*
X24122000Y-11402000D02*
X24122000Y-11702000D01*
X23972000Y-11552000D02*
X24272000Y-11552000D01*
X24122000Y-13102000D02*
X24122000Y-13402000D01*
X23972000Y-13252000D02*
X24272000Y-13252000D01*
X24122000Y-14802000D02*
X24122000Y-15102000D01*
X23972000Y-14952000D02*
X24272000Y-14952000D01*
X24362353Y-16685845D02*
X24362353Y-16985845D01*
X24212353Y-16835845D02*
X24512353Y-16835845D01*
X24905865Y-16631121D02*
X24905865Y-16931121D01*
X24755865Y-16781121D02*
X25055865Y-16781121D01*
X24905865Y-16631121D02*
X24905865Y-16931121D01*
X24755865Y-16781121D02*
X25055865Y-16781121D01*
X24922000Y-11602000D02*
X24922000Y-11902000D01*
X24772000Y-11752000D02*
X25072000Y-11752000D01*
X24922000Y-13302000D02*
X24922000Y-13602000D01*
X24772000Y-13452000D02*
X25072000Y-13452000D01*
X24922000Y-15002000D02*
X24922000Y-15302000D01*
X24772000Y-15152000D02*
X25072000Y-15152000D01*
X25313410Y-16994862D02*
X25313410Y-17294862D01*
X25163410Y-17144862D02*
X25463410Y-17144862D01*
X25422000Y-11382000D02*
X25422000Y-11682000D01*
X25272000Y-11532000D02*
X25572000Y-11532000D01*
X25422000Y-11382000D02*
X25422000Y-11682000D01*
X25272000Y-11532000D02*
X25572000Y-11532000D01*
X25422000Y-13082000D02*
X25422000Y-13382000D01*
X25272000Y-13232000D02*
X25572000Y-13232000D01*
X25422000Y-13082000D02*
X25422000Y-13382000D01*
X25272000Y-13232000D02*
X25572000Y-13232000D01*
X25422000Y-14782000D02*
X25422000Y-15082000D01*
X25272000Y-14932000D02*
X25572000Y-14932000D01*
X25422000Y-14782000D02*
X25422000Y-15082000D01*
X25272000Y-14932000D02*
X25572000Y-14932000D01*
X25922000Y-11602000D02*
X25922000Y-11902000D01*
X25772000Y-11752000D02*
X26072000Y-11752000D01*
X25922000Y-13302000D02*
X25922000Y-13602000D01*
X25772000Y-13452000D02*
X26072000Y-13452000D01*
X25922000Y-15002000D02*
X25922000Y-15302000D01*
X25772000Y-15152000D02*
X26072000Y-15152000D01*
X26337911Y-17519726D02*
X26337911Y-17819726D01*
X26187911Y-17669726D02*
X26487911Y-17669726D01*
X26871732Y-17635635D02*
X26871732Y-17935635D01*
X26721732Y-17785635D02*
X27021732Y-17785635D01*
X26871732Y-17635635D02*
X26871732Y-17935635D01*
X26721732Y-17785635D02*
X27021732Y-17785635D01*
X27146928Y-18107511D02*
X27146928Y-18407511D01*
X26996928Y-18257511D02*
X27296928Y-18257511D01*
D15*
X18343235Y-12448235D02*
X18343235Y-12205765D01*
X18100765Y-12205765D01*
X18100765Y-12448235D01*
X18343235Y-12448235D01*
X18343235Y-12448235D02*
X18343235Y-12205765D01*
X18100765Y-12205765D01*
X18100765Y-12448235D01*
X18343235Y-12448235D01*
X18343235Y-14148235D02*
X18343235Y-13905765D01*
X18100765Y-13905765D01*
X18100765Y-14148235D01*
X18343235Y-14148235D01*
X18343235Y-14148235D02*
X18343235Y-13905765D01*
X18100765Y-13905765D01*
X18100765Y-14148235D01*
X18343235Y-14148235D01*
X18343235Y-15848235D02*
X18343235Y-15605765D01*
X18100765Y-15605765D01*
X18100765Y-15848235D01*
X18343235Y-15848235D01*
X18343235Y-15848235D02*
X18343235Y-15605765D01*
X18100765Y-15605765D01*
X18100765Y-15848235D01*
X18343235Y-15848235D01*
X20143235Y-12048235D02*
X20143235Y-11805765D01*
X19900765Y-11805765D01*
X19900765Y-12048235D01*
X20143235Y-12048235D01*
X20143235Y-12048235D02*
X20143235Y-11805765D01*
X19900765Y-11805765D01*
X19900765Y-12048235D01*
X20143235Y-12048235D01*
X20143235Y-13748235D02*
X20143235Y-13505765D01*
X19900765Y-13505765D01*
X19900765Y-13748235D01*
X20143235Y-13748235D01*
X20143235Y-13748235D02*
X20143235Y-13505765D01*
X19900765Y-13505765D01*
X19900765Y-13748235D01*
X20143235Y-13748235D01*
X20143235Y-15448235D02*
X20143235Y-15205765D01*
X19900765Y-15205765D01*
X19900765Y-15448235D01*
X20143235Y-15448235D01*
X20143235Y-15448235D02*
X20143235Y-15205765D01*
X19900765Y-15205765D01*
X19900765Y-15448235D01*
X20143235Y-15448235D01*
X21943235Y-11848235D02*
X21943235Y-11605765D01*
X21700765Y-11605765D01*
X21700765Y-11848235D01*
X21943235Y-11848235D01*
X21943235Y-11848235D02*
X21943235Y-11605765D01*
X21700765Y-11605765D01*
X21700765Y-11848235D01*
X21943235Y-11848235D01*
X21943235Y-13548235D02*
X21943235Y-13305765D01*
X21700765Y-13305765D01*
X21700765Y-13548235D01*
X21943235Y-13548235D01*
X21943235Y-13548235D02*
X21943235Y-13305765D01*
X21700765Y-13305765D01*
X21700765Y-13548235D01*
X21943235Y-13548235D01*
X21943235Y-15248235D02*
X21943235Y-15005765D01*
X21700765Y-15005765D01*
X21700765Y-15248235D01*
X21943235Y-15248235D01*
X21943235Y-15248235D02*
X21943235Y-15005765D01*
X21700765Y-15005765D01*
X21700765Y-15248235D01*
X21943235Y-15248235D01*
X22843235Y-17148235D02*
X22843235Y-16905765D01*
X22600765Y-16905765D01*
X22600765Y-17148235D01*
X22843235Y-17148235D01*
X22843235Y-17148235D02*
X22843235Y-16905765D01*
X22600765Y-16905765D01*
X22600765Y-17148235D01*
X22843235Y-17148235D01*
X23743235Y-12048235D02*
X23743235Y-11805765D01*
X23500765Y-11805765D01*
X23500765Y-12048235D01*
X23743235Y-12048235D01*
X23743235Y-12048235D02*
X23743235Y-11805765D01*
X23500765Y-11805765D01*
X23500765Y-12048235D01*
X23743235Y-12048235D01*
X23743235Y-13748235D02*
X23743235Y-13505765D01*
X23500765Y-13505765D01*
X23500765Y-13748235D01*
X23743235Y-13748235D01*
X23743235Y-13748235D02*
X23743235Y-13505765D01*
X23500765Y-13505765D01*
X23500765Y-13748235D01*
X23743235Y-13748235D01*
X23743235Y-15448235D02*
X23743235Y-15205765D01*
X23500765Y-15205765D01*
X23500765Y-15448235D01*
X23743235Y-15448235D01*
X23743235Y-15448235D02*
X23743235Y-15205765D01*
X23500765Y-15205765D01*
X23500765Y-15448235D01*
X23743235Y-15448235D01*
X24843235Y-17468235D02*
X24843235Y-17225765D01*
X24600765Y-17225765D01*
X24600765Y-17468235D01*
X24843235Y-17468235D01*
X24843235Y-17468235D02*
X24843235Y-17225765D01*
X24600765Y-17225765D01*
X24600765Y-17468235D01*
X24843235Y-17468235D01*
X25543235Y-12248235D02*
X25543235Y-12005765D01*
X25300765Y-12005765D01*
X25300765Y-12248235D01*
X25543235Y-12248235D01*
X25543235Y-12248235D02*
X25543235Y-12005765D01*
X25300765Y-12005765D01*
X25300765Y-12248235D01*
X25543235Y-12248235D01*
X25543235Y-13948235D02*
X25543235Y-13705765D01*
X25300765Y-13705765D01*
X25300765Y-13948235D01*
X25543235Y-13948235D01*
X25543235Y-13948235D02*
X25543235Y-13705765D01*
X25300765Y-13705765D01*
X25300765Y-13948235D01*
X25543235Y-13948235D01*
X25543235Y-15648235D02*
X25543235Y-15405765D01*
X25300765Y-15405765D01*
X25300765Y-15648235D01*
X25543235Y-15648235D01*
X25543235Y-15648235D02*
X25543235Y-15405765D01*
X25300765Y-15405765D01*
X25300765Y-15648235D01*
X25543235Y-15648235D01*
X26643235Y-18388235D02*
X26643235Y-18145765D01*
X26400765Y-18145765D01*
X26400765Y-18388235D01*
X26643235Y-18388235D01*
X26643235Y-18388235D02*
X26643235Y-18145765D01*
X26400765Y-18145765D01*
X26400765Y-18388235D01*
X26643235Y-18388235D01*
D11*
X17395277Y-19966628D02*
X17395277Y-19766628D01*
X17395277Y-19766628D02*
X17442896Y-19766628D01*
X17442896Y-19766628D02*
X17471467Y-19776151D01*
X17471467Y-19776151D02*
X17490515Y-19795199D01*
X17490515Y-19795199D02*
X17500039Y-19814247D01*
X17500039Y-19814247D02*
X17509563Y-19852342D01*
X17509563Y-19852342D02*
X17509563Y-19880913D01*
X17509563Y-19880913D02*
X17500039Y-19919009D01*
X17500039Y-19919009D02*
X17490515Y-19938056D01*
X17490515Y-19938056D02*
X17471467Y-19957104D01*
X17471467Y-19957104D02*
X17442896Y-19966628D01*
X17442896Y-19966628D02*
X17395277Y-19966628D01*
X17595277Y-19966628D02*
X17595277Y-19833294D01*
X17595277Y-19871390D02*
X17604801Y-19852342D01*
X17604801Y-19852342D02*
X17614324Y-19842818D01*
X17614324Y-19842818D02*
X17633372Y-19833294D01*
X17633372Y-19833294D02*
X17652420Y-19833294D01*
X17719086Y-19966628D02*
X17719086Y-19833294D01*
X17719086Y-19766628D02*
X17709563Y-19776151D01*
X17709563Y-19776151D02*
X17719086Y-19785675D01*
X17719086Y-19785675D02*
X17728610Y-19776151D01*
X17728610Y-19776151D02*
X17719086Y-19766628D01*
X17719086Y-19766628D02*
X17719086Y-19785675D01*
X17842896Y-19966628D02*
X17823848Y-19957104D01*
X17823848Y-19957104D02*
X17814324Y-19938056D01*
X17814324Y-19938056D02*
X17814324Y-19766628D01*
X17947658Y-19966628D02*
X17928610Y-19957104D01*
X17928610Y-19957104D02*
X17919086Y-19938056D01*
X17919086Y-19938056D02*
X17919086Y-19766628D01*
X18176229Y-19966628D02*
X18176229Y-19766628D01*
X18176229Y-19766628D02*
X18242896Y-19909485D01*
X18242896Y-19909485D02*
X18309563Y-19766628D01*
X18309563Y-19766628D02*
X18309563Y-19966628D01*
X18490515Y-19966628D02*
X18490515Y-19861866D01*
X18490515Y-19861866D02*
X18480991Y-19842818D01*
X18480991Y-19842818D02*
X18461944Y-19833294D01*
X18461944Y-19833294D02*
X18423848Y-19833294D01*
X18423848Y-19833294D02*
X18404801Y-19842818D01*
X18490515Y-19957104D02*
X18471467Y-19966628D01*
X18471467Y-19966628D02*
X18423848Y-19966628D01*
X18423848Y-19966628D02*
X18404801Y-19957104D01*
X18404801Y-19957104D02*
X18395277Y-19938056D01*
X18395277Y-19938056D02*
X18395277Y-19919009D01*
X18395277Y-19919009D02*
X18404801Y-19899961D01*
X18404801Y-19899961D02*
X18423848Y-19890437D01*
X18423848Y-19890437D02*
X18471467Y-19890437D01*
X18471467Y-19890437D02*
X18490515Y-19880913D01*
X18585753Y-19833294D02*
X18585753Y-20033294D01*
X18585753Y-19842818D02*
X18604801Y-19833294D01*
X18604801Y-19833294D02*
X18642896Y-19833294D01*
X18642896Y-19833294D02*
X18661944Y-19842818D01*
X18661944Y-19842818D02*
X18671467Y-19852342D01*
X18671467Y-19852342D02*
X18680991Y-19871390D01*
X18680991Y-19871390D02*
X18680991Y-19928532D01*
X18680991Y-19928532D02*
X18671467Y-19947580D01*
X18671467Y-19947580D02*
X18661944Y-19957104D01*
X18661944Y-19957104D02*
X18642896Y-19966628D01*
X18642896Y-19966628D02*
X18604801Y-19966628D01*
X18604801Y-19966628D02*
X18585753Y-19957104D01*
X18766705Y-19947580D02*
X18776229Y-19957104D01*
X18776229Y-19957104D02*
X18766705Y-19966628D01*
X18766705Y-19966628D02*
X18757182Y-19957104D01*
X18757182Y-19957104D02*
X18766705Y-19947580D01*
X18766705Y-19947580D02*
X18766705Y-19966628D01*
X18766705Y-19842818D02*
X18776229Y-19852342D01*
X18776229Y-19852342D02*
X18766705Y-19861866D01*
X18766705Y-19861866D02*
X18757182Y-19852342D01*
X18757182Y-19852342D02*
X18766705Y-19842818D01*
X18766705Y-19842818D02*
X18766705Y-19861866D01*
D12*
X17044500Y-20250144D02*
X17134500Y-20340144D01*
X17134500Y-20250144D02*
X17044500Y-20340144D01*
D11*
X17433372Y-20186628D02*
X17452420Y-20186628D01*
X17452420Y-20186628D02*
X17471467Y-20196151D01*
X17471467Y-20196151D02*
X17480991Y-20205675D01*
X17480991Y-20205675D02*
X17490515Y-20224723D01*
X17490515Y-20224723D02*
X17500039Y-20262818D01*
X17500039Y-20262818D02*
X17500039Y-20310437D01*
X17500039Y-20310437D02*
X17490515Y-20348532D01*
X17490515Y-20348532D02*
X17480991Y-20367580D01*
X17480991Y-20367580D02*
X17471467Y-20377104D01*
X17471467Y-20377104D02*
X17452420Y-20386628D01*
X17452420Y-20386628D02*
X17433372Y-20386628D01*
X17433372Y-20386628D02*
X17414324Y-20377104D01*
X17414324Y-20377104D02*
X17404801Y-20367580D01*
X17404801Y-20367580D02*
X17395277Y-20348532D01*
X17395277Y-20348532D02*
X17385753Y-20310437D01*
X17385753Y-20310437D02*
X17385753Y-20262818D01*
X17385753Y-20262818D02*
X17395277Y-20224723D01*
X17395277Y-20224723D02*
X17404801Y-20205675D01*
X17404801Y-20205675D02*
X17414324Y-20196151D01*
X17414324Y-20196151D02*
X17433372Y-20186628D01*
X17585753Y-20367580D02*
X17595277Y-20377104D01*
X17595277Y-20377104D02*
X17585753Y-20386628D01*
X17585753Y-20386628D02*
X17576229Y-20377104D01*
X17576229Y-20377104D02*
X17585753Y-20367580D01*
X17585753Y-20367580D02*
X17585753Y-20386628D01*
X17690515Y-20386628D02*
X17728610Y-20386628D01*
X17728610Y-20386628D02*
X17747658Y-20377104D01*
X17747658Y-20377104D02*
X17757182Y-20367580D01*
X17757182Y-20367580D02*
X17776229Y-20339009D01*
X17776229Y-20339009D02*
X17785753Y-20300913D01*
X17785753Y-20300913D02*
X17785753Y-20224723D01*
X17785753Y-20224723D02*
X17776229Y-20205675D01*
X17776229Y-20205675D02*
X17766705Y-20196151D01*
X17766705Y-20196151D02*
X17747658Y-20186628D01*
X17747658Y-20186628D02*
X17709563Y-20186628D01*
X17709563Y-20186628D02*
X17690515Y-20196151D01*
X17690515Y-20196151D02*
X17680991Y-20205675D01*
X17680991Y-20205675D02*
X17671467Y-20224723D01*
X17671467Y-20224723D02*
X17671467Y-20272342D01*
X17671467Y-20272342D02*
X17680991Y-20291390D01*
X17680991Y-20291390D02*
X17690515Y-20300913D01*
X17690515Y-20300913D02*
X17709563Y-20310437D01*
X17709563Y-20310437D02*
X17747658Y-20310437D01*
X17747658Y-20310437D02*
X17766705Y-20300913D01*
X17766705Y-20300913D02*
X17776229Y-20291390D01*
X17776229Y-20291390D02*
X17785753Y-20272342D01*
X17909563Y-20186628D02*
X17928610Y-20186628D01*
X17928610Y-20186628D02*
X17947658Y-20196151D01*
X17947658Y-20196151D02*
X17957182Y-20205675D01*
X17957182Y-20205675D02*
X17966705Y-20224723D01*
X17966705Y-20224723D02*
X17976229Y-20262818D01*
X17976229Y-20262818D02*
X17976229Y-20310437D01*
X17976229Y-20310437D02*
X17966705Y-20348532D01*
X17966705Y-20348532D02*
X17957182Y-20367580D01*
X17957182Y-20367580D02*
X17947658Y-20377104D01*
X17947658Y-20377104D02*
X17928610Y-20386628D01*
X17928610Y-20386628D02*
X17909563Y-20386628D01*
X17909563Y-20386628D02*
X17890515Y-20377104D01*
X17890515Y-20377104D02*
X17880991Y-20367580D01*
X17880991Y-20367580D02*
X17871467Y-20348532D01*
X17871467Y-20348532D02*
X17861944Y-20310437D01*
X17861944Y-20310437D02*
X17861944Y-20262818D01*
X17861944Y-20262818D02*
X17871467Y-20224723D01*
X17871467Y-20224723D02*
X17880991Y-20205675D01*
X17880991Y-20205675D02*
X17890515Y-20196151D01*
X17890515Y-20196151D02*
X17909563Y-20186628D01*
X18100039Y-20186628D02*
X18119086Y-20186628D01*
X18119086Y-20186628D02*
X18138134Y-20196151D01*
X18138134Y-20196151D02*
X18147658Y-20205675D01*
X18147658Y-20205675D02*
X18157182Y-20224723D01*
X18157182Y-20224723D02*
X18166705Y-20262818D01*
X18166705Y-20262818D02*
X18166705Y-20310437D01*
X18166705Y-20310437D02*
X18157182Y-20348532D01*
X18157182Y-20348532D02*
X18147658Y-20367580D01*
X18147658Y-20367580D02*
X18138134Y-20377104D01*
X18138134Y-20377104D02*
X18119086Y-20386628D01*
X18119086Y-20386628D02*
X18100039Y-20386628D01*
X18100039Y-20386628D02*
X18080991Y-20377104D01*
X18080991Y-20377104D02*
X18071467Y-20367580D01*
X18071467Y-20367580D02*
X18061944Y-20348532D01*
X18061944Y-20348532D02*
X18052420Y-20310437D01*
X18052420Y-20310437D02*
X18052420Y-20262818D01*
X18052420Y-20262818D02*
X18061944Y-20224723D01*
X18061944Y-20224723D02*
X18071467Y-20205675D01*
X18071467Y-20205675D02*
X18080991Y-20196151D01*
X18080991Y-20196151D02*
X18100039Y-20186628D01*
X18252420Y-20386628D02*
X18252420Y-20253294D01*
X18252420Y-20272342D02*
X18261944Y-20262818D01*
X18261944Y-20262818D02*
X18280991Y-20253294D01*
X18280991Y-20253294D02*
X18309563Y-20253294D01*
X18309563Y-20253294D02*
X18328610Y-20262818D01*
X18328610Y-20262818D02*
X18338134Y-20281866D01*
X18338134Y-20281866D02*
X18338134Y-20386628D01*
X18338134Y-20281866D02*
X18347658Y-20262818D01*
X18347658Y-20262818D02*
X18366705Y-20253294D01*
X18366705Y-20253294D02*
X18395277Y-20253294D01*
X18395277Y-20253294D02*
X18414325Y-20262818D01*
X18414325Y-20262818D02*
X18423848Y-20281866D01*
X18423848Y-20281866D02*
X18423848Y-20386628D01*
X18519086Y-20386628D02*
X18519086Y-20253294D01*
X18519086Y-20272342D02*
X18528610Y-20262818D01*
X18528610Y-20262818D02*
X18547658Y-20253294D01*
X18547658Y-20253294D02*
X18576229Y-20253294D01*
X18576229Y-20253294D02*
X18595277Y-20262818D01*
X18595277Y-20262818D02*
X18604801Y-20281866D01*
X18604801Y-20281866D02*
X18604801Y-20386628D01*
X18604801Y-20281866D02*
X18614325Y-20262818D01*
X18614325Y-20262818D02*
X18633372Y-20253294D01*
X18633372Y-20253294D02*
X18661944Y-20253294D01*
X18661944Y-20253294D02*
X18680991Y-20262818D01*
X18680991Y-20262818D02*
X18690515Y-20281866D01*
X18690515Y-20281866D02*
X18690515Y-20386628D01*
X19080991Y-20177104D02*
X18909563Y-20434247D01*
X19338134Y-20186628D02*
X19357182Y-20186628D01*
X19357182Y-20186628D02*
X19376229Y-20196151D01*
X19376229Y-20196151D02*
X19385753Y-20205675D01*
X19385753Y-20205675D02*
X19395277Y-20224723D01*
X19395277Y-20224723D02*
X19404801Y-20262818D01*
X19404801Y-20262818D02*
X19404801Y-20310437D01*
X19404801Y-20310437D02*
X19395277Y-20348532D01*
X19395277Y-20348532D02*
X19385753Y-20367580D01*
X19385753Y-20367580D02*
X19376229Y-20377104D01*
X19376229Y-20377104D02*
X19357182Y-20386628D01*
X19357182Y-20386628D02*
X19338134Y-20386628D01*
X19338134Y-20386628D02*
X19319087Y-20377104D01*
X19319087Y-20377104D02*
X19309563Y-20367580D01*
X19309563Y-20367580D02*
X19300039Y-20348532D01*
X19300039Y-20348532D02*
X19290515Y-20310437D01*
X19290515Y-20310437D02*
X19290515Y-20262818D01*
X19290515Y-20262818D02*
X19300039Y-20224723D01*
X19300039Y-20224723D02*
X19309563Y-20205675D01*
X19309563Y-20205675D02*
X19319087Y-20196151D01*
X19319087Y-20196151D02*
X19338134Y-20186628D01*
X19490515Y-20367580D02*
X19500039Y-20377104D01*
X19500039Y-20377104D02*
X19490515Y-20386628D01*
X19490515Y-20386628D02*
X19480991Y-20377104D01*
X19480991Y-20377104D02*
X19490515Y-20367580D01*
X19490515Y-20367580D02*
X19490515Y-20386628D01*
X19623848Y-20186628D02*
X19642896Y-20186628D01*
X19642896Y-20186628D02*
X19661944Y-20196151D01*
X19661944Y-20196151D02*
X19671468Y-20205675D01*
X19671468Y-20205675D02*
X19680991Y-20224723D01*
X19680991Y-20224723D02*
X19690515Y-20262818D01*
X19690515Y-20262818D02*
X19690515Y-20310437D01*
X19690515Y-20310437D02*
X19680991Y-20348532D01*
X19680991Y-20348532D02*
X19671468Y-20367580D01*
X19671468Y-20367580D02*
X19661944Y-20377104D01*
X19661944Y-20377104D02*
X19642896Y-20386628D01*
X19642896Y-20386628D02*
X19623848Y-20386628D01*
X19623848Y-20386628D02*
X19604801Y-20377104D01*
X19604801Y-20377104D02*
X19595277Y-20367580D01*
X19595277Y-20367580D02*
X19585753Y-20348532D01*
X19585753Y-20348532D02*
X19576229Y-20310437D01*
X19576229Y-20310437D02*
X19576229Y-20262818D01*
X19576229Y-20262818D02*
X19585753Y-20224723D01*
X19585753Y-20224723D02*
X19595277Y-20205675D01*
X19595277Y-20205675D02*
X19604801Y-20196151D01*
X19604801Y-20196151D02*
X19623848Y-20186628D01*
X19757182Y-20186628D02*
X19880991Y-20186628D01*
X19880991Y-20186628D02*
X19814325Y-20262818D01*
X19814325Y-20262818D02*
X19842896Y-20262818D01*
X19842896Y-20262818D02*
X19861944Y-20272342D01*
X19861944Y-20272342D02*
X19871468Y-20281866D01*
X19871468Y-20281866D02*
X19880991Y-20300913D01*
X19880991Y-20300913D02*
X19880991Y-20348532D01*
X19880991Y-20348532D02*
X19871468Y-20367580D01*
X19871468Y-20367580D02*
X19861944Y-20377104D01*
X19861944Y-20377104D02*
X19842896Y-20386628D01*
X19842896Y-20386628D02*
X19785753Y-20386628D01*
X19785753Y-20386628D02*
X19766706Y-20377104D01*
X19766706Y-20377104D02*
X19757182Y-20367580D01*
X20061944Y-20186628D02*
X19966706Y-20186628D01*
X19966706Y-20186628D02*
X19957182Y-20281866D01*
X19957182Y-20281866D02*
X19966706Y-20272342D01*
X19966706Y-20272342D02*
X19985753Y-20262818D01*
X19985753Y-20262818D02*
X20033372Y-20262818D01*
X20033372Y-20262818D02*
X20052420Y-20272342D01*
X20052420Y-20272342D02*
X20061944Y-20281866D01*
X20061944Y-20281866D02*
X20071468Y-20300913D01*
X20071468Y-20300913D02*
X20071468Y-20348532D01*
X20071468Y-20348532D02*
X20061944Y-20367580D01*
X20061944Y-20367580D02*
X20052420Y-20377104D01*
X20052420Y-20377104D02*
X20033372Y-20386628D01*
X20033372Y-20386628D02*
X19985753Y-20386628D01*
X19985753Y-20386628D02*
X19966706Y-20377104D01*
X19966706Y-20377104D02*
X19957182Y-20367580D01*
X20242896Y-20253294D02*
X20242896Y-20386628D01*
X20195277Y-20177104D02*
X20147658Y-20319961D01*
X20147658Y-20319961D02*
X20271468Y-20319961D01*
X20338134Y-20186628D02*
X20338134Y-20224723D01*
X20414325Y-20186628D02*
X20414325Y-20224723D01*
X20709563Y-20462818D02*
X20700039Y-20453294D01*
X20700039Y-20453294D02*
X20680991Y-20424723D01*
X20680991Y-20424723D02*
X20671468Y-20405675D01*
X20671468Y-20405675D02*
X20661944Y-20377104D01*
X20661944Y-20377104D02*
X20652420Y-20329485D01*
X20652420Y-20329485D02*
X20652420Y-20291390D01*
X20652420Y-20291390D02*
X20661944Y-20243770D01*
X20661944Y-20243770D02*
X20671468Y-20215199D01*
X20671468Y-20215199D02*
X20680991Y-20196151D01*
X20680991Y-20196151D02*
X20700039Y-20167580D01*
X20700039Y-20167580D02*
X20709563Y-20158056D01*
X20871468Y-20253294D02*
X20871468Y-20386628D01*
X20823849Y-20177104D02*
X20776230Y-20319961D01*
X20776230Y-20319961D02*
X20900039Y-20319961D01*
X21128611Y-20386628D02*
X21128611Y-20186628D01*
X21214325Y-20386628D02*
X21214325Y-20281866D01*
X21214325Y-20281866D02*
X21204801Y-20262818D01*
X21204801Y-20262818D02*
X21185753Y-20253294D01*
X21185753Y-20253294D02*
X21157182Y-20253294D01*
X21157182Y-20253294D02*
X21138134Y-20262818D01*
X21138134Y-20262818D02*
X21128611Y-20272342D01*
X21338134Y-20386628D02*
X21319087Y-20377104D01*
X21319087Y-20377104D02*
X21309563Y-20367580D01*
X21309563Y-20367580D02*
X21300039Y-20348532D01*
X21300039Y-20348532D02*
X21300039Y-20291390D01*
X21300039Y-20291390D02*
X21309563Y-20272342D01*
X21309563Y-20272342D02*
X21319087Y-20262818D01*
X21319087Y-20262818D02*
X21338134Y-20253294D01*
X21338134Y-20253294D02*
X21366706Y-20253294D01*
X21366706Y-20253294D02*
X21385753Y-20262818D01*
X21385753Y-20262818D02*
X21395277Y-20272342D01*
X21395277Y-20272342D02*
X21404801Y-20291390D01*
X21404801Y-20291390D02*
X21404801Y-20348532D01*
X21404801Y-20348532D02*
X21395277Y-20367580D01*
X21395277Y-20367580D02*
X21385753Y-20377104D01*
X21385753Y-20377104D02*
X21366706Y-20386628D01*
X21366706Y-20386628D02*
X21338134Y-20386628D01*
X21519087Y-20386628D02*
X21500039Y-20377104D01*
X21500039Y-20377104D02*
X21490515Y-20358056D01*
X21490515Y-20358056D02*
X21490515Y-20186628D01*
X21671468Y-20377104D02*
X21652420Y-20386628D01*
X21652420Y-20386628D02*
X21614325Y-20386628D01*
X21614325Y-20386628D02*
X21595277Y-20377104D01*
X21595277Y-20377104D02*
X21585753Y-20358056D01*
X21585753Y-20358056D02*
X21585753Y-20281866D01*
X21585753Y-20281866D02*
X21595277Y-20262818D01*
X21595277Y-20262818D02*
X21614325Y-20253294D01*
X21614325Y-20253294D02*
X21652420Y-20253294D01*
X21652420Y-20253294D02*
X21671468Y-20262818D01*
X21671468Y-20262818D02*
X21680992Y-20281866D01*
X21680992Y-20281866D02*
X21680992Y-20300913D01*
X21680992Y-20300913D02*
X21585753Y-20319961D01*
X21757182Y-20377104D02*
X21776230Y-20386628D01*
X21776230Y-20386628D02*
X21814325Y-20386628D01*
X21814325Y-20386628D02*
X21833373Y-20377104D01*
X21833373Y-20377104D02*
X21842896Y-20358056D01*
X21842896Y-20358056D02*
X21842896Y-20348532D01*
X21842896Y-20348532D02*
X21833373Y-20329485D01*
X21833373Y-20329485D02*
X21814325Y-20319961D01*
X21814325Y-20319961D02*
X21785753Y-20319961D01*
X21785753Y-20319961D02*
X21766706Y-20310437D01*
X21766706Y-20310437D02*
X21757182Y-20291390D01*
X21757182Y-20291390D02*
X21757182Y-20281866D01*
X21757182Y-20281866D02*
X21766706Y-20262818D01*
X21766706Y-20262818D02*
X21785753Y-20253294D01*
X21785753Y-20253294D02*
X21814325Y-20253294D01*
X21814325Y-20253294D02*
X21833373Y-20262818D01*
X21909563Y-20462818D02*
X21919087Y-20453294D01*
X21919087Y-20453294D02*
X21938134Y-20424723D01*
X21938134Y-20424723D02*
X21947658Y-20405675D01*
X21947658Y-20405675D02*
X21957182Y-20377104D01*
X21957182Y-20377104D02*
X21966706Y-20329485D01*
X21966706Y-20329485D02*
X21966706Y-20291390D01*
X21966706Y-20291390D02*
X21957182Y-20243770D01*
X21957182Y-20243770D02*
X21947658Y-20215199D01*
X21947658Y-20215199D02*
X21938134Y-20196151D01*
X21938134Y-20196151D02*
X21919087Y-20167580D01*
X21919087Y-20167580D02*
X21909563Y-20158056D01*
X22271468Y-20462818D02*
X22261944Y-20453294D01*
X22261944Y-20453294D02*
X22242896Y-20424723D01*
X22242896Y-20424723D02*
X22233373Y-20405675D01*
X22233373Y-20405675D02*
X22223849Y-20377104D01*
X22223849Y-20377104D02*
X22214325Y-20329485D01*
X22214325Y-20329485D02*
X22214325Y-20291390D01*
X22214325Y-20291390D02*
X22223849Y-20243770D01*
X22223849Y-20243770D02*
X22233373Y-20215199D01*
X22233373Y-20215199D02*
X22242896Y-20196151D01*
X22242896Y-20196151D02*
X22261944Y-20167580D01*
X22261944Y-20167580D02*
X22271468Y-20158056D01*
X22347658Y-20253294D02*
X22347658Y-20386628D01*
X22347658Y-20272342D02*
X22357182Y-20262818D01*
X22357182Y-20262818D02*
X22376230Y-20253294D01*
X22376230Y-20253294D02*
X22404801Y-20253294D01*
X22404801Y-20253294D02*
X22423849Y-20262818D01*
X22423849Y-20262818D02*
X22433372Y-20281866D01*
X22433372Y-20281866D02*
X22433372Y-20386628D01*
X22557182Y-20386628D02*
X22538134Y-20377104D01*
X22538134Y-20377104D02*
X22528611Y-20367580D01*
X22528611Y-20367580D02*
X22519087Y-20348532D01*
X22519087Y-20348532D02*
X22519087Y-20291390D01*
X22519087Y-20291390D02*
X22528611Y-20272342D01*
X22528611Y-20272342D02*
X22538134Y-20262818D01*
X22538134Y-20262818D02*
X22557182Y-20253294D01*
X22557182Y-20253294D02*
X22585753Y-20253294D01*
X22585753Y-20253294D02*
X22604801Y-20262818D01*
X22604801Y-20262818D02*
X22614325Y-20272342D01*
X22614325Y-20272342D02*
X22623849Y-20291390D01*
X22623849Y-20291390D02*
X22623849Y-20348532D01*
X22623849Y-20348532D02*
X22614325Y-20367580D01*
X22614325Y-20367580D02*
X22604801Y-20377104D01*
X22604801Y-20377104D02*
X22585753Y-20386628D01*
X22585753Y-20386628D02*
X22557182Y-20386628D01*
X22680992Y-20253294D02*
X22757182Y-20253294D01*
X22709563Y-20186628D02*
X22709563Y-20358056D01*
X22709563Y-20358056D02*
X22719087Y-20377104D01*
X22719087Y-20377104D02*
X22738134Y-20386628D01*
X22738134Y-20386628D02*
X22757182Y-20386628D01*
X22976230Y-20253294D02*
X22976230Y-20453294D01*
X22976230Y-20262818D02*
X22995277Y-20253294D01*
X22995277Y-20253294D02*
X23033373Y-20253294D01*
X23033373Y-20253294D02*
X23052420Y-20262818D01*
X23052420Y-20262818D02*
X23061944Y-20272342D01*
X23061944Y-20272342D02*
X23071468Y-20291390D01*
X23071468Y-20291390D02*
X23071468Y-20348532D01*
X23071468Y-20348532D02*
X23061944Y-20367580D01*
X23061944Y-20367580D02*
X23052420Y-20377104D01*
X23052420Y-20377104D02*
X23033373Y-20386628D01*
X23033373Y-20386628D02*
X22995277Y-20386628D01*
X22995277Y-20386628D02*
X22976230Y-20377104D01*
X23185753Y-20386628D02*
X23166706Y-20377104D01*
X23166706Y-20377104D02*
X23157182Y-20358056D01*
X23157182Y-20358056D02*
X23157182Y-20186628D01*
X23347658Y-20386628D02*
X23347658Y-20281866D01*
X23347658Y-20281866D02*
X23338134Y-20262818D01*
X23338134Y-20262818D02*
X23319087Y-20253294D01*
X23319087Y-20253294D02*
X23280992Y-20253294D01*
X23280992Y-20253294D02*
X23261944Y-20262818D01*
X23347658Y-20377104D02*
X23328611Y-20386628D01*
X23328611Y-20386628D02*
X23280992Y-20386628D01*
X23280992Y-20386628D02*
X23261944Y-20377104D01*
X23261944Y-20377104D02*
X23252420Y-20358056D01*
X23252420Y-20358056D02*
X23252420Y-20339009D01*
X23252420Y-20339009D02*
X23261944Y-20319961D01*
X23261944Y-20319961D02*
X23280992Y-20310437D01*
X23280992Y-20310437D02*
X23328611Y-20310437D01*
X23328611Y-20310437D02*
X23347658Y-20300913D01*
X23414325Y-20253294D02*
X23490515Y-20253294D01*
X23442896Y-20186628D02*
X23442896Y-20358056D01*
X23442896Y-20358056D02*
X23452420Y-20377104D01*
X23452420Y-20377104D02*
X23471468Y-20386628D01*
X23471468Y-20386628D02*
X23490515Y-20386628D01*
X23633373Y-20377104D02*
X23614325Y-20386628D01*
X23614325Y-20386628D02*
X23576230Y-20386628D01*
X23576230Y-20386628D02*
X23557182Y-20377104D01*
X23557182Y-20377104D02*
X23547658Y-20358056D01*
X23547658Y-20358056D02*
X23547658Y-20281866D01*
X23547658Y-20281866D02*
X23557182Y-20262818D01*
X23557182Y-20262818D02*
X23576230Y-20253294D01*
X23576230Y-20253294D02*
X23614325Y-20253294D01*
X23614325Y-20253294D02*
X23633373Y-20262818D01*
X23633373Y-20262818D02*
X23642896Y-20281866D01*
X23642896Y-20281866D02*
X23642896Y-20300913D01*
X23642896Y-20300913D02*
X23547658Y-20319961D01*
X23814325Y-20386628D02*
X23814325Y-20186628D01*
X23814325Y-20377104D02*
X23795277Y-20386628D01*
X23795277Y-20386628D02*
X23757182Y-20386628D01*
X23757182Y-20386628D02*
X23738134Y-20377104D01*
X23738134Y-20377104D02*
X23728611Y-20367580D01*
X23728611Y-20367580D02*
X23719087Y-20348532D01*
X23719087Y-20348532D02*
X23719087Y-20291390D01*
X23719087Y-20291390D02*
X23728611Y-20272342D01*
X23728611Y-20272342D02*
X23738134Y-20262818D01*
X23738134Y-20262818D02*
X23757182Y-20253294D01*
X23757182Y-20253294D02*
X23795277Y-20253294D01*
X23795277Y-20253294D02*
X23814325Y-20262818D01*
X23890515Y-20462818D02*
X23900039Y-20453294D01*
X23900039Y-20453294D02*
X23919087Y-20424723D01*
X23919087Y-20424723D02*
X23928611Y-20405675D01*
X23928611Y-20405675D02*
X23938134Y-20377104D01*
X23938134Y-20377104D02*
X23947658Y-20329485D01*
X23947658Y-20329485D02*
X23947658Y-20291390D01*
X23947658Y-20291390D02*
X23938134Y-20243770D01*
X23938134Y-20243770D02*
X23928611Y-20215199D01*
X23928611Y-20215199D02*
X23919087Y-20196151D01*
X23919087Y-20196151D02*
X23900039Y-20167580D01*
X23900039Y-20167580D02*
X23890515Y-20158056D01*
D13*
X17134500Y-20559144D02*
G75*
G03*
X17134500Y-20559144I-85090J0D01*
G01*
D11*
X17500039Y-20650628D02*
X17385753Y-20650628D01*
X17442896Y-20650628D02*
X17442896Y-20450628D01*
X17442896Y-20450628D02*
X17423848Y-20479199D01*
X17423848Y-20479199D02*
X17404801Y-20498247D01*
X17404801Y-20498247D02*
X17385753Y-20507770D01*
X17585753Y-20631580D02*
X17595277Y-20641104D01*
X17595277Y-20641104D02*
X17585753Y-20650628D01*
X17585753Y-20650628D02*
X17576229Y-20641104D01*
X17576229Y-20641104D02*
X17585753Y-20631580D01*
X17585753Y-20631580D02*
X17585753Y-20650628D01*
X17661944Y-20450628D02*
X17795277Y-20450628D01*
X17795277Y-20450628D02*
X17709563Y-20650628D01*
X17909563Y-20450628D02*
X17928610Y-20450628D01*
X17928610Y-20450628D02*
X17947658Y-20460151D01*
X17947658Y-20460151D02*
X17957182Y-20469675D01*
X17957182Y-20469675D02*
X17966705Y-20488723D01*
X17966705Y-20488723D02*
X17976229Y-20526818D01*
X17976229Y-20526818D02*
X17976229Y-20574437D01*
X17976229Y-20574437D02*
X17966705Y-20612532D01*
X17966705Y-20612532D02*
X17957182Y-20631580D01*
X17957182Y-20631580D02*
X17947658Y-20641104D01*
X17947658Y-20641104D02*
X17928610Y-20650628D01*
X17928610Y-20650628D02*
X17909563Y-20650628D01*
X17909563Y-20650628D02*
X17890515Y-20641104D01*
X17890515Y-20641104D02*
X17880991Y-20631580D01*
X17880991Y-20631580D02*
X17871467Y-20612532D01*
X17871467Y-20612532D02*
X17861944Y-20574437D01*
X17861944Y-20574437D02*
X17861944Y-20526818D01*
X17861944Y-20526818D02*
X17871467Y-20488723D01*
X17871467Y-20488723D02*
X17880991Y-20469675D01*
X17880991Y-20469675D02*
X17890515Y-20460151D01*
X17890515Y-20460151D02*
X17909563Y-20450628D01*
X18052420Y-20469675D02*
X18061944Y-20460151D01*
X18061944Y-20460151D02*
X18080991Y-20450628D01*
X18080991Y-20450628D02*
X18128610Y-20450628D01*
X18128610Y-20450628D02*
X18147658Y-20460151D01*
X18147658Y-20460151D02*
X18157182Y-20469675D01*
X18157182Y-20469675D02*
X18166705Y-20488723D01*
X18166705Y-20488723D02*
X18166705Y-20507770D01*
X18166705Y-20507770D02*
X18157182Y-20536342D01*
X18157182Y-20536342D02*
X18042896Y-20650628D01*
X18042896Y-20650628D02*
X18166705Y-20650628D01*
X18252420Y-20650628D02*
X18252420Y-20517294D01*
X18252420Y-20536342D02*
X18261944Y-20526818D01*
X18261944Y-20526818D02*
X18280991Y-20517294D01*
X18280991Y-20517294D02*
X18309563Y-20517294D01*
X18309563Y-20517294D02*
X18328610Y-20526818D01*
X18328610Y-20526818D02*
X18338134Y-20545866D01*
X18338134Y-20545866D02*
X18338134Y-20650628D01*
X18338134Y-20545866D02*
X18347658Y-20526818D01*
X18347658Y-20526818D02*
X18366705Y-20517294D01*
X18366705Y-20517294D02*
X18395277Y-20517294D01*
X18395277Y-20517294D02*
X18414325Y-20526818D01*
X18414325Y-20526818D02*
X18423848Y-20545866D01*
X18423848Y-20545866D02*
X18423848Y-20650628D01*
X18519086Y-20650628D02*
X18519086Y-20517294D01*
X18519086Y-20536342D02*
X18528610Y-20526818D01*
X18528610Y-20526818D02*
X18547658Y-20517294D01*
X18547658Y-20517294D02*
X18576229Y-20517294D01*
X18576229Y-20517294D02*
X18595277Y-20526818D01*
X18595277Y-20526818D02*
X18604801Y-20545866D01*
X18604801Y-20545866D02*
X18604801Y-20650628D01*
X18604801Y-20545866D02*
X18614325Y-20526818D01*
X18614325Y-20526818D02*
X18633372Y-20517294D01*
X18633372Y-20517294D02*
X18661944Y-20517294D01*
X18661944Y-20517294D02*
X18680991Y-20526818D01*
X18680991Y-20526818D02*
X18690515Y-20545866D01*
X18690515Y-20545866D02*
X18690515Y-20650628D01*
X19080991Y-20441104D02*
X18909563Y-20698247D01*
X19338134Y-20450628D02*
X19357182Y-20450628D01*
X19357182Y-20450628D02*
X19376229Y-20460151D01*
X19376229Y-20460151D02*
X19385753Y-20469675D01*
X19385753Y-20469675D02*
X19395277Y-20488723D01*
X19395277Y-20488723D02*
X19404801Y-20526818D01*
X19404801Y-20526818D02*
X19404801Y-20574437D01*
X19404801Y-20574437D02*
X19395277Y-20612532D01*
X19395277Y-20612532D02*
X19385753Y-20631580D01*
X19385753Y-20631580D02*
X19376229Y-20641104D01*
X19376229Y-20641104D02*
X19357182Y-20650628D01*
X19357182Y-20650628D02*
X19338134Y-20650628D01*
X19338134Y-20650628D02*
X19319087Y-20641104D01*
X19319087Y-20641104D02*
X19309563Y-20631580D01*
X19309563Y-20631580D02*
X19300039Y-20612532D01*
X19300039Y-20612532D02*
X19290515Y-20574437D01*
X19290515Y-20574437D02*
X19290515Y-20526818D01*
X19290515Y-20526818D02*
X19300039Y-20488723D01*
X19300039Y-20488723D02*
X19309563Y-20469675D01*
X19309563Y-20469675D02*
X19319087Y-20460151D01*
X19319087Y-20460151D02*
X19338134Y-20450628D01*
X19490515Y-20631580D02*
X19500039Y-20641104D01*
X19500039Y-20641104D02*
X19490515Y-20650628D01*
X19490515Y-20650628D02*
X19480991Y-20641104D01*
X19480991Y-20641104D02*
X19490515Y-20631580D01*
X19490515Y-20631580D02*
X19490515Y-20650628D01*
X19623848Y-20450628D02*
X19642896Y-20450628D01*
X19642896Y-20450628D02*
X19661944Y-20460151D01*
X19661944Y-20460151D02*
X19671468Y-20469675D01*
X19671468Y-20469675D02*
X19680991Y-20488723D01*
X19680991Y-20488723D02*
X19690515Y-20526818D01*
X19690515Y-20526818D02*
X19690515Y-20574437D01*
X19690515Y-20574437D02*
X19680991Y-20612532D01*
X19680991Y-20612532D02*
X19671468Y-20631580D01*
X19671468Y-20631580D02*
X19661944Y-20641104D01*
X19661944Y-20641104D02*
X19642896Y-20650628D01*
X19642896Y-20650628D02*
X19623848Y-20650628D01*
X19623848Y-20650628D02*
X19604801Y-20641104D01*
X19604801Y-20641104D02*
X19595277Y-20631580D01*
X19595277Y-20631580D02*
X19585753Y-20612532D01*
X19585753Y-20612532D02*
X19576229Y-20574437D01*
X19576229Y-20574437D02*
X19576229Y-20526818D01*
X19576229Y-20526818D02*
X19585753Y-20488723D01*
X19585753Y-20488723D02*
X19595277Y-20469675D01*
X19595277Y-20469675D02*
X19604801Y-20460151D01*
X19604801Y-20460151D02*
X19623848Y-20450628D01*
X19861944Y-20450628D02*
X19823848Y-20450628D01*
X19823848Y-20450628D02*
X19804801Y-20460151D01*
X19804801Y-20460151D02*
X19795277Y-20469675D01*
X19795277Y-20469675D02*
X19776229Y-20498247D01*
X19776229Y-20498247D02*
X19766706Y-20536342D01*
X19766706Y-20536342D02*
X19766706Y-20612532D01*
X19766706Y-20612532D02*
X19776229Y-20631580D01*
X19776229Y-20631580D02*
X19785753Y-20641104D01*
X19785753Y-20641104D02*
X19804801Y-20650628D01*
X19804801Y-20650628D02*
X19842896Y-20650628D01*
X19842896Y-20650628D02*
X19861944Y-20641104D01*
X19861944Y-20641104D02*
X19871468Y-20631580D01*
X19871468Y-20631580D02*
X19880991Y-20612532D01*
X19880991Y-20612532D02*
X19880991Y-20564913D01*
X19880991Y-20564913D02*
X19871468Y-20545866D01*
X19871468Y-20545866D02*
X19861944Y-20536342D01*
X19861944Y-20536342D02*
X19842896Y-20526818D01*
X19842896Y-20526818D02*
X19804801Y-20526818D01*
X19804801Y-20526818D02*
X19785753Y-20536342D01*
X19785753Y-20536342D02*
X19776229Y-20545866D01*
X19776229Y-20545866D02*
X19766706Y-20564913D01*
X19947658Y-20450628D02*
X20080991Y-20450628D01*
X20080991Y-20450628D02*
X19995277Y-20650628D01*
X20195277Y-20450628D02*
X20214325Y-20450628D01*
X20214325Y-20450628D02*
X20233372Y-20460151D01*
X20233372Y-20460151D02*
X20242896Y-20469675D01*
X20242896Y-20469675D02*
X20252420Y-20488723D01*
X20252420Y-20488723D02*
X20261944Y-20526818D01*
X20261944Y-20526818D02*
X20261944Y-20574437D01*
X20261944Y-20574437D02*
X20252420Y-20612532D01*
X20252420Y-20612532D02*
X20242896Y-20631580D01*
X20242896Y-20631580D02*
X20233372Y-20641104D01*
X20233372Y-20641104D02*
X20214325Y-20650628D01*
X20214325Y-20650628D02*
X20195277Y-20650628D01*
X20195277Y-20650628D02*
X20176229Y-20641104D01*
X20176229Y-20641104D02*
X20166706Y-20631580D01*
X20166706Y-20631580D02*
X20157182Y-20612532D01*
X20157182Y-20612532D02*
X20147658Y-20574437D01*
X20147658Y-20574437D02*
X20147658Y-20526818D01*
X20147658Y-20526818D02*
X20157182Y-20488723D01*
X20157182Y-20488723D02*
X20166706Y-20469675D01*
X20166706Y-20469675D02*
X20176229Y-20460151D01*
X20176229Y-20460151D02*
X20195277Y-20450628D01*
X20338134Y-20450628D02*
X20338134Y-20488723D01*
X20414325Y-20450628D02*
X20414325Y-20488723D01*
X20709563Y-20726818D02*
X20700039Y-20717294D01*
X20700039Y-20717294D02*
X20680991Y-20688723D01*
X20680991Y-20688723D02*
X20671468Y-20669675D01*
X20671468Y-20669675D02*
X20661944Y-20641104D01*
X20661944Y-20641104D02*
X20652420Y-20593485D01*
X20652420Y-20593485D02*
X20652420Y-20555390D01*
X20652420Y-20555390D02*
X20661944Y-20507770D01*
X20661944Y-20507770D02*
X20671468Y-20479199D01*
X20671468Y-20479199D02*
X20680991Y-20460151D01*
X20680991Y-20460151D02*
X20700039Y-20431580D01*
X20700039Y-20431580D02*
X20709563Y-20422056D01*
X20766706Y-20450628D02*
X20900039Y-20450628D01*
X20900039Y-20450628D02*
X20814325Y-20650628D01*
X20966706Y-20469675D02*
X20976230Y-20460151D01*
X20976230Y-20460151D02*
X20995277Y-20450628D01*
X20995277Y-20450628D02*
X21042896Y-20450628D01*
X21042896Y-20450628D02*
X21061944Y-20460151D01*
X21061944Y-20460151D02*
X21071468Y-20469675D01*
X21071468Y-20469675D02*
X21080991Y-20488723D01*
X21080991Y-20488723D02*
X21080991Y-20507770D01*
X21080991Y-20507770D02*
X21071468Y-20536342D01*
X21071468Y-20536342D02*
X20957182Y-20650628D01*
X20957182Y-20650628D02*
X21080991Y-20650628D01*
X21319087Y-20650628D02*
X21319087Y-20450628D01*
X21404801Y-20650628D02*
X21404801Y-20545866D01*
X21404801Y-20545866D02*
X21395277Y-20526818D01*
X21395277Y-20526818D02*
X21376230Y-20517294D01*
X21376230Y-20517294D02*
X21347658Y-20517294D01*
X21347658Y-20517294D02*
X21328611Y-20526818D01*
X21328611Y-20526818D02*
X21319087Y-20536342D01*
X21528611Y-20650628D02*
X21509563Y-20641104D01*
X21509563Y-20641104D02*
X21500039Y-20631580D01*
X21500039Y-20631580D02*
X21490515Y-20612532D01*
X21490515Y-20612532D02*
X21490515Y-20555390D01*
X21490515Y-20555390D02*
X21500039Y-20536342D01*
X21500039Y-20536342D02*
X21509563Y-20526818D01*
X21509563Y-20526818D02*
X21528611Y-20517294D01*
X21528611Y-20517294D02*
X21557182Y-20517294D01*
X21557182Y-20517294D02*
X21576230Y-20526818D01*
X21576230Y-20526818D02*
X21585753Y-20536342D01*
X21585753Y-20536342D02*
X21595277Y-20555390D01*
X21595277Y-20555390D02*
X21595277Y-20612532D01*
X21595277Y-20612532D02*
X21585753Y-20631580D01*
X21585753Y-20631580D02*
X21576230Y-20641104D01*
X21576230Y-20641104D02*
X21557182Y-20650628D01*
X21557182Y-20650628D02*
X21528611Y-20650628D01*
X21709563Y-20650628D02*
X21690515Y-20641104D01*
X21690515Y-20641104D02*
X21680992Y-20622056D01*
X21680992Y-20622056D02*
X21680992Y-20450628D01*
X21861944Y-20641104D02*
X21842896Y-20650628D01*
X21842896Y-20650628D02*
X21804801Y-20650628D01*
X21804801Y-20650628D02*
X21785753Y-20641104D01*
X21785753Y-20641104D02*
X21776230Y-20622056D01*
X21776230Y-20622056D02*
X21776230Y-20545866D01*
X21776230Y-20545866D02*
X21785753Y-20526818D01*
X21785753Y-20526818D02*
X21804801Y-20517294D01*
X21804801Y-20517294D02*
X21842896Y-20517294D01*
X21842896Y-20517294D02*
X21861944Y-20526818D01*
X21861944Y-20526818D02*
X21871468Y-20545866D01*
X21871468Y-20545866D02*
X21871468Y-20564913D01*
X21871468Y-20564913D02*
X21776230Y-20583961D01*
X21947658Y-20641104D02*
X21966706Y-20650628D01*
X21966706Y-20650628D02*
X22004801Y-20650628D01*
X22004801Y-20650628D02*
X22023849Y-20641104D01*
X22023849Y-20641104D02*
X22033373Y-20622056D01*
X22033373Y-20622056D02*
X22033373Y-20612532D01*
X22033373Y-20612532D02*
X22023849Y-20593485D01*
X22023849Y-20593485D02*
X22004801Y-20583961D01*
X22004801Y-20583961D02*
X21976230Y-20583961D01*
X21976230Y-20583961D02*
X21957182Y-20574437D01*
X21957182Y-20574437D02*
X21947658Y-20555390D01*
X21947658Y-20555390D02*
X21947658Y-20545866D01*
X21947658Y-20545866D02*
X21957182Y-20526818D01*
X21957182Y-20526818D02*
X21976230Y-20517294D01*
X21976230Y-20517294D02*
X22004801Y-20517294D01*
X22004801Y-20517294D02*
X22023849Y-20526818D01*
X22100039Y-20726818D02*
X22109563Y-20717294D01*
X22109563Y-20717294D02*
X22128611Y-20688723D01*
X22128611Y-20688723D02*
X22138134Y-20669675D01*
X22138134Y-20669675D02*
X22147658Y-20641104D01*
X22147658Y-20641104D02*
X22157182Y-20593485D01*
X22157182Y-20593485D02*
X22157182Y-20555390D01*
X22157182Y-20555390D02*
X22147658Y-20507770D01*
X22147658Y-20507770D02*
X22138134Y-20479199D01*
X22138134Y-20479199D02*
X22128611Y-20460151D01*
X22128611Y-20460151D02*
X22109563Y-20431580D01*
X22109563Y-20431580D02*
X22100039Y-20422056D01*
X22461944Y-20726818D02*
X22452420Y-20717294D01*
X22452420Y-20717294D02*
X22433372Y-20688723D01*
X22433372Y-20688723D02*
X22423849Y-20669675D01*
X22423849Y-20669675D02*
X22414325Y-20641104D01*
X22414325Y-20641104D02*
X22404801Y-20593485D01*
X22404801Y-20593485D02*
X22404801Y-20555390D01*
X22404801Y-20555390D02*
X22414325Y-20507770D01*
X22414325Y-20507770D02*
X22423849Y-20479199D01*
X22423849Y-20479199D02*
X22433372Y-20460151D01*
X22433372Y-20460151D02*
X22452420Y-20431580D01*
X22452420Y-20431580D02*
X22461944Y-20422056D01*
X22538134Y-20517294D02*
X22538134Y-20650628D01*
X22538134Y-20536342D02*
X22547658Y-20526818D01*
X22547658Y-20526818D02*
X22566706Y-20517294D01*
X22566706Y-20517294D02*
X22595277Y-20517294D01*
X22595277Y-20517294D02*
X22614325Y-20526818D01*
X22614325Y-20526818D02*
X22623849Y-20545866D01*
X22623849Y-20545866D02*
X22623849Y-20650628D01*
X22747658Y-20650628D02*
X22728611Y-20641104D01*
X22728611Y-20641104D02*
X22719087Y-20631580D01*
X22719087Y-20631580D02*
X22709563Y-20612532D01*
X22709563Y-20612532D02*
X22709563Y-20555390D01*
X22709563Y-20555390D02*
X22719087Y-20536342D01*
X22719087Y-20536342D02*
X22728611Y-20526818D01*
X22728611Y-20526818D02*
X22747658Y-20517294D01*
X22747658Y-20517294D02*
X22776230Y-20517294D01*
X22776230Y-20517294D02*
X22795277Y-20526818D01*
X22795277Y-20526818D02*
X22804801Y-20536342D01*
X22804801Y-20536342D02*
X22814325Y-20555390D01*
X22814325Y-20555390D02*
X22814325Y-20612532D01*
X22814325Y-20612532D02*
X22804801Y-20631580D01*
X22804801Y-20631580D02*
X22795277Y-20641104D01*
X22795277Y-20641104D02*
X22776230Y-20650628D01*
X22776230Y-20650628D02*
X22747658Y-20650628D01*
X22871468Y-20517294D02*
X22947658Y-20517294D01*
X22900039Y-20450628D02*
X22900039Y-20622056D01*
X22900039Y-20622056D02*
X22909563Y-20641104D01*
X22909563Y-20641104D02*
X22928611Y-20650628D01*
X22928611Y-20650628D02*
X22947658Y-20650628D01*
X23166706Y-20517294D02*
X23166706Y-20717294D01*
X23166706Y-20526818D02*
X23185753Y-20517294D01*
X23185753Y-20517294D02*
X23223849Y-20517294D01*
X23223849Y-20517294D02*
X23242896Y-20526818D01*
X23242896Y-20526818D02*
X23252420Y-20536342D01*
X23252420Y-20536342D02*
X23261944Y-20555390D01*
X23261944Y-20555390D02*
X23261944Y-20612532D01*
X23261944Y-20612532D02*
X23252420Y-20631580D01*
X23252420Y-20631580D02*
X23242896Y-20641104D01*
X23242896Y-20641104D02*
X23223849Y-20650628D01*
X23223849Y-20650628D02*
X23185753Y-20650628D01*
X23185753Y-20650628D02*
X23166706Y-20641104D01*
X23376230Y-20650628D02*
X23357182Y-20641104D01*
X23357182Y-20641104D02*
X23347658Y-20622056D01*
X23347658Y-20622056D02*
X23347658Y-20450628D01*
X23538134Y-20650628D02*
X23538134Y-20545866D01*
X23538134Y-20545866D02*
X23528611Y-20526818D01*
X23528611Y-20526818D02*
X23509563Y-20517294D01*
X23509563Y-20517294D02*
X23471468Y-20517294D01*
X23471468Y-20517294D02*
X23452420Y-20526818D01*
X23538134Y-20641104D02*
X23519087Y-20650628D01*
X23519087Y-20650628D02*
X23471468Y-20650628D01*
X23471468Y-20650628D02*
X23452420Y-20641104D01*
X23452420Y-20641104D02*
X23442896Y-20622056D01*
X23442896Y-20622056D02*
X23442896Y-20603009D01*
X23442896Y-20603009D02*
X23452420Y-20583961D01*
X23452420Y-20583961D02*
X23471468Y-20574437D01*
X23471468Y-20574437D02*
X23519087Y-20574437D01*
X23519087Y-20574437D02*
X23538134Y-20564913D01*
X23604801Y-20517294D02*
X23680992Y-20517294D01*
X23633373Y-20450628D02*
X23633373Y-20622056D01*
X23633373Y-20622056D02*
X23642896Y-20641104D01*
X23642896Y-20641104D02*
X23661944Y-20650628D01*
X23661944Y-20650628D02*
X23680992Y-20650628D01*
X23823849Y-20641104D02*
X23804801Y-20650628D01*
X23804801Y-20650628D02*
X23766706Y-20650628D01*
X23766706Y-20650628D02*
X23747658Y-20641104D01*
X23747658Y-20641104D02*
X23738134Y-20622056D01*
X23738134Y-20622056D02*
X23738134Y-20545866D01*
X23738134Y-20545866D02*
X23747658Y-20526818D01*
X23747658Y-20526818D02*
X23766706Y-20517294D01*
X23766706Y-20517294D02*
X23804801Y-20517294D01*
X23804801Y-20517294D02*
X23823849Y-20526818D01*
X23823849Y-20526818D02*
X23833373Y-20545866D01*
X23833373Y-20545866D02*
X23833373Y-20564913D01*
X23833373Y-20564913D02*
X23738134Y-20583961D01*
X24004801Y-20650628D02*
X24004801Y-20450628D01*
X24004801Y-20641104D02*
X23985754Y-20650628D01*
X23985754Y-20650628D02*
X23947658Y-20650628D01*
X23947658Y-20650628D02*
X23928611Y-20641104D01*
X23928611Y-20641104D02*
X23919087Y-20631580D01*
X23919087Y-20631580D02*
X23909563Y-20612532D01*
X23909563Y-20612532D02*
X23909563Y-20555390D01*
X23909563Y-20555390D02*
X23919087Y-20536342D01*
X23919087Y-20536342D02*
X23928611Y-20526818D01*
X23928611Y-20526818D02*
X23947658Y-20517294D01*
X23947658Y-20517294D02*
X23985754Y-20517294D01*
X23985754Y-20517294D02*
X24004801Y-20526818D01*
X24080992Y-20726818D02*
X24090515Y-20717294D01*
X24090515Y-20717294D02*
X24109563Y-20688723D01*
X24109563Y-20688723D02*
X24119087Y-20669675D01*
X24119087Y-20669675D02*
X24128611Y-20641104D01*
X24128611Y-20641104D02*
X24138134Y-20593485D01*
X24138134Y-20593485D02*
X24138134Y-20555390D01*
X24138134Y-20555390D02*
X24128611Y-20507770D01*
X24128611Y-20507770D02*
X24119087Y-20479199D01*
X24119087Y-20479199D02*
X24109563Y-20460151D01*
X24109563Y-20460151D02*
X24090515Y-20431580D01*
X24090515Y-20431580D02*
X24080992Y-20422056D01*
X17034500Y-20749324D02*
X17034500Y-20949324D01*
X16934500Y-20849324D02*
X17134500Y-20849324D01*
X17376229Y-20740808D02*
X17500039Y-20740808D01*
X17500039Y-20740808D02*
X17433372Y-20816998D01*
X17433372Y-20816998D02*
X17461944Y-20816998D01*
X17461944Y-20816998D02*
X17480991Y-20826522D01*
X17480991Y-20826522D02*
X17490515Y-20836046D01*
X17490515Y-20836046D02*
X17500039Y-20855093D01*
X17500039Y-20855093D02*
X17500039Y-20902712D01*
X17500039Y-20902712D02*
X17490515Y-20921760D01*
X17490515Y-20921760D02*
X17480991Y-20931284D01*
X17480991Y-20931284D02*
X17461944Y-20940808D01*
X17461944Y-20940808D02*
X17404801Y-20940808D01*
X17404801Y-20940808D02*
X17385753Y-20931284D01*
X17385753Y-20931284D02*
X17376229Y-20921760D01*
X17585753Y-20921760D02*
X17595277Y-20931284D01*
X17595277Y-20931284D02*
X17585753Y-20940808D01*
X17585753Y-20940808D02*
X17576229Y-20931284D01*
X17576229Y-20931284D02*
X17585753Y-20921760D01*
X17585753Y-20921760D02*
X17585753Y-20940808D01*
X17719086Y-20740808D02*
X17738134Y-20740808D01*
X17738134Y-20740808D02*
X17757182Y-20750331D01*
X17757182Y-20750331D02*
X17766705Y-20759855D01*
X17766705Y-20759855D02*
X17776229Y-20778903D01*
X17776229Y-20778903D02*
X17785753Y-20816998D01*
X17785753Y-20816998D02*
X17785753Y-20864617D01*
X17785753Y-20864617D02*
X17776229Y-20902712D01*
X17776229Y-20902712D02*
X17766705Y-20921760D01*
X17766705Y-20921760D02*
X17757182Y-20931284D01*
X17757182Y-20931284D02*
X17738134Y-20940808D01*
X17738134Y-20940808D02*
X17719086Y-20940808D01*
X17719086Y-20940808D02*
X17700039Y-20931284D01*
X17700039Y-20931284D02*
X17690515Y-20921760D01*
X17690515Y-20921760D02*
X17680991Y-20902712D01*
X17680991Y-20902712D02*
X17671467Y-20864617D01*
X17671467Y-20864617D02*
X17671467Y-20816998D01*
X17671467Y-20816998D02*
X17680991Y-20778903D01*
X17680991Y-20778903D02*
X17690515Y-20759855D01*
X17690515Y-20759855D02*
X17700039Y-20750331D01*
X17700039Y-20750331D02*
X17719086Y-20740808D01*
X17909563Y-20740808D02*
X17928610Y-20740808D01*
X17928610Y-20740808D02*
X17947658Y-20750331D01*
X17947658Y-20750331D02*
X17957182Y-20759855D01*
X17957182Y-20759855D02*
X17966705Y-20778903D01*
X17966705Y-20778903D02*
X17976229Y-20816998D01*
X17976229Y-20816998D02*
X17976229Y-20864617D01*
X17976229Y-20864617D02*
X17966705Y-20902712D01*
X17966705Y-20902712D02*
X17957182Y-20921760D01*
X17957182Y-20921760D02*
X17947658Y-20931284D01*
X17947658Y-20931284D02*
X17928610Y-20940808D01*
X17928610Y-20940808D02*
X17909563Y-20940808D01*
X17909563Y-20940808D02*
X17890515Y-20931284D01*
X17890515Y-20931284D02*
X17880991Y-20921760D01*
X17880991Y-20921760D02*
X17871467Y-20902712D01*
X17871467Y-20902712D02*
X17861944Y-20864617D01*
X17861944Y-20864617D02*
X17861944Y-20816998D01*
X17861944Y-20816998D02*
X17871467Y-20778903D01*
X17871467Y-20778903D02*
X17880991Y-20759855D01*
X17880991Y-20759855D02*
X17890515Y-20750331D01*
X17890515Y-20750331D02*
X17909563Y-20740808D01*
X18100039Y-20740808D02*
X18119086Y-20740808D01*
X18119086Y-20740808D02*
X18138134Y-20750331D01*
X18138134Y-20750331D02*
X18147658Y-20759855D01*
X18147658Y-20759855D02*
X18157182Y-20778903D01*
X18157182Y-20778903D02*
X18166705Y-20816998D01*
X18166705Y-20816998D02*
X18166705Y-20864617D01*
X18166705Y-20864617D02*
X18157182Y-20902712D01*
X18157182Y-20902712D02*
X18147658Y-20921760D01*
X18147658Y-20921760D02*
X18138134Y-20931284D01*
X18138134Y-20931284D02*
X18119086Y-20940808D01*
X18119086Y-20940808D02*
X18100039Y-20940808D01*
X18100039Y-20940808D02*
X18080991Y-20931284D01*
X18080991Y-20931284D02*
X18071467Y-20921760D01*
X18071467Y-20921760D02*
X18061944Y-20902712D01*
X18061944Y-20902712D02*
X18052420Y-20864617D01*
X18052420Y-20864617D02*
X18052420Y-20816998D01*
X18052420Y-20816998D02*
X18061944Y-20778903D01*
X18061944Y-20778903D02*
X18071467Y-20759855D01*
X18071467Y-20759855D02*
X18080991Y-20750331D01*
X18080991Y-20750331D02*
X18100039Y-20740808D01*
X18252420Y-20940808D02*
X18252420Y-20807474D01*
X18252420Y-20826522D02*
X18261944Y-20816998D01*
X18261944Y-20816998D02*
X18280991Y-20807474D01*
X18280991Y-20807474D02*
X18309563Y-20807474D01*
X18309563Y-20807474D02*
X18328610Y-20816998D01*
X18328610Y-20816998D02*
X18338134Y-20836046D01*
X18338134Y-20836046D02*
X18338134Y-20940808D01*
X18338134Y-20836046D02*
X18347658Y-20816998D01*
X18347658Y-20816998D02*
X18366705Y-20807474D01*
X18366705Y-20807474D02*
X18395277Y-20807474D01*
X18395277Y-20807474D02*
X18414325Y-20816998D01*
X18414325Y-20816998D02*
X18423848Y-20836046D01*
X18423848Y-20836046D02*
X18423848Y-20940808D01*
X18519086Y-20940808D02*
X18519086Y-20807474D01*
X18519086Y-20826522D02*
X18528610Y-20816998D01*
X18528610Y-20816998D02*
X18547658Y-20807474D01*
X18547658Y-20807474D02*
X18576229Y-20807474D01*
X18576229Y-20807474D02*
X18595277Y-20816998D01*
X18595277Y-20816998D02*
X18604801Y-20836046D01*
X18604801Y-20836046D02*
X18604801Y-20940808D01*
X18604801Y-20836046D02*
X18614325Y-20816998D01*
X18614325Y-20816998D02*
X18633372Y-20807474D01*
X18633372Y-20807474D02*
X18661944Y-20807474D01*
X18661944Y-20807474D02*
X18680991Y-20816998D01*
X18680991Y-20816998D02*
X18690515Y-20836046D01*
X18690515Y-20836046D02*
X18690515Y-20940808D01*
X19080991Y-20731284D02*
X18909563Y-20988427D01*
X19338134Y-20740808D02*
X19357182Y-20740808D01*
X19357182Y-20740808D02*
X19376229Y-20750331D01*
X19376229Y-20750331D02*
X19385753Y-20759855D01*
X19385753Y-20759855D02*
X19395277Y-20778903D01*
X19395277Y-20778903D02*
X19404801Y-20816998D01*
X19404801Y-20816998D02*
X19404801Y-20864617D01*
X19404801Y-20864617D02*
X19395277Y-20902712D01*
X19395277Y-20902712D02*
X19385753Y-20921760D01*
X19385753Y-20921760D02*
X19376229Y-20931284D01*
X19376229Y-20931284D02*
X19357182Y-20940808D01*
X19357182Y-20940808D02*
X19338134Y-20940808D01*
X19338134Y-20940808D02*
X19319087Y-20931284D01*
X19319087Y-20931284D02*
X19309563Y-20921760D01*
X19309563Y-20921760D02*
X19300039Y-20902712D01*
X19300039Y-20902712D02*
X19290515Y-20864617D01*
X19290515Y-20864617D02*
X19290515Y-20816998D01*
X19290515Y-20816998D02*
X19300039Y-20778903D01*
X19300039Y-20778903D02*
X19309563Y-20759855D01*
X19309563Y-20759855D02*
X19319087Y-20750331D01*
X19319087Y-20750331D02*
X19338134Y-20740808D01*
X19490515Y-20921760D02*
X19500039Y-20931284D01*
X19500039Y-20931284D02*
X19490515Y-20940808D01*
X19490515Y-20940808D02*
X19480991Y-20931284D01*
X19480991Y-20931284D02*
X19490515Y-20921760D01*
X19490515Y-20921760D02*
X19490515Y-20940808D01*
X19690515Y-20940808D02*
X19576229Y-20940808D01*
X19633372Y-20940808D02*
X19633372Y-20740808D01*
X19633372Y-20740808D02*
X19614325Y-20769379D01*
X19614325Y-20769379D02*
X19595277Y-20788427D01*
X19595277Y-20788427D02*
X19576229Y-20797950D01*
X19880991Y-20940808D02*
X19766706Y-20940808D01*
X19823848Y-20940808D02*
X19823848Y-20740808D01*
X19823848Y-20740808D02*
X19804801Y-20769379D01*
X19804801Y-20769379D02*
X19785753Y-20788427D01*
X19785753Y-20788427D02*
X19766706Y-20797950D01*
X19995277Y-20826522D02*
X19976229Y-20816998D01*
X19976229Y-20816998D02*
X19966706Y-20807474D01*
X19966706Y-20807474D02*
X19957182Y-20788427D01*
X19957182Y-20788427D02*
X19957182Y-20778903D01*
X19957182Y-20778903D02*
X19966706Y-20759855D01*
X19966706Y-20759855D02*
X19976229Y-20750331D01*
X19976229Y-20750331D02*
X19995277Y-20740808D01*
X19995277Y-20740808D02*
X20033372Y-20740808D01*
X20033372Y-20740808D02*
X20052420Y-20750331D01*
X20052420Y-20750331D02*
X20061944Y-20759855D01*
X20061944Y-20759855D02*
X20071468Y-20778903D01*
X20071468Y-20778903D02*
X20071468Y-20788427D01*
X20071468Y-20788427D02*
X20061944Y-20807474D01*
X20061944Y-20807474D02*
X20052420Y-20816998D01*
X20052420Y-20816998D02*
X20033372Y-20826522D01*
X20033372Y-20826522D02*
X19995277Y-20826522D01*
X19995277Y-20826522D02*
X19976229Y-20836046D01*
X19976229Y-20836046D02*
X19966706Y-20845570D01*
X19966706Y-20845570D02*
X19957182Y-20864617D01*
X19957182Y-20864617D02*
X19957182Y-20902712D01*
X19957182Y-20902712D02*
X19966706Y-20921760D01*
X19966706Y-20921760D02*
X19976229Y-20931284D01*
X19976229Y-20931284D02*
X19995277Y-20940808D01*
X19995277Y-20940808D02*
X20033372Y-20940808D01*
X20033372Y-20940808D02*
X20052420Y-20931284D01*
X20052420Y-20931284D02*
X20061944Y-20921760D01*
X20061944Y-20921760D02*
X20071468Y-20902712D01*
X20071468Y-20902712D02*
X20071468Y-20864617D01*
X20071468Y-20864617D02*
X20061944Y-20845570D01*
X20061944Y-20845570D02*
X20052420Y-20836046D01*
X20052420Y-20836046D02*
X20033372Y-20826522D01*
X20261944Y-20940808D02*
X20147658Y-20940808D01*
X20204801Y-20940808D02*
X20204801Y-20740808D01*
X20204801Y-20740808D02*
X20185753Y-20769379D01*
X20185753Y-20769379D02*
X20166706Y-20788427D01*
X20166706Y-20788427D02*
X20147658Y-20797950D01*
X20338134Y-20740808D02*
X20338134Y-20778903D01*
X20414325Y-20740808D02*
X20414325Y-20778903D01*
X20709563Y-21016998D02*
X20700039Y-21007474D01*
X20700039Y-21007474D02*
X20680991Y-20978903D01*
X20680991Y-20978903D02*
X20671468Y-20959855D01*
X20671468Y-20959855D02*
X20661944Y-20931284D01*
X20661944Y-20931284D02*
X20652420Y-20883665D01*
X20652420Y-20883665D02*
X20652420Y-20845570D01*
X20652420Y-20845570D02*
X20661944Y-20797950D01*
X20661944Y-20797950D02*
X20671468Y-20769379D01*
X20671468Y-20769379D02*
X20680991Y-20750331D01*
X20680991Y-20750331D02*
X20700039Y-20721760D01*
X20700039Y-20721760D02*
X20709563Y-20712236D01*
X20766706Y-20740808D02*
X20900039Y-20740808D01*
X20900039Y-20740808D02*
X20814325Y-20940808D01*
X20966706Y-20759855D02*
X20976230Y-20750331D01*
X20976230Y-20750331D02*
X20995277Y-20740808D01*
X20995277Y-20740808D02*
X21042896Y-20740808D01*
X21042896Y-20740808D02*
X21061944Y-20750331D01*
X21061944Y-20750331D02*
X21071468Y-20759855D01*
X21071468Y-20759855D02*
X21080991Y-20778903D01*
X21080991Y-20778903D02*
X21080991Y-20797950D01*
X21080991Y-20797950D02*
X21071468Y-20826522D01*
X21071468Y-20826522D02*
X20957182Y-20940808D01*
X20957182Y-20940808D02*
X21080991Y-20940808D01*
X21319087Y-20940808D02*
X21319087Y-20740808D01*
X21404801Y-20940808D02*
X21404801Y-20836046D01*
X21404801Y-20836046D02*
X21395277Y-20816998D01*
X21395277Y-20816998D02*
X21376230Y-20807474D01*
X21376230Y-20807474D02*
X21347658Y-20807474D01*
X21347658Y-20807474D02*
X21328611Y-20816998D01*
X21328611Y-20816998D02*
X21319087Y-20826522D01*
X21528611Y-20940808D02*
X21509563Y-20931284D01*
X21509563Y-20931284D02*
X21500039Y-20921760D01*
X21500039Y-20921760D02*
X21490515Y-20902712D01*
X21490515Y-20902712D02*
X21490515Y-20845570D01*
X21490515Y-20845570D02*
X21500039Y-20826522D01*
X21500039Y-20826522D02*
X21509563Y-20816998D01*
X21509563Y-20816998D02*
X21528611Y-20807474D01*
X21528611Y-20807474D02*
X21557182Y-20807474D01*
X21557182Y-20807474D02*
X21576230Y-20816998D01*
X21576230Y-20816998D02*
X21585753Y-20826522D01*
X21585753Y-20826522D02*
X21595277Y-20845570D01*
X21595277Y-20845570D02*
X21595277Y-20902712D01*
X21595277Y-20902712D02*
X21585753Y-20921760D01*
X21585753Y-20921760D02*
X21576230Y-20931284D01*
X21576230Y-20931284D02*
X21557182Y-20940808D01*
X21557182Y-20940808D02*
X21528611Y-20940808D01*
X21709563Y-20940808D02*
X21690515Y-20931284D01*
X21690515Y-20931284D02*
X21680992Y-20912236D01*
X21680992Y-20912236D02*
X21680992Y-20740808D01*
X21861944Y-20931284D02*
X21842896Y-20940808D01*
X21842896Y-20940808D02*
X21804801Y-20940808D01*
X21804801Y-20940808D02*
X21785753Y-20931284D01*
X21785753Y-20931284D02*
X21776230Y-20912236D01*
X21776230Y-20912236D02*
X21776230Y-20836046D01*
X21776230Y-20836046D02*
X21785753Y-20816998D01*
X21785753Y-20816998D02*
X21804801Y-20807474D01*
X21804801Y-20807474D02*
X21842896Y-20807474D01*
X21842896Y-20807474D02*
X21861944Y-20816998D01*
X21861944Y-20816998D02*
X21871468Y-20836046D01*
X21871468Y-20836046D02*
X21871468Y-20855093D01*
X21871468Y-20855093D02*
X21776230Y-20874141D01*
X21947658Y-20931284D02*
X21966706Y-20940808D01*
X21966706Y-20940808D02*
X22004801Y-20940808D01*
X22004801Y-20940808D02*
X22023849Y-20931284D01*
X22023849Y-20931284D02*
X22033373Y-20912236D01*
X22033373Y-20912236D02*
X22033373Y-20902712D01*
X22033373Y-20902712D02*
X22023849Y-20883665D01*
X22023849Y-20883665D02*
X22004801Y-20874141D01*
X22004801Y-20874141D02*
X21976230Y-20874141D01*
X21976230Y-20874141D02*
X21957182Y-20864617D01*
X21957182Y-20864617D02*
X21947658Y-20845570D01*
X21947658Y-20845570D02*
X21947658Y-20836046D01*
X21947658Y-20836046D02*
X21957182Y-20816998D01*
X21957182Y-20816998D02*
X21976230Y-20807474D01*
X21976230Y-20807474D02*
X22004801Y-20807474D01*
X22004801Y-20807474D02*
X22023849Y-20816998D01*
X22100039Y-21016998D02*
X22109563Y-21007474D01*
X22109563Y-21007474D02*
X22128611Y-20978903D01*
X22128611Y-20978903D02*
X22138134Y-20959855D01*
X22138134Y-20959855D02*
X22147658Y-20931284D01*
X22147658Y-20931284D02*
X22157182Y-20883665D01*
X22157182Y-20883665D02*
X22157182Y-20845570D01*
X22157182Y-20845570D02*
X22147658Y-20797950D01*
X22147658Y-20797950D02*
X22138134Y-20769379D01*
X22138134Y-20769379D02*
X22128611Y-20750331D01*
X22128611Y-20750331D02*
X22109563Y-20721760D01*
X22109563Y-20721760D02*
X22100039Y-20712236D01*
X22461944Y-21016998D02*
X22452420Y-21007474D01*
X22452420Y-21007474D02*
X22433372Y-20978903D01*
X22433372Y-20978903D02*
X22423849Y-20959855D01*
X22423849Y-20959855D02*
X22414325Y-20931284D01*
X22414325Y-20931284D02*
X22404801Y-20883665D01*
X22404801Y-20883665D02*
X22404801Y-20845570D01*
X22404801Y-20845570D02*
X22414325Y-20797950D01*
X22414325Y-20797950D02*
X22423849Y-20769379D01*
X22423849Y-20769379D02*
X22433372Y-20750331D01*
X22433372Y-20750331D02*
X22452420Y-20721760D01*
X22452420Y-20721760D02*
X22461944Y-20712236D01*
X22538134Y-20807474D02*
X22538134Y-20940808D01*
X22538134Y-20826522D02*
X22547658Y-20816998D01*
X22547658Y-20816998D02*
X22566706Y-20807474D01*
X22566706Y-20807474D02*
X22595277Y-20807474D01*
X22595277Y-20807474D02*
X22614325Y-20816998D01*
X22614325Y-20816998D02*
X22623849Y-20836046D01*
X22623849Y-20836046D02*
X22623849Y-20940808D01*
X22747658Y-20940808D02*
X22728611Y-20931284D01*
X22728611Y-20931284D02*
X22719087Y-20921760D01*
X22719087Y-20921760D02*
X22709563Y-20902712D01*
X22709563Y-20902712D02*
X22709563Y-20845570D01*
X22709563Y-20845570D02*
X22719087Y-20826522D01*
X22719087Y-20826522D02*
X22728611Y-20816998D01*
X22728611Y-20816998D02*
X22747658Y-20807474D01*
X22747658Y-20807474D02*
X22776230Y-20807474D01*
X22776230Y-20807474D02*
X22795277Y-20816998D01*
X22795277Y-20816998D02*
X22804801Y-20826522D01*
X22804801Y-20826522D02*
X22814325Y-20845570D01*
X22814325Y-20845570D02*
X22814325Y-20902712D01*
X22814325Y-20902712D02*
X22804801Y-20921760D01*
X22804801Y-20921760D02*
X22795277Y-20931284D01*
X22795277Y-20931284D02*
X22776230Y-20940808D01*
X22776230Y-20940808D02*
X22747658Y-20940808D01*
X22871468Y-20807474D02*
X22947658Y-20807474D01*
X22900039Y-20740808D02*
X22900039Y-20912236D01*
X22900039Y-20912236D02*
X22909563Y-20931284D01*
X22909563Y-20931284D02*
X22928611Y-20940808D01*
X22928611Y-20940808D02*
X22947658Y-20940808D01*
X23166706Y-20807474D02*
X23166706Y-21007474D01*
X23166706Y-20816998D02*
X23185753Y-20807474D01*
X23185753Y-20807474D02*
X23223849Y-20807474D01*
X23223849Y-20807474D02*
X23242896Y-20816998D01*
X23242896Y-20816998D02*
X23252420Y-20826522D01*
X23252420Y-20826522D02*
X23261944Y-20845570D01*
X23261944Y-20845570D02*
X23261944Y-20902712D01*
X23261944Y-20902712D02*
X23252420Y-20921760D01*
X23252420Y-20921760D02*
X23242896Y-20931284D01*
X23242896Y-20931284D02*
X23223849Y-20940808D01*
X23223849Y-20940808D02*
X23185753Y-20940808D01*
X23185753Y-20940808D02*
X23166706Y-20931284D01*
X23376230Y-20940808D02*
X23357182Y-20931284D01*
X23357182Y-20931284D02*
X23347658Y-20912236D01*
X23347658Y-20912236D02*
X23347658Y-20740808D01*
X23538134Y-20940808D02*
X23538134Y-20836046D01*
X23538134Y-20836046D02*
X23528611Y-20816998D01*
X23528611Y-20816998D02*
X23509563Y-20807474D01*
X23509563Y-20807474D02*
X23471468Y-20807474D01*
X23471468Y-20807474D02*
X23452420Y-20816998D01*
X23538134Y-20931284D02*
X23519087Y-20940808D01*
X23519087Y-20940808D02*
X23471468Y-20940808D01*
X23471468Y-20940808D02*
X23452420Y-20931284D01*
X23452420Y-20931284D02*
X23442896Y-20912236D01*
X23442896Y-20912236D02*
X23442896Y-20893189D01*
X23442896Y-20893189D02*
X23452420Y-20874141D01*
X23452420Y-20874141D02*
X23471468Y-20864617D01*
X23471468Y-20864617D02*
X23519087Y-20864617D01*
X23519087Y-20864617D02*
X23538134Y-20855093D01*
X23604801Y-20807474D02*
X23680992Y-20807474D01*
X23633373Y-20740808D02*
X23633373Y-20912236D01*
X23633373Y-20912236D02*
X23642896Y-20931284D01*
X23642896Y-20931284D02*
X23661944Y-20940808D01*
X23661944Y-20940808D02*
X23680992Y-20940808D01*
X23823849Y-20931284D02*
X23804801Y-20940808D01*
X23804801Y-20940808D02*
X23766706Y-20940808D01*
X23766706Y-20940808D02*
X23747658Y-20931284D01*
X23747658Y-20931284D02*
X23738134Y-20912236D01*
X23738134Y-20912236D02*
X23738134Y-20836046D01*
X23738134Y-20836046D02*
X23747658Y-20816998D01*
X23747658Y-20816998D02*
X23766706Y-20807474D01*
X23766706Y-20807474D02*
X23804801Y-20807474D01*
X23804801Y-20807474D02*
X23823849Y-20816998D01*
X23823849Y-20816998D02*
X23833373Y-20836046D01*
X23833373Y-20836046D02*
X23833373Y-20855093D01*
X23833373Y-20855093D02*
X23738134Y-20874141D01*
X24004801Y-20940808D02*
X24004801Y-20740808D01*
X24004801Y-20931284D02*
X23985754Y-20940808D01*
X23985754Y-20940808D02*
X23947658Y-20940808D01*
X23947658Y-20940808D02*
X23928611Y-20931284D01*
X23928611Y-20931284D02*
X23919087Y-20921760D01*
X23919087Y-20921760D02*
X23909563Y-20902712D01*
X23909563Y-20902712D02*
X23909563Y-20845570D01*
X23909563Y-20845570D02*
X23919087Y-20826522D01*
X23919087Y-20826522D02*
X23928611Y-20816998D01*
X23928611Y-20816998D02*
X23947658Y-20807474D01*
X23947658Y-20807474D02*
X23985754Y-20807474D01*
X23985754Y-20807474D02*
X24004801Y-20816998D01*
X24080992Y-21016998D02*
X24090515Y-21007474D01*
X24090515Y-21007474D02*
X24109563Y-20978903D01*
X24109563Y-20978903D02*
X24119087Y-20959855D01*
X24119087Y-20959855D02*
X24128611Y-20931284D01*
X24128611Y-20931284D02*
X24138134Y-20883665D01*
X24138134Y-20883665D02*
X24138134Y-20845570D01*
X24138134Y-20845570D02*
X24128611Y-20797950D01*
X24128611Y-20797950D02*
X24119087Y-20769379D01*
X24119087Y-20769379D02*
X24109563Y-20750331D01*
X24109563Y-20750331D02*
X24090515Y-20721760D01*
X24090515Y-20721760D02*
X24080992Y-20712236D01*
X17105211Y-21240035D02*
X17105211Y-21098612D01*
X16963789Y-21098612D01*
X16963789Y-21240035D01*
X17105211Y-21240035D01*
X17376229Y-21060808D02*
X17500039Y-21060808D01*
X17500039Y-21060808D02*
X17433372Y-21136998D01*
X17433372Y-21136998D02*
X17461944Y-21136998D01*
X17461944Y-21136998D02*
X17480991Y-21146522D01*
X17480991Y-21146522D02*
X17490515Y-21156046D01*
X17490515Y-21156046D02*
X17500039Y-21175093D01*
X17500039Y-21175093D02*
X17500039Y-21222712D01*
X17500039Y-21222712D02*
X17490515Y-21241760D01*
X17490515Y-21241760D02*
X17480991Y-21251284D01*
X17480991Y-21251284D02*
X17461944Y-21260808D01*
X17461944Y-21260808D02*
X17404801Y-21260808D01*
X17404801Y-21260808D02*
X17385753Y-21251284D01*
X17385753Y-21251284D02*
X17376229Y-21241760D01*
X17585753Y-21241760D02*
X17595277Y-21251284D01*
X17595277Y-21251284D02*
X17585753Y-21260808D01*
X17585753Y-21260808D02*
X17576229Y-21251284D01*
X17576229Y-21251284D02*
X17585753Y-21241760D01*
X17585753Y-21241760D02*
X17585753Y-21260808D01*
X17766705Y-21127474D02*
X17766705Y-21260808D01*
X17719086Y-21051284D02*
X17671467Y-21194141D01*
X17671467Y-21194141D02*
X17795277Y-21194141D01*
X17861944Y-21079855D02*
X17871467Y-21070331D01*
X17871467Y-21070331D02*
X17890515Y-21060808D01*
X17890515Y-21060808D02*
X17938134Y-21060808D01*
X17938134Y-21060808D02*
X17957182Y-21070331D01*
X17957182Y-21070331D02*
X17966705Y-21079855D01*
X17966705Y-21079855D02*
X17976229Y-21098903D01*
X17976229Y-21098903D02*
X17976229Y-21117950D01*
X17976229Y-21117950D02*
X17966705Y-21146522D01*
X17966705Y-21146522D02*
X17852420Y-21260808D01*
X17852420Y-21260808D02*
X17976229Y-21260808D01*
X18071467Y-21260808D02*
X18109563Y-21260808D01*
X18109563Y-21260808D02*
X18128610Y-21251284D01*
X18128610Y-21251284D02*
X18138134Y-21241760D01*
X18138134Y-21241760D02*
X18157182Y-21213189D01*
X18157182Y-21213189D02*
X18166705Y-21175093D01*
X18166705Y-21175093D02*
X18166705Y-21098903D01*
X18166705Y-21098903D02*
X18157182Y-21079855D01*
X18157182Y-21079855D02*
X18147658Y-21070331D01*
X18147658Y-21070331D02*
X18128610Y-21060808D01*
X18128610Y-21060808D02*
X18090515Y-21060808D01*
X18090515Y-21060808D02*
X18071467Y-21070331D01*
X18071467Y-21070331D02*
X18061944Y-21079855D01*
X18061944Y-21079855D02*
X18052420Y-21098903D01*
X18052420Y-21098903D02*
X18052420Y-21146522D01*
X18052420Y-21146522D02*
X18061944Y-21165570D01*
X18061944Y-21165570D02*
X18071467Y-21175093D01*
X18071467Y-21175093D02*
X18090515Y-21184617D01*
X18090515Y-21184617D02*
X18128610Y-21184617D01*
X18128610Y-21184617D02*
X18147658Y-21175093D01*
X18147658Y-21175093D02*
X18157182Y-21165570D01*
X18157182Y-21165570D02*
X18166705Y-21146522D01*
X18252420Y-21260808D02*
X18252420Y-21127474D01*
X18252420Y-21146522D02*
X18261944Y-21136998D01*
X18261944Y-21136998D02*
X18280991Y-21127474D01*
X18280991Y-21127474D02*
X18309563Y-21127474D01*
X18309563Y-21127474D02*
X18328610Y-21136998D01*
X18328610Y-21136998D02*
X18338134Y-21156046D01*
X18338134Y-21156046D02*
X18338134Y-21260808D01*
X18338134Y-21156046D02*
X18347658Y-21136998D01*
X18347658Y-21136998D02*
X18366705Y-21127474D01*
X18366705Y-21127474D02*
X18395277Y-21127474D01*
X18395277Y-21127474D02*
X18414325Y-21136998D01*
X18414325Y-21136998D02*
X18423848Y-21156046D01*
X18423848Y-21156046D02*
X18423848Y-21260808D01*
X18519086Y-21260808D02*
X18519086Y-21127474D01*
X18519086Y-21146522D02*
X18528610Y-21136998D01*
X18528610Y-21136998D02*
X18547658Y-21127474D01*
X18547658Y-21127474D02*
X18576229Y-21127474D01*
X18576229Y-21127474D02*
X18595277Y-21136998D01*
X18595277Y-21136998D02*
X18604801Y-21156046D01*
X18604801Y-21156046D02*
X18604801Y-21260808D01*
X18604801Y-21156046D02*
X18614325Y-21136998D01*
X18614325Y-21136998D02*
X18633372Y-21127474D01*
X18633372Y-21127474D02*
X18661944Y-21127474D01*
X18661944Y-21127474D02*
X18680991Y-21136998D01*
X18680991Y-21136998D02*
X18690515Y-21156046D01*
X18690515Y-21156046D02*
X18690515Y-21260808D01*
X19080991Y-21051284D02*
X18909563Y-21308427D01*
X19338134Y-21060808D02*
X19357182Y-21060808D01*
X19357182Y-21060808D02*
X19376229Y-21070331D01*
X19376229Y-21070331D02*
X19385753Y-21079855D01*
X19385753Y-21079855D02*
X19395277Y-21098903D01*
X19395277Y-21098903D02*
X19404801Y-21136998D01*
X19404801Y-21136998D02*
X19404801Y-21184617D01*
X19404801Y-21184617D02*
X19395277Y-21222712D01*
X19395277Y-21222712D02*
X19385753Y-21241760D01*
X19385753Y-21241760D02*
X19376229Y-21251284D01*
X19376229Y-21251284D02*
X19357182Y-21260808D01*
X19357182Y-21260808D02*
X19338134Y-21260808D01*
X19338134Y-21260808D02*
X19319087Y-21251284D01*
X19319087Y-21251284D02*
X19309563Y-21241760D01*
X19309563Y-21241760D02*
X19300039Y-21222712D01*
X19300039Y-21222712D02*
X19290515Y-21184617D01*
X19290515Y-21184617D02*
X19290515Y-21136998D01*
X19290515Y-21136998D02*
X19300039Y-21098903D01*
X19300039Y-21098903D02*
X19309563Y-21079855D01*
X19309563Y-21079855D02*
X19319087Y-21070331D01*
X19319087Y-21070331D02*
X19338134Y-21060808D01*
X19490515Y-21241760D02*
X19500039Y-21251284D01*
X19500039Y-21251284D02*
X19490515Y-21260808D01*
X19490515Y-21260808D02*
X19480991Y-21251284D01*
X19480991Y-21251284D02*
X19490515Y-21241760D01*
X19490515Y-21241760D02*
X19490515Y-21260808D01*
X19690515Y-21260808D02*
X19576229Y-21260808D01*
X19633372Y-21260808D02*
X19633372Y-21060808D01*
X19633372Y-21060808D02*
X19614325Y-21089379D01*
X19614325Y-21089379D02*
X19595277Y-21108427D01*
X19595277Y-21108427D02*
X19576229Y-21117950D01*
X19757182Y-21060808D02*
X19880991Y-21060808D01*
X19880991Y-21060808D02*
X19814325Y-21136998D01*
X19814325Y-21136998D02*
X19842896Y-21136998D01*
X19842896Y-21136998D02*
X19861944Y-21146522D01*
X19861944Y-21146522D02*
X19871468Y-21156046D01*
X19871468Y-21156046D02*
X19880991Y-21175093D01*
X19880991Y-21175093D02*
X19880991Y-21222712D01*
X19880991Y-21222712D02*
X19871468Y-21241760D01*
X19871468Y-21241760D02*
X19861944Y-21251284D01*
X19861944Y-21251284D02*
X19842896Y-21260808D01*
X19842896Y-21260808D02*
X19785753Y-21260808D01*
X19785753Y-21260808D02*
X19766706Y-21251284D01*
X19766706Y-21251284D02*
X19757182Y-21241760D01*
X20061944Y-21060808D02*
X19966706Y-21060808D01*
X19966706Y-21060808D02*
X19957182Y-21156046D01*
X19957182Y-21156046D02*
X19966706Y-21146522D01*
X19966706Y-21146522D02*
X19985753Y-21136998D01*
X19985753Y-21136998D02*
X20033372Y-21136998D01*
X20033372Y-21136998D02*
X20052420Y-21146522D01*
X20052420Y-21146522D02*
X20061944Y-21156046D01*
X20061944Y-21156046D02*
X20071468Y-21175093D01*
X20071468Y-21175093D02*
X20071468Y-21222712D01*
X20071468Y-21222712D02*
X20061944Y-21241760D01*
X20061944Y-21241760D02*
X20052420Y-21251284D01*
X20052420Y-21251284D02*
X20033372Y-21260808D01*
X20033372Y-21260808D02*
X19985753Y-21260808D01*
X19985753Y-21260808D02*
X19966706Y-21251284D01*
X19966706Y-21251284D02*
X19957182Y-21241760D01*
X20195277Y-21060808D02*
X20214325Y-21060808D01*
X20214325Y-21060808D02*
X20233372Y-21070331D01*
X20233372Y-21070331D02*
X20242896Y-21079855D01*
X20242896Y-21079855D02*
X20252420Y-21098903D01*
X20252420Y-21098903D02*
X20261944Y-21136998D01*
X20261944Y-21136998D02*
X20261944Y-21184617D01*
X20261944Y-21184617D02*
X20252420Y-21222712D01*
X20252420Y-21222712D02*
X20242896Y-21241760D01*
X20242896Y-21241760D02*
X20233372Y-21251284D01*
X20233372Y-21251284D02*
X20214325Y-21260808D01*
X20214325Y-21260808D02*
X20195277Y-21260808D01*
X20195277Y-21260808D02*
X20176229Y-21251284D01*
X20176229Y-21251284D02*
X20166706Y-21241760D01*
X20166706Y-21241760D02*
X20157182Y-21222712D01*
X20157182Y-21222712D02*
X20147658Y-21184617D01*
X20147658Y-21184617D02*
X20147658Y-21136998D01*
X20147658Y-21136998D02*
X20157182Y-21098903D01*
X20157182Y-21098903D02*
X20166706Y-21079855D01*
X20166706Y-21079855D02*
X20176229Y-21070331D01*
X20176229Y-21070331D02*
X20195277Y-21060808D01*
X20338134Y-21060808D02*
X20338134Y-21098903D01*
X20414325Y-21060808D02*
X20414325Y-21098903D01*
X20709563Y-21336998D02*
X20700039Y-21327474D01*
X20700039Y-21327474D02*
X20680991Y-21298903D01*
X20680991Y-21298903D02*
X20671468Y-21279855D01*
X20671468Y-21279855D02*
X20661944Y-21251284D01*
X20661944Y-21251284D02*
X20652420Y-21203665D01*
X20652420Y-21203665D02*
X20652420Y-21165570D01*
X20652420Y-21165570D02*
X20661944Y-21117950D01*
X20661944Y-21117950D02*
X20671468Y-21089379D01*
X20671468Y-21089379D02*
X20680991Y-21070331D01*
X20680991Y-21070331D02*
X20700039Y-21041760D01*
X20700039Y-21041760D02*
X20709563Y-21032236D01*
X20766706Y-21060808D02*
X20890515Y-21060808D01*
X20890515Y-21060808D02*
X20823849Y-21136998D01*
X20823849Y-21136998D02*
X20852420Y-21136998D01*
X20852420Y-21136998D02*
X20871468Y-21146522D01*
X20871468Y-21146522D02*
X20880991Y-21156046D01*
X20880991Y-21156046D02*
X20890515Y-21175093D01*
X20890515Y-21175093D02*
X20890515Y-21222712D01*
X20890515Y-21222712D02*
X20880991Y-21241760D01*
X20880991Y-21241760D02*
X20871468Y-21251284D01*
X20871468Y-21251284D02*
X20852420Y-21260808D01*
X20852420Y-21260808D02*
X20795277Y-21260808D01*
X20795277Y-21260808D02*
X20776230Y-21251284D01*
X20776230Y-21251284D02*
X20766706Y-21241760D01*
X21061944Y-21060808D02*
X21023849Y-21060808D01*
X21023849Y-21060808D02*
X21004801Y-21070331D01*
X21004801Y-21070331D02*
X20995277Y-21079855D01*
X20995277Y-21079855D02*
X20976230Y-21108427D01*
X20976230Y-21108427D02*
X20966706Y-21146522D01*
X20966706Y-21146522D02*
X20966706Y-21222712D01*
X20966706Y-21222712D02*
X20976230Y-21241760D01*
X20976230Y-21241760D02*
X20985753Y-21251284D01*
X20985753Y-21251284D02*
X21004801Y-21260808D01*
X21004801Y-21260808D02*
X21042896Y-21260808D01*
X21042896Y-21260808D02*
X21061944Y-21251284D01*
X21061944Y-21251284D02*
X21071468Y-21241760D01*
X21071468Y-21241760D02*
X21080991Y-21222712D01*
X21080991Y-21222712D02*
X21080991Y-21175093D01*
X21080991Y-21175093D02*
X21071468Y-21156046D01*
X21071468Y-21156046D02*
X21061944Y-21146522D01*
X21061944Y-21146522D02*
X21042896Y-21136998D01*
X21042896Y-21136998D02*
X21004801Y-21136998D01*
X21004801Y-21136998D02*
X20985753Y-21146522D01*
X20985753Y-21146522D02*
X20976230Y-21156046D01*
X20976230Y-21156046D02*
X20966706Y-21175093D01*
X21319087Y-21260808D02*
X21319087Y-21060808D01*
X21404801Y-21260808D02*
X21404801Y-21156046D01*
X21404801Y-21156046D02*
X21395277Y-21136998D01*
X21395277Y-21136998D02*
X21376230Y-21127474D01*
X21376230Y-21127474D02*
X21347658Y-21127474D01*
X21347658Y-21127474D02*
X21328611Y-21136998D01*
X21328611Y-21136998D02*
X21319087Y-21146522D01*
X21528611Y-21260808D02*
X21509563Y-21251284D01*
X21509563Y-21251284D02*
X21500039Y-21241760D01*
X21500039Y-21241760D02*
X21490515Y-21222712D01*
X21490515Y-21222712D02*
X21490515Y-21165570D01*
X21490515Y-21165570D02*
X21500039Y-21146522D01*
X21500039Y-21146522D02*
X21509563Y-21136998D01*
X21509563Y-21136998D02*
X21528611Y-21127474D01*
X21528611Y-21127474D02*
X21557182Y-21127474D01*
X21557182Y-21127474D02*
X21576230Y-21136998D01*
X21576230Y-21136998D02*
X21585753Y-21146522D01*
X21585753Y-21146522D02*
X21595277Y-21165570D01*
X21595277Y-21165570D02*
X21595277Y-21222712D01*
X21595277Y-21222712D02*
X21585753Y-21241760D01*
X21585753Y-21241760D02*
X21576230Y-21251284D01*
X21576230Y-21251284D02*
X21557182Y-21260808D01*
X21557182Y-21260808D02*
X21528611Y-21260808D01*
X21709563Y-21260808D02*
X21690515Y-21251284D01*
X21690515Y-21251284D02*
X21680992Y-21232236D01*
X21680992Y-21232236D02*
X21680992Y-21060808D01*
X21861944Y-21251284D02*
X21842896Y-21260808D01*
X21842896Y-21260808D02*
X21804801Y-21260808D01*
X21804801Y-21260808D02*
X21785753Y-21251284D01*
X21785753Y-21251284D02*
X21776230Y-21232236D01*
X21776230Y-21232236D02*
X21776230Y-21156046D01*
X21776230Y-21156046D02*
X21785753Y-21136998D01*
X21785753Y-21136998D02*
X21804801Y-21127474D01*
X21804801Y-21127474D02*
X21842896Y-21127474D01*
X21842896Y-21127474D02*
X21861944Y-21136998D01*
X21861944Y-21136998D02*
X21871468Y-21156046D01*
X21871468Y-21156046D02*
X21871468Y-21175093D01*
X21871468Y-21175093D02*
X21776230Y-21194141D01*
X21947658Y-21251284D02*
X21966706Y-21260808D01*
X21966706Y-21260808D02*
X22004801Y-21260808D01*
X22004801Y-21260808D02*
X22023849Y-21251284D01*
X22023849Y-21251284D02*
X22033373Y-21232236D01*
X22033373Y-21232236D02*
X22033373Y-21222712D01*
X22033373Y-21222712D02*
X22023849Y-21203665D01*
X22023849Y-21203665D02*
X22004801Y-21194141D01*
X22004801Y-21194141D02*
X21976230Y-21194141D01*
X21976230Y-21194141D02*
X21957182Y-21184617D01*
X21957182Y-21184617D02*
X21947658Y-21165570D01*
X21947658Y-21165570D02*
X21947658Y-21156046D01*
X21947658Y-21156046D02*
X21957182Y-21136998D01*
X21957182Y-21136998D02*
X21976230Y-21127474D01*
X21976230Y-21127474D02*
X22004801Y-21127474D01*
X22004801Y-21127474D02*
X22023849Y-21136998D01*
X22100039Y-21336998D02*
X22109563Y-21327474D01*
X22109563Y-21327474D02*
X22128611Y-21298903D01*
X22128611Y-21298903D02*
X22138134Y-21279855D01*
X22138134Y-21279855D02*
X22147658Y-21251284D01*
X22147658Y-21251284D02*
X22157182Y-21203665D01*
X22157182Y-21203665D02*
X22157182Y-21165570D01*
X22157182Y-21165570D02*
X22147658Y-21117950D01*
X22147658Y-21117950D02*
X22138134Y-21089379D01*
X22138134Y-21089379D02*
X22128611Y-21070331D01*
X22128611Y-21070331D02*
X22109563Y-21041760D01*
X22109563Y-21041760D02*
X22100039Y-21032236D01*
X22461944Y-21336998D02*
X22452420Y-21327474D01*
X22452420Y-21327474D02*
X22433372Y-21298903D01*
X22433372Y-21298903D02*
X22423849Y-21279855D01*
X22423849Y-21279855D02*
X22414325Y-21251284D01*
X22414325Y-21251284D02*
X22404801Y-21203665D01*
X22404801Y-21203665D02*
X22404801Y-21165570D01*
X22404801Y-21165570D02*
X22414325Y-21117950D01*
X22414325Y-21117950D02*
X22423849Y-21089379D01*
X22423849Y-21089379D02*
X22433372Y-21070331D01*
X22433372Y-21070331D02*
X22452420Y-21041760D01*
X22452420Y-21041760D02*
X22461944Y-21032236D01*
X22538134Y-21127474D02*
X22538134Y-21260808D01*
X22538134Y-21146522D02*
X22547658Y-21136998D01*
X22547658Y-21136998D02*
X22566706Y-21127474D01*
X22566706Y-21127474D02*
X22595277Y-21127474D01*
X22595277Y-21127474D02*
X22614325Y-21136998D01*
X22614325Y-21136998D02*
X22623849Y-21156046D01*
X22623849Y-21156046D02*
X22623849Y-21260808D01*
X22747658Y-21260808D02*
X22728611Y-21251284D01*
X22728611Y-21251284D02*
X22719087Y-21241760D01*
X22719087Y-21241760D02*
X22709563Y-21222712D01*
X22709563Y-21222712D02*
X22709563Y-21165570D01*
X22709563Y-21165570D02*
X22719087Y-21146522D01*
X22719087Y-21146522D02*
X22728611Y-21136998D01*
X22728611Y-21136998D02*
X22747658Y-21127474D01*
X22747658Y-21127474D02*
X22776230Y-21127474D01*
X22776230Y-21127474D02*
X22795277Y-21136998D01*
X22795277Y-21136998D02*
X22804801Y-21146522D01*
X22804801Y-21146522D02*
X22814325Y-21165570D01*
X22814325Y-21165570D02*
X22814325Y-21222712D01*
X22814325Y-21222712D02*
X22804801Y-21241760D01*
X22804801Y-21241760D02*
X22795277Y-21251284D01*
X22795277Y-21251284D02*
X22776230Y-21260808D01*
X22776230Y-21260808D02*
X22747658Y-21260808D01*
X22871468Y-21127474D02*
X22947658Y-21127474D01*
X22900039Y-21060808D02*
X22900039Y-21232236D01*
X22900039Y-21232236D02*
X22909563Y-21251284D01*
X22909563Y-21251284D02*
X22928611Y-21260808D01*
X22928611Y-21260808D02*
X22947658Y-21260808D01*
X23166706Y-21127474D02*
X23166706Y-21327474D01*
X23166706Y-21136998D02*
X23185753Y-21127474D01*
X23185753Y-21127474D02*
X23223849Y-21127474D01*
X23223849Y-21127474D02*
X23242896Y-21136998D01*
X23242896Y-21136998D02*
X23252420Y-21146522D01*
X23252420Y-21146522D02*
X23261944Y-21165570D01*
X23261944Y-21165570D02*
X23261944Y-21222712D01*
X23261944Y-21222712D02*
X23252420Y-21241760D01*
X23252420Y-21241760D02*
X23242896Y-21251284D01*
X23242896Y-21251284D02*
X23223849Y-21260808D01*
X23223849Y-21260808D02*
X23185753Y-21260808D01*
X23185753Y-21260808D02*
X23166706Y-21251284D01*
X23376230Y-21260808D02*
X23357182Y-21251284D01*
X23357182Y-21251284D02*
X23347658Y-21232236D01*
X23347658Y-21232236D02*
X23347658Y-21060808D01*
X23538134Y-21260808D02*
X23538134Y-21156046D01*
X23538134Y-21156046D02*
X23528611Y-21136998D01*
X23528611Y-21136998D02*
X23509563Y-21127474D01*
X23509563Y-21127474D02*
X23471468Y-21127474D01*
X23471468Y-21127474D02*
X23452420Y-21136998D01*
X23538134Y-21251284D02*
X23519087Y-21260808D01*
X23519087Y-21260808D02*
X23471468Y-21260808D01*
X23471468Y-21260808D02*
X23452420Y-21251284D01*
X23452420Y-21251284D02*
X23442896Y-21232236D01*
X23442896Y-21232236D02*
X23442896Y-21213189D01*
X23442896Y-21213189D02*
X23452420Y-21194141D01*
X23452420Y-21194141D02*
X23471468Y-21184617D01*
X23471468Y-21184617D02*
X23519087Y-21184617D01*
X23519087Y-21184617D02*
X23538134Y-21175093D01*
X23604801Y-21127474D02*
X23680992Y-21127474D01*
X23633373Y-21060808D02*
X23633373Y-21232236D01*
X23633373Y-21232236D02*
X23642896Y-21251284D01*
X23642896Y-21251284D02*
X23661944Y-21260808D01*
X23661944Y-21260808D02*
X23680992Y-21260808D01*
X23823849Y-21251284D02*
X23804801Y-21260808D01*
X23804801Y-21260808D02*
X23766706Y-21260808D01*
X23766706Y-21260808D02*
X23747658Y-21251284D01*
X23747658Y-21251284D02*
X23738134Y-21232236D01*
X23738134Y-21232236D02*
X23738134Y-21156046D01*
X23738134Y-21156046D02*
X23747658Y-21136998D01*
X23747658Y-21136998D02*
X23766706Y-21127474D01*
X23766706Y-21127474D02*
X23804801Y-21127474D01*
X23804801Y-21127474D02*
X23823849Y-21136998D01*
X23823849Y-21136998D02*
X23833373Y-21156046D01*
X23833373Y-21156046D02*
X23833373Y-21175093D01*
X23833373Y-21175093D02*
X23738134Y-21194141D01*
X24004801Y-21260808D02*
X24004801Y-21060808D01*
X24004801Y-21251284D02*
X23985754Y-21260808D01*
X23985754Y-21260808D02*
X23947658Y-21260808D01*
X23947658Y-21260808D02*
X23928611Y-21251284D01*
X23928611Y-21251284D02*
X23919087Y-21241760D01*
X23919087Y-21241760D02*
X23909563Y-21222712D01*
X23909563Y-21222712D02*
X23909563Y-21165570D01*
X23909563Y-21165570D02*
X23919087Y-21146522D01*
X23919087Y-21146522D02*
X23928611Y-21136998D01*
X23928611Y-21136998D02*
X23947658Y-21127474D01*
X23947658Y-21127474D02*
X23985754Y-21127474D01*
X23985754Y-21127474D02*
X24004801Y-21136998D01*
X24080992Y-21336998D02*
X24090515Y-21327474D01*
X24090515Y-21327474D02*
X24109563Y-21298903D01*
X24109563Y-21298903D02*
X24119087Y-21279855D01*
X24119087Y-21279855D02*
X24128611Y-21251284D01*
X24128611Y-21251284D02*
X24138134Y-21203665D01*
X24138134Y-21203665D02*
X24138134Y-21165570D01*
X24138134Y-21165570D02*
X24128611Y-21117950D01*
X24128611Y-21117950D02*
X24119087Y-21089379D01*
X24119087Y-21089379D02*
X24109563Y-21070331D01*
X24109563Y-21070331D02*
X24090515Y-21041760D01*
X24090515Y-21041760D02*
X24080992Y-21032236D01*
M02*
