%TF.GenerationSoftware,KiCad,Pcbnew,7.0.9*%
%TF.CreationDate,2023-11-22T09:36:00+00:00*%
%TF.ProjectId,vee_board_routed,7665655f-626f-4617-9264-5f726f757465,v1.0.0*%
%TF.SameCoordinates,Original*%
%TF.FileFunction,Profile,NP*%
%FSLAX46Y46*%
G04 Gerber Fmt 4.6, Leading zero omitted, Abs format (unit mm)*
G04 Created by KiCad (PCBNEW 7.0.9) date 2023-11-22 09:36:00*
%MOMM*%
%LPD*%
G01*
G04 APERTURE LIST*
%TA.AperFunction,Profile*%
%ADD10C,0.150000*%
%TD*%
G04 APERTURE END LIST*
D10*
X245815863Y-109732071D02*
X247020000Y-111070000D01*
X192513171Y-109069974D02*
G75*
G03*
X190689328Y-110249271I29J-2000026D01*
G01*
X189950672Y-111890729D02*
X190689328Y-110249271D01*
X279824579Y-180942579D02*
X269137544Y-195652020D01*
X250757242Y-185344234D02*
X237359373Y-180991003D01*
X263783431Y-112134215D02*
G75*
G03*
X262015837Y-111070000I-1767631J-935885D01*
G01*
X206863835Y-109069995D02*
G75*
G03*
X207896323Y-108782883I65J1999795D01*
G01*
X263783413Y-112134225D02*
X264456587Y-113405775D01*
X266343940Y-196094484D02*
X253519622Y-186777071D01*
X251063333Y-185472648D02*
G75*
G03*
X250757242Y-185344236I-924533J-1774752D01*
G01*
X266224163Y-114470000D02*
X284620000Y-114470000D01*
X225862038Y-107315577D02*
X228566966Y-108818315D01*
X225862048Y-107315559D02*
G75*
G03*
X224914362Y-107064032I-971148J-1747941D01*
G01*
X173420000Y-167470000D02*
X209685087Y-167470000D01*
X211532092Y-168702782D02*
G75*
G03*
X209685087Y-167469999I-1846992J-767218D01*
G01*
X228566953Y-108818338D02*
G75*
G03*
X229538252Y-109070000I971347J1748738D01*
G01*
X279824579Y-180942579D02*
G75*
G03*
X280039951Y-180566146I-1618579J1175879D01*
G01*
X253268174Y-186621409D02*
X251063331Y-185472652D01*
X245815852Y-109732080D02*
G75*
G03*
X244329274Y-109070000I-1486552J-1337820D01*
G01*
X215907908Y-179237218D02*
G75*
G03*
X217754913Y-180470001I1846992J767218D01*
G01*
X234251287Y-180470000D02*
X217754913Y-180470000D01*
X286453406Y-165852204D02*
X280039951Y-180566146D01*
X171420000Y-165470000D02*
G75*
G03*
X173420000Y-167470000I2000000J0D01*
G01*
X207896323Y-108782883D02*
X210532767Y-107193693D01*
X211588864Y-106906721D02*
G75*
G03*
X210532767Y-107193695I-23664J-1999679D01*
G01*
X286620000Y-116470000D02*
G75*
G03*
X284620000Y-114470000I-2000000J0D01*
G01*
X264456569Y-113405785D02*
G75*
G03*
X266224163Y-114470000I1767631J935885D01*
G01*
X237076381Y-180921379D02*
X234586329Y-180498263D01*
X266343938Y-196094486D02*
G75*
G03*
X269137543Y-195652021I1175562J1618086D01*
G01*
X286453396Y-165852200D02*
G75*
G03*
X286620000Y-165053066I-1833096J799100D01*
G01*
X286620000Y-116470000D02*
X286620000Y-165053066D01*
X237359373Y-180991002D02*
G75*
G03*
X237076381Y-180921379I-618173J-1902698D01*
G01*
X229538252Y-109070000D02*
X244329275Y-109070000D01*
X188126829Y-113070026D02*
G75*
G03*
X189950672Y-111890729I-29J2000026D01*
G01*
X173420000Y-113070000D02*
X188126829Y-113070000D01*
X211588864Y-106906716D02*
X224914361Y-107064031D01*
X173420000Y-113070000D02*
G75*
G03*
X171420000Y-115070000I0J-2000000D01*
G01*
X253519617Y-186777078D02*
G75*
G03*
X253268175Y-186621409I-1175817J-1618322D01*
G01*
X171420000Y-165470000D02*
X171420000Y-115070000D01*
X192513171Y-109070000D02*
X206863835Y-109070000D01*
X234586329Y-180498262D02*
G75*
G03*
X234251287Y-180470000I-335029J-1971638D01*
G01*
X215907919Y-179237213D02*
X211532081Y-168702787D01*
X247020000Y-111070000D02*
X262015837Y-111070000D01*
M02*
