%TF.GenerationSoftware,KiCad,Pcbnew,7.0.9*%
%TF.CreationDate,2023-11-22T09:36:00+00:00*%
%TF.ProjectId,vee_board_routed,7665655f-626f-4617-9264-5f726f757465,v1.0.0*%
%TF.SameCoordinates,Original*%
%TF.FileFunction,Copper,L1,Top*%
%TF.FilePolarity,Positive*%
%FSLAX46Y46*%
G04 Gerber Fmt 4.6, Leading zero omitted, Abs format (unit mm)*
G04 Created by KiCad (PCBNEW 7.0.9) date 2023-11-22 09:36:00*
%MOMM*%
%LPD*%
G01*
G04 APERTURE LIST*
G04 Aperture macros list*
%AMRoundRect*
0 Rectangle with rounded corners*
0 $1 Rounding radius*
0 $2 $3 $4 $5 $6 $7 $8 $9 X,Y pos of 4 corners*
0 Add a 4 corners polygon primitive as box body*
4,1,4,$2,$3,$4,$5,$6,$7,$8,$9,$2,$3,0*
0 Add four circle primitives for the rounded corners*
1,1,$1+$1,$2,$3*
1,1,$1+$1,$4,$5*
1,1,$1+$1,$6,$7*
1,1,$1+$1,$8,$9*
0 Add four rect primitives between the rounded corners*
20,1,$1+$1,$2,$3,$4,$5,0*
20,1,$1+$1,$4,$5,$6,$7,0*
20,1,$1+$1,$6,$7,$8,$9,0*
20,1,$1+$1,$8,$9,$2,$3,0*%
%AMRotRect*
0 Rectangle, with rotation*
0 The origin of the aperture is its center*
0 $1 length*
0 $2 width*
0 $3 Rotation angle, in degrees counterclockwise*
0 Add horizontal line*
21,1,$1,$2,0,0,$3*%
%AMFreePoly0*
4,1,5,0.125000,-0.500000,-0.125000,-0.500000,-0.125000,0.500000,0.125000,0.500000,0.125000,-0.500000,0.125000,-0.500000,$1*%
%AMFreePoly1*
4,1,6,0.600000,0.200000,0.000000,-0.400000,-0.600000,0.200000,-0.600000,0.400000,0.600000,0.400000,0.600000,0.200000,0.600000,0.200000,$1*%
%AMFreePoly2*
4,1,6,0.600000,-0.250000,-0.600000,-0.250000,-0.600000,1.000000,0.000000,0.400000,0.600000,1.000000,0.600000,-0.250000,0.600000,-0.250000,$1*%
G04 Aperture macros list end*
%TA.AperFunction,SMDPad,CuDef*%
%ADD10R,2.600000X2.600000*%
%TD*%
%TA.AperFunction,ComponentPad*%
%ADD11C,2.032000*%
%TD*%
%TA.AperFunction,ComponentPad*%
%ADD12R,1.400000X1.500000*%
%TD*%
%TA.AperFunction,SMDPad,CuDef*%
%ADD13R,0.800000X1.000000*%
%TD*%
%TA.AperFunction,SMDPad,CuDef*%
%ADD14R,1.500000X0.700000*%
%TD*%
%TA.AperFunction,ComponentPad*%
%ADD15C,1.600000*%
%TD*%
%TA.AperFunction,SMDPad,CuDef*%
%ADD16FreePoly0,270.000000*%
%TD*%
%TA.AperFunction,SMDPad,CuDef*%
%ADD17FreePoly1,270.000000*%
%TD*%
%TA.AperFunction,SMDPad,CuDef*%
%ADD18FreePoly1,90.000000*%
%TD*%
%TA.AperFunction,SMDPad,CuDef*%
%ADD19FreePoly0,90.000000*%
%TD*%
%TA.AperFunction,ComponentPad*%
%ADD20R,1.600000X1.600000*%
%TD*%
%TA.AperFunction,SMDPad,CuDef*%
%ADD21FreePoly2,270.000000*%
%TD*%
%TA.AperFunction,SMDPad,CuDef*%
%ADD22FreePoly2,90.000000*%
%TD*%
%TA.AperFunction,SMDPad,CuDef*%
%ADD23RotRect,2.600000X2.600000X324.000000*%
%TD*%
%TA.AperFunction,ComponentPad*%
%ADD24RoundRect,0.250000X0.350000X0.625000X-0.350000X0.625000X-0.350000X-0.625000X0.350000X-0.625000X0*%
%TD*%
%TA.AperFunction,ComponentPad*%
%ADD25O,1.200000X1.750000*%
%TD*%
%TA.AperFunction,SMDPad,CuDef*%
%ADD26RotRect,2.600000X2.600000X342.000000*%
%TD*%
%TA.AperFunction,ViaPad*%
%ADD27C,0.600000*%
%TD*%
%TA.AperFunction,ViaPad*%
%ADD28C,0.800000*%
%TD*%
%TA.AperFunction,Conductor*%
%ADD29C,0.250000*%
%TD*%
%TA.AperFunction,Conductor*%
%ADD30C,0.200000*%
%TD*%
G04 APERTURE END LIST*
D10*
%TO.P,S11,1*%
%TO.N,P2*%
X239495000Y-130320000D03*
%TO.P,S11,2*%
%TO.N,GND*%
X227945000Y-132520000D03*
%TD*%
%TO.P,S4,1*%
%TO.N,P18*%
X203495000Y-147320000D03*
%TO.P,S4,2*%
%TO.N,GND*%
X191945000Y-149520000D03*
%TD*%
%TO.P,S9,1*%
%TO.N,P1*%
X221495000Y-111320000D03*
%TO.P,S9,2*%
%TO.N,GND*%
X209945000Y-113520000D03*
%TD*%
D11*
%TO.P,S26,1*%
%TO.N,P10*%
X223220000Y-138070000D03*
X213220000Y-138070000D03*
%TO.P,S26,2*%
%TO.N,GND*%
X218220000Y-140170000D03*
X218220000Y-140170000D03*
%TD*%
D12*
%TO.P,S37,1*%
%TO.N,RST*%
X284220000Y-164520000D03*
%TO.P,S37,2*%
%TO.N,GND*%
X284220000Y-158020000D03*
%TD*%
D10*
%TO.P,S12,1*%
%TO.N,P3*%
X239495000Y-113320000D03*
%TO.P,S12,2*%
%TO.N,GND*%
X227945000Y-115520000D03*
%TD*%
%TO.P,S5,1*%
%TO.N,P15*%
X203495000Y-130320000D03*
%TO.P,S5,2*%
%TO.N,GND*%
X191945000Y-132520000D03*
%TD*%
%TO.P,S1,1*%
%TO.N,P21*%
X185495000Y-151320000D03*
%TO.P,S1,2*%
%TO.N,GND*%
X173945000Y-153520000D03*
%TD*%
D11*
%TO.P,S34,1*%
%TO.N,P7*%
X232220000Y-174070000D03*
X222220000Y-174070000D03*
%TO.P,S34,2*%
%TO.N,GND*%
X227220000Y-176170000D03*
X227220000Y-176170000D03*
%TD*%
%TO.P,S29,1*%
%TO.N,P2*%
X241220000Y-140070000D03*
X231220000Y-140070000D03*
%TO.P,S29,2*%
%TO.N,GND*%
X236220000Y-142170000D03*
X236220000Y-142170000D03*
%TD*%
D13*
%TO.P,T1,*%
%TO.N,*%
X283940000Y-155920000D03*
X286150000Y-155920000D03*
D14*
X283290000Y-150020000D03*
D13*
X283940000Y-148620000D03*
X286150000Y-148620000D03*
D14*
%TO.P,T1,1*%
%TO.N,pos*%
X283290000Y-154520000D03*
%TO.P,T1,2*%
%TO.N,RAW*%
X283290000Y-151520000D03*
%TD*%
D11*
%TO.P,S28,1*%
%TO.N,P0*%
X241220000Y-157070000D03*
X231220000Y-157070000D03*
%TO.P,S28,2*%
%TO.N,GND*%
X236220000Y-159170000D03*
X236220000Y-159170000D03*
%TD*%
D10*
%TO.P,S2,1*%
%TO.N,P20*%
X185495000Y-134320000D03*
%TO.P,S2,2*%
%TO.N,GND*%
X173945000Y-136520000D03*
%TD*%
%TO.P,S8,1*%
%TO.N,P10*%
X221495000Y-128320000D03*
%TO.P,S8,2*%
%TO.N,GND*%
X209945000Y-130520000D03*
%TD*%
D11*
%TO.P,S20,1*%
%TO.N,P20*%
X187220000Y-144070000D03*
X177220000Y-144070000D03*
%TO.P,S20,2*%
%TO.N,GND*%
X182220000Y-146170000D03*
X182220000Y-146170000D03*
%TD*%
D15*
%TO.P,MCU1,*%
%TO.N,*%
X283840000Y-117800000D03*
D16*
X282570000Y-117800000D03*
D17*
X282062000Y-117800000D03*
D18*
X270378000Y-117800000D03*
D19*
X269870000Y-117800000D03*
D15*
X268600000Y-117800000D03*
D20*
X268600000Y-117800000D03*
D15*
X283840000Y-120340000D03*
D16*
X282570000Y-120340000D03*
D17*
X282062000Y-120340000D03*
D18*
X270378000Y-120340000D03*
D19*
X269870000Y-120340000D03*
D15*
X268600000Y-120340000D03*
X283840000Y-122880000D03*
D16*
X282570000Y-122880000D03*
D17*
X282062000Y-122880000D03*
D18*
X270378000Y-122880000D03*
D19*
X269870000Y-122880000D03*
D15*
X268600000Y-122880000D03*
X283840000Y-125420000D03*
D16*
X282570000Y-125420000D03*
D17*
X282062000Y-125420000D03*
D18*
X270378000Y-125420000D03*
D19*
X269870000Y-125420000D03*
D15*
X268600000Y-125420000D03*
X283840000Y-127960000D03*
D16*
X282570000Y-127960000D03*
D17*
X282062000Y-127960000D03*
D18*
X270378000Y-127960000D03*
D19*
X269870000Y-127960000D03*
D15*
X268600000Y-127960000D03*
X283840000Y-130500000D03*
D16*
X282570000Y-130500000D03*
D17*
X282062000Y-130500000D03*
D18*
X270378000Y-130500000D03*
D19*
X269870000Y-130500000D03*
D15*
X268600000Y-130500000D03*
X283840000Y-133040000D03*
D16*
X282570000Y-133040000D03*
D17*
X282062000Y-133040000D03*
D18*
X270378000Y-133040000D03*
D19*
X269870000Y-133040000D03*
D15*
X268600000Y-133040000D03*
X283840000Y-135580000D03*
D16*
X282570000Y-135580000D03*
D17*
X282062000Y-135580000D03*
D18*
X270378000Y-135580000D03*
D19*
X269870000Y-135580000D03*
D15*
X268600000Y-135580000D03*
X283840000Y-138120000D03*
D16*
X282570000Y-138120000D03*
D17*
X282062000Y-138120000D03*
D18*
X270378000Y-138120000D03*
D19*
X269870000Y-138120000D03*
D15*
X268600000Y-138120000D03*
X283840000Y-140660000D03*
D16*
X282570000Y-140660000D03*
D17*
X282062000Y-140660000D03*
D18*
X270378000Y-140660000D03*
D19*
X269870000Y-140660000D03*
D15*
X268600000Y-140660000D03*
X283840000Y-143200000D03*
D16*
X282570000Y-143200000D03*
D17*
X282062000Y-143200000D03*
D18*
X270378000Y-143200000D03*
D19*
X269870000Y-143200000D03*
D15*
X268600000Y-143200000D03*
X283840000Y-145740000D03*
D16*
X282570000Y-145740000D03*
D17*
X282062000Y-145740000D03*
D18*
X270378000Y-145740000D03*
D19*
X269870000Y-145740000D03*
D15*
X268600000Y-145740000D03*
D21*
%TO.P,MCU1,1*%
%TO.N,RAW*%
X281046000Y-117800000D03*
%TO.P,MCU1,2*%
%TO.N,GND*%
X281046000Y-120340000D03*
%TO.P,MCU1,3*%
%TO.N,RST*%
X281046000Y-122880000D03*
%TO.P,MCU1,4*%
%TO.N,VCC*%
X281046000Y-125420000D03*
%TO.P,MCU1,5*%
%TO.N,P21*%
X281046000Y-127960000D03*
%TO.P,MCU1,6*%
%TO.N,P20*%
X281046000Y-130500000D03*
%TO.P,MCU1,7*%
%TO.N,P19*%
X281046000Y-133040000D03*
%TO.P,MCU1,8*%
%TO.N,P18*%
X281046000Y-135580000D03*
%TO.P,MCU1,9*%
%TO.N,P15*%
X281046000Y-138120000D03*
%TO.P,MCU1,10*%
%TO.N,P14*%
X281046000Y-140660000D03*
%TO.P,MCU1,11*%
%TO.N,P16*%
X281046000Y-143200000D03*
%TO.P,MCU1,12*%
%TO.N,P10*%
X281046000Y-145740000D03*
D22*
%TO.P,MCU1,13*%
%TO.N,P9*%
X271394000Y-145740000D03*
%TO.P,MCU1,14*%
%TO.N,P8*%
X271394000Y-143200000D03*
%TO.P,MCU1,15*%
%TO.N,P7*%
X271394000Y-140660000D03*
%TO.P,MCU1,16*%
%TO.N,P6*%
X271394000Y-138120000D03*
%TO.P,MCU1,17*%
%TO.N,P5*%
X271394000Y-135580000D03*
%TO.P,MCU1,18*%
%TO.N,P4*%
X271394000Y-133040000D03*
%TO.P,MCU1,19*%
%TO.N,P3*%
X271394000Y-130500000D03*
%TO.P,MCU1,20*%
%TO.N,P2*%
X271394000Y-127960000D03*
%TO.P,MCU1,21*%
%TO.N,GND*%
X271394000Y-125420000D03*
%TO.P,MCU1,22*%
X271394000Y-122880000D03*
%TO.P,MCU1,23*%
%TO.N,P0*%
X271394000Y-120340000D03*
%TO.P,MCU1,24*%
%TO.N,P1*%
X271394000Y-117800000D03*
%TD*%
D11*
%TO.P,S23,1*%
%TO.N,P15*%
X205220000Y-140070000D03*
X195220000Y-140070000D03*
%TO.P,S23,2*%
%TO.N,GND*%
X200220000Y-142170000D03*
X200220000Y-142170000D03*
%TD*%
D10*
%TO.P,S13,1*%
%TO.N,P4*%
X257495000Y-149320000D03*
%TO.P,S13,2*%
%TO.N,GND*%
X245945000Y-151520000D03*
%TD*%
D11*
%TO.P,S25,1*%
%TO.N,P16*%
X223220000Y-155070000D03*
X213220000Y-155070000D03*
%TO.P,S25,2*%
%TO.N,GND*%
X218220000Y-157170000D03*
X218220000Y-157170000D03*
%TD*%
%TO.P,S35,1*%
%TO.N,P8*%
X250801018Y-178629100D03*
X241290453Y-175538930D03*
%TO.P,S35,2*%
%TO.N,GND*%
X245396800Y-179081233D03*
X245396800Y-179081233D03*
%TD*%
D10*
%TO.P,S16,1*%
%TO.N,P7*%
X230495000Y-164320000D03*
%TO.P,S16,2*%
%TO.N,GND*%
X218945000Y-166520000D03*
%TD*%
D23*
%TO.P,S18,1*%
%TO.N,P9*%
X271366853Y-179781346D03*
%TO.P,S18,2*%
%TO.N,GND*%
X260729579Y-174772263D03*
%TD*%
D11*
%TO.P,S21,1*%
%TO.N,P19*%
X187220000Y-127070000D03*
X177220000Y-127070000D03*
%TO.P,S21,2*%
%TO.N,GND*%
X182220000Y-129170000D03*
X182220000Y-129170000D03*
%TD*%
D24*
%TO.P,_1,1*%
%TO.N,pos*%
X275220000Y-160270000D03*
D25*
%TO.P,_1,2*%
%TO.N,GND*%
X273220000Y-160270000D03*
%TD*%
D11*
%TO.P,S22,1*%
%TO.N,P18*%
X205220000Y-157070000D03*
X195220000Y-157070000D03*
%TO.P,S22,2*%
%TO.N,GND*%
X200220000Y-159170000D03*
X200220000Y-159170000D03*
%TD*%
%TO.P,S24,1*%
%TO.N,P14*%
X205220000Y-123070000D03*
X195220000Y-123070000D03*
%TO.P,S24,2*%
%TO.N,GND*%
X200220000Y-125170000D03*
X200220000Y-125170000D03*
%TD*%
D10*
%TO.P,S3,1*%
%TO.N,P19*%
X185495000Y-117320000D03*
%TO.P,S3,2*%
%TO.N,GND*%
X173945000Y-119520000D03*
%TD*%
D11*
%TO.P,S33,1*%
%TO.N,P6*%
X259220000Y-125070000D03*
X249220000Y-125070000D03*
%TO.P,S33,2*%
%TO.N,GND*%
X254220000Y-127170000D03*
X254220000Y-127170000D03*
%TD*%
D10*
%TO.P,S7,1*%
%TO.N,P16*%
X221495000Y-145320000D03*
%TO.P,S7,2*%
%TO.N,GND*%
X209945000Y-147520000D03*
%TD*%
D11*
%TO.P,S27,1*%
%TO.N,P1*%
X223220000Y-121070000D03*
X213220000Y-121070000D03*
%TO.P,S27,2*%
%TO.N,GND*%
X218220000Y-123170000D03*
X218220000Y-123170000D03*
%TD*%
%TO.P,S19,1*%
%TO.N,P21*%
X187220000Y-161070000D03*
X177220000Y-161070000D03*
%TO.P,S19,2*%
%TO.N,GND*%
X182220000Y-163170000D03*
X182220000Y-163170000D03*
%TD*%
D10*
%TO.P,S10,1*%
%TO.N,P0*%
X239495000Y-147320000D03*
%TO.P,S10,2*%
%TO.N,GND*%
X227945000Y-149520000D03*
%TD*%
%TO.P,S14,1*%
%TO.N,P5*%
X257495000Y-132320000D03*
%TO.P,S14,2*%
%TO.N,GND*%
X245945000Y-134520000D03*
%TD*%
D11*
%TO.P,S31,1*%
%TO.N,P4*%
X259220000Y-159070000D03*
X249220000Y-159070000D03*
%TO.P,S31,2*%
%TO.N,GND*%
X254220000Y-161170000D03*
X254220000Y-161170000D03*
%TD*%
D10*
%TO.P,S6,1*%
%TO.N,P14*%
X203495000Y-113320000D03*
%TO.P,S6,2*%
%TO.N,GND*%
X191945000Y-115520000D03*
%TD*%
%TO.P,S15,1*%
%TO.N,P6*%
X257495000Y-115320000D03*
%TO.P,S15,2*%
%TO.N,GND*%
X245945000Y-117520000D03*
%TD*%
D11*
%TO.P,S32,1*%
%TO.N,P5*%
X259220000Y-142070000D03*
X249220000Y-142070000D03*
%TO.P,S32,2*%
%TO.N,GND*%
X254220000Y-144170000D03*
X254220000Y-144170000D03*
%TD*%
%TO.P,S36,1*%
%TO.N,P9*%
X267031501Y-188683191D03*
X258941331Y-182805338D03*
%TO.P,S36,2*%
%TO.N,GND*%
X261752067Y-187443200D03*
X261752067Y-187443200D03*
%TD*%
D26*
%TO.P,S17,1*%
%TO.N,P8*%
X252173361Y-168823244D03*
%TO.P,S17,2*%
%TO.N,GND*%
X240508821Y-167346422D03*
%TD*%
D11*
%TO.P,S30,1*%
%TO.N,P3*%
X241220000Y-123070000D03*
X231220000Y-123070000D03*
%TO.P,S30,2*%
%TO.N,GND*%
X236220000Y-125170000D03*
X236220000Y-125170000D03*
%TD*%
D27*
%TO.N,P21*%
X266040000Y-129330000D03*
X264965500Y-154730000D03*
D28*
X276982000Y-127960000D03*
%TO.N,GND*%
X275458000Y-122880000D03*
X276987297Y-120354074D03*
D27*
X263118911Y-116896088D03*
D28*
X275458000Y-125420000D03*
D27*
%TO.N,P20*%
X265415500Y-131870000D03*
X264965500Y-152190000D03*
D28*
X276982000Y-130500000D03*
D27*
%TO.N,P19*%
X264791000Y-149650000D03*
X264791000Y-134410000D03*
D28*
X276982000Y-133040000D03*
D27*
%TO.N,P18*%
X245720000Y-162350000D03*
X263500000Y-149650000D03*
X248260000Y-162350000D03*
X264166500Y-139490000D03*
D28*
X276982000Y-135580000D03*
D27*
%TO.N,P15*%
X267437162Y-137540721D03*
X258076642Y-144226642D03*
D28*
X276982000Y-138120000D03*
D27*
X262875500Y-142030000D03*
%TO.N,P14*%
X285420500Y-139490000D03*
D28*
X276982000Y-140660000D03*
D27*
X283820000Y-115269500D03*
%TO.N,P16*%
X258420000Y-163365500D03*
X266664500Y-162350000D03*
X266664500Y-149650000D03*
D28*
X276982000Y-143200000D03*
D27*
%TO.N,P10*%
X215240000Y-162974500D03*
D28*
X276982000Y-145740000D03*
%TO.N,P1*%
X275458000Y-117800000D03*
D27*
%TO.N,P0*%
X238100000Y-149650000D03*
X263500000Y-131870000D03*
D28*
X275458000Y-120340000D03*
D27*
X263500000Y-127769500D03*
D28*
%TO.N,P2*%
X275458000Y-127960000D03*
D27*
%TO.N,P3*%
X271120000Y-121710000D03*
D28*
X275458000Y-130500000D03*
D27*
X284796000Y-131870000D03*
%TO.N,P4*%
X278740000Y-139522721D03*
D28*
X275458000Y-133040000D03*
%TO.N,P5*%
X275458000Y-135580000D03*
D27*
X267064500Y-136291721D03*
%TO.N,P6*%
X263500000Y-121710000D03*
X285370500Y-121710000D03*
X266381092Y-116288905D03*
D28*
X275458000Y-138120000D03*
%TO.N,P7*%
X275458000Y-140660000D03*
%TO.N,P8*%
X275458000Y-143200000D03*
%TO.N,P9*%
X275458000Y-145740000D03*
D27*
%TO.N,RAW*%
X278740000Y-152190000D03*
D28*
X276982000Y-117800000D03*
D27*
%TO.N,RST*%
X267164635Y-148234635D03*
D28*
X276982000Y-122880000D03*
D27*
X270742353Y-152190000D03*
D28*
%TO.N,VCC*%
X276982000Y-125420000D03*
D27*
%TO.N,pos*%
X278740000Y-154730000D03*
%TD*%
D29*
%TO.N,P21*%
X260060000Y-164890000D02*
X265140000Y-159810000D01*
X280280000Y-128726000D02*
X281046000Y-127960000D01*
X182220000Y-161070000D02*
X187220000Y-161070000D01*
X184309500Y-158980500D02*
X182220000Y-161070000D01*
X177220000Y-161070000D02*
X182220000Y-161070000D01*
X187220000Y-161070000D02*
X191100000Y-161070000D01*
X240640000Y-162350000D02*
X243180000Y-164890000D01*
X275645779Y-129296221D02*
X276982000Y-127960000D01*
X266073779Y-129296221D02*
X275645779Y-129296221D01*
X265140000Y-154904500D02*
X264965500Y-154730000D01*
X276982000Y-127960000D02*
X277748000Y-128726000D01*
X184309500Y-152505500D02*
X184309500Y-158980500D01*
X192380000Y-162350000D02*
X240640000Y-162350000D01*
X266040000Y-129330000D02*
X266073779Y-129296221D01*
X243180000Y-164890000D02*
X260060000Y-164890000D01*
X265140000Y-159810000D02*
X265140000Y-154904500D01*
X277748000Y-128726000D02*
X280280000Y-128726000D01*
X191100000Y-161070000D02*
X192380000Y-162350000D01*
X185495000Y-151320000D02*
X184309500Y-152505500D01*
%TO.N,GND*%
X191945000Y-155691461D02*
X195423539Y-159170000D01*
X239591233Y-179081233D02*
X245396800Y-179081233D01*
X275452099Y-125432221D02*
X274686099Y-124666221D01*
X249423539Y-161170000D02*
X254220000Y-161170000D01*
X173945000Y-136520000D02*
X173945000Y-142691461D01*
X227945000Y-115520000D02*
X227945000Y-121691461D01*
X255880000Y-182670000D02*
X260653200Y-187443200D01*
D30*
X209945000Y-130520000D02*
X209945000Y-136656106D01*
D29*
X231423539Y-159170000D02*
X236220000Y-159170000D01*
X260729579Y-174772263D02*
X255880000Y-179621842D01*
X209945000Y-153691461D02*
X213423539Y-157170000D01*
X245945000Y-134520000D02*
X245945000Y-140691461D01*
X195423539Y-142170000D02*
X200220000Y-142170000D01*
X260653200Y-187443200D02*
X261752067Y-187443200D01*
D30*
X227945000Y-132520000D02*
X227945000Y-139495000D01*
D29*
X277748000Y-121106000D02*
X280280000Y-121106000D01*
D30*
X213458894Y-140170000D02*
X218220000Y-140170000D01*
D29*
X177423539Y-163170000D02*
X182220000Y-163170000D01*
X173945000Y-125691461D02*
X177423539Y-129170000D01*
X227945000Y-149520000D02*
X227945000Y-155691461D01*
D30*
X230620000Y-142170000D02*
X236220000Y-142170000D01*
D29*
X173945000Y-119520000D02*
X173945000Y-125691461D01*
X222423539Y-176170000D02*
X227220000Y-176170000D01*
X231423539Y-125170000D02*
X236220000Y-125170000D01*
X274347210Y-115663905D02*
X264351094Y-115663905D01*
X240508821Y-167346422D02*
X238100000Y-169755243D01*
X191945000Y-121691461D02*
X195423539Y-125170000D01*
D30*
X227945000Y-139495000D02*
X230620000Y-142170000D01*
D29*
X173945000Y-153520000D02*
X173945000Y-159691461D01*
X274686099Y-124666221D02*
X272154099Y-124666221D01*
X191945000Y-115520000D02*
X191945000Y-121691461D01*
X173945000Y-142691461D02*
X177423539Y-146170000D01*
X191945000Y-138691461D02*
X195423539Y-142170000D01*
X255880000Y-179621842D02*
X255880000Y-182670000D01*
X227945000Y-121691461D02*
X231423539Y-125170000D01*
X191945000Y-149520000D02*
X191945000Y-155691461D01*
X218945000Y-166520000D02*
X218945000Y-172691461D01*
X177423539Y-146170000D02*
X182220000Y-146170000D01*
X173945000Y-159691461D02*
X177423539Y-163170000D01*
X191945000Y-132520000D02*
X191945000Y-138691461D01*
X276183000Y-117499695D02*
X274347210Y-115663905D01*
D30*
X209945000Y-136656106D02*
X213458894Y-140170000D01*
D29*
X209945000Y-113520000D02*
X209945000Y-119691461D01*
X213423539Y-157170000D02*
X218220000Y-157170000D01*
X272154099Y-122126221D02*
X271388099Y-122892221D01*
X276183000Y-119541000D02*
X276183000Y-117499695D01*
X213423539Y-123170000D02*
X218220000Y-123170000D01*
X245945000Y-123691461D02*
X249423539Y-127170000D01*
X218945000Y-172691461D02*
X222423539Y-176170000D01*
X245945000Y-117520000D02*
X245945000Y-123691461D01*
X275452099Y-122892221D02*
X274686099Y-122126221D01*
X280280000Y-121106000D02*
X281046000Y-120340000D01*
X276183000Y-119541000D02*
X277748000Y-121106000D01*
X209945000Y-147520000D02*
X209945000Y-153691461D01*
X245945000Y-140691461D02*
X249423539Y-144170000D01*
X238100000Y-177590000D02*
X239591233Y-179081233D01*
X272154099Y-124666221D02*
X271388099Y-125432221D01*
X238100000Y-169755243D02*
X238100000Y-177590000D01*
X195423539Y-159170000D02*
X200220000Y-159170000D01*
X264351094Y-115663905D02*
X263118911Y-116896088D01*
X177423539Y-129170000D02*
X182220000Y-129170000D01*
X249423539Y-144170000D02*
X254220000Y-144170000D01*
X209945000Y-119691461D02*
X213423539Y-123170000D01*
X245945000Y-157691461D02*
X249423539Y-161170000D01*
X249423539Y-127170000D02*
X254220000Y-127170000D01*
X245945000Y-151520000D02*
X245945000Y-157691461D01*
X227945000Y-155691461D02*
X231423539Y-159170000D01*
X195423539Y-125170000D02*
X200220000Y-125170000D01*
X274686099Y-122126221D02*
X272154099Y-122126221D01*
%TO.N,P20*%
X187220000Y-144070000D02*
X187220000Y-150868350D01*
X277748000Y-131266000D02*
X280280000Y-131266000D01*
X276982000Y-130500000D02*
X277748000Y-131266000D01*
X280280000Y-131266000D02*
X281046000Y-130500000D01*
X271192198Y-131870000D02*
X271796198Y-131266000D01*
X264340500Y-152815000D02*
X264965500Y-152190000D01*
X182220000Y-144070000D02*
X187220000Y-144070000D01*
X191428198Y-155076548D02*
X191428198Y-155811055D01*
X177220000Y-144070000D02*
X182220000Y-144070000D01*
X265415500Y-131870000D02*
X271192198Y-131870000D01*
X187220000Y-150868350D02*
X191428198Y-155076548D01*
X184309500Y-135505500D02*
X184309500Y-141980500D01*
X264340500Y-159973104D02*
X264340500Y-152815000D01*
X243180000Y-161900000D02*
X245720000Y-164440000D01*
X245720000Y-164440000D02*
X259873604Y-164440000D01*
X197517143Y-161900000D02*
X243180000Y-161900000D01*
X185495000Y-134320000D02*
X184309500Y-135505500D01*
X271796198Y-131266000D02*
X277748000Y-131266000D01*
X259873604Y-164440000D02*
X264340500Y-159973104D01*
X191428198Y-155811055D02*
X197517143Y-161900000D01*
X184309500Y-141980500D02*
X182220000Y-144070000D01*
%TO.N,P19*%
X264791000Y-134410000D02*
X264824779Y-134376221D01*
X187220000Y-127070000D02*
X177220000Y-127070000D01*
X263500000Y-159810000D02*
X263500000Y-150941000D01*
X208559000Y-160511000D02*
X244781000Y-160511000D01*
X264824779Y-134376221D02*
X275645779Y-134376221D01*
X259320000Y-163990000D02*
X263500000Y-159810000D01*
X280280000Y-133806000D02*
X281046000Y-133040000D01*
X275645779Y-134376221D02*
X276982000Y-133040000D01*
X244781000Y-160511000D02*
X248260000Y-163990000D01*
X263500000Y-150941000D02*
X264791000Y-149650000D01*
X189840000Y-141488350D02*
X193796650Y-145445000D01*
X248260000Y-163990000D02*
X259320000Y-163990000D01*
X184760000Y-123684999D02*
X184760000Y-118055000D01*
X277748000Y-133806000D02*
X280280000Y-133806000D01*
X187220000Y-127070000D02*
X189840000Y-129690000D01*
X177220000Y-127070000D02*
X181374999Y-127070000D01*
X193796650Y-145445000D02*
X204870000Y-145445000D01*
X189840000Y-129690000D02*
X189840000Y-141488350D01*
X181374999Y-127070000D02*
X184760000Y-123684999D01*
X207620000Y-159572000D02*
X208559000Y-160511000D01*
X204870000Y-145445000D02*
X207620000Y-148195000D01*
X207620000Y-148195000D02*
X207620000Y-159572000D01*
X276982000Y-133040000D02*
X277748000Y-133806000D01*
%TO.N,P18*%
X263050000Y-150100000D02*
X263500000Y-149650000D01*
X277748000Y-136346000D02*
X280280000Y-136346000D01*
X200000000Y-157070000D02*
X205220000Y-157070000D01*
X276982000Y-135580000D02*
X277748000Y-136346000D01*
X275645779Y-136916221D02*
X276982000Y-135580000D01*
X205220000Y-157070000D02*
X205220000Y-159050000D01*
X263050000Y-159623604D02*
X263050000Y-150100000D01*
X266740279Y-136916221D02*
X275645779Y-136916221D01*
X264166500Y-139490000D02*
X266740279Y-136916221D01*
X248260000Y-162350000D02*
X248421000Y-162511000D01*
X280280000Y-136346000D02*
X281046000Y-135580000D01*
X207620000Y-161450000D02*
X244820000Y-161450000D01*
X205220000Y-159050000D02*
X207620000Y-161450000D01*
X203345000Y-153725000D02*
X200000000Y-157070000D01*
X203345000Y-147470000D02*
X203345000Y-153725000D01*
X248421000Y-162511000D02*
X260162604Y-162511000D01*
X244820000Y-161450000D02*
X245720000Y-162350000D01*
X260162604Y-162511000D02*
X263050000Y-159623604D01*
X195220000Y-157070000D02*
X200000000Y-157070000D01*
%TO.N,P15*%
X202309500Y-137760500D02*
X200000000Y-140070000D01*
X205220000Y-140070000D02*
X208320000Y-143170000D01*
X203495000Y-130320000D02*
X202309500Y-131505500D01*
X280280000Y-138886000D02*
X281046000Y-138120000D01*
X208320000Y-143170000D02*
X234160000Y-143170000D01*
X249237143Y-144620000D02*
X250237176Y-145620033D01*
X202309500Y-131505500D02*
X202309500Y-137760500D01*
X256683251Y-145620033D02*
X258076642Y-144226642D01*
X262875500Y-142030000D02*
X262947883Y-142030000D01*
X234160000Y-143170000D02*
X235610000Y-144620000D01*
X262947883Y-142030000D02*
X267437162Y-137540721D01*
X250237176Y-145620033D02*
X256683251Y-145620033D01*
X200000000Y-140070000D02*
X205220000Y-140070000D01*
X277748000Y-138886000D02*
X280280000Y-138886000D01*
X276982000Y-138120000D02*
X277748000Y-138886000D01*
X235610000Y-144620000D02*
X249237143Y-144620000D01*
X195220000Y-140070000D02*
X200000000Y-140070000D01*
%TO.N,P14*%
X285420500Y-139490000D02*
X282216000Y-139490000D01*
X282216000Y-139490000D02*
X281046000Y-140660000D01*
X283645500Y-115095000D02*
X283820000Y-115269500D01*
X261727476Y-111695000D02*
X263500000Y-113467524D01*
X263500000Y-113467524D02*
X263500000Y-114090000D01*
X203495000Y-113320000D02*
X202309500Y-114505500D01*
X202309500Y-121519500D02*
X200759000Y-123070000D01*
X280280000Y-141426000D02*
X281046000Y-140660000D01*
X264505000Y-115095000D02*
X283645500Y-115095000D01*
X203495000Y-113320000D02*
X205045000Y-113320000D01*
X205045000Y-113320000D02*
X209242516Y-109122484D01*
X277748000Y-141426000D02*
X280280000Y-141426000D01*
X205220000Y-123070000D02*
X195220000Y-123070000D01*
X263500000Y-114090000D02*
X264505000Y-115095000D01*
X235246650Y-109695000D02*
X237246650Y-111695000D01*
X202309500Y-114505500D02*
X202309500Y-121519500D01*
X276982000Y-140660000D02*
X277748000Y-141426000D01*
X200759000Y-123070000D02*
X195220000Y-123070000D01*
X226085000Y-109695000D02*
X235246650Y-109695000D01*
X209242516Y-109122484D02*
X225512484Y-109122484D01*
X237246650Y-111695000D02*
X261727476Y-111695000D01*
X225512484Y-109122484D02*
X226085000Y-109695000D01*
%TO.N,P16*%
X244967396Y-160061000D02*
X248271896Y-163365500D01*
D30*
X220320000Y-146495000D02*
X220320000Y-155070000D01*
D29*
X223220000Y-155070000D02*
X226320000Y-151970000D01*
X276982000Y-143200000D02*
X277748000Y-143966000D01*
X266664500Y-162350000D02*
X266664500Y-149650000D01*
X213220000Y-155070000D02*
X220320000Y-155070000D01*
X226320000Y-147895000D02*
X226570000Y-147645000D01*
X220320000Y-155070000D02*
X223220000Y-155070000D01*
X226320000Y-151970000D02*
X226320000Y-147895000D01*
X277748000Y-143966000D02*
X280280000Y-143966000D01*
X233691461Y-147645000D02*
X244967396Y-158920935D01*
X280280000Y-143966000D02*
X281046000Y-143200000D01*
X226570000Y-147645000D02*
X233691461Y-147645000D01*
X248271896Y-163365500D02*
X258420000Y-163365500D01*
X244967396Y-158920935D02*
X244967396Y-160061000D01*
%TO.N,P10*%
X269240000Y-157480000D02*
X271816853Y-154903147D01*
X276982000Y-145740000D02*
X277748000Y-146506000D01*
X259052213Y-190024191D02*
X267586962Y-190024191D01*
X249450255Y-180422233D02*
X259052213Y-190024191D01*
X274320000Y-177800000D02*
X269240000Y-172720000D01*
X215240000Y-169970000D02*
X222781000Y-177511000D01*
X222781000Y-177511000D02*
X235481000Y-177511000D01*
X267586962Y-190024191D02*
X274320000Y-183291153D01*
X280280000Y-146506000D02*
X281046000Y-145740000D01*
X271816853Y-150905147D02*
X276982000Y-145740000D01*
X269240000Y-172720000D02*
X269240000Y-157480000D01*
X235481000Y-177511000D02*
X238392233Y-180422233D01*
X238392233Y-180422233D02*
X249450255Y-180422233D01*
X274320000Y-183291153D02*
X274320000Y-177800000D01*
X277748000Y-146506000D02*
X280280000Y-146506000D01*
X213220000Y-138070000D02*
X220320000Y-138070000D01*
X271816853Y-154903147D02*
X271816853Y-150905147D01*
X215240000Y-162974500D02*
X215240000Y-169970000D01*
X220320000Y-138070000D02*
X223220000Y-138070000D01*
D30*
X220320000Y-129495000D02*
X220320000Y-138070000D01*
D29*
%TO.N,P1*%
X221495000Y-111320000D02*
X220309500Y-112505500D01*
X220309500Y-112505500D02*
X220309500Y-118540500D01*
X275452099Y-117812221D02*
X274686099Y-117046221D01*
X274686099Y-117046221D02*
X272154099Y-117046221D01*
X220309500Y-118540500D02*
X217780000Y-121070000D01*
X272154099Y-117046221D02*
X271388099Y-117812221D01*
X213220000Y-121070000D02*
X217780000Y-121070000D01*
X217780000Y-121070000D02*
X223220000Y-121070000D01*
%TO.N,P0*%
X272154099Y-119586221D02*
X271388099Y-120352221D01*
D30*
X263500000Y-127769500D02*
X263500000Y-126424365D01*
X239495000Y-147320000D02*
X238100000Y-148715000D01*
D29*
X274686099Y-119586221D02*
X272154099Y-119586221D01*
D30*
X255831106Y-147320000D02*
X263500000Y-139651106D01*
X270030320Y-121710000D02*
X272154099Y-119586221D01*
X268214365Y-121710000D02*
X270030320Y-121710000D01*
X239495000Y-147320000D02*
X255831106Y-147320000D01*
X263500000Y-126424365D02*
X268214365Y-121710000D01*
D29*
X231220000Y-157070000D02*
X241220000Y-157070000D01*
D30*
X238100000Y-148715000D02*
X238100000Y-149650000D01*
D29*
X275452099Y-120352221D02*
X274686099Y-119586221D01*
D30*
X263500000Y-139651106D02*
X263500000Y-131870000D01*
D29*
%TO.N,P2*%
X275452099Y-127972221D02*
X274686099Y-127206221D01*
D30*
X266634865Y-128369500D02*
X268214365Y-126790000D01*
X239370000Y-138800000D02*
X238100000Y-140070000D01*
X246795000Y-113470000D02*
X258845000Y-113470000D01*
D29*
X238100000Y-140070000D02*
X241220000Y-140070000D01*
D30*
X244345000Y-115920000D02*
X246795000Y-113470000D01*
X262900000Y-117525000D02*
X262900000Y-128018029D01*
X244345000Y-125470000D02*
X244345000Y-115920000D01*
X239370000Y-130445000D02*
X239370000Y-138800000D01*
X268214365Y-126790000D02*
X270224000Y-126790000D01*
X263251471Y-128369500D02*
X266634865Y-128369500D01*
X258845000Y-113470000D02*
X262900000Y-117525000D01*
D29*
X274686099Y-127206221D02*
X272154099Y-127206221D01*
X272154099Y-127206221D02*
X271388099Y-127972221D01*
X231220000Y-140070000D02*
X238100000Y-140070000D01*
D30*
X270224000Y-126790000D02*
X271394000Y-127960000D01*
X262900000Y-128018029D02*
X263251471Y-128369500D01*
X239495000Y-130320000D02*
X244345000Y-125470000D01*
D29*
%TO.N,P3*%
X272154099Y-129746221D02*
X271388099Y-130512221D01*
X239495000Y-113320000D02*
X238309500Y-114505500D01*
X238309500Y-120320500D02*
X235560000Y-123070000D01*
X284965000Y-131701000D02*
X284965000Y-122414009D01*
X284227212Y-121676221D02*
X271153779Y-121676221D01*
X274686099Y-129746221D02*
X272154099Y-129746221D01*
X284965000Y-122414009D02*
X284227212Y-121676221D01*
X241220000Y-123070000D02*
X235560000Y-123070000D01*
X238309500Y-114505500D02*
X238309500Y-120320500D01*
X271153779Y-121676221D02*
X271120000Y-121710000D01*
X275452099Y-130512221D02*
X274686099Y-129746221D01*
X284796000Y-131870000D02*
X284965000Y-131701000D01*
X235560000Y-123070000D02*
X231220000Y-123070000D01*
%TO.N,P4*%
X278673500Y-139456221D02*
X278740000Y-139522721D01*
X256309500Y-151760500D02*
X256309500Y-158640500D01*
X256309500Y-158640500D02*
X255880000Y-159070000D01*
X275452099Y-133052221D02*
X274686099Y-132286221D01*
X249220000Y-159070000D02*
X255880000Y-159070000D01*
X272154099Y-132286221D02*
X271388099Y-133052221D01*
X257495000Y-149320000D02*
X267358779Y-139456221D01*
X274686099Y-132286221D02*
X272154099Y-132286221D01*
X267358779Y-139456221D02*
X278673500Y-139456221D01*
X257495000Y-149320000D02*
X257495000Y-150575000D01*
X257495000Y-150575000D02*
X256309500Y-151760500D01*
X255880000Y-159070000D02*
X259220000Y-159070000D01*
%TO.N,P5*%
X275452099Y-135592221D02*
X274686099Y-134826221D01*
X274686099Y-134826221D02*
X272154099Y-134826221D01*
X263241116Y-131245000D02*
X263758884Y-131245000D01*
X262875000Y-138415000D02*
X262875000Y-131611116D01*
X249220000Y-142070000D02*
X255880000Y-142070000D01*
X255880000Y-142070000D02*
X259220000Y-142070000D01*
X265381721Y-136291721D02*
X267064500Y-136291721D01*
X263758884Y-131245000D02*
X264166000Y-131652116D01*
X259220000Y-142070000D02*
X262875000Y-138415000D01*
X262875000Y-131611116D02*
X263241116Y-131245000D01*
X264166000Y-135076000D02*
X265381721Y-136291721D01*
X257345000Y-132470000D02*
X257345000Y-140605000D01*
X264166000Y-131652116D02*
X264166000Y-135076000D01*
X257345000Y-140605000D02*
X255880000Y-142070000D01*
X272154099Y-134826221D02*
X271388099Y-135592221D01*
D30*
%TO.N,P6*%
X284295635Y-136680000D02*
X285620000Y-135355635D01*
X276258000Y-137320000D02*
X280910000Y-137320000D01*
D29*
X256309500Y-124640500D02*
X255880000Y-125070000D01*
X249220000Y-125070000D02*
X253340000Y-125070000D01*
D30*
X280910000Y-137320000D02*
X281550000Y-136680000D01*
X263500000Y-119169997D02*
X263500000Y-121710000D01*
X281550000Y-136680000D02*
X284295635Y-136680000D01*
X285620000Y-121710000D02*
X285370500Y-121710000D01*
X285620000Y-135355635D02*
X285620000Y-121710000D01*
D29*
X253340000Y-125070000D02*
X259220000Y-125070000D01*
X274686099Y-137366221D02*
X272154099Y-137366221D01*
X256309500Y-116505500D02*
X256309500Y-124640500D01*
D30*
X266381092Y-116288905D02*
X263500000Y-119169997D01*
D29*
X257495000Y-115320000D02*
X256309500Y-116505500D01*
X255880000Y-125070000D02*
X253340000Y-125070000D01*
X272154099Y-137366221D02*
X271388099Y-138132221D01*
X275452099Y-138132221D02*
X274686099Y-137366221D01*
D30*
X275458000Y-138120000D02*
X276258000Y-137320000D01*
D29*
%TO.N,P7*%
X270030320Y-142030000D02*
X272154099Y-139906221D01*
X230495000Y-164320000D02*
X240414767Y-164320000D01*
X222220000Y-174070000D02*
X227940000Y-174070000D01*
X240414767Y-164320000D02*
X242030981Y-165936214D01*
X274686099Y-139906221D02*
X275452099Y-140672221D01*
X227940000Y-174070000D02*
X232220000Y-174070000D01*
X272154099Y-139906221D02*
X274686099Y-139906221D01*
X262453786Y-165936214D02*
X265590000Y-162800000D01*
X230345000Y-171665000D02*
X227940000Y-174070000D01*
X268179009Y-142030000D02*
X270030320Y-142030000D01*
X265590000Y-144619009D02*
X268179009Y-142030000D01*
X230345000Y-164470000D02*
X230345000Y-171665000D01*
X242030981Y-165936214D02*
X262453786Y-165936214D01*
X265590000Y-162800000D02*
X265590000Y-144619009D01*
%TO.N,P8*%
X266040000Y-164890000D02*
X266040000Y-146709009D01*
X252173361Y-168823244D02*
X253566605Y-167430000D01*
X268179009Y-144570000D02*
X270030320Y-144570000D01*
X275452099Y-143212221D02*
X274686099Y-142446221D01*
X274686099Y-142446221D02*
X272154099Y-142446221D01*
X253566605Y-167430000D02*
X263500000Y-167430000D01*
X251141675Y-169854930D02*
X251141675Y-174328553D01*
X251141675Y-174328553D02*
X246841128Y-178629100D01*
X270030320Y-144570000D02*
X272154099Y-142446221D01*
X241290453Y-175538930D02*
X243750958Y-175538930D01*
X266040000Y-146709009D02*
X268179009Y-144570000D01*
X263500000Y-167430000D02*
X266040000Y-164890000D01*
X243750958Y-175538930D02*
X246841128Y-178629100D01*
X246841128Y-178629100D02*
X250801018Y-178629100D01*
X252173361Y-168823244D02*
X251141675Y-169854930D01*
%TO.N,P9*%
X271366853Y-179781346D02*
X271366853Y-175483249D01*
X275452099Y-145752221D02*
X274686099Y-144986221D01*
X271366853Y-175483249D02*
X268790000Y-172906396D01*
X271366853Y-149831147D02*
X275458000Y-145740000D01*
X268790000Y-172906396D02*
X268790000Y-157293604D01*
X272154099Y-144986221D02*
X271388099Y-145752221D01*
X271366853Y-179781346D02*
X266069155Y-185079044D01*
X258941331Y-182805338D02*
X261153648Y-182805338D01*
X266069155Y-187720845D02*
X267031501Y-188683191D01*
X261153648Y-182805338D02*
X266069155Y-187720845D01*
X271366853Y-154716751D02*
X271366853Y-149831147D01*
X266069155Y-185079044D02*
X266069155Y-187720845D01*
X268790000Y-157293604D02*
X271366853Y-154716751D01*
X274686099Y-144986221D02*
X272154099Y-144986221D01*
%TO.N,RAW*%
X280280000Y-118566000D02*
X281046000Y-117800000D01*
D30*
X283290000Y-151520000D02*
X279410000Y-151520000D01*
D29*
X276982000Y-117800000D02*
X277748000Y-118566000D01*
D30*
X286020000Y-147110000D02*
X285450000Y-147680000D01*
X285450000Y-147680000D02*
X285450000Y-149261371D01*
X284225635Y-119170000D02*
X286020000Y-120964365D01*
X285450000Y-149261371D02*
X285850000Y-149661371D01*
X280280000Y-118566000D02*
X280884000Y-119170000D01*
D29*
X277748000Y-118566000D02*
X280280000Y-118566000D01*
D30*
X286020000Y-120964365D02*
X286020000Y-147110000D01*
X280884000Y-119170000D02*
X284225635Y-119170000D01*
X285381371Y-151570000D02*
X283340000Y-151570000D01*
X285850000Y-149661371D02*
X285850000Y-151101371D01*
X285850000Y-151101371D02*
X285381371Y-151570000D01*
X279410000Y-151520000D02*
X278740000Y-152190000D01*
%TO.N,RST*%
X270742353Y-151812353D02*
X267164635Y-148234635D01*
D29*
X276982000Y-122880000D02*
X277748000Y-123646000D01*
X280280000Y-123646000D02*
X281046000Y-122880000D01*
X277748000Y-123646000D02*
X280280000Y-123646000D01*
D30*
X270742353Y-152190000D02*
X270742353Y-151812353D01*
D29*
%TO.N,VCC*%
X276982000Y-125420000D02*
X277748000Y-126186000D01*
X280280000Y-126186000D02*
X281046000Y-125420000D01*
X277748000Y-126186000D02*
X280280000Y-126186000D01*
D30*
%TO.N,pos*%
X275220000Y-158250000D02*
X278740000Y-154730000D01*
X278950000Y-154520000D02*
X283290000Y-154520000D01*
X275220000Y-160270000D02*
X275220000Y-158250000D01*
X278740000Y-154730000D02*
X278950000Y-154520000D01*
%TD*%
%TA.AperFunction,Conductor*%
%TO.N,P10*%
G36*
X220417685Y-137823427D02*
G01*
X220421054Y-137830536D01*
X220443723Y-138057238D01*
X220441136Y-138065811D01*
X220433245Y-138070044D01*
X220432175Y-138070102D01*
X220320000Y-138071000D01*
X220207824Y-138070102D01*
X220199579Y-138066609D01*
X220196218Y-138058308D01*
X220196276Y-138057238D01*
X220218946Y-137830536D01*
X220223179Y-137822645D01*
X220230588Y-137820000D01*
X220409412Y-137820000D01*
X220417685Y-137823427D01*
G37*
%TD.AperFunction*%
%TD*%
%TA.AperFunction,Conductor*%
%TO.N,P21*%
G36*
X187619284Y-160136610D02*
G01*
X187620019Y-160136945D01*
X189229533Y-160941766D01*
X189235400Y-160948531D01*
X189236000Y-160952231D01*
X189236000Y-161187768D01*
X189232573Y-161196041D01*
X189229533Y-161198233D01*
X187620030Y-162003049D01*
X187611097Y-162003684D01*
X187604332Y-161997817D01*
X187603997Y-161997083D01*
X187220862Y-161074486D01*
X187220855Y-161065532D01*
X187220863Y-161065513D01*
X187603993Y-160142926D01*
X187610329Y-160136602D01*
X187619284Y-160136610D01*
G37*
%TD.AperFunction*%
%TD*%
%TA.AperFunction,Conductor*%
%TO.N,P18*%
G36*
X276622909Y-135431232D02*
G01*
X276765763Y-135490018D01*
X276978195Y-135577436D01*
X276984542Y-135583754D01*
X276984563Y-135583804D01*
X277130767Y-135939090D01*
X277130746Y-135948044D01*
X277124760Y-135954206D01*
X276512071Y-136230747D01*
X276503121Y-136231027D01*
X276498985Y-136228356D01*
X276333643Y-136063014D01*
X276330216Y-136054741D01*
X276331252Y-136049928D01*
X276377238Y-135948044D01*
X276607794Y-135437238D01*
X276614320Y-135431108D01*
X276622909Y-135431232D01*
G37*
%TD.AperFunction*%
%TD*%
%TA.AperFunction,Conductor*%
%TO.N,P9*%
G36*
X271361335Y-179785324D02*
G01*
X271366261Y-179792802D01*
X271366439Y-179795867D01*
X271290869Y-180823074D01*
X271286845Y-180831074D01*
X271280075Y-180833883D01*
X271207657Y-180839309D01*
X271079757Y-180868502D01*
X270951864Y-180897693D01*
X270951861Y-180897693D01*
X270951857Y-180897695D01*
X270707642Y-180993542D01*
X270480421Y-181124727D01*
X270480420Y-181124728D01*
X270275298Y-181288308D01*
X270112507Y-181463755D01*
X270105545Y-181467385D01*
X269823206Y-181506733D01*
X269814539Y-181504481D01*
X269813318Y-181503418D01*
X269643994Y-181334094D01*
X269640569Y-181326049D01*
X269636654Y-181124727D01*
X269617245Y-180126786D01*
X269620511Y-180118449D01*
X269626733Y-180115071D01*
X271352566Y-179783519D01*
X271361335Y-179785324D01*
G37*
%TD.AperFunction*%
%TD*%
%TA.AperFunction,Conductor*%
%TO.N,P16*%
G36*
X222835667Y-154142182D02*
G01*
X222836007Y-154142928D01*
X223219136Y-155065513D01*
X223219144Y-155074468D01*
X223219136Y-155074487D01*
X222836007Y-155997071D01*
X222829670Y-156003397D01*
X222820715Y-156003389D01*
X222819969Y-156003049D01*
X221210467Y-155198233D01*
X221204600Y-155191468D01*
X221204000Y-155187768D01*
X221204000Y-154952231D01*
X221207427Y-154943958D01*
X221210467Y-154941766D01*
X222819971Y-154136949D01*
X222828902Y-154136315D01*
X222835667Y-154142182D01*
G37*
%TD.AperFunction*%
%TD*%
%TA.AperFunction,Conductor*%
%TO.N,P15*%
G36*
X204835667Y-139142182D02*
G01*
X204836007Y-139142928D01*
X205219136Y-140065513D01*
X205219144Y-140074468D01*
X205219136Y-140074487D01*
X204836007Y-140997071D01*
X204829670Y-141003397D01*
X204820715Y-141003389D01*
X204819969Y-141003049D01*
X203210467Y-140198233D01*
X203204600Y-140191468D01*
X203204000Y-140187768D01*
X203204000Y-139952231D01*
X203207427Y-139943958D01*
X203210467Y-139941766D01*
X204819971Y-139136949D01*
X204828902Y-139136315D01*
X204835667Y-139142182D01*
G37*
%TD.AperFunction*%
%TD*%
%TA.AperFunction,Conductor*%
%TO.N,P8*%
G36*
X254050933Y-167308911D02*
G01*
X254055219Y-167316773D01*
X254055285Y-167318015D01*
X254055285Y-167552798D01*
X254054484Y-167557052D01*
X253444805Y-169118940D01*
X253438604Y-169125401D01*
X253431170Y-169126061D01*
X252182154Y-168825599D01*
X252174911Y-168820333D01*
X252173234Y-168813209D01*
X252287257Y-167503215D01*
X252291388Y-167495273D01*
X252297668Y-167492598D01*
X254042343Y-167306381D01*
X254050933Y-167308911D01*
G37*
%TD.AperFunction*%
%TD*%
%TA.AperFunction,Conductor*%
%TO.N,P0*%
G36*
X239493494Y-147322703D02*
G01*
X239497843Y-147328932D01*
X239820855Y-148457206D01*
X239819838Y-148466103D01*
X239819274Y-148467017D01*
X239699773Y-148642293D01*
X239651811Y-148741885D01*
X239647111Y-148746946D01*
X238202711Y-149579088D01*
X238196870Y-149580650D01*
X238012861Y-149580650D01*
X238004588Y-149577223D01*
X238001161Y-149568950D01*
X238001213Y-149567847D01*
X238194142Y-147530831D01*
X238198334Y-147522918D01*
X238203986Y-147520374D01*
X239484792Y-147320592D01*
X239493494Y-147322703D01*
G37*
%TD.AperFunction*%
%TD*%
%TA.AperFunction,Conductor*%
%TO.N,P15*%
G36*
X206156017Y-139685994D02*
G01*
X206162343Y-139692331D01*
X206162630Y-139693099D01*
X206731628Y-141400278D01*
X206730993Y-141409211D01*
X206728801Y-141412251D01*
X206562251Y-141578801D01*
X206553978Y-141582228D01*
X206550278Y-141581628D01*
X204843099Y-141012630D01*
X204836334Y-141006763D01*
X204835699Y-140997830D01*
X204835981Y-140997075D01*
X205217439Y-140073779D01*
X205223760Y-140067447D01*
X206147063Y-139685986D01*
X206156017Y-139685994D01*
G37*
%TD.AperFunction*%
%TD*%
%TA.AperFunction,Conductor*%
%TO.N,P6*%
G36*
X285660035Y-121709965D02*
G01*
X285668297Y-121713419D01*
X285671628Y-121720403D01*
X285718594Y-122153245D01*
X285716079Y-122161839D01*
X285708224Y-122166139D01*
X285706962Y-122166207D01*
X285523579Y-122166207D01*
X285517034Y-122164205D01*
X285170101Y-121930051D01*
X285165160Y-121922582D01*
X285166948Y-121913808D01*
X285168348Y-121912104D01*
X285367055Y-121712461D01*
X285375317Y-121709016D01*
X285660035Y-121709965D01*
G37*
%TD.AperFunction*%
%TD*%
%TA.AperFunction,Conductor*%
%TO.N,P14*%
G36*
X277350044Y-140511253D02*
G01*
X277356206Y-140517239D01*
X277632747Y-141129928D01*
X277633027Y-141138878D01*
X277630356Y-141143014D01*
X277465014Y-141308356D01*
X277456741Y-141311783D01*
X277451928Y-141310747D01*
X276839239Y-141034206D01*
X276833108Y-141027679D01*
X276833232Y-141019090D01*
X276979437Y-140663802D01*
X276985753Y-140657457D01*
X277341090Y-140511232D01*
X277350044Y-140511253D01*
G37*
%TD.AperFunction*%
%TD*%
%TA.AperFunction,Conductor*%
%TO.N,GND*%
G36*
X227952130Y-115528922D02*
G01*
X227954276Y-115531068D01*
X228939149Y-116812389D01*
X228941474Y-116821037D01*
X228938678Y-116827223D01*
X228073496Y-117816004D01*
X228065469Y-117819974D01*
X228064691Y-117820000D01*
X227825309Y-117820000D01*
X227817036Y-117816573D01*
X227816504Y-117816005D01*
X227816503Y-117816004D01*
X226951321Y-116827224D01*
X226948452Y-116818741D01*
X226950850Y-116812389D01*
X227935724Y-115531068D01*
X227943482Y-115526597D01*
X227952130Y-115528922D01*
G37*
%TD.AperFunction*%
%TD*%
%TA.AperFunction,Conductor*%
%TO.N,P10*%
G36*
X213619284Y-137136610D02*
G01*
X213620019Y-137136945D01*
X215229533Y-137941766D01*
X215235400Y-137948531D01*
X215236000Y-137952231D01*
X215236000Y-138187768D01*
X215232573Y-138196041D01*
X215229533Y-138198233D01*
X213620030Y-139003049D01*
X213611097Y-139003684D01*
X213604332Y-138997817D01*
X213603997Y-138997083D01*
X213220862Y-138074486D01*
X213220855Y-138065532D01*
X213220863Y-138065513D01*
X213603993Y-137142926D01*
X213610329Y-137136602D01*
X213619284Y-137136610D01*
G37*
%TD.AperFunction*%
%TD*%
%TA.AperFunction,Conductor*%
%TO.N,RAW*%
G36*
X280375793Y-118486739D02*
G01*
X280376509Y-118487537D01*
X280520781Y-118663870D01*
X280523368Y-118672443D01*
X280519999Y-118679552D01*
X280393552Y-118805999D01*
X280385279Y-118809426D01*
X280377870Y-118806781D01*
X280261353Y-118711449D01*
X280201536Y-118662508D01*
X280197304Y-118654618D01*
X280199891Y-118646045D01*
X280200597Y-118645257D01*
X280279293Y-118565293D01*
X280359248Y-118486606D01*
X280367548Y-118483246D01*
X280375793Y-118486739D01*
G37*
%TD.AperFunction*%
%TD*%
%TA.AperFunction,Conductor*%
%TO.N,P21*%
G36*
X186835667Y-160142182D02*
G01*
X186836007Y-160142928D01*
X187219136Y-161065513D01*
X187219144Y-161074468D01*
X187219136Y-161074487D01*
X186836007Y-161997071D01*
X186829670Y-162003397D01*
X186820715Y-162003389D01*
X186819969Y-162003049D01*
X185210467Y-161198233D01*
X185204600Y-161191468D01*
X185204000Y-161187768D01*
X185204000Y-160952231D01*
X185207427Y-160943958D01*
X185210467Y-160941766D01*
X186819971Y-160136949D01*
X186828902Y-160136315D01*
X186835667Y-160142182D01*
G37*
%TD.AperFunction*%
%TD*%
%TA.AperFunction,Conductor*%
%TO.N,P3*%
G36*
X271704391Y-121549021D02*
G01*
X271711599Y-121554335D01*
X271713281Y-121560379D01*
X271713281Y-121793215D01*
X271709854Y-121801488D01*
X271705819Y-121804120D01*
X271245440Y-121983030D01*
X271236487Y-121982833D01*
X271230406Y-121976636D01*
X271158325Y-121804120D01*
X271120883Y-121714509D01*
X271120857Y-121705556D01*
X271120862Y-121705542D01*
X271230938Y-121442090D01*
X271237289Y-121435780D01*
X271244541Y-121435245D01*
X271704391Y-121549021D01*
G37*
%TD.AperFunction*%
%TD*%
%TA.AperFunction,Conductor*%
%TO.N,P2*%
G36*
X238213552Y-139830000D02*
G01*
X238339999Y-139956447D01*
X238343426Y-139964720D01*
X238340781Y-139972129D01*
X238196509Y-140148462D01*
X238188618Y-140152695D01*
X238180045Y-140150108D01*
X238179247Y-140149392D01*
X238099293Y-140070707D01*
X238020607Y-139990752D01*
X238017246Y-139982451D01*
X238020739Y-139974206D01*
X238021518Y-139973506D01*
X238197870Y-139829217D01*
X238206443Y-139826631D01*
X238213552Y-139830000D01*
G37*
%TD.AperFunction*%
%TD*%
%TA.AperFunction,Conductor*%
%TO.N,P6*%
G36*
X249619284Y-124136610D02*
G01*
X249620019Y-124136945D01*
X251229533Y-124941766D01*
X251235400Y-124948531D01*
X251236000Y-124952231D01*
X251236000Y-125187768D01*
X251232573Y-125196041D01*
X251229533Y-125198233D01*
X249620030Y-126003049D01*
X249611097Y-126003684D01*
X249604332Y-125997817D01*
X249603997Y-125997083D01*
X249220862Y-125074486D01*
X249220855Y-125065532D01*
X249220863Y-125065513D01*
X249603993Y-124142926D01*
X249610329Y-124136602D01*
X249619284Y-124136610D01*
G37*
%TD.AperFunction*%
%TD*%
%TA.AperFunction,Conductor*%
%TO.N,P21*%
G36*
X185493427Y-151322952D02*
G01*
X185498560Y-151329189D01*
X185870015Y-152392168D01*
X185869509Y-152401109D01*
X185867547Y-152403986D01*
X185847570Y-152425517D01*
X185847566Y-152425522D01*
X185699773Y-152642293D01*
X185699770Y-152642298D01*
X185600494Y-152848446D01*
X185596398Y-152853135D01*
X184545747Y-153546575D01*
X184439693Y-153616573D01*
X184437432Y-153618065D01*
X184430987Y-153620000D01*
X184196263Y-153620000D01*
X184187990Y-153616573D01*
X184184563Y-153608300D01*
X184184563Y-153608237D01*
X184184807Y-153562534D01*
X184194951Y-151667805D01*
X184198422Y-151659554D01*
X184203689Y-151656552D01*
X185484558Y-151321729D01*
X185493427Y-151322952D01*
G37*
%TD.AperFunction*%
%TD*%
%TA.AperFunction,Conductor*%
%TO.N,P10*%
G36*
X222835667Y-137142182D02*
G01*
X222836007Y-137142928D01*
X223219136Y-138065513D01*
X223219144Y-138074468D01*
X223219136Y-138074487D01*
X222836007Y-138997071D01*
X222829670Y-139003397D01*
X222820715Y-139003389D01*
X222819969Y-139003049D01*
X221210467Y-138198233D01*
X221204600Y-138191468D01*
X221204000Y-138187768D01*
X221204000Y-137952231D01*
X221207427Y-137943958D01*
X221210467Y-137941766D01*
X222819971Y-137136949D01*
X222828902Y-137136315D01*
X222835667Y-137142182D01*
G37*
%TD.AperFunction*%
%TD*%
%TA.AperFunction,Conductor*%
%TO.N,P15*%
G36*
X263242156Y-141563712D02*
G01*
X263245825Y-141566195D01*
X263410445Y-141730815D01*
X263413872Y-141739088D01*
X263411985Y-141745460D01*
X263157947Y-142136669D01*
X263150567Y-142141741D01*
X263143690Y-142141120D01*
X262879315Y-142032563D01*
X262872963Y-142026251D01*
X262872936Y-142026184D01*
X262847471Y-141964167D01*
X262765177Y-141763751D01*
X262765204Y-141754798D01*
X262771555Y-141748486D01*
X263233203Y-141563607D01*
X263242156Y-141563712D01*
G37*
%TD.AperFunction*%
%TD*%
%TA.AperFunction,Conductor*%
%TO.N,P1*%
G36*
X222835667Y-120142182D02*
G01*
X222836007Y-120142928D01*
X223219136Y-121065513D01*
X223219144Y-121074468D01*
X223219136Y-121074487D01*
X222836007Y-121997071D01*
X222829670Y-122003397D01*
X222820715Y-122003389D01*
X222819969Y-122003049D01*
X221210467Y-121198233D01*
X221204600Y-121191468D01*
X221204000Y-121187768D01*
X221204000Y-120952231D01*
X221207427Y-120943958D01*
X221210467Y-120941766D01*
X222819971Y-120136949D01*
X222828902Y-120136315D01*
X222835667Y-120142182D01*
G37*
%TD.AperFunction*%
%TD*%
%TA.AperFunction,Conductor*%
%TO.N,GND*%
G36*
X199835667Y-141242182D02*
G01*
X199836007Y-141242928D01*
X200219136Y-142165513D01*
X200219144Y-142174468D01*
X200219136Y-142174487D01*
X199836007Y-143097071D01*
X199829670Y-143103397D01*
X199820715Y-143103389D01*
X199819969Y-143103049D01*
X198210467Y-142298233D01*
X198204600Y-142291468D01*
X198204000Y-142287768D01*
X198204000Y-142052231D01*
X198207427Y-142043958D01*
X198210467Y-142041766D01*
X199819971Y-141236949D01*
X199828902Y-141236315D01*
X199835667Y-141242182D01*
G37*
%TD.AperFunction*%
%TD*%
%TA.AperFunction,Conductor*%
%TO.N,P18*%
G36*
X205223776Y-157071152D02*
G01*
X206146693Y-157453843D01*
X206153023Y-157460178D01*
X206153020Y-157469132D01*
X206152508Y-157470208D01*
X205334656Y-158985562D01*
X205332633Y-158988278D01*
X205168416Y-159152495D01*
X205160143Y-159155922D01*
X205151870Y-159152495D01*
X205149735Y-159149567D01*
X205066895Y-158988278D01*
X204287132Y-157470088D01*
X204286402Y-157461166D01*
X204292196Y-157454337D01*
X204293041Y-157453945D01*
X205214809Y-157071154D01*
X205223763Y-157071147D01*
X205223776Y-157071152D01*
G37*
%TD.AperFunction*%
%TD*%
%TA.AperFunction,Conductor*%
%TO.N,P6*%
G36*
X266114266Y-116178344D02*
G01*
X266277896Y-116245534D01*
X266377276Y-116286341D01*
X266383628Y-116292653D01*
X266383655Y-116292720D01*
X266491651Y-116555729D01*
X266491624Y-116564684D01*
X266485762Y-116570782D01*
X266034959Y-116780428D01*
X266026012Y-116780809D01*
X266021752Y-116778092D01*
X265891904Y-116648244D01*
X265888477Y-116639971D01*
X265889566Y-116635041D01*
X266099216Y-116184232D01*
X266105810Y-116178178D01*
X266114266Y-116178344D01*
G37*
%TD.AperFunction*%
%TD*%
%TA.AperFunction,Conductor*%
%TO.N,pos*%
G36*
X282546184Y-154172882D02*
G01*
X282953468Y-154362694D01*
X283268244Y-154509395D01*
X283274296Y-154515996D01*
X283273907Y-154524942D01*
X283268244Y-154530605D01*
X282546187Y-154867116D01*
X282537241Y-154867505D01*
X282534445Y-154866032D01*
X282194900Y-154623500D01*
X282190159Y-154615902D01*
X282190000Y-154613979D01*
X282190000Y-154426021D01*
X282193427Y-154417748D01*
X282194893Y-154416504D01*
X282534447Y-154173966D01*
X282543168Y-154171947D01*
X282546184Y-154172882D01*
G37*
%TD.AperFunction*%
%TD*%
%TA.AperFunction,Conductor*%
%TO.N,P14*%
G36*
X204835667Y-122142182D02*
G01*
X204836007Y-122142928D01*
X205219136Y-123065513D01*
X205219144Y-123074468D01*
X205219136Y-123074487D01*
X204836007Y-123997071D01*
X204829670Y-124003397D01*
X204820715Y-124003389D01*
X204819969Y-124003049D01*
X203210467Y-123198233D01*
X203204600Y-123191468D01*
X203204000Y-123187768D01*
X203204000Y-122952231D01*
X203207427Y-122943958D01*
X203210467Y-122941766D01*
X204819971Y-122136949D01*
X204828902Y-122136315D01*
X204835667Y-122142182D01*
G37*
%TD.AperFunction*%
%TD*%
%TA.AperFunction,Conductor*%
%TO.N,GND*%
G36*
X261747162Y-186431500D02*
G01*
X261751914Y-186439090D01*
X261752076Y-186441023D01*
X261752770Y-187439049D01*
X261749349Y-187447324D01*
X261749335Y-187447338D01*
X261042495Y-188152788D01*
X261034218Y-188156207D01*
X261025949Y-188152772D01*
X261025420Y-188152206D01*
X259923499Y-186891314D01*
X259920635Y-186882830D01*
X259924035Y-186875343D01*
X260090435Y-186708943D01*
X260096762Y-186705681D01*
X261738435Y-186429493D01*
X261747162Y-186431500D01*
G37*
%TD.AperFunction*%
%TD*%
%TA.AperFunction,Conductor*%
%TO.N,P6*%
G36*
X257493427Y-115322952D02*
G01*
X257498560Y-115329189D01*
X257870015Y-116392168D01*
X257869509Y-116401109D01*
X257867547Y-116403986D01*
X257847570Y-116425517D01*
X257847566Y-116425522D01*
X257699773Y-116642293D01*
X257699770Y-116642298D01*
X257600494Y-116848446D01*
X257596398Y-116853135D01*
X256545747Y-117546575D01*
X256439693Y-117616573D01*
X256437432Y-117618065D01*
X256430987Y-117620000D01*
X256196263Y-117620000D01*
X256187990Y-117616573D01*
X256184563Y-117608300D01*
X256184563Y-117608237D01*
X256184807Y-117562534D01*
X256194951Y-115667805D01*
X256198422Y-115659554D01*
X256203689Y-115656552D01*
X257484558Y-115321729D01*
X257493427Y-115322952D01*
G37*
%TD.AperFunction*%
%TD*%
%TA.AperFunction,Conductor*%
%TO.N,GND*%
G36*
X263460861Y-116389511D02*
G01*
X263625487Y-116554137D01*
X263628914Y-116562410D01*
X263627584Y-116567828D01*
X263401017Y-117001434D01*
X263394148Y-117007180D01*
X263386203Y-117006839D01*
X263122726Y-116898651D01*
X263116374Y-116892339D01*
X263116347Y-116892272D01*
X263008159Y-116628795D01*
X263008186Y-116619840D01*
X263013562Y-116613982D01*
X263447173Y-116387413D01*
X263456089Y-116386620D01*
X263460861Y-116389511D01*
G37*
%TD.AperFunction*%
%TD*%
%TA.AperFunction,Conductor*%
%TO.N,P19*%
G36*
X188156017Y-126685994D02*
G01*
X188162343Y-126692331D01*
X188162630Y-126693099D01*
X188731628Y-128400278D01*
X188730993Y-128409211D01*
X188728801Y-128412251D01*
X188562251Y-128578801D01*
X188553978Y-128582228D01*
X188550278Y-128581628D01*
X186843099Y-128012630D01*
X186836334Y-128006763D01*
X186835699Y-127997830D01*
X186835981Y-127997075D01*
X187217439Y-127073779D01*
X187223760Y-127067447D01*
X188147063Y-126685986D01*
X188156017Y-126685994D01*
G37*
%TD.AperFunction*%
%TD*%
%TA.AperFunction,Conductor*%
%TO.N,GND*%
G36*
X227952130Y-149528922D02*
G01*
X227954276Y-149531068D01*
X228939149Y-150812389D01*
X228941474Y-150821037D01*
X228938678Y-150827223D01*
X228073496Y-151816004D01*
X228065469Y-151819974D01*
X228064691Y-151820000D01*
X227825309Y-151820000D01*
X227817036Y-151816573D01*
X227816504Y-151816005D01*
X227816503Y-151816004D01*
X226951321Y-150827224D01*
X226948452Y-150818741D01*
X226950850Y-150812389D01*
X227935724Y-149531068D01*
X227943482Y-149526597D01*
X227952130Y-149528922D01*
G37*
%TD.AperFunction*%
%TD*%
%TA.AperFunction,Conductor*%
%TO.N,P6*%
G36*
X263600090Y-121113427D02*
G01*
X263602807Y-121117687D01*
X263773330Y-121584694D01*
X263772949Y-121593641D01*
X263766851Y-121599503D01*
X263504511Y-121709115D01*
X263495556Y-121709142D01*
X263495489Y-121709115D01*
X263233148Y-121599503D01*
X263226836Y-121593151D01*
X263226669Y-121584697D01*
X263397193Y-121117686D01*
X263403249Y-121111091D01*
X263408183Y-121110000D01*
X263591817Y-121110000D01*
X263600090Y-121113427D01*
G37*
%TD.AperFunction*%
%TD*%
%TA.AperFunction,Conductor*%
%TO.N,P4*%
G36*
X258835667Y-158142182D02*
G01*
X258836007Y-158142928D01*
X259219136Y-159065513D01*
X259219144Y-159074468D01*
X259219136Y-159074487D01*
X258836007Y-159997071D01*
X258829670Y-160003397D01*
X258820715Y-160003389D01*
X258819969Y-160003049D01*
X257210467Y-159198233D01*
X257204600Y-159191468D01*
X257204000Y-159187768D01*
X257204000Y-158952231D01*
X257207427Y-158943958D01*
X257210467Y-158941766D01*
X258819971Y-158136949D01*
X258828902Y-158136315D01*
X258835667Y-158142182D01*
G37*
%TD.AperFunction*%
%TD*%
%TA.AperFunction,Conductor*%
%TO.N,P19*%
G36*
X265375391Y-134249021D02*
G01*
X265382599Y-134254335D01*
X265384281Y-134260379D01*
X265384281Y-134493215D01*
X265380854Y-134501488D01*
X265376819Y-134504120D01*
X264916440Y-134683030D01*
X264907487Y-134682833D01*
X264901406Y-134676636D01*
X264829325Y-134504120D01*
X264791883Y-134414509D01*
X264791857Y-134405556D01*
X264791862Y-134405542D01*
X264901938Y-134142090D01*
X264908289Y-134135780D01*
X264915541Y-134135245D01*
X265375391Y-134249021D01*
G37*
%TD.AperFunction*%
%TD*%
%TA.AperFunction,Conductor*%
%TO.N,P16*%
G36*
X277350044Y-143051253D02*
G01*
X277356206Y-143057239D01*
X277632747Y-143669928D01*
X277633027Y-143678878D01*
X277630356Y-143683014D01*
X277465014Y-143848356D01*
X277456741Y-143851783D01*
X277451928Y-143850747D01*
X276839239Y-143574206D01*
X276833108Y-143567679D01*
X276833232Y-143559090D01*
X276979437Y-143203802D01*
X276985753Y-143197457D01*
X277341090Y-143051232D01*
X277350044Y-143051253D01*
G37*
%TD.AperFunction*%
%TD*%
%TA.AperFunction,Conductor*%
%TO.N,RST*%
G36*
X270662899Y-151593899D02*
G01*
X270663945Y-151595098D01*
X270948334Y-151969764D01*
X270950607Y-151978426D01*
X270947316Y-151985084D01*
X270746502Y-152187241D01*
X270738240Y-152190695D01*
X270738174Y-152190695D01*
X270455977Y-152190032D01*
X270447711Y-152186586D01*
X270444304Y-152178305D01*
X270444443Y-152176537D01*
X270474167Y-151985084D01*
X270513830Y-151729610D01*
X270517115Y-151723137D01*
X270646354Y-151593898D01*
X270654626Y-151590472D01*
X270662899Y-151593899D01*
G37*
%TD.AperFunction*%
%TD*%
%TA.AperFunction,Conductor*%
%TO.N,P0*%
G36*
X231619284Y-156136610D02*
G01*
X231620019Y-156136945D01*
X233229533Y-156941766D01*
X233235400Y-156948531D01*
X233236000Y-156952231D01*
X233236000Y-157187768D01*
X233232573Y-157196041D01*
X233229533Y-157198233D01*
X231620030Y-158003049D01*
X231611097Y-158003684D01*
X231604332Y-157997817D01*
X231603997Y-157997083D01*
X231220862Y-157074486D01*
X231220855Y-157065532D01*
X231220863Y-157065513D01*
X231603993Y-156142926D01*
X231610329Y-156136602D01*
X231619284Y-156136610D01*
G37*
%TD.AperFunction*%
%TD*%
%TA.AperFunction,Conductor*%
%TO.N,pos*%
G36*
X275321857Y-158798427D02*
G01*
X275323449Y-158800410D01*
X275796453Y-159542245D01*
X275798012Y-159551063D01*
X275795702Y-159555872D01*
X275229114Y-160259678D01*
X275221256Y-160263973D01*
X275212663Y-160261455D01*
X275210886Y-160259678D01*
X274644297Y-159555872D01*
X274641779Y-159547279D01*
X274643544Y-159542247D01*
X275116551Y-158800410D01*
X275123888Y-158795276D01*
X275126416Y-158795000D01*
X275313584Y-158795000D01*
X275321857Y-158798427D01*
G37*
%TD.AperFunction*%
%TD*%
%TA.AperFunction,Conductor*%
%TO.N,GND*%
G36*
X181835667Y-162242182D02*
G01*
X181836007Y-162242928D01*
X182219136Y-163165513D01*
X182219144Y-163174468D01*
X182219136Y-163174487D01*
X181836007Y-164097071D01*
X181829670Y-164103397D01*
X181820715Y-164103389D01*
X181819969Y-164103049D01*
X180210467Y-163298233D01*
X180204600Y-163291468D01*
X180204000Y-163287768D01*
X180204000Y-163052231D01*
X180207427Y-163043958D01*
X180210467Y-163041766D01*
X181819971Y-162236949D01*
X181828902Y-162236315D01*
X181835667Y-162242182D01*
G37*
%TD.AperFunction*%
%TD*%
%TA.AperFunction,Conductor*%
%TO.N,P4*%
G36*
X259415546Y-147227470D02*
G01*
X259419129Y-147229916D01*
X259585083Y-147395870D01*
X259588510Y-147404143D01*
X259587706Y-147408406D01*
X258798190Y-149426059D01*
X258791984Y-149432515D01*
X258786277Y-149433452D01*
X257504078Y-149321560D01*
X257496134Y-149317427D01*
X257493439Y-149310921D01*
X257381547Y-148028722D01*
X257384242Y-148020182D01*
X257388939Y-148016809D01*
X259406593Y-147227293D01*
X259415546Y-147227470D01*
G37*
%TD.AperFunction*%
%TD*%
%TA.AperFunction,Conductor*%
%TO.N,GND*%
G36*
X253835667Y-143242182D02*
G01*
X253836007Y-143242928D01*
X254219136Y-144165513D01*
X254219144Y-144174468D01*
X254219136Y-144174487D01*
X253836007Y-145097071D01*
X253829670Y-145103397D01*
X253820715Y-145103389D01*
X253819969Y-145103049D01*
X252210467Y-144298233D01*
X252204600Y-144291468D01*
X252204000Y-144287768D01*
X252204000Y-144052231D01*
X252207427Y-144043958D01*
X252210467Y-144041766D01*
X253819971Y-143236949D01*
X253828902Y-143236315D01*
X253835667Y-143242182D01*
G37*
%TD.AperFunction*%
%TD*%
%TA.AperFunction,Conductor*%
%TO.N,P8*%
G36*
X250416685Y-177701282D02*
G01*
X250417025Y-177702028D01*
X250800154Y-178624613D01*
X250800162Y-178633568D01*
X250800154Y-178633587D01*
X250417025Y-179556171D01*
X250410688Y-179562497D01*
X250401733Y-179562489D01*
X250400987Y-179562149D01*
X248791485Y-178757333D01*
X248785618Y-178750568D01*
X248785018Y-178746868D01*
X248785018Y-178511331D01*
X248788445Y-178503058D01*
X248791485Y-178500866D01*
X250400989Y-177696049D01*
X250409920Y-177695415D01*
X250416685Y-177701282D01*
G37*
%TD.AperFunction*%
%TD*%
%TA.AperFunction,Conductor*%
%TO.N,GND*%
G36*
X235835667Y-158242182D02*
G01*
X235836007Y-158242928D01*
X236219136Y-159165513D01*
X236219144Y-159174468D01*
X236219136Y-159174487D01*
X235836007Y-160097071D01*
X235829670Y-160103397D01*
X235820715Y-160103389D01*
X235819969Y-160103049D01*
X234210467Y-159298233D01*
X234204600Y-159291468D01*
X234204000Y-159287768D01*
X234204000Y-159052231D01*
X234207427Y-159043958D01*
X234210467Y-159041766D01*
X235819971Y-158236949D01*
X235828902Y-158236315D01*
X235835667Y-158242182D01*
G37*
%TD.AperFunction*%
%TD*%
%TA.AperFunction,Conductor*%
%TO.N,P15*%
G36*
X195619284Y-139136610D02*
G01*
X195620019Y-139136945D01*
X197229533Y-139941766D01*
X197235400Y-139948531D01*
X197236000Y-139952231D01*
X197236000Y-140187768D01*
X197232573Y-140196041D01*
X197229533Y-140198233D01*
X195620030Y-141003049D01*
X195611097Y-141003684D01*
X195604332Y-140997817D01*
X195603997Y-140997083D01*
X195220862Y-140074486D01*
X195220855Y-140065532D01*
X195220863Y-140065513D01*
X195603993Y-139142926D01*
X195610329Y-139136602D01*
X195619284Y-139136610D01*
G37*
%TD.AperFunction*%
%TD*%
%TA.AperFunction,Conductor*%
%TO.N,P19*%
G36*
X186835667Y-126142182D02*
G01*
X186836007Y-126142928D01*
X187219136Y-127065513D01*
X187219144Y-127074468D01*
X187219136Y-127074487D01*
X186836007Y-127997071D01*
X186829670Y-128003397D01*
X186820715Y-128003389D01*
X186819969Y-128003049D01*
X185210467Y-127198233D01*
X185204600Y-127191468D01*
X185204000Y-127187768D01*
X185204000Y-126952231D01*
X185207427Y-126943958D01*
X185210467Y-126941766D01*
X186819971Y-126136949D01*
X186828902Y-126136315D01*
X186835667Y-126142182D01*
G37*
%TD.AperFunction*%
%TD*%
%TA.AperFunction,Conductor*%
%TO.N,P0*%
G36*
X263766851Y-131980496D02*
G01*
X263773163Y-131986848D01*
X263773330Y-131995305D01*
X263602807Y-132462313D01*
X263596751Y-132468909D01*
X263591817Y-132470000D01*
X263408183Y-132470000D01*
X263399910Y-132466573D01*
X263397193Y-132462313D01*
X263226669Y-131995302D01*
X263227050Y-131986358D01*
X263233147Y-131980496D01*
X263495490Y-131870883D01*
X263504444Y-131870857D01*
X263766851Y-131980496D01*
G37*
%TD.AperFunction*%
%TD*%
%TA.AperFunction,Conductor*%
%TO.N,GND*%
G36*
X217835667Y-122242182D02*
G01*
X217836007Y-122242928D01*
X218219136Y-123165513D01*
X218219144Y-123174468D01*
X218219136Y-123174487D01*
X217836007Y-124097071D01*
X217829670Y-124103397D01*
X217820715Y-124103389D01*
X217819969Y-124103049D01*
X216210467Y-123298233D01*
X216204600Y-123291468D01*
X216204000Y-123287768D01*
X216204000Y-123052231D01*
X216207427Y-123043958D01*
X216210467Y-123041766D01*
X217819971Y-122236949D01*
X217828902Y-122236315D01*
X217835667Y-122242182D01*
G37*
%TD.AperFunction*%
%TD*%
%TA.AperFunction,Conductor*%
%TO.N,pos*%
G36*
X279249968Y-154423497D02*
G01*
X279253555Y-154431702D01*
X279253557Y-154431930D01*
X279253557Y-154615379D01*
X279250400Y-154623373D01*
X278960376Y-154933320D01*
X278952221Y-154937020D01*
X278943839Y-154933869D01*
X278943579Y-154933619D01*
X278742462Y-154733446D01*
X278739016Y-154725181D01*
X278739016Y-154725114D01*
X278739355Y-154623373D01*
X278739961Y-154441433D01*
X278743415Y-154433174D01*
X278751432Y-154429777D01*
X279241629Y-154420232D01*
X279249968Y-154423497D01*
G37*
%TD.AperFunction*%
%TD*%
%TA.AperFunction,Conductor*%
%TO.N,GND*%
G36*
X217835667Y-156242182D02*
G01*
X217836007Y-156242928D01*
X218219136Y-157165513D01*
X218219144Y-157174468D01*
X218219136Y-157174487D01*
X217836007Y-158097071D01*
X217829670Y-158103397D01*
X217820715Y-158103389D01*
X217819969Y-158103049D01*
X216210467Y-157298233D01*
X216204600Y-157291468D01*
X216204000Y-157287768D01*
X216204000Y-157052231D01*
X216207427Y-157043958D01*
X216210467Y-157041766D01*
X217819971Y-156236949D01*
X217828902Y-156236315D01*
X217835667Y-156242182D01*
G37*
%TD.AperFunction*%
%TD*%
%TA.AperFunction,Conductor*%
%TO.N,P15*%
G36*
X277350044Y-137971253D02*
G01*
X277356206Y-137977239D01*
X277632747Y-138589928D01*
X277633027Y-138598878D01*
X277630356Y-138603014D01*
X277465014Y-138768356D01*
X277456741Y-138771783D01*
X277451928Y-138770747D01*
X276839239Y-138494206D01*
X276833108Y-138487679D01*
X276833232Y-138479090D01*
X276979437Y-138123802D01*
X276985753Y-138117457D01*
X277341090Y-137971232D01*
X277350044Y-137971253D01*
G37*
%TD.AperFunction*%
%TD*%
%TA.AperFunction,Conductor*%
%TO.N,P14*%
G36*
X195619284Y-122136610D02*
G01*
X195620019Y-122136945D01*
X197229533Y-122941766D01*
X197235400Y-122948531D01*
X197236000Y-122952231D01*
X197236000Y-123187768D01*
X197232573Y-123196041D01*
X197229533Y-123198233D01*
X195620030Y-124003049D01*
X195611097Y-124003684D01*
X195604332Y-123997817D01*
X195603997Y-123997083D01*
X195220862Y-123074486D01*
X195220855Y-123065532D01*
X195220863Y-123065513D01*
X195603993Y-122142926D01*
X195610329Y-122136602D01*
X195619284Y-122136610D01*
G37*
%TD.AperFunction*%
%TD*%
%TA.AperFunction,Conductor*%
%TO.N,GND*%
G36*
X191952130Y-115528922D02*
G01*
X191954276Y-115531068D01*
X192939149Y-116812389D01*
X192941474Y-116821037D01*
X192938678Y-116827223D01*
X192073496Y-117816004D01*
X192065469Y-117819974D01*
X192064691Y-117820000D01*
X191825309Y-117820000D01*
X191817036Y-117816573D01*
X191816504Y-117816005D01*
X191816503Y-117816004D01*
X190951321Y-116827224D01*
X190948452Y-116818741D01*
X190950850Y-116812389D01*
X191935724Y-115531068D01*
X191943482Y-115526597D01*
X191952130Y-115528922D01*
G37*
%TD.AperFunction*%
%TD*%
%TA.AperFunction,Conductor*%
%TO.N,P18*%
G36*
X203501715Y-147329209D02*
G01*
X203503773Y-147331443D01*
X203973353Y-147997435D01*
X204092354Y-148166212D01*
X204094321Y-148174948D01*
X204090087Y-148182101D01*
X204026018Y-148233195D01*
X203847565Y-148425523D01*
X203699773Y-148642293D01*
X203699770Y-148642298D01*
X203585941Y-148878667D01*
X203585935Y-148878683D01*
X203508604Y-149129384D01*
X203508602Y-149129392D01*
X203469500Y-149388807D01*
X203469500Y-149608300D01*
X203466073Y-149616573D01*
X203457800Y-149620000D01*
X203225571Y-149620000D01*
X203217298Y-149616573D01*
X203216488Y-149615675D01*
X203032286Y-149388807D01*
X202414139Y-148627480D01*
X202411586Y-148618898D01*
X202414244Y-148612605D01*
X203485236Y-147330686D01*
X203493169Y-147326535D01*
X203501715Y-147329209D01*
G37*
%TD.AperFunction*%
%TD*%
%TA.AperFunction,Conductor*%
%TO.N,P19*%
G36*
X264523707Y-149539248D02*
G01*
X264787184Y-149647436D01*
X264793536Y-149653748D01*
X264793563Y-149653815D01*
X264901751Y-149917292D01*
X264901724Y-149926247D01*
X264896346Y-149932106D01*
X264462740Y-150158673D01*
X264453821Y-150159467D01*
X264449049Y-150156576D01*
X264284423Y-149991950D01*
X264280996Y-149983677D01*
X264282324Y-149978264D01*
X264508894Y-149544651D01*
X264515762Y-149538907D01*
X264523707Y-149539248D01*
G37*
%TD.AperFunction*%
%TD*%
%TA.AperFunction,Conductor*%
%TO.N,P9*%
G36*
X265701221Y-187171561D02*
G01*
X267408402Y-187740561D01*
X267415166Y-187746427D01*
X267415801Y-187755360D01*
X267415514Y-187756128D01*
X267034063Y-188679408D01*
X267027737Y-188685745D01*
X267027718Y-188685753D01*
X266104438Y-189067204D01*
X266095483Y-189067196D01*
X266089157Y-189060859D01*
X266088877Y-189060109D01*
X265519872Y-187352911D01*
X265520507Y-187343979D01*
X265522696Y-187340942D01*
X265689250Y-187174388D01*
X265697522Y-187170962D01*
X265701221Y-187171561D01*
G37*
%TD.AperFunction*%
%TD*%
%TA.AperFunction,Conductor*%
%TO.N,P19*%
G36*
X177619284Y-126136610D02*
G01*
X177620019Y-126136945D01*
X179229533Y-126941766D01*
X179235400Y-126948531D01*
X179236000Y-126952231D01*
X179236000Y-127187768D01*
X179232573Y-127196041D01*
X179229533Y-127198233D01*
X177620030Y-128003049D01*
X177611097Y-128003684D01*
X177604332Y-127997817D01*
X177603997Y-127997083D01*
X177220862Y-127074486D01*
X177220855Y-127065532D01*
X177220863Y-127065513D01*
X177603993Y-126142926D01*
X177610329Y-126136602D01*
X177619284Y-126136610D01*
G37*
%TD.AperFunction*%
%TD*%
%TA.AperFunction,Conductor*%
%TO.N,P4*%
G36*
X257500225Y-149331320D02*
G01*
X257502637Y-149334826D01*
X257940084Y-150315356D01*
X257940325Y-150324308D01*
X257937976Y-150328081D01*
X257847570Y-150425517D01*
X257847566Y-150425522D01*
X257699773Y-150642293D01*
X257699770Y-150642298D01*
X257585941Y-150878667D01*
X257585935Y-150878683D01*
X257566254Y-150942482D01*
X257561375Y-150948892D01*
X256839205Y-151410430D01*
X256830388Y-151411997D01*
X256824631Y-151408844D01*
X256655114Y-151239327D01*
X256653994Y-151238030D01*
X256201021Y-150628107D01*
X256198840Y-150619422D01*
X256202139Y-150612860D01*
X257483680Y-149331319D01*
X257491952Y-149327893D01*
X257500225Y-149331320D01*
G37*
%TD.AperFunction*%
%TD*%
%TA.AperFunction,Conductor*%
%TO.N,P16*%
G36*
X224559211Y-153559006D02*
G01*
X224562251Y-153561198D01*
X224728801Y-153727748D01*
X224732228Y-153736021D01*
X224731628Y-153739721D01*
X224162630Y-155446900D01*
X224156763Y-155453665D01*
X224147830Y-155454300D01*
X224147062Y-155454013D01*
X223631122Y-155240853D01*
X223223781Y-155072561D01*
X223217446Y-155066237D01*
X222835986Y-154142936D01*
X222835994Y-154133982D01*
X222842331Y-154127656D01*
X222843071Y-154127379D01*
X224550279Y-153558371D01*
X224559211Y-153559006D01*
G37*
%TD.AperFunction*%
%TD*%
%TA.AperFunction,Conductor*%
%TO.N,GND*%
G36*
X253835667Y-143242182D02*
G01*
X253836007Y-143242928D01*
X254219136Y-144165513D01*
X254219144Y-144174468D01*
X254219136Y-144174487D01*
X253836007Y-145097071D01*
X253829670Y-145103397D01*
X253820715Y-145103389D01*
X253819969Y-145103049D01*
X252210467Y-144298233D01*
X252204600Y-144291468D01*
X252204000Y-144287768D01*
X252204000Y-144052231D01*
X252207427Y-144043958D01*
X252210467Y-144041766D01*
X253819971Y-143236949D01*
X253828902Y-143236315D01*
X253835667Y-143242182D01*
G37*
%TD.AperFunction*%
%TD*%
%TA.AperFunction,Conductor*%
%TO.N,P18*%
G36*
X204835667Y-156142182D02*
G01*
X204836007Y-156142928D01*
X205219136Y-157065513D01*
X205219144Y-157074468D01*
X205219136Y-157074487D01*
X204836007Y-157997071D01*
X204829670Y-158003397D01*
X204820715Y-158003389D01*
X204819969Y-158003049D01*
X203210467Y-157198233D01*
X203204600Y-157191468D01*
X203204000Y-157187768D01*
X203204000Y-156952231D01*
X203207427Y-156943958D01*
X203210467Y-156941766D01*
X204819971Y-156136949D01*
X204828902Y-156136315D01*
X204835667Y-156142182D01*
G37*
%TD.AperFunction*%
%TD*%
%TA.AperFunction,Conductor*%
%TO.N,P21*%
G36*
X277350044Y-127811253D02*
G01*
X277356206Y-127817239D01*
X277632747Y-128429928D01*
X277633027Y-128438878D01*
X277630356Y-128443014D01*
X277465014Y-128608356D01*
X277456741Y-128611783D01*
X277451928Y-128610747D01*
X276839239Y-128334206D01*
X276833108Y-128327679D01*
X276833232Y-128319090D01*
X276979437Y-127963802D01*
X276985753Y-127957457D01*
X277341090Y-127811232D01*
X277350044Y-127811253D01*
G37*
%TD.AperFunction*%
%TD*%
%TA.AperFunction,Conductor*%
%TO.N,GND*%
G36*
X274980724Y-122239913D02*
G01*
X275600481Y-122505902D01*
X275606732Y-122512314D01*
X275606687Y-122521106D01*
X275460563Y-122876195D01*
X275454245Y-122882542D01*
X275454195Y-122882563D01*
X275098741Y-123028837D01*
X275089787Y-123028816D01*
X275083705Y-123023003D01*
X274800170Y-122421005D01*
X274799746Y-122412063D01*
X274802481Y-122407751D01*
X274967840Y-122242392D01*
X274976112Y-122238966D01*
X274980724Y-122239913D01*
G37*
%TD.AperFunction*%
%TD*%
%TA.AperFunction,Conductor*%
%TO.N,GND*%
G36*
X240508726Y-167359256D02*
G01*
X240509998Y-167364272D01*
X240544295Y-168715695D01*
X240541079Y-168724053D01*
X240535608Y-168727299D01*
X238864931Y-169171869D01*
X238856055Y-169170684D01*
X238853649Y-169168835D01*
X238686230Y-169001416D01*
X238682803Y-168993143D01*
X238683103Y-168990510D01*
X238869495Y-168186378D01*
X238874701Y-168179094D01*
X238875565Y-168178605D01*
X240492990Y-167354144D01*
X240501916Y-167353441D01*
X240508726Y-167359256D01*
G37*
%TD.AperFunction*%
%TD*%
%TA.AperFunction,Conductor*%
%TO.N,P16*%
G36*
X266789180Y-161753427D02*
G01*
X266792071Y-161758199D01*
X266938470Y-162225012D01*
X266937676Y-162233931D01*
X266931817Y-162239309D01*
X266669011Y-162349115D01*
X266660056Y-162349142D01*
X266659989Y-162349115D01*
X266397182Y-162239309D01*
X266390870Y-162232957D01*
X266390529Y-162225013D01*
X266536929Y-161758199D01*
X266542675Y-161751330D01*
X266548093Y-161750000D01*
X266780907Y-161750000D01*
X266789180Y-161753427D01*
G37*
%TD.AperFunction*%
%TD*%
%TA.AperFunction,Conductor*%
%TO.N,P9*%
G36*
X274980724Y-145099913D02*
G01*
X275600481Y-145365902D01*
X275606732Y-145372314D01*
X275606687Y-145381106D01*
X275460563Y-145736195D01*
X275454245Y-145742542D01*
X275454195Y-145742563D01*
X275098741Y-145888837D01*
X275089787Y-145888816D01*
X275083705Y-145883003D01*
X274800170Y-145281005D01*
X274799746Y-145272063D01*
X274802481Y-145267751D01*
X274967840Y-145102392D01*
X274976112Y-145098966D01*
X274980724Y-145099913D01*
G37*
%TD.AperFunction*%
%TD*%
%TA.AperFunction,Conductor*%
%TO.N,P14*%
G36*
X203493427Y-113322952D02*
G01*
X203498560Y-113329189D01*
X203870015Y-114392168D01*
X203869509Y-114401109D01*
X203867547Y-114403986D01*
X203847570Y-114425517D01*
X203847566Y-114425522D01*
X203699773Y-114642293D01*
X203699770Y-114642298D01*
X203600494Y-114848446D01*
X203596398Y-114853135D01*
X202545747Y-115546575D01*
X202439693Y-115616573D01*
X202437432Y-115618065D01*
X202430987Y-115620000D01*
X202196263Y-115620000D01*
X202187990Y-115616573D01*
X202184563Y-115608300D01*
X202184563Y-115608237D01*
X202184807Y-115562534D01*
X202194951Y-113667805D01*
X202198422Y-113659554D01*
X202203689Y-113656552D01*
X203484558Y-113321729D01*
X203493427Y-113322952D01*
G37*
%TD.AperFunction*%
%TD*%
%TA.AperFunction,Conductor*%
%TO.N,P18*%
G36*
X245391736Y-161841325D02*
G01*
X245825346Y-162067893D01*
X245831092Y-162074762D01*
X245830751Y-162082707D01*
X245722563Y-162346184D01*
X245716251Y-162352536D01*
X245716184Y-162352563D01*
X245452707Y-162460751D01*
X245443752Y-162460724D01*
X245437893Y-162455346D01*
X245211325Y-162021737D01*
X245210532Y-162012821D01*
X245213421Y-162008051D01*
X245378050Y-161843422D01*
X245386322Y-161839996D01*
X245391736Y-161841325D01*
G37*
%TD.AperFunction*%
%TD*%
%TA.AperFunction,Conductor*%
%TO.N,VCC*%
G36*
X277350044Y-125271253D02*
G01*
X277356206Y-125277239D01*
X277632747Y-125889928D01*
X277633027Y-125898878D01*
X277630356Y-125903014D01*
X277465014Y-126068356D01*
X277456741Y-126071783D01*
X277451928Y-126070747D01*
X276839239Y-125794206D01*
X276833108Y-125787679D01*
X276833232Y-125779090D01*
X276979437Y-125423802D01*
X276985753Y-125417457D01*
X277341090Y-125271232D01*
X277350044Y-125271253D01*
G37*
%TD.AperFunction*%
%TD*%
%TA.AperFunction,Conductor*%
%TO.N,P18*%
G36*
X195619284Y-156136610D02*
G01*
X195620019Y-156136945D01*
X197229533Y-156941766D01*
X197235400Y-156948531D01*
X197236000Y-156952231D01*
X197236000Y-157187768D01*
X197232573Y-157196041D01*
X197229533Y-157198233D01*
X195620030Y-158003049D01*
X195611097Y-158003684D01*
X195604332Y-157997817D01*
X195603997Y-157997083D01*
X195220862Y-157074486D01*
X195220855Y-157065532D01*
X195220863Y-157065513D01*
X195603993Y-156142926D01*
X195610329Y-156136602D01*
X195619284Y-156136610D01*
G37*
%TD.AperFunction*%
%TD*%
%TA.AperFunction,Conductor*%
%TO.N,P0*%
G36*
X272074053Y-119506112D02*
G01*
X272074851Y-119506828D01*
X272154806Y-119585514D01*
X272233491Y-119665468D01*
X272236852Y-119673769D01*
X272233359Y-119682014D01*
X272232561Y-119682730D01*
X272056228Y-119827002D01*
X272047655Y-119829589D01*
X272040546Y-119826220D01*
X271914099Y-119699773D01*
X271910672Y-119691500D01*
X271913317Y-119684091D01*
X271928554Y-119665468D01*
X272057591Y-119507756D01*
X272065480Y-119503525D01*
X272074053Y-119506112D01*
G37*
%TD.AperFunction*%
%TD*%
%TA.AperFunction,Conductor*%
%TO.N,RAW*%
G36*
X284045384Y-151207840D02*
G01*
X284385384Y-151466488D01*
X284389893Y-151474225D01*
X284390000Y-151475800D01*
X284390000Y-151663210D01*
X284386573Y-151671483D01*
X284384105Y-151673368D01*
X284045258Y-151866995D01*
X284036375Y-151868125D01*
X284034511Y-151867442D01*
X283312918Y-151531146D01*
X283306866Y-151524545D01*
X283307255Y-151515599D01*
X283313317Y-151509759D01*
X284033764Y-151206369D01*
X284042716Y-151206317D01*
X284045384Y-151207840D01*
G37*
%TD.AperFunction*%
%TD*%
%TA.AperFunction,Conductor*%
%TO.N,P7*%
G36*
X274980724Y-140019913D02*
G01*
X275600481Y-140285902D01*
X275606732Y-140292314D01*
X275606687Y-140301106D01*
X275460563Y-140656195D01*
X275454245Y-140662542D01*
X275454195Y-140662563D01*
X275098741Y-140808837D01*
X275089787Y-140808816D01*
X275083705Y-140803003D01*
X274800170Y-140201005D01*
X274799746Y-140192063D01*
X274802481Y-140187751D01*
X274967840Y-140022392D01*
X274976112Y-140018966D01*
X274980724Y-140019913D01*
G37*
%TD.AperFunction*%
%TD*%
%TA.AperFunction,Conductor*%
%TO.N,GND*%
G36*
X181835667Y-145242182D02*
G01*
X181836007Y-145242928D01*
X182219136Y-146165513D01*
X182219144Y-146174468D01*
X182219136Y-146174487D01*
X181836007Y-147097071D01*
X181829670Y-147103397D01*
X181820715Y-147103389D01*
X181819969Y-147103049D01*
X180210467Y-146298233D01*
X180204600Y-146291468D01*
X180204000Y-146287768D01*
X180204000Y-146052231D01*
X180207427Y-146043958D01*
X180210467Y-146041766D01*
X181819971Y-145236949D01*
X181828902Y-145236315D01*
X181835667Y-145242182D01*
G37*
%TD.AperFunction*%
%TD*%
%TA.AperFunction,Conductor*%
%TO.N,GND*%
G36*
X235835667Y-124242182D02*
G01*
X235836007Y-124242928D01*
X236219136Y-125165513D01*
X236219144Y-125174468D01*
X236219136Y-125174487D01*
X235836007Y-126097071D01*
X235829670Y-126103397D01*
X235820715Y-126103389D01*
X235819969Y-126103049D01*
X234210467Y-125298233D01*
X234204600Y-125291468D01*
X234204000Y-125287768D01*
X234204000Y-125052231D01*
X234207427Y-125043958D01*
X234210467Y-125041766D01*
X235819971Y-124236949D01*
X235828902Y-124236315D01*
X235835667Y-124242182D01*
G37*
%TD.AperFunction*%
%TD*%
%TA.AperFunction,Conductor*%
%TO.N,GND*%
G36*
X245952130Y-117528922D02*
G01*
X245954276Y-117531068D01*
X246939149Y-118812389D01*
X246941474Y-118821037D01*
X246938678Y-118827223D01*
X246073496Y-119816004D01*
X246065469Y-119819974D01*
X246064691Y-119820000D01*
X245825309Y-119820000D01*
X245817036Y-119816573D01*
X245816504Y-119816005D01*
X245816503Y-119816004D01*
X244951321Y-118827224D01*
X244948452Y-118818741D01*
X244950850Y-118812389D01*
X245935724Y-117531068D01*
X245943482Y-117526597D01*
X245952130Y-117528922D01*
G37*
%TD.AperFunction*%
%TD*%
%TA.AperFunction,Conductor*%
%TO.N,GND*%
G36*
X217835661Y-139242198D02*
G01*
X217836066Y-139243071D01*
X218219136Y-140165513D01*
X218219144Y-140174468D01*
X218219136Y-140174487D01*
X217836066Y-141096928D01*
X217829729Y-141103254D01*
X217820774Y-141103246D01*
X217819901Y-141102841D01*
X216210340Y-140273267D01*
X216204556Y-140266431D01*
X216204000Y-140262867D01*
X216204000Y-140077132D01*
X216207427Y-140068859D01*
X216210338Y-140066733D01*
X217819902Y-139237157D01*
X217828825Y-139236414D01*
X217835661Y-139242198D01*
G37*
%TD.AperFunction*%
%TD*%
%TA.AperFunction,Conductor*%
%TO.N,GND*%
G36*
X173952130Y-153528922D02*
G01*
X173954276Y-153531068D01*
X174939149Y-154812389D01*
X174941474Y-154821037D01*
X174938678Y-154827223D01*
X174073496Y-155816004D01*
X174065469Y-155819974D01*
X174064691Y-155820000D01*
X173825309Y-155820000D01*
X173817036Y-155816573D01*
X173816504Y-155816005D01*
X173816503Y-155816004D01*
X172951321Y-154827224D01*
X172948452Y-154818741D01*
X172950850Y-154812389D01*
X173935724Y-153531068D01*
X173943482Y-153526597D01*
X173952130Y-153528922D01*
G37*
%TD.AperFunction*%
%TD*%
%TA.AperFunction,Conductor*%
%TO.N,P19*%
G36*
X276622909Y-132891232D02*
G01*
X276765763Y-132950018D01*
X276978195Y-133037436D01*
X276984542Y-133043754D01*
X276984563Y-133043804D01*
X277130767Y-133399090D01*
X277130746Y-133408044D01*
X277124760Y-133414206D01*
X276512071Y-133690747D01*
X276503121Y-133691027D01*
X276498985Y-133688356D01*
X276333643Y-133523014D01*
X276330216Y-133514741D01*
X276331252Y-133509928D01*
X276377238Y-133408044D01*
X276607794Y-132897238D01*
X276614320Y-132891108D01*
X276622909Y-132891232D01*
G37*
%TD.AperFunction*%
%TD*%
%TA.AperFunction,Conductor*%
%TO.N,GND*%
G36*
X209952130Y-130528922D02*
G01*
X209954276Y-130531068D01*
X210939065Y-131812279D01*
X210941390Y-131820927D01*
X210938486Y-131827236D01*
X210048486Y-132816127D01*
X210040404Y-132819984D01*
X210039789Y-132820000D01*
X209850211Y-132820000D01*
X209841938Y-132816573D01*
X209841514Y-132816127D01*
X208951513Y-131827236D01*
X208948526Y-131818794D01*
X208950933Y-131812280D01*
X209935724Y-130531067D01*
X209943482Y-130526597D01*
X209952130Y-130528922D01*
G37*
%TD.AperFunction*%
%TD*%
%TA.AperFunction,Conductor*%
%TO.N,GND*%
G36*
X199835667Y-124242182D02*
G01*
X199836007Y-124242928D01*
X200219136Y-125165513D01*
X200219144Y-125174468D01*
X200219136Y-125174487D01*
X199836007Y-126097071D01*
X199829670Y-126103397D01*
X199820715Y-126103389D01*
X199819969Y-126103049D01*
X198210467Y-125298233D01*
X198204600Y-125291468D01*
X198204000Y-125287768D01*
X198204000Y-125052231D01*
X198207427Y-125043958D01*
X198210467Y-125041766D01*
X199819971Y-124236949D01*
X199828902Y-124236315D01*
X199835667Y-124242182D01*
G37*
%TD.AperFunction*%
%TD*%
%TA.AperFunction,Conductor*%
%TO.N,P8*%
G36*
X252175896Y-168834210D02*
G01*
X252177016Y-168837069D01*
X252423376Y-169836157D01*
X252422029Y-169845010D01*
X252416291Y-169849849D01*
X252379959Y-169864108D01*
X252372453Y-169867055D01*
X252284296Y-169917952D01*
X252145237Y-169998237D01*
X252145236Y-169998238D01*
X251940114Y-170161818D01*
X251761661Y-170354146D01*
X251613869Y-170570916D01*
X251613866Y-170570921D01*
X251533709Y-170737368D01*
X251527776Y-170743046D01*
X251268883Y-170853984D01*
X251264275Y-170854930D01*
X251025029Y-170854930D01*
X251016756Y-170851503D01*
X251013963Y-170847028D01*
X250919198Y-170570916D01*
X250617885Y-169692990D01*
X250618440Y-169684055D01*
X250623289Y-169678955D01*
X252159997Y-168829629D01*
X252168895Y-168828627D01*
X252175896Y-168834210D01*
G37*
%TD.AperFunction*%
%TD*%
%TA.AperFunction,Conductor*%
%TO.N,P18*%
G36*
X277350044Y-135431253D02*
G01*
X277356206Y-135437239D01*
X277632747Y-136049928D01*
X277633027Y-136058878D01*
X277630356Y-136063014D01*
X277465014Y-136228356D01*
X277456741Y-136231783D01*
X277451928Y-136230747D01*
X276839239Y-135954206D01*
X276833108Y-135947679D01*
X276833232Y-135939090D01*
X276979437Y-135583802D01*
X276985753Y-135577457D01*
X277341090Y-135431232D01*
X277350044Y-135431253D01*
G37*
%TD.AperFunction*%
%TD*%
%TA.AperFunction,Conductor*%
%TO.N,P16*%
G36*
X220417685Y-154823427D02*
G01*
X220421054Y-154830536D01*
X220443723Y-155057238D01*
X220441136Y-155065811D01*
X220433245Y-155070044D01*
X220432175Y-155070102D01*
X220320000Y-155071000D01*
X220207824Y-155070102D01*
X220199579Y-155066609D01*
X220196218Y-155058308D01*
X220196276Y-155057238D01*
X220218946Y-154830536D01*
X220223179Y-154822645D01*
X220230588Y-154820000D01*
X220409412Y-154820000D01*
X220417685Y-154823427D01*
G37*
%TD.AperFunction*%
%TD*%
%TA.AperFunction,Conductor*%
%TO.N,P20*%
G36*
X277350044Y-130351253D02*
G01*
X277356206Y-130357239D01*
X277632747Y-130969928D01*
X277633027Y-130978878D01*
X277630356Y-130983014D01*
X277465014Y-131148356D01*
X277456741Y-131151783D01*
X277451928Y-131150747D01*
X276839239Y-130874206D01*
X276833108Y-130867679D01*
X276833232Y-130859090D01*
X276979437Y-130503802D01*
X276985753Y-130497457D01*
X277341090Y-130351232D01*
X277350044Y-130351253D01*
G37*
%TD.AperFunction*%
%TD*%
%TA.AperFunction,Conductor*%
%TO.N,P16*%
G36*
X258303931Y-163092323D02*
G01*
X258309309Y-163098182D01*
X258419115Y-163360989D01*
X258419142Y-163369944D01*
X258419115Y-163370011D01*
X258309309Y-163632817D01*
X258302957Y-163639129D01*
X258295012Y-163639470D01*
X257828199Y-163493071D01*
X257821330Y-163487325D01*
X257820000Y-163481907D01*
X257820000Y-163249092D01*
X257823427Y-163240819D01*
X257828196Y-163237929D01*
X258295013Y-163091529D01*
X258303931Y-163092323D01*
G37*
%TD.AperFunction*%
%TD*%
%TA.AperFunction,Conductor*%
%TO.N,GND*%
G36*
X209952130Y-147528922D02*
G01*
X209954276Y-147531068D01*
X210939149Y-148812389D01*
X210941474Y-148821037D01*
X210938678Y-148827223D01*
X210073496Y-149816004D01*
X210065469Y-149819974D01*
X210064691Y-149820000D01*
X209825309Y-149820000D01*
X209817036Y-149816573D01*
X209816504Y-149816005D01*
X209816503Y-149816004D01*
X208951321Y-148827224D01*
X208948452Y-148818741D01*
X208950850Y-148812389D01*
X209935724Y-147531068D01*
X209943482Y-147526597D01*
X209952130Y-147528922D01*
G37*
%TD.AperFunction*%
%TD*%
%TA.AperFunction,Conductor*%
%TO.N,RST*%
G36*
X277350044Y-122731253D02*
G01*
X277356206Y-122737239D01*
X277632747Y-123349928D01*
X277633027Y-123358878D01*
X277630356Y-123363014D01*
X277465014Y-123528356D01*
X277456741Y-123531783D01*
X277451928Y-123530747D01*
X276839239Y-123254206D01*
X276833108Y-123247679D01*
X276833232Y-123239090D01*
X276979437Y-122883802D01*
X276985753Y-122877457D01*
X277341090Y-122731232D01*
X277350044Y-122731253D01*
G37*
%TD.AperFunction*%
%TD*%
%TA.AperFunction,Conductor*%
%TO.N,P9*%
G36*
X259340615Y-181871948D02*
G01*
X259341350Y-181872283D01*
X260950864Y-182677104D01*
X260956731Y-182683869D01*
X260957331Y-182687569D01*
X260957331Y-182923106D01*
X260953904Y-182931379D01*
X260950864Y-182933571D01*
X259341361Y-183738387D01*
X259332428Y-183739022D01*
X259325663Y-183733155D01*
X259325328Y-183732421D01*
X258942193Y-182809824D01*
X258942186Y-182800870D01*
X258942194Y-182800851D01*
X259325324Y-181878264D01*
X259331660Y-181871940D01*
X259340615Y-181871948D01*
G37*
%TD.AperFunction*%
%TD*%
%TA.AperFunction,Conductor*%
%TO.N,P20*%
G36*
X185493427Y-134322952D02*
G01*
X185498560Y-134329189D01*
X185870015Y-135392168D01*
X185869509Y-135401109D01*
X185867547Y-135403986D01*
X185847570Y-135425517D01*
X185847566Y-135425522D01*
X185699773Y-135642293D01*
X185699770Y-135642298D01*
X185600494Y-135848446D01*
X185596398Y-135853135D01*
X184545747Y-136546575D01*
X184439693Y-136616573D01*
X184437432Y-136618065D01*
X184430987Y-136620000D01*
X184196263Y-136620000D01*
X184187990Y-136616573D01*
X184184563Y-136608300D01*
X184184563Y-136608237D01*
X184184807Y-136562534D01*
X184194951Y-134667805D01*
X184198422Y-134659554D01*
X184203689Y-134656552D01*
X185484558Y-134321729D01*
X185493427Y-134322952D01*
G37*
%TD.AperFunction*%
%TD*%
%TA.AperFunction,Conductor*%
%TO.N,GND*%
G36*
X253835667Y-126242182D02*
G01*
X253836007Y-126242928D01*
X254219136Y-127165513D01*
X254219144Y-127174468D01*
X254219136Y-127174487D01*
X253836007Y-128097071D01*
X253829670Y-128103397D01*
X253820715Y-128103389D01*
X253819969Y-128103049D01*
X252210467Y-127298233D01*
X252204600Y-127291468D01*
X252204000Y-127287768D01*
X252204000Y-127052231D01*
X252207427Y-127043958D01*
X252210467Y-127041766D01*
X253819971Y-126236949D01*
X253828902Y-126236315D01*
X253835667Y-126242182D01*
G37*
%TD.AperFunction*%
%TD*%
%TA.AperFunction,Conductor*%
%TO.N,P3*%
G36*
X285086702Y-131332475D02*
G01*
X285090128Y-131340618D01*
X285095869Y-131858209D01*
X285092534Y-131866520D01*
X285084300Y-131870038D01*
X285084209Y-131870039D01*
X284800885Y-131870983D01*
X284792600Y-131867584D01*
X284792553Y-131867537D01*
X284591142Y-131665176D01*
X284587735Y-131656894D01*
X284590205Y-131649732D01*
X284836487Y-131333558D01*
X284844274Y-131329137D01*
X284845717Y-131329048D01*
X285078429Y-131329048D01*
X285086702Y-131332475D01*
G37*
%TD.AperFunction*%
%TD*%
%TA.AperFunction,Conductor*%
%TO.N,P10*%
G36*
X277350044Y-145591253D02*
G01*
X277356206Y-145597239D01*
X277632747Y-146209928D01*
X277633027Y-146218878D01*
X277630356Y-146223014D01*
X277465014Y-146388356D01*
X277456741Y-146391783D01*
X277451928Y-146390747D01*
X276839239Y-146114206D01*
X276833108Y-146107679D01*
X276833232Y-146099090D01*
X276979437Y-145743802D01*
X276985753Y-145737457D01*
X277341090Y-145591232D01*
X277350044Y-145591253D01*
G37*
%TD.AperFunction*%
%TD*%
%TA.AperFunction,Conductor*%
%TO.N,P21*%
G36*
X266624391Y-129169021D02*
G01*
X266631599Y-129174335D01*
X266633281Y-129180379D01*
X266633281Y-129413215D01*
X266629854Y-129421488D01*
X266625819Y-129424120D01*
X266165440Y-129603030D01*
X266156487Y-129602833D01*
X266150406Y-129596636D01*
X266078325Y-129424120D01*
X266040883Y-129334509D01*
X266040857Y-129325556D01*
X266040862Y-129325542D01*
X266150938Y-129062090D01*
X266157289Y-129055780D01*
X266164541Y-129055245D01*
X266624391Y-129169021D01*
G37*
%TD.AperFunction*%
%TD*%
%TA.AperFunction,Conductor*%
%TO.N,GND*%
G36*
X235835667Y-158242182D02*
G01*
X235836007Y-158242928D01*
X236219136Y-159165513D01*
X236219144Y-159174468D01*
X236219136Y-159174487D01*
X235836007Y-160097071D01*
X235829670Y-160103397D01*
X235820715Y-160103389D01*
X235819969Y-160103049D01*
X234210467Y-159298233D01*
X234204600Y-159291468D01*
X234204000Y-159287768D01*
X234204000Y-159052231D01*
X234207427Y-159043958D01*
X234210467Y-159041766D01*
X235819971Y-158236949D01*
X235828902Y-158236315D01*
X235835667Y-158242182D01*
G37*
%TD.AperFunction*%
%TD*%
%TA.AperFunction,Conductor*%
%TO.N,GND*%
G36*
X227952130Y-132528922D02*
G01*
X227954276Y-132531068D01*
X228939065Y-133812279D01*
X228941390Y-133820927D01*
X228938486Y-133827236D01*
X228048486Y-134816127D01*
X228040404Y-134819984D01*
X228039789Y-134820000D01*
X227850211Y-134820000D01*
X227841938Y-134816573D01*
X227841514Y-134816127D01*
X226951513Y-133827236D01*
X226948526Y-133818794D01*
X226950933Y-133812280D01*
X227935724Y-132531067D01*
X227943482Y-132526597D01*
X227952130Y-132528922D01*
G37*
%TD.AperFunction*%
%TD*%
%TA.AperFunction,Conductor*%
%TO.N,P20*%
G36*
X266007302Y-131742429D02*
G01*
X266014170Y-131748174D01*
X266015500Y-131753592D01*
X266015500Y-131986407D01*
X266012073Y-131994680D01*
X266007301Y-131997571D01*
X265540487Y-132143970D01*
X265531568Y-132143176D01*
X265526191Y-132137318D01*
X265416383Y-131874509D01*
X265416357Y-131865556D01*
X265416362Y-131865542D01*
X265526191Y-131602680D01*
X265532542Y-131596370D01*
X265540486Y-131596029D01*
X266007302Y-131742429D01*
G37*
%TD.AperFunction*%
%TD*%
%TA.AperFunction,Conductor*%
%TO.N,RAW*%
G36*
X280375793Y-118486739D02*
G01*
X280376509Y-118487537D01*
X280520781Y-118663870D01*
X280523368Y-118672443D01*
X280519999Y-118679552D01*
X280393552Y-118805999D01*
X280385279Y-118809426D01*
X280377870Y-118806781D01*
X280261353Y-118711449D01*
X280201536Y-118662508D01*
X280197304Y-118654618D01*
X280199891Y-118646045D01*
X280200597Y-118645257D01*
X280279293Y-118565293D01*
X280359248Y-118486606D01*
X280367548Y-118483246D01*
X280375793Y-118486739D01*
G37*
%TD.AperFunction*%
%TD*%
%TA.AperFunction,Conductor*%
%TO.N,P20*%
G36*
X186835667Y-143142182D02*
G01*
X186836007Y-143142928D01*
X187219136Y-144065513D01*
X187219144Y-144074468D01*
X187219136Y-144074487D01*
X186836007Y-144997071D01*
X186829670Y-145003397D01*
X186820715Y-145003389D01*
X186819969Y-145003049D01*
X185210467Y-144198233D01*
X185204600Y-144191468D01*
X185204000Y-144187768D01*
X185204000Y-143952231D01*
X185207427Y-143943958D01*
X185210467Y-143941766D01*
X186819971Y-143136949D01*
X186828902Y-143136315D01*
X186835667Y-143142182D01*
G37*
%TD.AperFunction*%
%TD*%
%TA.AperFunction,Conductor*%
%TO.N,P18*%
G36*
X248480220Y-162143874D02*
G01*
X248801572Y-162382491D01*
X248806171Y-162390175D01*
X248806297Y-162391885D01*
X248806297Y-162624596D01*
X248802870Y-162632869D01*
X248794897Y-162636292D01*
X248271960Y-162649693D01*
X248263602Y-162646479D01*
X248259964Y-162638297D01*
X248259960Y-162638036D01*
X248259915Y-162624596D01*
X248259016Y-162354884D01*
X248262414Y-162346601D01*
X248464991Y-162144974D01*
X248473273Y-162141568D01*
X248480220Y-162143874D01*
G37*
%TD.AperFunction*%
%TD*%
%TA.AperFunction,Conductor*%
%TO.N,P15*%
G36*
X203493427Y-130322952D02*
G01*
X203498560Y-130329189D01*
X203870015Y-131392168D01*
X203869509Y-131401109D01*
X203867547Y-131403986D01*
X203847570Y-131425517D01*
X203847566Y-131425522D01*
X203699773Y-131642293D01*
X203699770Y-131642298D01*
X203600494Y-131848446D01*
X203596398Y-131853135D01*
X202545747Y-132546575D01*
X202439693Y-132616573D01*
X202437432Y-132618065D01*
X202430987Y-132620000D01*
X202196263Y-132620000D01*
X202187990Y-132616573D01*
X202184563Y-132608300D01*
X202184563Y-132608237D01*
X202184807Y-132562534D01*
X202194951Y-130667805D01*
X202198422Y-130659554D01*
X202203689Y-130656552D01*
X203484558Y-130321729D01*
X203493427Y-130322952D01*
G37*
%TD.AperFunction*%
%TD*%
%TA.AperFunction,Conductor*%
%TO.N,pos*%
G36*
X278473174Y-154619439D02*
G01*
X278636804Y-154686629D01*
X278736184Y-154727436D01*
X278742536Y-154733748D01*
X278742563Y-154733815D01*
X278850559Y-154996824D01*
X278850532Y-155005779D01*
X278844670Y-155011877D01*
X278393867Y-155221523D01*
X278384920Y-155221904D01*
X278380660Y-155219187D01*
X278250812Y-155089339D01*
X278247385Y-155081066D01*
X278248474Y-155076136D01*
X278458124Y-154625327D01*
X278464718Y-154619273D01*
X278473174Y-154619439D01*
G37*
%TD.AperFunction*%
%TD*%
%TA.AperFunction,Conductor*%
%TO.N,P4*%
G36*
X249619284Y-158136610D02*
G01*
X249620019Y-158136945D01*
X251229533Y-158941766D01*
X251235400Y-158948531D01*
X251236000Y-158952231D01*
X251236000Y-159187768D01*
X251232573Y-159196041D01*
X251229533Y-159198233D01*
X249620030Y-160003049D01*
X249611097Y-160003684D01*
X249604332Y-159997817D01*
X249603997Y-159997083D01*
X249220862Y-159074486D01*
X249220855Y-159065532D01*
X249220863Y-159065513D01*
X249603993Y-158142926D01*
X249610329Y-158136602D01*
X249619284Y-158136610D01*
G37*
%TD.AperFunction*%
%TD*%
%TA.AperFunction,Conductor*%
%TO.N,P19*%
G36*
X177619284Y-126136610D02*
G01*
X177620019Y-126136945D01*
X179229533Y-126941766D01*
X179235400Y-126948531D01*
X179236000Y-126952231D01*
X179236000Y-127187768D01*
X179232573Y-127196041D01*
X179229533Y-127198233D01*
X177620030Y-128003049D01*
X177611097Y-128003684D01*
X177604332Y-127997817D01*
X177603997Y-127997083D01*
X177220862Y-127074486D01*
X177220855Y-127065532D01*
X177220863Y-127065513D01*
X177603993Y-126142926D01*
X177610329Y-126136602D01*
X177619284Y-126136610D01*
G37*
%TD.AperFunction*%
%TD*%
%TA.AperFunction,Conductor*%
%TO.N,P21*%
G36*
X276622909Y-127811232D02*
G01*
X276765763Y-127870018D01*
X276978195Y-127957436D01*
X276984542Y-127963754D01*
X276984563Y-127963804D01*
X277130767Y-128319090D01*
X277130746Y-128328044D01*
X277124760Y-128334206D01*
X276512071Y-128610747D01*
X276503121Y-128611027D01*
X276498985Y-128608356D01*
X276333643Y-128443014D01*
X276330216Y-128434741D01*
X276331252Y-128429928D01*
X276377238Y-128328044D01*
X276607794Y-127817238D01*
X276614320Y-127811108D01*
X276622909Y-127811232D01*
G37*
%TD.AperFunction*%
%TD*%
%TA.AperFunction,Conductor*%
%TO.N,RAW*%
G36*
X277350044Y-117651253D02*
G01*
X277356206Y-117657239D01*
X277632747Y-118269928D01*
X277633027Y-118278878D01*
X277630356Y-118283014D01*
X277465014Y-118448356D01*
X277456741Y-118451783D01*
X277451928Y-118450747D01*
X276839239Y-118174206D01*
X276833108Y-118167679D01*
X276833232Y-118159090D01*
X276979437Y-117803802D01*
X276985753Y-117797457D01*
X277341090Y-117651232D01*
X277350044Y-117651253D01*
G37*
%TD.AperFunction*%
%TD*%
%TA.AperFunction,Conductor*%
%TO.N,GND*%
G36*
X245012467Y-178153415D02*
G01*
X245012807Y-178154161D01*
X245395936Y-179076746D01*
X245395944Y-179085701D01*
X245395936Y-179085720D01*
X245012807Y-180008304D01*
X245006470Y-180014630D01*
X244997515Y-180014622D01*
X244996769Y-180014282D01*
X243387267Y-179209466D01*
X243381400Y-179202701D01*
X243380800Y-179199001D01*
X243380800Y-178963464D01*
X243384227Y-178955191D01*
X243387267Y-178952999D01*
X244996771Y-178148182D01*
X245005702Y-178147548D01*
X245012467Y-178153415D01*
G37*
%TD.AperFunction*%
%TD*%
%TA.AperFunction,Conductor*%
%TO.N,GND*%
G36*
X181835667Y-145242182D02*
G01*
X181836007Y-145242928D01*
X182219136Y-146165513D01*
X182219144Y-146174468D01*
X182219136Y-146174487D01*
X181836007Y-147097071D01*
X181829670Y-147103397D01*
X181820715Y-147103389D01*
X181819969Y-147103049D01*
X180210467Y-146298233D01*
X180204600Y-146291468D01*
X180204000Y-146287768D01*
X180204000Y-146052231D01*
X180207427Y-146043958D01*
X180210467Y-146041766D01*
X181819971Y-145236949D01*
X181828902Y-145236315D01*
X181835667Y-145242182D01*
G37*
%TD.AperFunction*%
%TD*%
%TA.AperFunction,Conductor*%
%TO.N,GND*%
G36*
X226835667Y-175242182D02*
G01*
X226836007Y-175242928D01*
X227219136Y-176165513D01*
X227219144Y-176174468D01*
X227219136Y-176174487D01*
X226836007Y-177097071D01*
X226829670Y-177103397D01*
X226820715Y-177103389D01*
X226819969Y-177103049D01*
X225210467Y-176298233D01*
X225204600Y-176291468D01*
X225204000Y-176287768D01*
X225204000Y-176052231D01*
X225207427Y-176043958D01*
X225210467Y-176041766D01*
X226819971Y-175236949D01*
X226828902Y-175236315D01*
X226835667Y-175242182D01*
G37*
%TD.AperFunction*%
%TD*%
%TA.AperFunction,Conductor*%
%TO.N,P16*%
G36*
X220417685Y-154823427D02*
G01*
X220421054Y-154830536D01*
X220443723Y-155057238D01*
X220441136Y-155065811D01*
X220433245Y-155070044D01*
X220432175Y-155070102D01*
X220320000Y-155071000D01*
X220207824Y-155070102D01*
X220199579Y-155066609D01*
X220196218Y-155058308D01*
X220196276Y-155057238D01*
X220218946Y-154830536D01*
X220223179Y-154822645D01*
X220230588Y-154820000D01*
X220409412Y-154820000D01*
X220417685Y-154823427D01*
G37*
%TD.AperFunction*%
%TD*%
%TA.AperFunction,Conductor*%
%TO.N,P6*%
G36*
X258835667Y-124142182D02*
G01*
X258836007Y-124142928D01*
X259219136Y-125065513D01*
X259219144Y-125074468D01*
X259219136Y-125074487D01*
X258836007Y-125997071D01*
X258829670Y-126003397D01*
X258820715Y-126003389D01*
X258819969Y-126003049D01*
X257210467Y-125198233D01*
X257204600Y-125191468D01*
X257204000Y-125187768D01*
X257204000Y-124952231D01*
X257207427Y-124943958D01*
X257210467Y-124941766D01*
X258819971Y-124136949D01*
X258828902Y-124136315D01*
X258835667Y-124142182D01*
G37*
%TD.AperFunction*%
%TD*%
%TA.AperFunction,Conductor*%
%TO.N,P10*%
G36*
X221498411Y-128332138D02*
G01*
X221501176Y-128336525D01*
X221872308Y-129389657D01*
X221871826Y-129398599D01*
X221869850Y-129401504D01*
X221847570Y-129425517D01*
X221847566Y-129425522D01*
X221699773Y-129642293D01*
X221699770Y-129642298D01*
X221600689Y-129848042D01*
X221596539Y-129852766D01*
X220605610Y-130498961D01*
X220425256Y-130616573D01*
X220422914Y-130618100D01*
X220416523Y-130620000D01*
X220231411Y-130620000D01*
X220223138Y-130616573D01*
X220219715Y-130608592D01*
X220195125Y-129625013D01*
X220198344Y-129616657D01*
X220198492Y-129616505D01*
X221481866Y-128332143D01*
X221490137Y-128328714D01*
X221498411Y-128332138D01*
G37*
%TD.AperFunction*%
%TD*%
%TA.AperFunction,Conductor*%
%TO.N,GND*%
G36*
X218952130Y-166528922D02*
G01*
X218954276Y-166531068D01*
X219939149Y-167812389D01*
X219941474Y-167821037D01*
X219938678Y-167827223D01*
X219073496Y-168816004D01*
X219065469Y-168819974D01*
X219064691Y-168820000D01*
X218825309Y-168820000D01*
X218817036Y-168816573D01*
X218816504Y-168816005D01*
X218816503Y-168816004D01*
X217951321Y-167827224D01*
X217948452Y-167818741D01*
X217950850Y-167812389D01*
X218935724Y-166531068D01*
X218943482Y-166526597D01*
X218952130Y-166528922D01*
G37*
%TD.AperFunction*%
%TD*%
%TA.AperFunction,Conductor*%
%TO.N,GND*%
G36*
X191952130Y-132528922D02*
G01*
X191954276Y-132531068D01*
X192939149Y-133812389D01*
X192941474Y-133821037D01*
X192938678Y-133827223D01*
X192073496Y-134816004D01*
X192065469Y-134819974D01*
X192064691Y-134820000D01*
X191825309Y-134820000D01*
X191817036Y-134816573D01*
X191816504Y-134816005D01*
X191816503Y-134816004D01*
X190951321Y-133827224D01*
X190948452Y-133818741D01*
X190950850Y-133812389D01*
X191935724Y-132531068D01*
X191943482Y-132526597D01*
X191952130Y-132528922D01*
G37*
%TD.AperFunction*%
%TD*%
%TA.AperFunction,Conductor*%
%TO.N,P9*%
G36*
X271492939Y-177177884D02*
G01*
X271495102Y-177180868D01*
X272362759Y-178892921D01*
X272363442Y-178901850D01*
X272360059Y-178906987D01*
X271374389Y-179775703D01*
X271365917Y-179778603D01*
X271359147Y-179775901D01*
X270919427Y-179408159D01*
X270373911Y-178951938D01*
X270369764Y-178944003D01*
X270370927Y-178937785D01*
X271238633Y-177180975D01*
X271245369Y-177175076D01*
X271249123Y-177174457D01*
X271484666Y-177174457D01*
X271492939Y-177177884D01*
G37*
%TD.AperFunction*%
%TD*%
%TA.AperFunction,Conductor*%
%TO.N,P4*%
G36*
X278734977Y-139227134D02*
G01*
X278739851Y-139234647D01*
X278740046Y-139236735D01*
X278740992Y-139520353D01*
X278740088Y-139524903D01*
X278629880Y-139788670D01*
X278623528Y-139794982D01*
X278614573Y-139794955D01*
X278614166Y-139794775D01*
X278160010Y-139584363D01*
X278153944Y-139577776D01*
X278153228Y-139573747D01*
X278153228Y-139340955D01*
X278156655Y-139332682D01*
X278162798Y-139329451D01*
X278726219Y-139225269D01*
X278734977Y-139227134D01*
G37*
%TD.AperFunction*%
%TD*%
%TA.AperFunction,Conductor*%
%TO.N,P20*%
G36*
X264698207Y-152079248D02*
G01*
X264961684Y-152187436D01*
X264968036Y-152193748D01*
X264968063Y-152193815D01*
X265076251Y-152457292D01*
X265076224Y-152466247D01*
X265070846Y-152472106D01*
X264637240Y-152698673D01*
X264628321Y-152699467D01*
X264623549Y-152696576D01*
X264458923Y-152531950D01*
X264455496Y-152523677D01*
X264456824Y-152518264D01*
X264683394Y-152084651D01*
X264690262Y-152078907D01*
X264698207Y-152079248D01*
G37*
%TD.AperFunction*%
%TD*%
%TA.AperFunction,Conductor*%
%TO.N,GND*%
G36*
X274980724Y-124779913D02*
G01*
X275600481Y-125045902D01*
X275606732Y-125052314D01*
X275606687Y-125061106D01*
X275460563Y-125416195D01*
X275454245Y-125422542D01*
X275454195Y-125422563D01*
X275098741Y-125568837D01*
X275089787Y-125568816D01*
X275083705Y-125563003D01*
X274800170Y-124961005D01*
X274799746Y-124952063D01*
X274802481Y-124947751D01*
X274967840Y-124782392D01*
X274976112Y-124778966D01*
X274980724Y-124779913D01*
G37*
%TD.AperFunction*%
%TD*%
%TA.AperFunction,Conductor*%
%TO.N,P18*%
G36*
X263232707Y-149539248D02*
G01*
X263496184Y-149647436D01*
X263502536Y-149653748D01*
X263502563Y-149653815D01*
X263610751Y-149917292D01*
X263610724Y-149926247D01*
X263605346Y-149932106D01*
X263171740Y-150158673D01*
X263162821Y-150159467D01*
X263158049Y-150156576D01*
X262993423Y-149991950D01*
X262989996Y-149983677D01*
X262991324Y-149978264D01*
X263217894Y-149544651D01*
X263224762Y-149538907D01*
X263232707Y-149539248D01*
G37*
%TD.AperFunction*%
%TD*%
%TA.AperFunction,Conductor*%
%TO.N,P0*%
G36*
X240802236Y-146326513D02*
G01*
X241791127Y-147216514D01*
X241794984Y-147224596D01*
X241795000Y-147225211D01*
X241795000Y-147414788D01*
X241791573Y-147423061D01*
X241791127Y-147423485D01*
X241401067Y-147774538D01*
X241392625Y-147777525D01*
X241392366Y-147777508D01*
X241285499Y-147769500D01*
X241285494Y-147769500D01*
X241154506Y-147769500D01*
X241154501Y-147769500D01*
X240958377Y-147784196D01*
X240830477Y-147813389D01*
X240702584Y-147842580D01*
X240702581Y-147842580D01*
X240702577Y-147842582D01*
X240458362Y-147938429D01*
X240373889Y-147987198D01*
X240365011Y-147988366D01*
X240360910Y-147986341D01*
X239506067Y-147329275D01*
X239501597Y-147321518D01*
X239503922Y-147312870D01*
X239506068Y-147310724D01*
X239617320Y-147225211D01*
X240787280Y-146325933D01*
X240795927Y-146323609D01*
X240802236Y-146326513D01*
G37*
%TD.AperFunction*%
%TD*%
%TA.AperFunction,Conductor*%
%TO.N,P2*%
G36*
X240835667Y-139142182D02*
G01*
X240836007Y-139142928D01*
X241219136Y-140065513D01*
X241219144Y-140074468D01*
X241219136Y-140074487D01*
X240836007Y-140997071D01*
X240829670Y-141003397D01*
X240820715Y-141003389D01*
X240819969Y-141003049D01*
X239210467Y-140198233D01*
X239204600Y-140191468D01*
X239204000Y-140187768D01*
X239204000Y-139952231D01*
X239207427Y-139943958D01*
X239210467Y-139941766D01*
X240819971Y-139136949D01*
X240828902Y-139136315D01*
X240835667Y-139142182D01*
G37*
%TD.AperFunction*%
%TD*%
%TA.AperFunction,Conductor*%
%TO.N,GND*%
G36*
X226835667Y-175242182D02*
G01*
X226836007Y-175242928D01*
X227219136Y-176165513D01*
X227219144Y-176174468D01*
X227219136Y-176174487D01*
X226836007Y-177097071D01*
X226829670Y-177103397D01*
X226820715Y-177103389D01*
X226819969Y-177103049D01*
X225210467Y-176298233D01*
X225204600Y-176291468D01*
X225204000Y-176287768D01*
X225204000Y-176052231D01*
X225207427Y-176043958D01*
X225210467Y-176041766D01*
X226819971Y-175236949D01*
X226828902Y-175236315D01*
X226835667Y-175242182D01*
G37*
%TD.AperFunction*%
%TD*%
%TA.AperFunction,Conductor*%
%TO.N,GND*%
G36*
X245952130Y-151528922D02*
G01*
X245954276Y-151531068D01*
X246939149Y-152812389D01*
X246941474Y-152821037D01*
X246938678Y-152827223D01*
X246073496Y-153816004D01*
X246065469Y-153819974D01*
X246064691Y-153820000D01*
X245825309Y-153820000D01*
X245817036Y-153816573D01*
X245816504Y-153816005D01*
X245816503Y-153816004D01*
X244951321Y-152827224D01*
X244948452Y-152818741D01*
X244950850Y-152812389D01*
X245935724Y-151531068D01*
X245943482Y-151526597D01*
X245952130Y-151528922D01*
G37*
%TD.AperFunction*%
%TD*%
%TA.AperFunction,Conductor*%
%TO.N,P2*%
G36*
X231619284Y-139136610D02*
G01*
X231620019Y-139136945D01*
X233229533Y-139941766D01*
X233235400Y-139948531D01*
X233236000Y-139952231D01*
X233236000Y-140187768D01*
X233232573Y-140196041D01*
X233229533Y-140198233D01*
X231620030Y-141003049D01*
X231611097Y-141003684D01*
X231604332Y-140997817D01*
X231603997Y-140997083D01*
X231220862Y-140074486D01*
X231220855Y-140065532D01*
X231220863Y-140065513D01*
X231603993Y-139142926D01*
X231610329Y-139136602D01*
X231619284Y-139136610D01*
G37*
%TD.AperFunction*%
%TD*%
%TA.AperFunction,Conductor*%
%TO.N,P7*%
G36*
X230501715Y-164329209D02*
G01*
X230503773Y-164331443D01*
X230973353Y-164997435D01*
X231092354Y-165166212D01*
X231094321Y-165174948D01*
X231090087Y-165182101D01*
X231026018Y-165233195D01*
X230847565Y-165425523D01*
X230699773Y-165642293D01*
X230699770Y-165642298D01*
X230585941Y-165878667D01*
X230585935Y-165878683D01*
X230508604Y-166129384D01*
X230508602Y-166129392D01*
X230469500Y-166388807D01*
X230469500Y-166608300D01*
X230466073Y-166616573D01*
X230457800Y-166620000D01*
X230225571Y-166620000D01*
X230217298Y-166616573D01*
X230216488Y-166615675D01*
X230032286Y-166388807D01*
X229414139Y-165627480D01*
X229411586Y-165618898D01*
X229414244Y-165612605D01*
X230485236Y-164330686D01*
X230493169Y-164326535D01*
X230501715Y-164329209D01*
G37*
%TD.AperFunction*%
%TD*%
%TA.AperFunction,Conductor*%
%TO.N,P15*%
G36*
X267169869Y-137429969D02*
G01*
X267433346Y-137538157D01*
X267439698Y-137544469D01*
X267439725Y-137544536D01*
X267547913Y-137808013D01*
X267547886Y-137816968D01*
X267542508Y-137822827D01*
X267108902Y-138049394D01*
X267099983Y-138050188D01*
X267095211Y-138047297D01*
X266930585Y-137882671D01*
X266927158Y-137874398D01*
X266928486Y-137868985D01*
X267155056Y-137435372D01*
X267161924Y-137429628D01*
X267169869Y-137429969D01*
G37*
%TD.AperFunction*%
%TD*%
%TA.AperFunction,Conductor*%
%TO.N,P7*%
G36*
X231835667Y-173142182D02*
G01*
X231836007Y-173142928D01*
X232219136Y-174065513D01*
X232219144Y-174074468D01*
X232219136Y-174074487D01*
X231836007Y-174997071D01*
X231829670Y-175003397D01*
X231820715Y-175003389D01*
X231819969Y-175003049D01*
X230210467Y-174198233D01*
X230204600Y-174191468D01*
X230204000Y-174187768D01*
X230204000Y-173952231D01*
X230207427Y-173943958D01*
X230210467Y-173941766D01*
X231819971Y-173136949D01*
X231828902Y-173136315D01*
X231835667Y-173142182D01*
G37*
%TD.AperFunction*%
%TD*%
%TA.AperFunction,Conductor*%
%TO.N,RAW*%
G36*
X282546184Y-151172882D02*
G01*
X282953468Y-151362694D01*
X283268244Y-151509395D01*
X283274296Y-151515996D01*
X283273907Y-151524942D01*
X283268244Y-151530605D01*
X282546187Y-151867116D01*
X282537241Y-151867505D01*
X282534445Y-151866032D01*
X282194900Y-151623500D01*
X282190159Y-151615902D01*
X282190000Y-151613979D01*
X282190000Y-151426021D01*
X282193427Y-151417748D01*
X282194893Y-151416504D01*
X282534447Y-151173966D01*
X282543168Y-151171947D01*
X282546184Y-151172882D01*
G37*
%TD.AperFunction*%
%TD*%
%TA.AperFunction,Conductor*%
%TO.N,P9*%
G36*
X275098909Y-145591232D02*
G01*
X275241763Y-145650018D01*
X275454195Y-145737436D01*
X275460542Y-145743754D01*
X275460563Y-145743804D01*
X275606767Y-146099090D01*
X275606746Y-146108044D01*
X275600760Y-146114206D01*
X274988071Y-146390747D01*
X274979121Y-146391027D01*
X274974985Y-146388356D01*
X274809643Y-146223014D01*
X274806216Y-146214741D01*
X274807252Y-146209928D01*
X274853238Y-146108044D01*
X275083794Y-145597238D01*
X275090320Y-145591108D01*
X275098909Y-145591232D01*
G37*
%TD.AperFunction*%
%TD*%
%TA.AperFunction,Conductor*%
%TO.N,GND*%
G36*
X199835667Y-158242182D02*
G01*
X199836007Y-158242928D01*
X200219136Y-159165513D01*
X200219144Y-159174468D01*
X200219136Y-159174487D01*
X199836007Y-160097071D01*
X199829670Y-160103397D01*
X199820715Y-160103389D01*
X199819969Y-160103049D01*
X198210467Y-159298233D01*
X198204600Y-159291468D01*
X198204000Y-159287768D01*
X198204000Y-159052231D01*
X198207427Y-159043958D01*
X198210467Y-159041766D01*
X199819971Y-158236949D01*
X199828902Y-158236315D01*
X199835667Y-158242182D01*
G37*
%TD.AperFunction*%
%TD*%
%TA.AperFunction,Conductor*%
%TO.N,P21*%
G36*
X177619284Y-160136610D02*
G01*
X177620019Y-160136945D01*
X179229533Y-160941766D01*
X179235400Y-160948531D01*
X179236000Y-160952231D01*
X179236000Y-161187768D01*
X179232573Y-161196041D01*
X179229533Y-161198233D01*
X177620030Y-162003049D01*
X177611097Y-162003684D01*
X177604332Y-161997817D01*
X177603997Y-161997083D01*
X177220862Y-161074486D01*
X177220855Y-161065532D01*
X177220863Y-161065513D01*
X177603993Y-160142926D01*
X177610329Y-160136602D01*
X177619284Y-160136610D01*
G37*
%TD.AperFunction*%
%TD*%
%TA.AperFunction,Conductor*%
%TO.N,P5*%
G36*
X266948431Y-136018544D02*
G01*
X266953809Y-136024403D01*
X267063615Y-136287210D01*
X267063642Y-136296165D01*
X267063615Y-136296232D01*
X266953809Y-136559038D01*
X266947457Y-136565350D01*
X266939512Y-136565691D01*
X266472699Y-136419292D01*
X266465830Y-136413546D01*
X266464500Y-136408128D01*
X266464500Y-136175313D01*
X266467927Y-136167040D01*
X266472696Y-136164150D01*
X266939513Y-136017750D01*
X266948431Y-136018544D01*
G37*
%TD.AperFunction*%
%TD*%
%TA.AperFunction,Conductor*%
%TO.N,P6*%
G36*
X274980724Y-137479913D02*
G01*
X275600481Y-137745902D01*
X275606732Y-137752314D01*
X275606687Y-137761106D01*
X275460563Y-138116195D01*
X275454245Y-138122542D01*
X275454195Y-138122563D01*
X275098741Y-138268837D01*
X275089787Y-138268816D01*
X275083705Y-138263003D01*
X274800170Y-137661005D01*
X274799746Y-137652063D01*
X274802481Y-137647751D01*
X274967840Y-137482392D01*
X274976112Y-137478966D01*
X274980724Y-137479913D01*
G37*
%TD.AperFunction*%
%TD*%
%TA.AperFunction,Conductor*%
%TO.N,P14*%
G36*
X283816615Y-114973927D02*
G01*
X283820042Y-114982161D01*
X283820983Y-115264614D01*
X283817584Y-115272899D01*
X283817537Y-115272946D01*
X283615293Y-115474241D01*
X283607011Y-115477648D01*
X283599704Y-115475063D01*
X283598682Y-115474241D01*
X283348464Y-115272899D01*
X283287088Y-115223512D01*
X283282791Y-115215656D01*
X283282723Y-115214397D01*
X283282723Y-114982200D01*
X283286150Y-114973927D01*
X283294423Y-114970500D01*
X283808342Y-114970500D01*
X283816615Y-114973927D01*
G37*
%TD.AperFunction*%
%TD*%
%TA.AperFunction,Conductor*%
%TO.N,P2*%
G36*
X274980724Y-127319913D02*
G01*
X275600481Y-127585902D01*
X275606732Y-127592314D01*
X275606687Y-127601106D01*
X275460563Y-127956195D01*
X275454245Y-127962542D01*
X275454195Y-127962563D01*
X275098741Y-128108837D01*
X275089787Y-128108816D01*
X275083705Y-128103003D01*
X274800170Y-127501005D01*
X274799746Y-127492063D01*
X274802481Y-127487751D01*
X274967840Y-127322392D01*
X274976112Y-127318966D01*
X274980724Y-127319913D01*
G37*
%TD.AperFunction*%
%TD*%
%TA.AperFunction,Conductor*%
%TO.N,GND*%
G36*
X261747162Y-186431500D02*
G01*
X261751914Y-186439090D01*
X261752076Y-186441023D01*
X261752770Y-187439049D01*
X261749349Y-187447324D01*
X261749335Y-187447338D01*
X261042495Y-188152788D01*
X261034218Y-188156207D01*
X261025949Y-188152772D01*
X261025420Y-188152206D01*
X259923499Y-186891314D01*
X259920635Y-186882830D01*
X259924035Y-186875343D01*
X260090435Y-186708943D01*
X260096762Y-186705681D01*
X261738435Y-186429493D01*
X261747162Y-186431500D01*
G37*
%TD.AperFunction*%
%TD*%
%TA.AperFunction,Conductor*%
%TO.N,P6*%
G36*
X275954717Y-137486592D02*
G01*
X275958490Y-137489119D01*
X276088880Y-137619509D01*
X276092307Y-137627782D01*
X276091426Y-137632237D01*
X275832005Y-138262256D01*
X275825686Y-138268601D01*
X275816734Y-138268621D01*
X275461804Y-138122563D01*
X275455457Y-138116245D01*
X275455436Y-138116195D01*
X275309378Y-137761265D01*
X275309399Y-137752311D01*
X275315742Y-137745994D01*
X275945764Y-137486573D01*
X275954717Y-137486592D01*
G37*
%TD.AperFunction*%
%TD*%
%TA.AperFunction,Conductor*%
%TO.N,P10*%
G36*
X276622909Y-145591232D02*
G01*
X276765763Y-145650018D01*
X276978195Y-145737436D01*
X276984542Y-145743754D01*
X276984563Y-145743804D01*
X277130767Y-146099090D01*
X277130746Y-146108044D01*
X277124760Y-146114206D01*
X276512071Y-146390747D01*
X276503121Y-146391027D01*
X276498985Y-146388356D01*
X276333643Y-146223014D01*
X276330216Y-146214741D01*
X276331252Y-146209928D01*
X276377238Y-146108044D01*
X276607794Y-145597238D01*
X276614320Y-145591108D01*
X276622909Y-145591232D01*
G37*
%TD.AperFunction*%
%TD*%
%TA.AperFunction,Conductor*%
%TO.N,GND*%
G36*
X181835667Y-162242182D02*
G01*
X181836007Y-162242928D01*
X182219136Y-163165513D01*
X182219144Y-163174468D01*
X182219136Y-163174487D01*
X181836007Y-164097071D01*
X181829670Y-164103397D01*
X181820715Y-164103389D01*
X181819969Y-164103049D01*
X180210467Y-163298233D01*
X180204600Y-163291468D01*
X180204000Y-163287768D01*
X180204000Y-163052231D01*
X180207427Y-163043958D01*
X180210467Y-163041766D01*
X181819971Y-162236949D01*
X181828902Y-162236315D01*
X181835667Y-162242182D01*
G37*
%TD.AperFunction*%
%TD*%
%TA.AperFunction,Conductor*%
%TO.N,P0*%
G36*
X274980724Y-119699913D02*
G01*
X275600481Y-119965902D01*
X275606732Y-119972314D01*
X275606687Y-119981106D01*
X275460563Y-120336195D01*
X275454245Y-120342542D01*
X275454195Y-120342563D01*
X275098741Y-120488837D01*
X275089787Y-120488816D01*
X275083705Y-120483003D01*
X274800170Y-119881005D01*
X274799746Y-119872063D01*
X274802481Y-119867751D01*
X274967840Y-119702392D01*
X274976112Y-119698966D01*
X274980724Y-119699913D01*
G37*
%TD.AperFunction*%
%TD*%
%TA.AperFunction,Conductor*%
%TO.N,GND*%
G36*
X235835667Y-124242182D02*
G01*
X235836007Y-124242928D01*
X236219136Y-125165513D01*
X236219144Y-125174468D01*
X236219136Y-125174487D01*
X235836007Y-126097071D01*
X235829670Y-126103397D01*
X235820715Y-126103389D01*
X235819969Y-126103049D01*
X234210467Y-125298233D01*
X234204600Y-125291468D01*
X234204000Y-125287768D01*
X234204000Y-125052231D01*
X234207427Y-125043958D01*
X234210467Y-125041766D01*
X235819971Y-124236949D01*
X235828902Y-124236315D01*
X235835667Y-124242182D01*
G37*
%TD.AperFunction*%
%TD*%
%TA.AperFunction,Conductor*%
%TO.N,GND*%
G36*
X181835667Y-128242182D02*
G01*
X181836007Y-128242928D01*
X182219136Y-129165513D01*
X182219144Y-129174468D01*
X182219136Y-129174487D01*
X181836007Y-130097071D01*
X181829670Y-130103397D01*
X181820715Y-130103389D01*
X181819969Y-130103049D01*
X180210467Y-129298233D01*
X180204600Y-129291468D01*
X180204000Y-129287768D01*
X180204000Y-129052231D01*
X180207427Y-129043958D01*
X180210467Y-129041766D01*
X181819971Y-128236949D01*
X181828902Y-128236315D01*
X181835667Y-128242182D01*
G37*
%TD.AperFunction*%
%TD*%
%TA.AperFunction,Conductor*%
%TO.N,P16*%
G36*
X213619284Y-154136610D02*
G01*
X213620019Y-154136945D01*
X215229533Y-154941766D01*
X215235400Y-154948531D01*
X215236000Y-154952231D01*
X215236000Y-155187768D01*
X215232573Y-155196041D01*
X215229533Y-155198233D01*
X213620030Y-156003049D01*
X213611097Y-156003684D01*
X213604332Y-155997817D01*
X213603997Y-155997083D01*
X213220862Y-155074486D01*
X213220855Y-155065532D01*
X213220863Y-155065513D01*
X213603993Y-154142926D01*
X213610329Y-154136602D01*
X213619284Y-154136610D01*
G37*
%TD.AperFunction*%
%TD*%
%TA.AperFunction,Conductor*%
%TO.N,P0*%
G36*
X238200090Y-149053427D02*
G01*
X238202807Y-149057687D01*
X238373330Y-149524694D01*
X238372949Y-149533641D01*
X238366851Y-149539503D01*
X238104511Y-149649115D01*
X238095556Y-149649142D01*
X238095489Y-149649115D01*
X237833148Y-149539503D01*
X237826836Y-149533151D01*
X237826669Y-149524697D01*
X237997193Y-149057686D01*
X238003249Y-149051091D01*
X238008183Y-149050000D01*
X238191817Y-149050000D01*
X238200090Y-149053427D01*
G37*
%TD.AperFunction*%
%TD*%
%TA.AperFunction,Conductor*%
%TO.N,P16*%
G36*
X221498411Y-145332138D02*
G01*
X221501176Y-145336525D01*
X221872308Y-146389657D01*
X221871826Y-146398599D01*
X221869850Y-146401504D01*
X221847570Y-146425517D01*
X221847566Y-146425522D01*
X221699773Y-146642293D01*
X221699770Y-146642298D01*
X221600689Y-146848042D01*
X221596539Y-146852766D01*
X220605610Y-147498961D01*
X220425256Y-147616573D01*
X220422914Y-147618100D01*
X220416523Y-147620000D01*
X220231411Y-147620000D01*
X220223138Y-147616573D01*
X220219715Y-147608592D01*
X220195125Y-146625013D01*
X220198344Y-146616657D01*
X220198492Y-146616505D01*
X221481866Y-145332143D01*
X221490137Y-145328714D01*
X221498411Y-145332138D01*
G37*
%TD.AperFunction*%
%TD*%
%TA.AperFunction,Conductor*%
%TO.N,P7*%
G36*
X231802224Y-163326321D02*
G01*
X232791005Y-164191504D01*
X232794974Y-164199531D01*
X232795000Y-164200309D01*
X232795000Y-164439691D01*
X232791573Y-164447964D01*
X232791004Y-164448496D01*
X232416894Y-164775841D01*
X232408412Y-164778710D01*
X232408316Y-164778703D01*
X232285499Y-164769500D01*
X232285494Y-164769500D01*
X232154506Y-164769500D01*
X232154501Y-164769500D01*
X231958377Y-164784196D01*
X231830477Y-164813389D01*
X231702584Y-164842580D01*
X231702581Y-164842580D01*
X231702577Y-164842582D01*
X231458362Y-164938429D01*
X231373889Y-164987198D01*
X231365011Y-164988366D01*
X231360910Y-164986341D01*
X230506067Y-164329275D01*
X230501597Y-164321518D01*
X230503922Y-164312870D01*
X230506068Y-164310724D01*
X231787389Y-163325850D01*
X231796037Y-163323525D01*
X231802224Y-163326321D01*
G37*
%TD.AperFunction*%
%TD*%
%TA.AperFunction,Conductor*%
%TO.N,P5*%
G36*
X249619284Y-141136610D02*
G01*
X249620019Y-141136945D01*
X251229533Y-141941766D01*
X251235400Y-141948531D01*
X251236000Y-141952231D01*
X251236000Y-142187768D01*
X251232573Y-142196041D01*
X251229533Y-142198233D01*
X249620030Y-143003049D01*
X249611097Y-143003684D01*
X249604332Y-142997817D01*
X249603997Y-142997083D01*
X249220862Y-142074486D01*
X249220855Y-142065532D01*
X249220863Y-142065513D01*
X249603993Y-141142926D01*
X249610329Y-141136602D01*
X249619284Y-141136610D01*
G37*
%TD.AperFunction*%
%TD*%
%TA.AperFunction,Conductor*%
%TO.N,P7*%
G36*
X222619284Y-173136610D02*
G01*
X222620019Y-173136945D01*
X224229533Y-173941766D01*
X224235400Y-173948531D01*
X224236000Y-173952231D01*
X224236000Y-174187768D01*
X224232573Y-174196041D01*
X224229533Y-174198233D01*
X222620030Y-175003049D01*
X222611097Y-175003684D01*
X222604332Y-174997817D01*
X222603997Y-174997083D01*
X222220862Y-174074486D01*
X222220855Y-174065532D01*
X222220863Y-174065513D01*
X222603993Y-173142926D01*
X222610329Y-173136602D01*
X222619284Y-173136610D01*
G37*
%TD.AperFunction*%
%TD*%
%TA.AperFunction,Conductor*%
%TO.N,GND*%
G36*
X253835667Y-126242182D02*
G01*
X253836007Y-126242928D01*
X254219136Y-127165513D01*
X254219144Y-127174468D01*
X254219136Y-127174487D01*
X253836007Y-128097071D01*
X253829670Y-128103397D01*
X253820715Y-128103389D01*
X253819969Y-128103049D01*
X252210467Y-127298233D01*
X252204600Y-127291468D01*
X252204000Y-127287768D01*
X252204000Y-127052231D01*
X252207427Y-127043958D01*
X252210467Y-127041766D01*
X253819971Y-126236949D01*
X253828902Y-126236315D01*
X253835667Y-126242182D01*
G37*
%TD.AperFunction*%
%TD*%
%TA.AperFunction,Conductor*%
%TO.N,P14*%
G36*
X285304431Y-139216823D02*
G01*
X285309809Y-139222682D01*
X285419615Y-139485489D01*
X285419642Y-139494444D01*
X285419615Y-139494511D01*
X285309809Y-139757317D01*
X285303457Y-139763629D01*
X285295512Y-139763970D01*
X284828699Y-139617571D01*
X284821830Y-139611825D01*
X284820500Y-139606407D01*
X284820500Y-139373592D01*
X284823927Y-139365319D01*
X284828696Y-139362429D01*
X285295513Y-139216029D01*
X285304431Y-139216823D01*
G37*
%TD.AperFunction*%
%TD*%
%TA.AperFunction,Conductor*%
%TO.N,P15*%
G36*
X257809349Y-144115890D02*
G01*
X258072826Y-144224078D01*
X258079178Y-144230390D01*
X258079205Y-144230457D01*
X258187393Y-144493934D01*
X258187366Y-144502889D01*
X258181988Y-144508748D01*
X257748382Y-144735315D01*
X257739463Y-144736109D01*
X257734691Y-144733218D01*
X257570065Y-144568592D01*
X257566638Y-144560319D01*
X257567966Y-144554906D01*
X257794536Y-144121293D01*
X257801404Y-144115549D01*
X257809349Y-144115890D01*
G37*
%TD.AperFunction*%
%TD*%
%TA.AperFunction,Conductor*%
%TO.N,GND*%
G36*
X260724061Y-174776241D02*
G01*
X260728987Y-174783719D01*
X260729165Y-174786784D01*
X260618676Y-176288646D01*
X260614652Y-176296646D01*
X260608623Y-176299376D01*
X259185932Y-176497650D01*
X259177265Y-176495398D01*
X259176044Y-176494335D01*
X259006720Y-176325011D01*
X259003295Y-176316966D01*
X259002900Y-176296646D01*
X258979971Y-175117703D01*
X258983237Y-175109366D01*
X258989459Y-175105988D01*
X260715292Y-174774436D01*
X260724061Y-174776241D01*
G37*
%TD.AperFunction*%
%TD*%
%TA.AperFunction,Conductor*%
%TO.N,P3*%
G36*
X239493427Y-113322952D02*
G01*
X239498560Y-113329189D01*
X239870015Y-114392168D01*
X239869509Y-114401109D01*
X239867547Y-114403986D01*
X239847570Y-114425517D01*
X239847566Y-114425522D01*
X239699773Y-114642293D01*
X239699770Y-114642298D01*
X239600494Y-114848446D01*
X239596398Y-114853135D01*
X238545747Y-115546575D01*
X238439693Y-115616573D01*
X238437432Y-115618065D01*
X238430987Y-115620000D01*
X238196263Y-115620000D01*
X238187990Y-115616573D01*
X238184563Y-115608300D01*
X238184563Y-115608237D01*
X238184807Y-115562534D01*
X238194951Y-113667805D01*
X238198422Y-113659554D01*
X238203689Y-113656552D01*
X239484558Y-113321729D01*
X239493427Y-113322952D01*
G37*
%TD.AperFunction*%
%TD*%
%TA.AperFunction,Conductor*%
%TO.N,P0*%
G36*
X240835667Y-156142182D02*
G01*
X240836007Y-156142928D01*
X241219136Y-157065513D01*
X241219144Y-157074468D01*
X241219136Y-157074487D01*
X240836007Y-157997071D01*
X240829670Y-158003397D01*
X240820715Y-158003389D01*
X240819969Y-158003049D01*
X239210467Y-157198233D01*
X239204600Y-157191468D01*
X239204000Y-157187768D01*
X239204000Y-156952231D01*
X239207427Y-156943958D01*
X239210467Y-156941766D01*
X240819971Y-156136949D01*
X240828902Y-156136315D01*
X240835667Y-156142182D01*
G37*
%TD.AperFunction*%
%TD*%
%TA.AperFunction,Conductor*%
%TO.N,GND*%
G36*
X199835667Y-158242182D02*
G01*
X199836007Y-158242928D01*
X200219136Y-159165513D01*
X200219144Y-159174468D01*
X200219136Y-159174487D01*
X199836007Y-160097071D01*
X199829670Y-160103397D01*
X199820715Y-160103389D01*
X199819969Y-160103049D01*
X198210467Y-159298233D01*
X198204600Y-159291468D01*
X198204000Y-159287768D01*
X198204000Y-159052231D01*
X198207427Y-159043958D01*
X198210467Y-159041766D01*
X199819971Y-158236949D01*
X199828902Y-158236315D01*
X199835667Y-158242182D01*
G37*
%TD.AperFunction*%
%TD*%
%TA.AperFunction,Conductor*%
%TO.N,GND*%
G36*
X199835667Y-141242182D02*
G01*
X199836007Y-141242928D01*
X200219136Y-142165513D01*
X200219144Y-142174468D01*
X200219136Y-142174487D01*
X199836007Y-143097071D01*
X199829670Y-143103397D01*
X199820715Y-143103389D01*
X199819969Y-143103049D01*
X198210467Y-142298233D01*
X198204600Y-142291468D01*
X198204000Y-142287768D01*
X198204000Y-142052231D01*
X198207427Y-142043958D01*
X198210467Y-142041766D01*
X199819971Y-141236949D01*
X199828902Y-141236315D01*
X199835667Y-141242182D01*
G37*
%TD.AperFunction*%
%TD*%
%TA.AperFunction,Conductor*%
%TO.N,P19*%
G36*
X277350044Y-132891253D02*
G01*
X277356206Y-132897239D01*
X277632747Y-133509928D01*
X277633027Y-133518878D01*
X277630356Y-133523014D01*
X277465014Y-133688356D01*
X277456741Y-133691783D01*
X277451928Y-133690747D01*
X276839239Y-133414206D01*
X276833108Y-133407679D01*
X276833232Y-133399090D01*
X276979437Y-133043802D01*
X276985753Y-133037457D01*
X277341090Y-132891232D01*
X277350044Y-132891253D01*
G37*
%TD.AperFunction*%
%TD*%
%TA.AperFunction,Conductor*%
%TO.N,GND*%
G36*
X245012467Y-178153415D02*
G01*
X245012807Y-178154161D01*
X245395936Y-179076746D01*
X245395944Y-179085701D01*
X245395936Y-179085720D01*
X245012807Y-180008304D01*
X245006470Y-180014630D01*
X244997515Y-180014622D01*
X244996769Y-180014282D01*
X243387267Y-179209466D01*
X243381400Y-179202701D01*
X243380800Y-179199001D01*
X243380800Y-178963464D01*
X243384227Y-178955191D01*
X243387267Y-178952999D01*
X244996771Y-178148182D01*
X245005702Y-178147548D01*
X245012467Y-178153415D01*
G37*
%TD.AperFunction*%
%TD*%
%TA.AperFunction,Conductor*%
%TO.N,P5*%
G36*
X274980724Y-134939913D02*
G01*
X275600481Y-135205902D01*
X275606732Y-135212314D01*
X275606687Y-135221106D01*
X275460563Y-135576195D01*
X275454245Y-135582542D01*
X275454195Y-135582563D01*
X275098741Y-135728837D01*
X275089787Y-135728816D01*
X275083705Y-135723003D01*
X274800170Y-135121005D01*
X274799746Y-135112063D01*
X274802481Y-135107751D01*
X274967840Y-134942392D01*
X274976112Y-134938966D01*
X274980724Y-134939913D01*
G37*
%TD.AperFunction*%
%TD*%
%TA.AperFunction,Conductor*%
%TO.N,P16*%
G36*
X266931818Y-149760691D02*
G01*
X266938129Y-149767042D01*
X266938470Y-149774987D01*
X266792071Y-150241801D01*
X266786325Y-150248670D01*
X266780907Y-150250000D01*
X266548093Y-150250000D01*
X266539820Y-150246573D01*
X266536929Y-150241801D01*
X266390529Y-149774987D01*
X266391323Y-149766068D01*
X266397179Y-149760692D01*
X266659990Y-149650883D01*
X266668944Y-149650857D01*
X266931818Y-149760691D01*
G37*
%TD.AperFunction*%
%TD*%
%TA.AperFunction,Conductor*%
%TO.N,P4*%
G36*
X274980724Y-132399913D02*
G01*
X275600481Y-132665902D01*
X275606732Y-132672314D01*
X275606687Y-132681106D01*
X275460563Y-133036195D01*
X275454245Y-133042542D01*
X275454195Y-133042563D01*
X275098741Y-133188837D01*
X275089787Y-133188816D01*
X275083705Y-133183003D01*
X274800170Y-132581005D01*
X274799746Y-132572063D01*
X274802481Y-132567751D01*
X274967840Y-132402392D01*
X274976112Y-132398966D01*
X274980724Y-132399913D01*
G37*
%TD.AperFunction*%
%TD*%
%TA.AperFunction,Conductor*%
%TO.N,P18*%
G36*
X264508450Y-138983423D02*
G01*
X264673076Y-139148049D01*
X264676503Y-139156322D01*
X264675173Y-139161740D01*
X264448606Y-139595346D01*
X264441737Y-139601092D01*
X264433792Y-139600751D01*
X264170315Y-139492563D01*
X264163963Y-139486251D01*
X264163936Y-139486184D01*
X264055748Y-139222707D01*
X264055775Y-139213752D01*
X264061151Y-139207894D01*
X264494762Y-138981325D01*
X264503678Y-138980532D01*
X264508450Y-138983423D01*
G37*
%TD.AperFunction*%
%TD*%
%TA.AperFunction,Conductor*%
%TO.N,P21*%
G36*
X265252840Y-154729957D02*
G01*
X265261101Y-154733411D01*
X265264500Y-154741657D01*
X265264500Y-155255577D01*
X265261073Y-155263850D01*
X265252800Y-155267277D01*
X265020603Y-155267277D01*
X265012330Y-155263850D01*
X265011488Y-155262912D01*
X264759936Y-154950295D01*
X264757419Y-154941701D01*
X264760756Y-154934708D01*
X264962055Y-154732461D01*
X264970317Y-154729016D01*
X265252840Y-154729957D01*
G37*
%TD.AperFunction*%
%TD*%
%TA.AperFunction,Conductor*%
%TO.N,P1*%
G36*
X213619284Y-120136610D02*
G01*
X213620019Y-120136945D01*
X215229533Y-120941766D01*
X215235400Y-120948531D01*
X215236000Y-120952231D01*
X215236000Y-121187768D01*
X215232573Y-121196041D01*
X215229533Y-121198233D01*
X213620030Y-122003049D01*
X213611097Y-122003684D01*
X213604332Y-121997817D01*
X213603997Y-121997083D01*
X213220862Y-121074486D01*
X213220855Y-121065532D01*
X213220863Y-121065513D01*
X213603993Y-120142926D01*
X213610329Y-120136602D01*
X213619284Y-120136610D01*
G37*
%TD.AperFunction*%
%TD*%
%TA.AperFunction,Conductor*%
%TO.N,P2*%
G36*
X239501786Y-130329162D02*
G01*
X239503857Y-130331380D01*
X240097899Y-131161686D01*
X240099926Y-131170409D01*
X240095679Y-131177641D01*
X240026018Y-131233195D01*
X239847565Y-131425523D01*
X239699773Y-131642293D01*
X239699770Y-131642298D01*
X239585941Y-131878667D01*
X239585935Y-131878683D01*
X239508604Y-132129384D01*
X239508602Y-132129392D01*
X239469500Y-132388807D01*
X239469500Y-132608300D01*
X239466073Y-132616573D01*
X239457800Y-132620000D01*
X239275422Y-132620000D01*
X239267149Y-132616573D01*
X239266495Y-132615863D01*
X239074144Y-132388807D01*
X238429168Y-131627459D01*
X238426435Y-131618931D01*
X238429065Y-131612456D01*
X239485317Y-130330749D01*
X239493222Y-130326545D01*
X239501786Y-130329162D01*
G37*
%TD.AperFunction*%
%TD*%
%TA.AperFunction,Conductor*%
%TO.N,GND*%
G36*
X235835661Y-141242198D02*
G01*
X235836066Y-141243071D01*
X236219136Y-142165513D01*
X236219144Y-142174468D01*
X236219136Y-142174487D01*
X235836066Y-143096928D01*
X235829729Y-143103254D01*
X235820774Y-143103246D01*
X235819901Y-143102841D01*
X234210340Y-142273267D01*
X234204556Y-142266431D01*
X234204000Y-142262867D01*
X234204000Y-142077132D01*
X234207427Y-142068859D01*
X234210338Y-142066733D01*
X235819902Y-141237157D01*
X235828825Y-141236414D01*
X235835661Y-141242198D01*
G37*
%TD.AperFunction*%
%TD*%
%TA.AperFunction,Conductor*%
%TO.N,GND*%
G36*
X253835667Y-160242182D02*
G01*
X253836007Y-160242928D01*
X254219136Y-161165513D01*
X254219144Y-161174468D01*
X254219136Y-161174487D01*
X253836007Y-162097071D01*
X253829670Y-162103397D01*
X253820715Y-162103389D01*
X253819969Y-162103049D01*
X252210467Y-161298233D01*
X252204600Y-161291468D01*
X252204000Y-161287768D01*
X252204000Y-161052231D01*
X252207427Y-161043958D01*
X252210467Y-161041766D01*
X253819971Y-160236949D01*
X253828902Y-160236315D01*
X253835667Y-160242182D01*
G37*
%TD.AperFunction*%
%TD*%
%TA.AperFunction,Conductor*%
%TO.N,P3*%
G36*
X274980724Y-129859913D02*
G01*
X275600481Y-130125902D01*
X275606732Y-130132314D01*
X275606687Y-130141106D01*
X275460563Y-130496195D01*
X275454245Y-130502542D01*
X275454195Y-130502563D01*
X275098741Y-130648837D01*
X275089787Y-130648816D01*
X275083705Y-130643003D01*
X274800170Y-130041005D01*
X274799746Y-130032063D01*
X274802481Y-130027751D01*
X274967840Y-129862392D01*
X274976112Y-129858966D01*
X274980724Y-129859913D01*
G37*
%TD.AperFunction*%
%TD*%
%TA.AperFunction,Conductor*%
%TO.N,P5*%
G36*
X257501715Y-132329209D02*
G01*
X257503773Y-132331443D01*
X257973353Y-132997435D01*
X258092354Y-133166212D01*
X258094321Y-133174948D01*
X258090087Y-133182101D01*
X258026018Y-133233195D01*
X257847565Y-133425523D01*
X257699773Y-133642293D01*
X257699770Y-133642298D01*
X257585941Y-133878667D01*
X257585935Y-133878683D01*
X257508604Y-134129384D01*
X257508602Y-134129392D01*
X257469500Y-134388807D01*
X257469500Y-134608300D01*
X257466073Y-134616573D01*
X257457800Y-134620000D01*
X257225571Y-134620000D01*
X257217298Y-134616573D01*
X257216488Y-134615675D01*
X257032286Y-134388807D01*
X256414139Y-133627480D01*
X256411586Y-133618898D01*
X256414244Y-133612605D01*
X257485236Y-132330686D01*
X257493169Y-132326535D01*
X257501715Y-132329209D01*
G37*
%TD.AperFunction*%
%TD*%
%TA.AperFunction,Conductor*%
%TO.N,P20*%
G36*
X177619284Y-143136610D02*
G01*
X177620019Y-143136945D01*
X179229533Y-143941766D01*
X179235400Y-143948531D01*
X179236000Y-143952231D01*
X179236000Y-144187768D01*
X179232573Y-144196041D01*
X179229533Y-144198233D01*
X177620030Y-145003049D01*
X177611097Y-145003684D01*
X177604332Y-144997817D01*
X177603997Y-144997083D01*
X177220862Y-144074486D01*
X177220855Y-144065532D01*
X177220863Y-144065513D01*
X177603993Y-143142926D01*
X177610329Y-143136602D01*
X177619284Y-143136610D01*
G37*
%TD.AperFunction*%
%TD*%
%TA.AperFunction,Conductor*%
%TO.N,P8*%
G36*
X274980724Y-142559913D02*
G01*
X275600481Y-142825902D01*
X275606732Y-142832314D01*
X275606687Y-142841106D01*
X275460563Y-143196195D01*
X275454245Y-143202542D01*
X275454195Y-143202563D01*
X275098741Y-143348837D01*
X275089787Y-143348816D01*
X275083705Y-143343003D01*
X274800170Y-142741005D01*
X274799746Y-142732063D01*
X274802481Y-142727751D01*
X274967840Y-142562392D01*
X274976112Y-142558966D01*
X274980724Y-142559913D01*
G37*
%TD.AperFunction*%
%TD*%
%TA.AperFunction,Conductor*%
%TO.N,P10*%
G36*
X215507318Y-163085191D02*
G01*
X215513629Y-163091542D01*
X215513970Y-163099487D01*
X215367571Y-163566301D01*
X215361825Y-163573170D01*
X215356407Y-163574500D01*
X215123593Y-163574500D01*
X215115320Y-163571073D01*
X215112429Y-163566301D01*
X214966029Y-163099487D01*
X214966823Y-163090568D01*
X214972679Y-163085192D01*
X215235490Y-162975383D01*
X215244444Y-162975357D01*
X215507318Y-163085191D01*
G37*
%TD.AperFunction*%
%TD*%
%TA.AperFunction,Conductor*%
%TO.N,P2*%
G36*
X241433272Y-128245135D02*
G01*
X241436744Y-128247531D01*
X241567468Y-128378255D01*
X241570895Y-128386528D01*
X241570134Y-128390677D01*
X240798139Y-130425937D01*
X240792001Y-130432457D01*
X240786183Y-130433444D01*
X239504078Y-130321560D01*
X239496134Y-130317427D01*
X239493439Y-130310921D01*
X239381555Y-129028816D01*
X239384250Y-129020276D01*
X239389059Y-129016861D01*
X241424325Y-128244865D01*
X241433272Y-128245135D01*
G37*
%TD.AperFunction*%
%TD*%
%TA.AperFunction,Conductor*%
%TO.N,P2*%
G36*
X238213552Y-139830000D02*
G01*
X238339999Y-139956447D01*
X238343426Y-139964720D01*
X238340781Y-139972129D01*
X238196509Y-140148462D01*
X238188618Y-140152695D01*
X238180045Y-140150108D01*
X238179247Y-140149392D01*
X238099293Y-140070707D01*
X238020607Y-139990752D01*
X238017246Y-139982451D01*
X238020739Y-139974206D01*
X238021518Y-139973506D01*
X238197870Y-139829217D01*
X238206443Y-139826631D01*
X238213552Y-139830000D01*
G37*
%TD.AperFunction*%
%TD*%
%TA.AperFunction,Conductor*%
%TO.N,P3*%
G36*
X231619284Y-122136610D02*
G01*
X231620019Y-122136945D01*
X233229533Y-122941766D01*
X233235400Y-122948531D01*
X233236000Y-122952231D01*
X233236000Y-123187768D01*
X233232573Y-123196041D01*
X233229533Y-123198233D01*
X231620030Y-124003049D01*
X231611097Y-124003684D01*
X231604332Y-123997817D01*
X231603997Y-123997083D01*
X231220862Y-123074486D01*
X231220855Y-123065532D01*
X231220863Y-123065513D01*
X231603993Y-122142926D01*
X231610329Y-122136602D01*
X231619284Y-122136610D01*
G37*
%TD.AperFunction*%
%TD*%
%TA.AperFunction,Conductor*%
%TO.N,P0*%
G36*
X263600090Y-127172927D02*
G01*
X263602807Y-127177187D01*
X263773330Y-127644194D01*
X263772949Y-127653141D01*
X263766851Y-127659003D01*
X263504511Y-127768615D01*
X263495556Y-127768642D01*
X263495489Y-127768615D01*
X263233148Y-127659003D01*
X263226836Y-127652651D01*
X263226669Y-127644197D01*
X263397193Y-127177186D01*
X263403249Y-127170591D01*
X263408183Y-127169500D01*
X263591817Y-127169500D01*
X263600090Y-127172927D01*
G37*
%TD.AperFunction*%
%TD*%
%TA.AperFunction,Conductor*%
%TO.N,GND*%
G36*
X181835667Y-128242182D02*
G01*
X181836007Y-128242928D01*
X182219136Y-129165513D01*
X182219144Y-129174468D01*
X182219136Y-129174487D01*
X181836007Y-130097071D01*
X181829670Y-130103397D01*
X181820715Y-130103389D01*
X181819969Y-130103049D01*
X180210467Y-129298233D01*
X180204600Y-129291468D01*
X180204000Y-129287768D01*
X180204000Y-129052231D01*
X180207427Y-129043958D01*
X180210467Y-129041766D01*
X181819971Y-128236949D01*
X181828902Y-128236315D01*
X181835667Y-128242182D01*
G37*
%TD.AperFunction*%
%TD*%
%TA.AperFunction,Conductor*%
%TO.N,P20*%
G36*
X188147071Y-144453992D02*
G01*
X188153397Y-144460329D01*
X188153389Y-144469284D01*
X188153049Y-144470030D01*
X187348234Y-146079533D01*
X187341469Y-146085400D01*
X187337769Y-146086000D01*
X187102231Y-146086000D01*
X187093958Y-146082573D01*
X187091766Y-146079533D01*
X186286950Y-144470030D01*
X186286315Y-144461097D01*
X186292182Y-144454332D01*
X186292905Y-144454002D01*
X187215513Y-144070862D01*
X187224466Y-144070855D01*
X188147071Y-144453992D01*
G37*
%TD.AperFunction*%
%TD*%
%TA.AperFunction,Conductor*%
%TO.N,P8*%
G36*
X241689737Y-174605540D02*
G01*
X241690472Y-174605875D01*
X243299986Y-175410696D01*
X243305853Y-175417461D01*
X243306453Y-175421161D01*
X243306453Y-175656698D01*
X243303026Y-175664971D01*
X243299986Y-175667163D01*
X241690483Y-176471979D01*
X241681550Y-176472614D01*
X241674785Y-176466747D01*
X241674450Y-176466013D01*
X241291315Y-175543416D01*
X241291308Y-175534462D01*
X241291316Y-175534443D01*
X241674446Y-174611856D01*
X241680782Y-174605532D01*
X241689737Y-174605540D01*
G37*
%TD.AperFunction*%
%TD*%
%TA.AperFunction,Conductor*%
%TO.N,RAW*%
G36*
X279099339Y-151700812D02*
G01*
X279229187Y-151830660D01*
X279232614Y-151838933D01*
X279231523Y-151843867D01*
X279021877Y-152294670D01*
X279015281Y-152300726D01*
X279006824Y-152300559D01*
X278743815Y-152192563D01*
X278737463Y-152186251D01*
X278737436Y-152186184D01*
X278629440Y-151923175D01*
X278629467Y-151914220D01*
X278635326Y-151908124D01*
X279086134Y-151698475D01*
X279095079Y-151698095D01*
X279099339Y-151700812D01*
G37*
%TD.AperFunction*%
%TD*%
%TA.AperFunction,Conductor*%
%TO.N,P14*%
G36*
X204803272Y-112028145D02*
G01*
X205486941Y-112701282D01*
X205656495Y-112870836D01*
X205659922Y-112879109D01*
X205657536Y-112886190D01*
X204979073Y-113778692D01*
X204971338Y-113783204D01*
X204970634Y-113783278D01*
X204958377Y-113784196D01*
X204830477Y-113813389D01*
X204702584Y-113842580D01*
X204702581Y-113842580D01*
X204702577Y-113842582D01*
X204569552Y-113894789D01*
X204560599Y-113894622D01*
X204559733Y-113894200D01*
X203508141Y-113328161D01*
X203502480Y-113321223D01*
X203503384Y-113312314D01*
X203505410Y-113309589D01*
X204786791Y-112028208D01*
X204795063Y-112024782D01*
X204803272Y-112028145D01*
G37*
%TD.AperFunction*%
%TD*%
%TA.AperFunction,Conductor*%
%TO.N,P5*%
G36*
X258835667Y-141142182D02*
G01*
X258836007Y-141142928D01*
X259219136Y-142065513D01*
X259219144Y-142074468D01*
X259219136Y-142074487D01*
X258836007Y-142997071D01*
X258829670Y-143003397D01*
X258820715Y-143003389D01*
X258819969Y-143003049D01*
X257210467Y-142198233D01*
X257204600Y-142191468D01*
X257204000Y-142187768D01*
X257204000Y-141952231D01*
X257207427Y-141943958D01*
X257210467Y-141941766D01*
X258819971Y-141136949D01*
X258828902Y-141136315D01*
X258835667Y-141142182D01*
G37*
%TD.AperFunction*%
%TD*%
%TA.AperFunction,Conductor*%
%TO.N,GND*%
G36*
X253835667Y-160242182D02*
G01*
X253836007Y-160242928D01*
X254219136Y-161165513D01*
X254219144Y-161174468D01*
X254219136Y-161174487D01*
X253836007Y-162097071D01*
X253829670Y-162103397D01*
X253820715Y-162103389D01*
X253819969Y-162103049D01*
X252210467Y-161298233D01*
X252204600Y-161291468D01*
X252204000Y-161287768D01*
X252204000Y-161052231D01*
X252207427Y-161043958D01*
X252210467Y-161041766D01*
X253819971Y-160236949D01*
X253828902Y-160236315D01*
X253835667Y-160242182D01*
G37*
%TD.AperFunction*%
%TD*%
%TA.AperFunction,Conductor*%
%TO.N,GND*%
G36*
X245952130Y-134528922D02*
G01*
X245954276Y-134531068D01*
X246939149Y-135812389D01*
X246941474Y-135821037D01*
X246938678Y-135827223D01*
X246073496Y-136816004D01*
X246065469Y-136819974D01*
X246064691Y-136820000D01*
X245825309Y-136820000D01*
X245817036Y-136816573D01*
X245816504Y-136816005D01*
X245816503Y-136816004D01*
X244951321Y-135827224D01*
X244948452Y-135818741D01*
X244950850Y-135812389D01*
X245935724Y-134531068D01*
X245943482Y-134526597D01*
X245952130Y-134528922D01*
G37*
%TD.AperFunction*%
%TD*%
%TA.AperFunction,Conductor*%
%TO.N,P3*%
G36*
X240835667Y-122142182D02*
G01*
X240836007Y-122142928D01*
X241219136Y-123065513D01*
X241219144Y-123074468D01*
X241219136Y-123074487D01*
X240836007Y-123997071D01*
X240829670Y-124003397D01*
X240820715Y-124003389D01*
X240819969Y-124003049D01*
X239210467Y-123198233D01*
X239204600Y-123191468D01*
X239204000Y-123187768D01*
X239204000Y-122952231D01*
X239207427Y-122943958D01*
X239210467Y-122941766D01*
X240819971Y-122136949D01*
X240828902Y-122136315D01*
X240835667Y-122142182D01*
G37*
%TD.AperFunction*%
%TD*%
%TA.AperFunction,Conductor*%
%TO.N,GND*%
G36*
X217835661Y-139242198D02*
G01*
X217836066Y-139243071D01*
X218219136Y-140165513D01*
X218219144Y-140174468D01*
X218219136Y-140174487D01*
X217836066Y-141096928D01*
X217829729Y-141103254D01*
X217820774Y-141103246D01*
X217819901Y-141102841D01*
X216210340Y-140273267D01*
X216204556Y-140266431D01*
X216204000Y-140262867D01*
X216204000Y-140077132D01*
X216207427Y-140068859D01*
X216210338Y-140066733D01*
X217819902Y-139237157D01*
X217828825Y-139236414D01*
X217835661Y-139242198D01*
G37*
%TD.AperFunction*%
%TD*%
%TA.AperFunction,Conductor*%
%TO.N,P5*%
G36*
X260559211Y-140559006D02*
G01*
X260562251Y-140561198D01*
X260728801Y-140727748D01*
X260732228Y-140736021D01*
X260731628Y-140739721D01*
X260162630Y-142446900D01*
X260156763Y-142453665D01*
X260147830Y-142454300D01*
X260147062Y-142454013D01*
X259631122Y-142240853D01*
X259223781Y-142072561D01*
X259217446Y-142066237D01*
X258835986Y-141142936D01*
X258835994Y-141133982D01*
X258842331Y-141127656D01*
X258843071Y-141127379D01*
X260550279Y-140558371D01*
X260559211Y-140559006D01*
G37*
%TD.AperFunction*%
%TD*%
%TA.AperFunction,Conductor*%
%TO.N,GND*%
G36*
X191952130Y-149528922D02*
G01*
X191954276Y-149531068D01*
X192939149Y-150812389D01*
X192941474Y-150821037D01*
X192938678Y-150827223D01*
X192073496Y-151816004D01*
X192065469Y-151819974D01*
X192064691Y-151820000D01*
X191825309Y-151820000D01*
X191817036Y-151816573D01*
X191816504Y-151816005D01*
X191816503Y-151816004D01*
X190951321Y-150827224D01*
X190948452Y-150818741D01*
X190950850Y-150812389D01*
X191935724Y-149531068D01*
X191943482Y-149526597D01*
X191952130Y-149528922D01*
G37*
%TD.AperFunction*%
%TD*%
%TA.AperFunction,Conductor*%
%TO.N,GND*%
G36*
X217835667Y-156242182D02*
G01*
X217836007Y-156242928D01*
X218219136Y-157165513D01*
X218219144Y-157174468D01*
X218219136Y-157174487D01*
X217836007Y-158097071D01*
X217829670Y-158103397D01*
X217820715Y-158103389D01*
X217819969Y-158103049D01*
X216210467Y-157298233D01*
X216204600Y-157291468D01*
X216204000Y-157287768D01*
X216204000Y-157052231D01*
X216207427Y-157043958D01*
X216210467Y-157041766D01*
X217819971Y-156236949D01*
X217828902Y-156236315D01*
X217835667Y-156242182D01*
G37*
%TD.AperFunction*%
%TD*%
%TA.AperFunction,Conductor*%
%TO.N,P10*%
G36*
X220417685Y-137823427D02*
G01*
X220421054Y-137830536D01*
X220443723Y-138057238D01*
X220441136Y-138065811D01*
X220433245Y-138070044D01*
X220432175Y-138070102D01*
X220320000Y-138071000D01*
X220207824Y-138070102D01*
X220199579Y-138066609D01*
X220196218Y-138058308D01*
X220196276Y-138057238D01*
X220218946Y-137830536D01*
X220223179Y-137822645D01*
X220230588Y-137820000D01*
X220409412Y-137820000D01*
X220417685Y-137823427D01*
G37*
%TD.AperFunction*%
%TD*%
%TA.AperFunction,Conductor*%
%TO.N,GND*%
G36*
X173952130Y-136528922D02*
G01*
X173954276Y-136531068D01*
X174939149Y-137812389D01*
X174941474Y-137821037D01*
X174938678Y-137827223D01*
X174073496Y-138816004D01*
X174065469Y-138819974D01*
X174064691Y-138820000D01*
X173825309Y-138820000D01*
X173817036Y-138816573D01*
X173816504Y-138816005D01*
X173816503Y-138816004D01*
X172951321Y-137827224D01*
X172948452Y-137818741D01*
X172950850Y-137812389D01*
X173935724Y-136531068D01*
X173943482Y-136526597D01*
X173952130Y-136528922D01*
G37*
%TD.AperFunction*%
%TD*%
%TA.AperFunction,Conductor*%
%TO.N,GND*%
G36*
X173952130Y-119528922D02*
G01*
X173954276Y-119531068D01*
X174939149Y-120812389D01*
X174941474Y-120821037D01*
X174938678Y-120827223D01*
X174073496Y-121816004D01*
X174065469Y-121819974D01*
X174064691Y-121820000D01*
X173825309Y-121820000D01*
X173817036Y-121816573D01*
X173816504Y-121816005D01*
X173816503Y-121816004D01*
X172951321Y-120827224D01*
X172948452Y-120818741D01*
X172950850Y-120812389D01*
X173935724Y-119531068D01*
X173943482Y-119526597D01*
X173952130Y-119528922D01*
G37*
%TD.AperFunction*%
%TD*%
%TA.AperFunction,Conductor*%
%TO.N,P1*%
G36*
X274980724Y-117159913D02*
G01*
X275600481Y-117425902D01*
X275606732Y-117432314D01*
X275606687Y-117441106D01*
X275460563Y-117796195D01*
X275454245Y-117802542D01*
X275454195Y-117802563D01*
X275098741Y-117948837D01*
X275089787Y-117948816D01*
X275083705Y-117943003D01*
X274800170Y-117341005D01*
X274799746Y-117332063D01*
X274802481Y-117327751D01*
X274967840Y-117162392D01*
X274976112Y-117158966D01*
X274980724Y-117159913D01*
G37*
%TD.AperFunction*%
%TD*%
%TA.AperFunction,Conductor*%
%TO.N,RST*%
G36*
X267440414Y-148124102D02*
G01*
X267446512Y-148129964D01*
X267656158Y-148580767D01*
X267656539Y-148589714D01*
X267653822Y-148593974D01*
X267523974Y-148723822D01*
X267515701Y-148727249D01*
X267510767Y-148726158D01*
X267217371Y-148589714D01*
X267059963Y-148516511D01*
X267053908Y-148509916D01*
X267054074Y-148501460D01*
X267162071Y-148238449D01*
X267168381Y-148232099D01*
X267431460Y-148124075D01*
X267440414Y-148124102D01*
G37*
%TD.AperFunction*%
%TD*%
%TA.AperFunction,Conductor*%
%TO.N,P19*%
G36*
X185499944Y-117330604D02*
G01*
X185502191Y-117333753D01*
X185966536Y-118286306D01*
X185967081Y-118295244D01*
X185964596Y-118299391D01*
X185847570Y-118425517D01*
X185847566Y-118425522D01*
X185699773Y-118642293D01*
X185699770Y-118642298D01*
X185585941Y-118878667D01*
X185585935Y-118878683D01*
X185514004Y-119111874D01*
X185510154Y-119117545D01*
X184888210Y-119617420D01*
X184880880Y-119620000D01*
X184642634Y-119620000D01*
X184634361Y-119616573D01*
X184631925Y-119613012D01*
X184198220Y-118627320D01*
X184198026Y-118618369D01*
X184200650Y-118614344D01*
X185483399Y-117330609D01*
X185491670Y-117327180D01*
X185499944Y-117330604D01*
G37*
%TD.AperFunction*%
%TD*%
%TA.AperFunction,Conductor*%
%TO.N,GND*%
G36*
X217835667Y-122242182D02*
G01*
X217836007Y-122242928D01*
X218219136Y-123165513D01*
X218219144Y-123174468D01*
X218219136Y-123174487D01*
X217836007Y-124097071D01*
X217829670Y-124103397D01*
X217820715Y-124103389D01*
X217819969Y-124103049D01*
X216210467Y-123298233D01*
X216204600Y-123291468D01*
X216204000Y-123287768D01*
X216204000Y-123052231D01*
X216207427Y-123043958D01*
X216210467Y-123041766D01*
X217819971Y-122236949D01*
X217828902Y-122236315D01*
X217835667Y-122242182D01*
G37*
%TD.AperFunction*%
%TD*%
%TA.AperFunction,Conductor*%
%TO.N,P1*%
G36*
X221493427Y-111322952D02*
G01*
X221498560Y-111329189D01*
X221870015Y-112392168D01*
X221869509Y-112401109D01*
X221867547Y-112403986D01*
X221847570Y-112425517D01*
X221847566Y-112425522D01*
X221699773Y-112642293D01*
X221699770Y-112642298D01*
X221600494Y-112848446D01*
X221596398Y-112853135D01*
X220545747Y-113546575D01*
X220439693Y-113616573D01*
X220437432Y-113618065D01*
X220430987Y-113620000D01*
X220196263Y-113620000D01*
X220187990Y-113616573D01*
X220184563Y-113608300D01*
X220184563Y-113608237D01*
X220184807Y-113562534D01*
X220194951Y-111667805D01*
X220198422Y-111659554D01*
X220203689Y-111656552D01*
X221484558Y-111321729D01*
X221493427Y-111322952D01*
G37*
%TD.AperFunction*%
%TD*%
%TA.AperFunction,Conductor*%
%TO.N,P0*%
G36*
X272074053Y-119506112D02*
G01*
X272074851Y-119506828D01*
X272154806Y-119585514D01*
X272233491Y-119665468D01*
X272236852Y-119673769D01*
X272233359Y-119682014D01*
X272232561Y-119682730D01*
X272056228Y-119827002D01*
X272047655Y-119829589D01*
X272040546Y-119826220D01*
X271914099Y-119699773D01*
X271910672Y-119691500D01*
X271913317Y-119684091D01*
X271928554Y-119665468D01*
X272057591Y-119507756D01*
X272065480Y-119503525D01*
X272074053Y-119506112D01*
G37*
%TD.AperFunction*%
%TD*%
%TA.AperFunction,Conductor*%
%TO.N,P14*%
G36*
X195619284Y-122136610D02*
G01*
X195620019Y-122136945D01*
X197229533Y-122941766D01*
X197235400Y-122948531D01*
X197236000Y-122952231D01*
X197236000Y-123187768D01*
X197232573Y-123196041D01*
X197229533Y-123198233D01*
X195620030Y-124003049D01*
X195611097Y-124003684D01*
X195604332Y-123997817D01*
X195603997Y-123997083D01*
X195220862Y-123074486D01*
X195220855Y-123065532D01*
X195220863Y-123065513D01*
X195603993Y-122142926D01*
X195610329Y-122136602D01*
X195619284Y-122136610D01*
G37*
%TD.AperFunction*%
%TD*%
%TA.AperFunction,Conductor*%
%TO.N,GND*%
G36*
X209952130Y-113528922D02*
G01*
X209954276Y-113531068D01*
X210939149Y-114812389D01*
X210941474Y-114821037D01*
X210938678Y-114827223D01*
X210073496Y-115816004D01*
X210065469Y-115819974D01*
X210064691Y-115820000D01*
X209825309Y-115820000D01*
X209817036Y-115816573D01*
X209816504Y-115816005D01*
X209816503Y-115816004D01*
X208951321Y-114827224D01*
X208948452Y-114818741D01*
X208950850Y-114812389D01*
X209935724Y-113531068D01*
X209943482Y-113526597D01*
X209952130Y-113528922D01*
G37*
%TD.AperFunction*%
%TD*%
%TA.AperFunction,Conductor*%
%TO.N,GND*%
G36*
X199835667Y-124242182D02*
G01*
X199836007Y-124242928D01*
X200219136Y-125165513D01*
X200219144Y-125174468D01*
X200219136Y-125174487D01*
X199836007Y-126097071D01*
X199829670Y-126103397D01*
X199820715Y-126103389D01*
X199819969Y-126103049D01*
X198210467Y-125298233D01*
X198204600Y-125291468D01*
X198204000Y-125287768D01*
X198204000Y-125052231D01*
X198207427Y-125043958D01*
X198210467Y-125041766D01*
X199819971Y-124236949D01*
X199828902Y-124236315D01*
X199835667Y-124242182D01*
G37*
%TD.AperFunction*%
%TD*%
%TA.AperFunction,Conductor*%
%TO.N,GND*%
G36*
X235835661Y-141242198D02*
G01*
X235836066Y-141243071D01*
X236219136Y-142165513D01*
X236219144Y-142174468D01*
X236219136Y-142174487D01*
X235836066Y-143096928D01*
X235829729Y-143103254D01*
X235820774Y-143103246D01*
X235819901Y-143102841D01*
X234210340Y-142273267D01*
X234204556Y-142266431D01*
X234204000Y-142262867D01*
X234204000Y-142077132D01*
X234207427Y-142068859D01*
X234210338Y-142066733D01*
X235819902Y-141237157D01*
X235828825Y-141236414D01*
X235835661Y-141242198D01*
G37*
%TD.AperFunction*%
%TD*%
M02*
