M48
; DRILL file {KiCad 7.0.9} date Wed Nov 22 09:35:41 2023
; FORMAT={-:-/ absolute / inch / decimal}
; #@! TF.CreationDate,2023-11-22T09:35:41+00:00
; #@! TF.GenerationSoftware,Kicad,Pcbnew,7.0.9
; #@! TF.FileFunction,Plated,1,2,PTH
FMAT,2
INCH
; #@! TA.AperFunction,Plated,PTH,ViaDrill
T1C0.0118
; #@! TA.AperFunction,Plated,PTH,ComponentDrill
T2C0.0118
; #@! TA.AperFunction,Plated,PTH,ViaDrill
T3C0.0157
; #@! TA.AperFunction,Plated,PTH,ComponentDrill
T4C0.0295
; #@! TA.AperFunction,Plated,PTH,ComponentDrill
T5C0.0433
; #@! TA.AperFunction,Plated,PTH,ComponentDrill
T6C0.0500
%
G90
G05
T1
X8.474Y-6.4163
X9.374Y-5.8917
X9.674Y-6.3917
X9.774Y-6.3917
X10.1605Y-5.6782
X10.174Y-6.4317
X10.3494Y-5.5917
X10.359Y-4.6022
X10.374Y-4.7917
X10.374Y-5.0303
X10.374Y-5.1917
X10.374Y-5.8917
X10.4003Y-5.4917
X10.4248Y-5.2917
X10.4248Y-5.8917
X10.4317Y-5.9917
X10.4317Y-6.0917
X10.4494Y-5.1917
X10.474Y-5.0917
X10.4874Y-4.5783
X10.4986Y-5.8917
X10.4986Y-6.3917
X10.5144Y-5.3658
X10.5183Y-5.836
X10.529Y-5.415
X10.6591Y-5.9917
X10.674Y-4.7917
X10.974Y-5.493
X10.974Y-5.9917
X10.974Y-6.0917
X11.174Y-4.5382
X11.2124Y-5.1917
X11.2351Y-4.7917
X11.237Y-5.4917
T2
X11.1898Y-6.2213
X11.1898Y-6.4772
T3
X10.8448Y-4.6378
X10.8448Y-4.7378
X10.8448Y-4.8378
X10.8448Y-4.9378
X10.8448Y-5.0378
X10.8448Y-5.1378
X10.8448Y-5.2378
X10.8448Y-5.3378
X10.8448Y-5.4378
X10.8448Y-5.5378
X10.8448Y-5.6378
X10.8448Y-5.7378
X10.9048Y-4.6378
X10.9048Y-4.8378
X10.9048Y-4.9378
X10.9048Y-5.0378
X10.9048Y-5.1378
X10.9048Y-5.2378
X10.9048Y-5.3378
X10.9048Y-5.4378
X10.9048Y-5.5378
X10.9048Y-5.6378
X10.9048Y-5.7378
X10.905Y-4.7383
T4
X10.7567Y-6.3098
X10.8354Y-6.3098
T5
X10.5748Y-4.6378
X10.5748Y-4.6378
X10.5748Y-4.7378
X10.5748Y-4.8378
X10.5748Y-4.9378
X10.5748Y-5.0378
X10.5748Y-5.1378
X10.5748Y-5.2378
X10.5748Y-5.3378
X10.5748Y-5.4378
X10.5748Y-5.5378
X10.5748Y-5.6378
X10.5748Y-5.7378
X11.1748Y-4.6378
X11.1748Y-4.6378
X11.1748Y-4.7378
X11.1748Y-4.8378
X11.1748Y-4.9378
X11.1748Y-5.0378
X11.1748Y-5.1378
X11.1748Y-5.2378
X11.1748Y-5.3378
X11.1748Y-5.4378
X11.1748Y-5.5378
X11.1748Y-5.6378
X11.1748Y-5.7378
T6
X6.9772Y-5.0028
X6.9772Y-5.672
X6.9772Y-6.3413
X7.174Y-5.0854
X7.174Y-5.0854
X7.174Y-5.7547
X7.174Y-5.7547
X7.174Y-6.424
X7.174Y-6.424
X7.3709Y-5.0028
X7.3709Y-5.672
X7.3709Y-6.3413
X7.6858Y-4.8453
X7.6858Y-5.5146
X7.6858Y-6.1839
X7.8827Y-4.928
X7.8827Y-4.928
X7.8827Y-5.5972
X7.8827Y-5.5972
X7.8827Y-6.2665
X7.8827Y-6.2665
X8.0795Y-4.8453
X8.0795Y-5.5146
X8.0795Y-6.1839
X8.3945Y-4.7665
X8.3945Y-5.4358
X8.3945Y-6.1051
X8.5913Y-4.8492
X8.5913Y-4.8492
X8.5913Y-5.5185
X8.5913Y-5.5185
X8.5913Y-6.1878
X8.5913Y-6.1878
X8.7488Y-6.8531
X8.7882Y-4.7665
X8.7882Y-5.4358
X8.7882Y-6.1051
X8.9457Y-6.9358
X8.9457Y-6.9358
X9.1031Y-4.8453
X9.1031Y-5.5146
X9.1031Y-6.1839
X9.1425Y-6.8531
X9.3Y-4.928
X9.3Y-4.928
X9.3Y-5.5972
X9.3Y-5.5972
X9.3Y-6.2665
X9.3Y-6.2665
X9.4969Y-4.8453
X9.4969Y-5.5146
X9.4969Y-6.1839
X9.4996Y-6.911
X9.6613Y-7.0504
X9.6613Y-7.0504
X9.8118Y-4.924
X9.8118Y-5.5933
X9.8118Y-6.2626
X9.8741Y-7.0326
X10.0087Y-5.0067
X10.0087Y-5.0067
X10.0087Y-5.676
X10.0087Y-5.676
X10.0087Y-6.3453
X10.0087Y-6.3453
X10.1945Y-7.1971
X10.2055Y-4.924
X10.2055Y-5.5933
X10.2055Y-6.2626
X10.3052Y-7.3797
X10.3052Y-7.3797
X10.5131Y-7.4285
T0
M30
