%TF.GenerationSoftware,KiCad,Pcbnew,7.0.9*%
%TF.CreationDate,2023-11-22T09:36:00+00:00*%
%TF.ProjectId,vee_board_routed,7665655f-626f-4617-9264-5f726f757465,v1.0.0*%
%TF.SameCoordinates,Original*%
%TF.FileFunction,Paste,Top*%
%TF.FilePolarity,Positive*%
%FSLAX46Y46*%
G04 Gerber Fmt 4.6, Leading zero omitted, Abs format (unit mm)*
G04 Created by KiCad (PCBNEW 7.0.9) date 2023-11-22 09:36:00*
%MOMM*%
%LPD*%
G01*
G04 APERTURE LIST*
G04 Aperture macros list*
%AMRotRect*
0 Rectangle, with rotation*
0 The origin of the aperture is its center*
0 $1 length*
0 $2 width*
0 $3 Rotation angle, in degrees counterclockwise*
0 Add horizontal line*
21,1,$1,$2,0,0,$3*%
G04 Aperture macros list end*
%ADD10R,2.600000X2.600000*%
%ADD11R,0.800000X1.000000*%
%ADD12R,1.500000X0.700000*%
%ADD13RotRect,2.600000X2.600000X324.000000*%
%ADD14RotRect,2.600000X2.600000X342.000000*%
G04 APERTURE END LIST*
D10*
%TO.C,S11*%
X239495000Y-130320000D03*
X227945000Y-132520000D03*
%TD*%
%TO.C,S4*%
X203495000Y-147320000D03*
X191945000Y-149520000D03*
%TD*%
%TO.C,S9*%
X221495000Y-111320000D03*
X209945000Y-113520000D03*
%TD*%
%TO.C,S12*%
X239495000Y-113320000D03*
X227945000Y-115520000D03*
%TD*%
%TO.C,S5*%
X203495000Y-130320000D03*
X191945000Y-132520000D03*
%TD*%
%TO.C,S1*%
X185495000Y-151320000D03*
X173945000Y-153520000D03*
%TD*%
D11*
%TO.C,T1*%
X283940000Y-155920000D03*
X286150000Y-155920000D03*
D12*
X283290000Y-150020000D03*
D11*
X283940000Y-148620000D03*
X286150000Y-148620000D03*
D12*
X283290000Y-154520000D03*
X283290000Y-151520000D03*
%TD*%
D10*
%TO.C,S2*%
X185495000Y-134320000D03*
X173945000Y-136520000D03*
%TD*%
%TO.C,S8*%
X221495000Y-128320000D03*
X209945000Y-130520000D03*
%TD*%
%TO.C,S13*%
X257495000Y-149320000D03*
X245945000Y-151520000D03*
%TD*%
%TO.C,S16*%
X230495000Y-164320000D03*
X218945000Y-166520000D03*
%TD*%
D13*
%TO.C,S18*%
X271366853Y-179781346D03*
X260729579Y-174772263D03*
%TD*%
D10*
%TO.C,S3*%
X185495000Y-117320000D03*
X173945000Y-119520000D03*
%TD*%
%TO.C,S7*%
X221495000Y-145320000D03*
X209945000Y-147520000D03*
%TD*%
%TO.C,S10*%
X239495000Y-147320000D03*
X227945000Y-149520000D03*
%TD*%
%TO.C,S14*%
X257495000Y-132320000D03*
X245945000Y-134520000D03*
%TD*%
%TO.C,S6*%
X203495000Y-113320000D03*
X191945000Y-115520000D03*
%TD*%
%TO.C,S15*%
X257495000Y-115320000D03*
X245945000Y-117520000D03*
%TD*%
D14*
%TO.C,S17*%
X252173361Y-168823244D03*
X240508821Y-167346422D03*
%TD*%
M02*
