M48
; DRILL file {KiCad 7.0.9} date Wed Nov 22 09:35:41 2023
; FORMAT={-:-/ absolute / inch / decimal}
; #@! TF.CreationDate,2023-11-22T09:35:41+00:00
; #@! TF.GenerationSoftware,Kicad,Pcbnew,7.0.9
; #@! TF.FileFunction,NonPlated,1,2,NPTH
FMAT,2
INCH
; #@! TA.AperFunction,NonPlated,NPTH,ComponentDrill
T1C0.0354
; #@! TA.AperFunction,NonPlated,NPTH,ComponentDrill
T2C0.0670
; #@! TA.AperFunction,NonPlated,NPTH,ComponentDrill
T3C0.1181
; #@! TA.AperFunction,NonPlated,NPTH,ComponentDrill
T4C0.1350
%
G90
G05
T1
X11.2224Y-5.9358
X11.2224Y-5.9358
X11.2224Y-6.0539
X11.2224Y-6.0539
T2
X6.9575Y-4.8531
X6.9575Y-4.8531
X6.9575Y-5.5224
X6.9575Y-5.5224
X6.9575Y-6.1917
X6.9575Y-6.1917
X7.3906Y-4.8531
X7.3906Y-4.8531
X7.3906Y-5.5224
X7.3906Y-5.5224
X7.3906Y-6.1917
X7.3906Y-6.1917
X7.6661Y-4.6957
X7.6661Y-4.6957
X7.6661Y-5.365
X7.6661Y-5.365
X7.6661Y-6.0343
X7.6661Y-6.0343
X8.0992Y-4.6957
X8.0992Y-4.6957
X8.0992Y-5.365
X8.0992Y-5.365
X8.0992Y-6.0343
X8.0992Y-6.0343
X8.3748Y-4.6169
X8.3748Y-4.6169
X8.3748Y-5.2862
X8.3748Y-5.2862
X8.3748Y-5.9555
X8.3748Y-5.9555
X8.7291Y-6.7035
X8.7291Y-6.7035
X8.8079Y-4.6169
X8.8079Y-4.6169
X8.8079Y-5.2862
X8.8079Y-5.2862
X8.8079Y-5.9555
X8.8079Y-5.9555
X9.0835Y-4.6957
X9.0835Y-4.6957
X9.0835Y-5.365
X9.0835Y-5.365
X9.0835Y-6.0343
X9.0835Y-6.0343
X9.1622Y-6.7035
X9.1622Y-6.7035
X9.5165Y-4.6957
X9.5165Y-4.6957
X9.5165Y-5.365
X9.5165Y-5.365
X9.5165Y-6.0343
X9.5165Y-6.0343
X9.5271Y-6.7626
X9.5271Y-6.7626
X9.7921Y-4.7744
X9.7921Y-4.7744
X9.7921Y-5.4437
X9.7921Y-5.4437
X9.7921Y-6.113
X9.7921Y-6.113
X9.939Y-6.8964
X9.939Y-6.8964
X10.2252Y-4.7744
X10.2252Y-4.7744
X10.2252Y-5.4437
X10.2252Y-5.4437
X10.2252Y-6.113
X10.2252Y-6.113
X10.2666Y-7.0645
X10.2666Y-7.0645
X10.6169Y-7.319
X10.6169Y-7.319
T3
X6.9772Y-4.7055
X6.9772Y-5.3748
X6.9772Y-6.0441
X7.174Y-4.6189
X7.174Y-4.6189
X7.174Y-5.2882
X7.174Y-5.2882
X7.174Y-5.9575
X7.174Y-5.9575
X7.3709Y-4.7055
X7.3709Y-5.3748
X7.3709Y-6.0441
X7.6858Y-4.548
X7.6858Y-5.2173
X7.6858Y-5.8866
X7.8827Y-4.4614
X7.8827Y-4.4614
X7.8827Y-5.1307
X7.8827Y-5.1307
X7.8827Y-5.8
X7.8827Y-5.8
X8.0795Y-4.548
X8.0795Y-5.2173
X8.0795Y-5.8866
X8.3945Y-4.4693
X8.3945Y-5.1386
X8.3945Y-5.8079
X8.5913Y-4.3827
X8.5913Y-4.3827
X8.5913Y-5.052
X8.5913Y-5.052
X8.5913Y-5.7213
X8.5913Y-5.7213
X8.7488Y-6.5559
X8.7882Y-4.4693
X8.7882Y-5.1386
X8.7882Y-5.8079
X8.9457Y-6.4693
X8.9457Y-6.4693
X9.1031Y-4.548
X9.1031Y-5.2173
X9.1031Y-5.8866
X9.1425Y-6.5559
X9.3Y-4.4614
X9.3Y-4.4614
X9.3Y-5.1307
X9.3Y-5.1307
X9.3Y-5.8
X9.3Y-5.8
X9.4969Y-4.548
X9.4969Y-5.2173
X9.4969Y-5.8866
X9.5915Y-6.6283
X9.8055Y-6.6067
X9.8055Y-6.6067
X9.8118Y-4.6268
X9.8118Y-5.2961
X9.8118Y-5.9654
X9.9659Y-6.7499
X10.0087Y-4.5402
X10.0087Y-4.5402
X10.0087Y-5.2094
X10.0087Y-5.2094
X10.0087Y-5.8787
X10.0087Y-5.8787
X10.2055Y-4.6268
X10.2055Y-5.2961
X10.2055Y-5.9654
X10.3693Y-6.9566
X10.5794Y-7.0022
X10.5794Y-7.0022
X10.6878Y-7.188
T4
X7.174Y-4.8531
X7.174Y-4.8531
X7.174Y-5.5224
X7.174Y-5.5224
X7.174Y-6.1917
X7.174Y-6.1917
X7.8827Y-4.6957
X7.8827Y-4.6957
X7.8827Y-5.365
X7.8827Y-5.365
X7.8827Y-6.0343
X7.8827Y-6.0343
X8.5913Y-4.6169
X8.5913Y-4.6169
X8.5913Y-5.2862
X8.5913Y-5.2862
X8.5913Y-5.9555
X8.5913Y-5.9555
X8.9457Y-6.7035
X8.9457Y-6.7035
X9.3Y-4.6957
X9.3Y-4.6957
X9.3Y-5.365
X9.3Y-5.365
X9.3Y-6.0343
X9.3Y-6.0343
X9.7331Y-6.8295
X9.7331Y-6.8295
X10.0087Y-4.7744
X10.0087Y-4.7744
X10.0087Y-5.4437
X10.0087Y-5.4437
X10.0087Y-6.113
X10.0087Y-6.113
X10.4417Y-7.1917
X10.4417Y-7.1917
T0
M30
