%TF.GenerationSoftware,KiCad,Pcbnew,7.0.9*%
%TF.CreationDate,2023-11-22T09:36:00+00:00*%
%TF.ProjectId,vee_board_routed,7665655f-626f-4617-9264-5f726f757465,v1.0.0*%
%TF.SameCoordinates,Original*%
%TF.FileFunction,Legend,Bot*%
%TF.FilePolarity,Positive*%
%FSLAX46Y46*%
G04 Gerber Fmt 4.6, Leading zero omitted, Abs format (unit mm)*
G04 Created by KiCad (PCBNEW 7.0.9) date 2023-11-22 09:36:00*
%MOMM*%
%LPD*%
G01*
G04 APERTURE LIST*
%ADD10C,0.500000*%
%ADD11C,0.150000*%
%ADD12C,0.200000*%
%ADD13C,0.120000*%
G04 APERTURE END LIST*
D10*
X278594862Y-167082095D02*
X276928195Y-172082095D01*
X276928195Y-172082095D02*
X275261529Y-167082095D01*
X274785339Y-172558285D02*
X270975815Y-172558285D01*
D11*
X208978458Y-163253152D02*
X208740363Y-163919819D01*
X208740363Y-163919819D02*
X208502268Y-163253152D01*
X207740363Y-163872200D02*
X207835601Y-163919819D01*
X207835601Y-163919819D02*
X208026077Y-163919819D01*
X208026077Y-163919819D02*
X208121315Y-163872200D01*
X208121315Y-163872200D02*
X208168934Y-163776961D01*
X208168934Y-163776961D02*
X208168934Y-163396009D01*
X208168934Y-163396009D02*
X208121315Y-163300771D01*
X208121315Y-163300771D02*
X208026077Y-163253152D01*
X208026077Y-163253152D02*
X207835601Y-163253152D01*
X207835601Y-163253152D02*
X207740363Y-163300771D01*
X207740363Y-163300771D02*
X207692744Y-163396009D01*
X207692744Y-163396009D02*
X207692744Y-163491247D01*
X207692744Y-163491247D02*
X208168934Y-163586485D01*
X206883220Y-163872200D02*
X206978458Y-163919819D01*
X206978458Y-163919819D02*
X207168934Y-163919819D01*
X207168934Y-163919819D02*
X207264172Y-163872200D01*
X207264172Y-163872200D02*
X207311791Y-163776961D01*
X207311791Y-163776961D02*
X207311791Y-163396009D01*
X207311791Y-163396009D02*
X207264172Y-163300771D01*
X207264172Y-163300771D02*
X207168934Y-163253152D01*
X207168934Y-163253152D02*
X206978458Y-163253152D01*
X206978458Y-163253152D02*
X206883220Y-163300771D01*
X206883220Y-163300771D02*
X206835601Y-163396009D01*
X206835601Y-163396009D02*
X206835601Y-163491247D01*
X206835601Y-163491247D02*
X207311791Y-163586485D01*
X206645125Y-164015057D02*
X205883220Y-164015057D01*
X205645124Y-163919819D02*
X205645124Y-162919819D01*
X205645124Y-163300771D02*
X205549886Y-163253152D01*
X205549886Y-163253152D02*
X205359410Y-163253152D01*
X205359410Y-163253152D02*
X205264172Y-163300771D01*
X205264172Y-163300771D02*
X205216553Y-163348390D01*
X205216553Y-163348390D02*
X205168934Y-163443628D01*
X205168934Y-163443628D02*
X205168934Y-163729342D01*
X205168934Y-163729342D02*
X205216553Y-163824580D01*
X205216553Y-163824580D02*
X205264172Y-163872200D01*
X205264172Y-163872200D02*
X205359410Y-163919819D01*
X205359410Y-163919819D02*
X205549886Y-163919819D01*
X205549886Y-163919819D02*
X205645124Y-163872200D01*
X204597505Y-163919819D02*
X204692743Y-163872200D01*
X204692743Y-163872200D02*
X204740362Y-163824580D01*
X204740362Y-163824580D02*
X204787981Y-163729342D01*
X204787981Y-163729342D02*
X204787981Y-163443628D01*
X204787981Y-163443628D02*
X204740362Y-163348390D01*
X204740362Y-163348390D02*
X204692743Y-163300771D01*
X204692743Y-163300771D02*
X204597505Y-163253152D01*
X204597505Y-163253152D02*
X204454648Y-163253152D01*
X204454648Y-163253152D02*
X204359410Y-163300771D01*
X204359410Y-163300771D02*
X204311791Y-163348390D01*
X204311791Y-163348390D02*
X204264172Y-163443628D01*
X204264172Y-163443628D02*
X204264172Y-163729342D01*
X204264172Y-163729342D02*
X204311791Y-163824580D01*
X204311791Y-163824580D02*
X204359410Y-163872200D01*
X204359410Y-163872200D02*
X204454648Y-163919819D01*
X204454648Y-163919819D02*
X204597505Y-163919819D01*
X203407029Y-163919819D02*
X203407029Y-163396009D01*
X203407029Y-163396009D02*
X203454648Y-163300771D01*
X203454648Y-163300771D02*
X203549886Y-163253152D01*
X203549886Y-163253152D02*
X203740362Y-163253152D01*
X203740362Y-163253152D02*
X203835600Y-163300771D01*
X203407029Y-163872200D02*
X203502267Y-163919819D01*
X203502267Y-163919819D02*
X203740362Y-163919819D01*
X203740362Y-163919819D02*
X203835600Y-163872200D01*
X203835600Y-163872200D02*
X203883219Y-163776961D01*
X203883219Y-163776961D02*
X203883219Y-163681723D01*
X203883219Y-163681723D02*
X203835600Y-163586485D01*
X203835600Y-163586485D02*
X203740362Y-163538866D01*
X203740362Y-163538866D02*
X203502267Y-163538866D01*
X203502267Y-163538866D02*
X203407029Y-163491247D01*
X202930838Y-163919819D02*
X202930838Y-163253152D01*
X202930838Y-163443628D02*
X202883219Y-163348390D01*
X202883219Y-163348390D02*
X202835600Y-163300771D01*
X202835600Y-163300771D02*
X202740362Y-163253152D01*
X202740362Y-163253152D02*
X202645124Y-163253152D01*
X201883219Y-163919819D02*
X201883219Y-162919819D01*
X201883219Y-163872200D02*
X201978457Y-163919819D01*
X201978457Y-163919819D02*
X202168933Y-163919819D01*
X202168933Y-163919819D02*
X202264171Y-163872200D01*
X202264171Y-163872200D02*
X202311790Y-163824580D01*
X202311790Y-163824580D02*
X202359409Y-163729342D01*
X202359409Y-163729342D02*
X202359409Y-163443628D01*
X202359409Y-163443628D02*
X202311790Y-163348390D01*
X202311790Y-163348390D02*
X202264171Y-163300771D01*
X202264171Y-163300771D02*
X202168933Y-163253152D01*
X202168933Y-163253152D02*
X201978457Y-163253152D01*
X201978457Y-163253152D02*
X201883219Y-163300771D01*
X208883220Y-165529819D02*
X208883220Y-164529819D01*
X208883220Y-164910771D02*
X208787982Y-164863152D01*
X208787982Y-164863152D02*
X208597506Y-164863152D01*
X208597506Y-164863152D02*
X208502268Y-164910771D01*
X208502268Y-164910771D02*
X208454649Y-164958390D01*
X208454649Y-164958390D02*
X208407030Y-165053628D01*
X208407030Y-165053628D02*
X208407030Y-165339342D01*
X208407030Y-165339342D02*
X208454649Y-165434580D01*
X208454649Y-165434580D02*
X208502268Y-165482200D01*
X208502268Y-165482200D02*
X208597506Y-165529819D01*
X208597506Y-165529819D02*
X208787982Y-165529819D01*
X208787982Y-165529819D02*
X208883220Y-165482200D01*
X208073696Y-164863152D02*
X207835601Y-165529819D01*
X207597506Y-164863152D02*
X207835601Y-165529819D01*
X207835601Y-165529819D02*
X207930839Y-165767914D01*
X207930839Y-165767914D02*
X207978458Y-165815533D01*
X207978458Y-165815533D02*
X208073696Y-165863152D01*
X206549886Y-164863152D02*
X206311791Y-165529819D01*
X206311791Y-165529819D02*
X206073696Y-164863152D01*
X205930839Y-165625057D02*
X205168934Y-165625057D01*
X205026076Y-164529819D02*
X204359410Y-164529819D01*
X204359410Y-164529819D02*
X205026076Y-165529819D01*
X205026076Y-165529819D02*
X204359410Y-165529819D01*
X203549886Y-165529819D02*
X203549886Y-165006009D01*
X203549886Y-165006009D02*
X203597505Y-164910771D01*
X203597505Y-164910771D02*
X203692743Y-164863152D01*
X203692743Y-164863152D02*
X203883219Y-164863152D01*
X203883219Y-164863152D02*
X203978457Y-164910771D01*
X203549886Y-165482200D02*
X203645124Y-165529819D01*
X203645124Y-165529819D02*
X203883219Y-165529819D01*
X203883219Y-165529819D02*
X203978457Y-165482200D01*
X203978457Y-165482200D02*
X204026076Y-165386961D01*
X204026076Y-165386961D02*
X204026076Y-165291723D01*
X204026076Y-165291723D02*
X203978457Y-165196485D01*
X203978457Y-165196485D02*
X203883219Y-165148866D01*
X203883219Y-165148866D02*
X203645124Y-165148866D01*
X203645124Y-165148866D02*
X203549886Y-165101247D01*
X203073695Y-165529819D02*
X203073695Y-164529819D01*
X202978457Y-165148866D02*
X202692743Y-165529819D01*
X202692743Y-164863152D02*
X203073695Y-165244104D01*
D12*
%TO.C,S37*%
X282170000Y-164370000D02*
X282170000Y-158170000D01*
X283120000Y-164370000D02*
X282170000Y-164370000D01*
X285320000Y-164370000D02*
X286270000Y-164370000D01*
X286270000Y-164370000D02*
X286270000Y-158170000D01*
X282170000Y-158170000D02*
X283120000Y-158170000D01*
X286270000Y-158170000D02*
X285320000Y-158170000D01*
X285520000Y-158670000D02*
G75*
G03*
X285520000Y-158670000I-100000J0D01*
G01*
D11*
%TO.C,MCU1*%
X282570000Y-116530000D02*
X285110000Y-116530000D01*
X282570000Y-116530000D02*
X282570000Y-119070000D01*
X285110000Y-119070000D02*
X285110000Y-116530000D01*
X282570000Y-119070000D02*
X285110000Y-119070000D01*
D13*
%TO.C,_1*%
X277280000Y-161730000D02*
X277280000Y-153910000D01*
X277280000Y-160130000D02*
X276360000Y-160130000D01*
X277280000Y-153910000D02*
X271160000Y-153910000D01*
X276520000Y-157770000D02*
X276520000Y-156170000D01*
X276520000Y-156170000D02*
X275520000Y-156170000D01*
X276360000Y-161730000D02*
X277280000Y-161730000D01*
X276360000Y-160130000D02*
X276360000Y-161730000D01*
X276080000Y-160130000D02*
X276360000Y-160130000D01*
X276080000Y-160130000D02*
X276080000Y-161345000D01*
X276020000Y-156170000D02*
X276020000Y-153910000D01*
X275520000Y-157770000D02*
X276520000Y-157770000D01*
X275520000Y-156170000D02*
X275520000Y-157770000D01*
X275520000Y-156170000D02*
X275520000Y-153910000D01*
X274720000Y-158270000D02*
X273720000Y-158270000D01*
X274720000Y-153910000D02*
X274720000Y-158270000D01*
X273720000Y-158270000D02*
X273720000Y-153910000D01*
X272920000Y-157770000D02*
X271920000Y-157770000D01*
X272920000Y-156170000D02*
X272920000Y-157770000D01*
X272080000Y-161730000D02*
X272080000Y-160130000D01*
X272080000Y-160130000D02*
X272360000Y-160130000D01*
X271920000Y-157770000D02*
X271920000Y-156170000D01*
X271920000Y-156170000D02*
X272920000Y-156170000D01*
X271160000Y-161730000D02*
X272080000Y-161730000D01*
X271160000Y-160130000D02*
X272080000Y-160130000D01*
X271160000Y-153910000D02*
X271160000Y-161730000D01*
%TD*%
M02*
